<svg width="24" height="25" viewBox="0 0 24 25" fill="none" xmlns="http://www.w3.org/2000/svg">
<g clip-path="url(#clip0_828_408)">
<path d="M9.68388 23.8978C7.58467 23.4631 5.62586 22.4934 4.08811 21.1277C0.140317 17.6215 -1.07976 12.1135 1.00577 7.21256C1.51792 6.00902 2.35054 4.7876 3.38218 3.72647L4.29169 2.79096L4.35584 8.26647C4.41724 13.5075 4.43108 13.7715 4.679 14.432C5.17498 15.7533 5.7067 16.5945 6.62206 17.5061C8.98659 19.8609 12.4549 20.4486 15.4033 18.994C18.1745 17.6268 19.9216 14.654 19.7186 11.6512C19.5822 9.63417 18.9039 8.1551 17.4394 6.68142C16.332 5.5671 15.0291 4.83922 13.6106 4.54243C12.1674 4.24047 12.2367 4.19635 12.2367 5.41791V6.47253L13.0279 6.61831C16.092 7.18289 18.1185 10.1918 17.4798 13.2283C17.2759 14.1982 16.8209 15.0546 16.0905 15.8435C14.9805 17.0424 13.4189 17.6154 12.0554 17.6128C9.80071 17.6084 7.91803 16.3272 7.00555 14.4326C7.00555 14.4326 6.76652 13.891 6.6897 13.5564C6.23796 11.5883 6.52671 7.44546 6.52671 7.44546L6.49173 1.38789L6.84933 1.20296C7.04601 1.10126 7.23464 1.01804 7.26851 1.01804C7.30238 1.01804 7.34537 3.80028 7.36405 7.2008C7.36405 7.2008 6.92979 11.6584 7.46643 13.3666C7.54386 13.6131 7.69085 14.0347 7.69085 14.0347C8.16127 14.9931 8.91524 15.8361 9.89488 16.3001C10.6385 16.6524 11.0129 16.8118 12.1131 16.8118C12.8319 16.8118 13.4687 16.5849 14.2014 16.2479C15.0652 15.8506 16.056 14.7974 16.4222 13.8357C17.431 11.1862 16.0263 8.3356 13.3201 7.54074C12.2141 7.21589 12.2367 7.198 12.2367 8.40063V9.45111L12.7676 9.5931C14.6812 10.1049 15.2651 12.6699 13.7629 13.9879C13.2321 14.4535 12.7539 14.6593 11.9172 14.6593C11.0232 14.6593 10.1651 14.1182 9.72397 13.2883C9.45897 12.7898 9.4366 12.3169 9.4366 12.1003C9.4366 10.0998 9.39327 6.50183 9.39327 6.50183L9.35748 0.330075L9.63221 0.261838C9.78332 0.224306 10.3941 0.131439 10.9894 0.0554659C13.0085 -0.202192 15.9956 0.458571 18.0024 1.60677C20.7383 3.17216 22.8085 5.86127 23.6705 8.96946C23.967 10.0386 24 10.3495 24 12.0694C24 13.7815 23.9662 14.1027 23.676 15.1485C22.5037 19.3729 19.5215 22.3928 15.2575 23.6735C14.3601 23.9431 13.9397 23.9945 12.3562 24.0282C11.0783 24.0555 10.25 24.0151 9.68388 23.8978Z" fill="#8A8A8A"/>
</g>
<defs>
<clipPath id="clip0_828_408">
<rect width="24" height="24.0364" fill="white"/>
</clipPath>
</defs>
</svg>
