<svg width="24" height="24" viewBox="0 0 24 24" fill="none" xmlns="http://www.w3.org/2000/svg">
<path d="M11.5849 4.77842C13.4171 4.77842 15.1436 5.59064 16.4088 6.86035V6.8641C16.4088 6.25437 16.819 5.79314 17.386 5.79314H17.53C18.4247 5.79314 18.604 6.63686 18.604 6.9031L18.6077 16.3791C18.5455 17 19.2489 17.321 19.6397 16.922C21.1584 15.3598 22.9786 8.88304 18.694 5.13316C14.6981 1.63302 9.33501 2.21125 6.4836 4.17619C3.45294 6.27012 1.51575 10.8952 3.39744 15.2421C5.45238 19.9812 11.3269 21.3949 14.8233 19.9849C16.5933 19.2702 17.4092 21.6596 15.5696 22.4419C12.7969 23.6246 5.06989 23.5038 1.46101 17.2543C-0.977166 13.0327 -0.848171 5.60639 5.62112 1.75902C10.5657 -1.18614 17.0898 -0.370166 21.0226 3.73595C25.1325 8.03257 24.8948 16.0716 20.8824 19.1967C19.0652 20.6179 16.3668 19.2357 16.3863 17.165L16.366 16.49C15.1008 17.7433 13.4171 18.4782 11.5849 18.4782C7.9603 18.4782 4.76915 15.2863 4.76915 11.6655C4.76915 8.00557 7.9603 4.77992 11.5849 4.77992V4.77842ZM16.144 11.4037C16.0068 8.75104 14.0381 7.15359 11.6592 7.15359H11.5692C8.82727 7.15359 7.30407 9.31353 7.30407 11.7622C7.30407 14.5079 9.14376 16.2418 11.5579 16.2418C14.2526 16.2418 16.0218 14.2701 16.1508 11.9377L16.144 11.4037Z" fill="#8A8A8A"/>
</svg>
