<svg width="60" height="60" viewBox="0 0 60 60" fill="none" xmlns="http://www.w3.org/2000/svg">
<g clip-path="url(#clip0_187_20501)">
<path d="M53.3811 54.4771H6.61846C6.01313 54.4771 5.52246 53.9865 5.52246 53.3811V6.61846C5.52246 6.01313 6.01313 5.52246 6.61846 5.52246H53.3811C53.9865 5.52246 54.4771 6.01313 54.4771 6.61846V53.3811C54.4771 53.9865 53.9865 54.4771 53.3811 54.4771Z" fill="#86B5FB"/>
<path d="M46.8025 59.9999C46.0065 59.9999 45.2598 59.5739 44.8545 58.8886L43.1052 55.9299C39.5085 49.8492 36.1112 44.1059 34.9405 41.7572C34.0532 39.9372 33.6045 37.9906 33.6045 35.9659C33.6045 28.6886 39.5252 22.7686 46.8025 22.7686C54.0792 22.7686 59.9998 28.6892 59.9998 35.9659C59.9998 37.9879 59.5538 39.9299 58.6738 41.7379L58.6378 41.8072C57.4438 44.1906 54.0692 49.8939 50.4972 55.9319L48.7505 58.8892C48.3452 59.5739 47.5985 59.9999 46.8025 59.9999ZM46.8025 24.1019C40.2605 24.1019 34.9378 29.4239 34.9378 35.9659C34.9378 37.7852 35.3412 39.5352 36.1365 41.1672C37.2832 43.4672 40.6692 49.1912 44.2532 55.2512L46.0025 58.2099C46.1685 58.4912 46.4752 58.6666 46.8025 58.6666C47.1292 58.6666 47.4358 58.4912 47.6025 58.2099L49.3492 55.2526C52.9098 49.2352 56.2725 43.5512 57.4465 41.2092C58.2658 39.5292 58.6665 37.7839 58.6665 35.9659C58.6665 29.4239 53.3445 24.1019 46.8025 24.1019Z" fill="black"/>
<path d="M46.8026 43.0408C45.1586 43.0408 43.56 42.4601 42.3006 41.4061C42.018 41.1701 41.9813 40.7495 42.2173 40.4675C42.4526 40.1855 42.874 40.1468 43.156 40.3841C44.176 41.2375 45.4713 41.7075 46.8026 41.7075C49.936 41.7075 52.4846 39.1581 52.4846 36.0248C52.4846 32.8915 49.936 30.3421 46.8026 30.3421C43.6693 30.3421 41.12 32.8915 41.12 36.0248C41.12 36.3935 40.822 36.6915 40.4533 36.6915C40.0846 36.6915 39.7866 36.3935 39.7866 36.0248C39.7866 32.1561 42.9346 29.0088 46.8026 29.0088C50.6706 29.0088 53.818 32.1568 53.818 36.0248C53.818 39.8928 50.6713 43.0408 46.8026 43.0408Z" fill="black"/>
<path d="M59.3334 23.06C58.9647 23.06 58.6667 22.7613 58.6667 22.3933V1.33333H38.1427C37.7741 1.33333 37.4761 1.03467 37.4761 0.666667C37.4761 0.298667 37.7741 0 38.1427 0H59.3334C59.7021 0 60.0001 0.298667 60.0001 0.666667V22.3933C60.0001 22.762 59.7021 23.06 59.3334 23.06Z" fill="black"/>
<path d="M37.8033 60H0.666667C0.298667 60 0 59.702 0 59.3333V0.666667C0 0.298667 0.298667 0 0.666667 0H15.1913C15.5593 0 15.858 0.298667 15.858 0.666667C15.858 1.03467 15.5593 1.33333 15.1913 1.33333H1.33333V58.6667H37.8033C38.172 58.6667 38.47 58.9647 38.47 59.3333C38.47 59.702 38.172 60 37.8033 60Z" fill="black"/>
<path d="M38.1427 17.618C38.0021 17.618 37.8627 17.574 37.7454 17.4867L30.0001 11.736L22.2554 17.4867C22.0534 17.638 21.7834 17.6607 21.5587 17.5473C21.3334 17.434 21.1914 17.2033 21.1914 16.9513V0.666667C21.1914 0.298667 21.4901 0 21.8581 0H30.0001C30.3681 0 30.6667 0.298667 30.6667 0.666667C30.6667 1.03467 30.3681 1.33333 30.0001 1.33333H22.5247V15.626L29.6027 10.3707C29.8387 10.1953 30.1614 10.1953 30.3974 10.3707L37.4761 15.626V0.666667C37.4761 0.298667 37.7741 0 38.1427 0C38.5114 0 38.8094 0.298667 38.8094 0.666667V16.9513C38.8094 17.2033 38.6674 17.434 38.4421 17.5473C38.3474 17.5947 38.2447 17.618 38.1427 17.618Z" fill="black"/>
<path d="M20.3868 45.7035H9.32145C8.95345 45.7035 8.65479 45.4055 8.65479 45.0368C8.65479 44.6681 8.95345 44.3701 9.32145 44.3701H20.3868C20.7548 44.3701 21.0535 44.6681 21.0535 45.0368C21.0535 45.4055 20.7548 45.7035 20.3868 45.7035Z" fill="black"/>
<path d="M20.3868 51.7484H9.32145C8.95345 51.7484 8.65479 51.4504 8.65479 51.0817C8.65479 50.713 8.95345 50.415 9.32145 50.415H20.3868C20.7548 50.415 21.0535 50.713 21.0535 51.0817C21.0535 51.4504 20.7548 51.7484 20.3868 51.7484Z" fill="black"/>
<path d="M46.8025 59.9999C46.0065 59.9999 45.2598 59.5739 44.8545 58.8886L43.1052 55.9299C39.5085 49.8492 36.1112 44.1059 34.9405 41.7572C34.0532 39.9372 33.6045 37.9906 33.6045 35.9659C33.6045 28.6886 39.5252 22.7686 46.8025 22.7686C54.0792 22.7686 59.9998 28.6892 59.9998 35.9659C59.9998 37.9879 59.5538 39.9299 58.6738 41.7379L58.6378 41.8072C57.4438 44.1906 54.0692 49.8939 50.4972 55.9319L48.7505 58.8892C48.3452 59.5739 47.5985 59.9999 46.8025 59.9999ZM46.8025 24.1019C40.2605 24.1019 34.9378 29.4239 34.9378 35.9659C34.9378 37.7852 35.3412 39.5352 36.1365 41.1672C37.2832 43.4672 40.6692 49.1912 44.2532 55.2512L46.0025 58.2099C46.1685 58.4912 46.4752 58.6666 46.8025 58.6666C47.1292 58.6666 47.4358 58.4912 47.6025 58.2099L49.3492 55.2526C52.9098 49.2352 56.2725 43.5512 57.4465 41.2092C58.2658 39.5292 58.6665 37.7839 58.6665 35.9659C58.6665 29.4239 53.3445 24.1019 46.8025 24.1019Z" fill="black"/>
</g>
<defs>
<clipPath id="clip0_187_20501">
<rect width="60" height="60" fill="white"/>
</clipPath>
</defs>
</svg>
