<svg width="65" height="65" viewBox="0 0 65 65" fill="none" xmlns="http://www.w3.org/2000/svg">
<g clip-path="url(#clip0_187_20519)">
<path d="M32.5001 53.548C45.4634 53.548 55.9723 43.0391 55.9723 30.0757C55.9723 17.1124 45.4634 6.60352 32.5001 6.60352C19.5367 6.60352 9.02783 17.1124 9.02783 30.0757C9.02783 43.0391 19.5367 53.548 32.5001 53.548Z" fill="#86B5FB"/>
<path d="M42.9782 33.7204C42.862 33.7204 42.7457 33.6923 42.6388 33.6352C42.4033 33.5103 42.256 33.2647 42.256 32.9982V28.1066H38.356C37.9566 28.1066 37.6338 27.783 37.6338 27.3844V10.0474C37.6338 9.64875 37.9566 9.3252 38.356 9.3252H64.278C64.6774 9.3252 65.0002 9.64875 65.0002 10.0474V27.3844C65.0002 27.783 64.6774 28.1066 64.278 28.1066H51.5373L43.3812 33.5976C43.2599 33.6793 43.1191 33.7197 42.9782 33.7204ZM39.0775 26.6621H42.9775C43.3769 26.6621 43.6997 26.9857 43.6997 27.3844V31.6419L50.9126 26.7856C51.0317 26.7055 51.1718 26.6629 51.3163 26.6629H63.5558V10.7696H39.0775V26.6621Z" fill="black"/>
<path d="M46.2803 64.7255H18.9146C18.5159 64.7255 18.1924 64.4027 18.1924 64.0033V45.7007C18.1924 45.3013 18.5159 44.9785 18.9146 44.9785H46.2803C46.6797 44.9785 47.0026 45.3013 47.0026 45.7007V64.0033C47.0026 64.4027 46.6797 64.7255 46.2803 64.7255ZM19.6368 63.2811H45.5581V46.423H19.6368V63.2811Z" fill="black"/>
<path d="M32.5973 58.7033C32.4247 58.7033 32.2521 58.6419 32.1149 58.5184L22.9282 50.2735C22.6314 50.007 22.6068 49.5506 22.8733 49.2537C23.1384 48.9576 23.5956 48.9309 23.8931 49.1989L32.5973 57.0104L41.3016 49.1989C41.5977 48.9324 42.0548 48.9562 42.3213 49.2537C42.5878 49.5506 42.5633 50.007 42.2664 50.2735L33.0798 58.5184C32.9426 58.6419 32.7699 58.7033 32.5973 58.7033Z" fill="black"/>
<path d="M19.8766 33.7205C15.7481 33.7205 11.0916 31.3174 6.7608 26.9542C2.35919 22.585 -0.0438944 17.888 0.000607178 13.7312C0.0248808 11.3564 0.860297 9.26887 2.34908 7.85089C2.42797 7.772 2.52506 7.68502 2.62418 7.6041C2.71925 7.52319 2.81837 7.45037 2.91951 7.37957C3.05504 7.2845 3.15011 7.22786 3.2472 7.17122C3.25125 7.1692 3.31395 7.13077 3.318 7.13077C3.41105 7.0802 3.5041 7.0357 3.59715 6.9912L3.69829 6.94467C3.78527 6.90826 3.87427 6.87387 3.96529 6.84151L4.07857 6.80307C4.16555 6.77476 4.25658 6.75048 4.3476 6.72621L4.47504 6.69384C4.56607 6.67766 4.649 6.6635 4.73396 6.64934L4.88365 6.62911C4.96456 6.619 5.04749 6.61091 5.13043 6.60484L5.4298 6.59473L5.53094 6.59675C5.58758 6.59675 5.64624 6.59877 5.7049 6.60282C5.78177 6.60889 5.85661 6.61293 5.93146 6.62305C5.99416 6.62911 6.05282 6.63923 6.11351 6.64934C6.18228 6.65946 6.25308 6.67159 6.3259 6.68778L6.49986 6.73025C6.60707 6.75857 6.66371 6.77273 6.72237 6.79094C6.78508 6.81117 6.84374 6.83139 6.9024 6.85364C7.00556 6.89006 7.05816 6.91028 7.11075 6.93253C7.17346 6.95883 7.23819 6.98917 7.30089 7.01951C7.39192 7.05997 7.43642 7.08222 7.48092 7.10447C7.54363 7.13684 7.60229 7.17325 7.66297 7.20966L7.72973 7.25011L7.83896 7.31687C7.91178 7.36541 7.97651 7.41396 8.03921 7.46453C8.04528 7.46858 8.17676 7.56769 8.18283 7.57174C8.29611 7.66681 8.40332 7.76188 8.50648 7.86302L10.8347 10.1913C10.9399 10.2965 11.037 10.4057 11.128 10.5169C11.1483 10.5412 11.1725 10.5736 11.1968 10.6059C11.2818 10.7192 11.3344 10.788 11.3809 10.8588C11.4031 10.8912 11.4274 10.9336 11.4517 10.9741L11.4921 11.0429C11.5285 11.1015 11.5629 11.1602 11.5953 11.2209C11.6175 11.2633 11.6418 11.3139 11.6661 11.3645C11.7187 11.4757 11.747 11.5344 11.7733 11.5951C11.7935 11.6457 11.8117 11.6962 11.8299 11.7468L11.8562 11.8196C11.8765 11.8722 11.8947 11.9268 11.9109 11.9794C11.9291 12.0381 11.9452 12.1008 11.9614 12.1635C11.9877 12.2606 12.0019 12.3172 12.014 12.3739C12.0282 12.4447 12.0403 12.5155 12.0524 12.5863C12.0626 12.649 12.0707 12.7076 12.0787 12.7683C12.0868 12.8452 12.0929 12.922 12.099 12.9969C12.103 13.0535 12.105 13.1122 12.1071 13.1708C12.1071 13.2518 12.1071 13.3307 12.105 13.4095L12.097 13.5673C12.0929 13.6523 12.0848 13.7352 12.0747 13.8181L12.0524 13.9678C12.0403 14.0528 12.0241 14.1377 12.0039 14.2247L11.9715 14.3603C11.9513 14.4432 11.927 14.5322 11.8987 14.6192C11.8967 14.6273 11.8704 14.7021 11.8664 14.7122C11.8259 14.8295 11.7915 14.9206 11.7531 15.0116C11.749 15.0177 11.7227 15.0763 11.7187 15.0824C11.6661 15.1977 11.6216 15.2907 11.571 15.3818C11.567 15.3919 11.5407 15.4364 11.5346 15.4445C11.4719 15.5517 11.4153 15.6468 11.3526 15.7398C11.2474 15.8875 11.1746 15.9846 11.0957 16.0796C11.0148 16.1767 10.9278 16.2738 10.8347 16.3669L9.40663 17.795L15.9241 24.3124L17.3542 22.8823C17.4473 22.7893 17.5444 22.7043 17.6414 22.6214C17.7365 22.5425 17.8356 22.4697 17.9348 22.3989C18.0703 22.3038 18.1674 22.2451 18.2624 22.1905C18.2665 22.1885 18.3332 22.148 18.3393 22.146C18.4283 22.0975 18.5214 22.053 18.6144 22.0105L18.7034 21.968C18.8005 21.9276 18.8915 21.8932 18.9826 21.8608L19.0958 21.8224C19.1848 21.794 19.2759 21.7698 19.3649 21.7455L19.5004 21.7131C19.5793 21.6949 19.6663 21.6808 19.7512 21.6666L19.8948 21.6464C19.9838 21.6363 20.0668 21.6282 20.1497 21.6221L20.4491 21.612L20.7161 21.6221C20.799 21.6282 20.8739 21.6342 20.9487 21.6423C21.0114 21.6484 21.0701 21.6585 21.1308 21.6686C21.2016 21.6787 21.2724 21.6909 21.3432 21.705C21.4119 21.7192 21.4706 21.7354 21.5313 21.7516C21.6142 21.7718 21.679 21.79 21.7417 21.8102C21.8044 21.8305 21.8671 21.8527 21.9318 21.877C22.0228 21.9093 22.0734 21.9275 22.126 21.9498C22.1907 21.9761 22.2534 22.0064 22.3182 22.0368C22.4051 22.0772 22.4537 22.1015 22.4982 22.1258C22.5589 22.1582 22.6175 22.1925 22.6762 22.2289L22.745 22.2694L22.8582 22.3402C22.927 22.3867 22.9958 22.4373 23.0625 22.4899C23.0686 22.496 23.1961 22.591 23.2021 22.5951C23.3114 22.6861 23.4186 22.7812 23.5217 22.8843L25.85 25.2126C25.9531 25.3157 26.0502 25.425 26.1413 25.5342C26.1655 25.5645 26.1898 25.5969 26.212 25.6273C26.297 25.7385 26.3476 25.8073 26.3941 25.8761C26.4184 25.9104 26.4426 25.9509 26.4669 25.9934L26.5114 26.0682C26.5458 26.1249 26.5782 26.1795 26.6085 26.2381C26.6308 26.2806 26.653 26.3251 26.6732 26.3696C26.7299 26.489 26.7602 26.5496 26.7845 26.6124C26.8068 26.6649 26.827 26.7196 26.8452 26.7722C26.8836 26.8753 26.9038 26.934 26.9221 26.9926C26.9423 27.0594 26.9585 27.1241 26.9767 27.1889C26.9949 27.2637 27.0111 27.3244 27.0252 27.3851C27.0414 27.4619 27.0535 27.5347 27.0636 27.6076L27.0899 27.7876C27.098 27.8645 27.1041 27.9413 27.1102 28.0182C27.1142 28.0728 27.1162 28.1315 27.1183 28.1901C27.1203 28.269 27.1203 28.3479 27.1162 28.4288L27.1081 28.5866C27.1021 28.6716 27.094 28.7545 27.0839 28.8374L27.0616 28.9891C27.0495 29.0701 27.0333 29.155 27.0151 29.242L26.9888 29.3553C26.9605 29.4665 26.9362 29.5555 26.9079 29.6425C26.9059 29.6486 26.8816 29.7194 26.8796 29.7254C26.8371 29.8468 26.8027 29.9378 26.7643 30.0289C26.7602 30.037 26.736 30.0896 26.7319 30.0976C26.6773 30.219 26.6308 30.3121 26.5802 30.4031C26.5762 30.4112 26.5478 30.4597 26.5438 30.4678C26.4811 30.575 26.4244 30.6681 26.3617 30.7611C26.2586 30.9088 26.1858 31.0059 26.1069 31.0989C26.0259 31.198 25.939 31.2951 25.8459 31.3862C24.4259 32.8871 22.2979 33.7205 19.8766 33.7205ZM25.5405 29.1975C25.5587 29.1388 25.5749 29.0781 25.591 29.0175L25.6133 28.9244C25.6234 28.8738 25.6355 28.8172 25.6436 28.7585L25.6578 28.6615C25.6639 28.6028 25.6699 28.5482 25.674 28.4915L25.6801 28.3884C25.6821 28.3277 25.6821 28.2751 25.6801 28.2225L25.674 28.1092C25.6699 28.0566 25.6679 28.0061 25.6618 27.9555L25.6436 27.8341C25.6355 27.7795 25.6275 27.733 25.6173 27.6865L25.405 27.0553C25.4029 27.0533 25.3726 26.9845 25.3706 26.9825L25.3382 26.9158L25.2249 26.7236C25.1663 26.6326 25.1339 26.5901 25.1015 26.5496L25.0449 26.4748C24.966 26.3757 24.9013 26.3029 24.8325 26.2341L22.5043 23.9058C22.4355 23.8371 22.3627 23.7723 22.2878 23.7117L22.2049 23.649C22.1482 23.6045 22.1058 23.5721 22.0633 23.5438C22.0592 23.5417 21.9642 23.4851 21.9601 23.4811L21.1935 23.1554L20.7808 23.0765C20.7303 23.0704 20.6777 23.0664 20.6271 23.0644L20.5138 23.0583L20.2428 23.0644C20.1881 23.0684 20.1315 23.0745 20.0749 23.0805L19.9778 23.0947C19.9191 23.1048 19.8625 23.1149 19.8038 23.1271L19.735 23.1433C19.6582 23.1635 19.5995 23.1797 19.5409 23.1979L19.466 23.2242C19.4033 23.2464 19.3406 23.2687 19.2799 23.295C19.1565 23.3516 19.0938 23.3819 19.0331 23.4163C18.9219 23.4811 18.8592 23.5195 18.7965 23.562C18.6994 23.6307 18.6326 23.6793 18.5699 23.7339C18.5032 23.7885 18.4384 23.8452 18.3757 23.9079L16.802 25.4816C16.3307 25.9509 15.5175 25.9489 15.0502 25.4816L8.23947 18.6708C7.75602 18.1874 7.75602 17.4025 8.23947 16.9191L9.81523 15.3433C9.87794 15.2827 9.93458 15.2159 9.98919 15.1512C10.0438 15.0864 10.0924 15.0197 10.1389 14.9529C10.2016 14.8619 10.24 14.7992 10.2764 14.7365C10.3391 14.6273 10.3675 14.5646 10.3958 14.5039L10.4281 14.4371C10.4544 14.3785 10.4747 14.3178 10.4969 14.2591L10.5212 14.1822C10.5414 14.1216 10.5576 14.0629 10.5718 14.0022L10.594 13.9112C10.6061 13.8546 10.6163 13.7979 10.6264 13.7413L10.6405 13.6381C10.6486 13.5855 10.6527 13.5309 10.6567 13.4743L10.6608 13.3691C10.6628 13.3104 10.6628 13.2558 10.6608 13.2032L10.6567 13.0899C10.6527 13.0373 10.6486 12.9868 10.6426 12.9382L10.4989 12.3112C10.4989 12.3112 10.4726 12.2363 10.4706 12.2363L10.3897 12.0462C10.3897 12.0421 10.3573 11.9754 10.3573 11.9713L10.2056 11.7063C10.147 11.6133 10.1146 11.5708 10.0822 11.5283L10.0276 11.4535C9.94671 11.3544 9.88401 11.2836 9.81523 11.2148L7.48699 8.88656C7.41821 8.81778 7.34539 8.75305 7.26853 8.69035L7.18964 8.63169C7.12491 8.58314 7.08243 8.55077 7.04197 8.52246C7.03793 8.52043 6.94488 8.46582 6.94286 8.46379C6.87408 8.42131 6.83969 8.39906 6.80328 8.38086L6.73249 8.34647C6.63539 8.29995 6.59493 8.27972 6.55448 8.26354L6.02653 8.09969C5.98607 8.0916 5.93955 8.08351 5.891 8.07744L5.76356 8.05721C5.71299 8.05114 5.6604 8.04912 5.60983 8.04507L5.43183 8.03901L5.2255 8.04507C5.17088 8.04912 5.11425 8.05519 5.05963 8.06126L4.96051 8.07542C4.90387 8.08553 4.84319 8.09564 4.78453 8.10778C4.78453 8.10778 4.70159 8.12801 4.69957 8.12801C4.63889 8.14217 4.58023 8.15835 4.52359 8.17656L4.44672 8.20488C4.38401 8.22713 4.32333 8.24938 4.26265 8.27567C4.13723 8.33433 4.07453 8.36468 4.01384 8.39704C3.90057 8.46177 3.83786 8.5002 3.77717 8.54268C3.67806 8.61146 3.61333 8.66001 3.55062 8.7126C3.48387 8.76721 3.41914 8.82385 3.35643 8.88656C2.14073 10.0456 1.46511 11.767 1.44489 13.7473C1.40443 17.5098 3.65581 21.8385 7.78232 25.9327C11.8421 30.0248 16.1365 32.2742 19.8766 32.2742C21.8994 32.2742 23.6552 31.5986 24.8204 30.3748C24.8952 30.2999 24.9518 30.2352 25.0065 30.1705C25.0591 30.1057 25.1096 30.039 25.1561 29.9722C25.2209 29.8812 25.2573 29.8165 25.2957 29.7517C25.3584 29.6425 25.3867 29.5818 25.4151 29.5211M25.4454 29.4564C25.4717 29.3978 25.494 29.3371 25.5142 29.2764L25.4454 29.4564Z" fill="black"/>
<path d="M16.0062 6.89983C15.7772 6.89983 15.5526 6.79149 15.4118 6.58927C15.185 6.26138 15.2659 5.81144 15.5938 5.58394C20.601 2.11005 26.4806 0.273438 32.5971 0.273438C37.7732 0.273438 42.8736 1.61894 47.3456 4.16405C47.6922 4.36122 47.8136 4.80249 47.6164 5.14916C47.4192 5.49583 46.9751 5.61644 46.632 5.41999C42.376 2.99838 37.5233 1.7186 32.5971 1.7186C26.776 1.7186 21.1809 3.46566 16.4164 6.77127C16.2915 6.85794 16.1477 6.89983 16.0062 6.89983Z" fill="black"/>
<path d="M13.1519 52.5644C12.9801 52.5644 12.8082 52.5038 12.6702 52.3795C6.35583 46.7188 2.73389 38.6118 2.73389 30.1373C2.73389 29.7386 3.05744 29.415 3.45611 29.415C3.85478 29.415 4.17833 29.7386 4.17833 30.1373C4.17833 38.2023 7.62478 45.9178 13.6344 51.3056C13.9312 51.5714 13.9565 52.0278 13.69 52.3254C13.5477 52.4835 13.3506 52.5644 13.1519 52.5644Z" fill="black"/>
<path d="M52.0386 52.5678C51.8407 52.5678 51.6436 52.4869 51.5006 52.3273C51.2348 52.0305 51.2594 51.574 51.5569 51.3075C56.5518 46.8319 59.8134 40.7284 60.74 34.1208C60.7956 33.7258 61.1603 33.4484 61.5554 33.5055C61.9504 33.5604 62.2263 33.9258 62.1707 34.3209C61.1964 41.265 57.7695 47.6798 52.5211 52.3837C52.3824 52.5072 52.2105 52.5678 52.0386 52.5678Z" fill="black"/>
<path d="M46.6476 19.6935H45.5499C45.1505 19.6935 44.8276 19.3699 44.8276 18.9712C44.8276 18.5726 45.1505 18.249 45.5499 18.249H46.6476C47.047 18.249 47.3699 18.5726 47.3699 18.9712C47.3699 19.3699 47.047 19.6935 46.6476 19.6935Z" fill="black"/>
<path d="M52.4255 19.6935H51.3277C50.9283 19.6935 50.6055 19.3699 50.6055 18.9712C50.6055 18.5726 50.9283 18.249 51.3277 18.249H52.4255C52.8249 18.249 53.1477 18.5726 53.1477 18.9712C53.1477 19.3699 52.8249 19.6935 52.4255 19.6935Z" fill="black"/>
<path d="M58.2033 19.6935H57.1055C56.7061 19.6935 56.3833 19.3699 56.3833 18.9712C56.3833 18.5726 56.7061 18.249 57.1055 18.249H58.2033C58.6027 18.249 58.9255 18.5726 58.9255 18.9712C58.9255 19.3699 58.6027 19.6935 58.2033 19.6935Z" fill="black"/>
</g>
<defs>
<clipPath id="clip0_187_20519">
<rect width="65" height="65" fill="white"/>
</clipPath>
</defs>
</svg>
