<svg width="65" height="65" viewBox="0 0 65 65" fill="none" xmlns="http://www.w3.org/2000/svg">
<path d="M32.8498 52.3657C43.8212 52.3657 52.7153 43.4716 52.7153 32.5002C52.7153 21.5288 43.8212 12.6348 32.8498 12.6348C21.8784 12.6348 12.9844 21.5288 12.9844 32.5002C12.9844 43.4716 21.8784 52.3657 32.8498 52.3657Z" fill="#86B5FB"/>
<path d="M25.2775 47.5067C25.1634 47.5067 25.0479 47.48 24.9403 47.4229C24.5878 47.2359 24.4535 46.7989 24.6405 46.4458L39.7848 17.8783C39.9719 17.5258 40.4088 17.3915 40.762 17.5785C41.1137 17.7649 41.2488 18.2025 41.0617 18.555L25.9167 47.1232C25.7867 47.3666 25.5361 47.5067 25.2775 47.5067Z" fill="black"/>
<path d="M25.2519 31.7176C22.6671 31.7176 20.564 29.6145 20.564 27.0289V22.1821C20.564 19.5973 22.6671 17.4941 25.2519 17.4941C27.8367 17.4941 29.9406 19.5973 29.9406 22.1821V27.0289C29.9399 29.6138 27.8367 31.7176 25.2519 31.7176ZM25.2519 18.9386C23.4637 18.9386 22.0084 20.3939 22.0084 22.1821V27.0289C22.0084 28.8179 23.4637 30.2724 25.2519 30.2724C27.0409 30.2724 28.4954 28.8171 28.4954 27.0289V22.1821C28.4954 20.3931 27.0401 18.9386 25.2519 18.9386Z" fill="black"/>
<path d="M40.4472 47.5064C37.8624 47.5064 35.7593 45.4033 35.7593 42.8177V37.9709C35.7593 35.3853 37.8624 33.2822 40.4472 33.2822C43.0328 33.2822 45.1359 35.3853 45.1359 37.9709V42.8177C45.1359 45.4033 43.0328 47.5064 40.4472 47.5064ZM40.4472 34.7267C38.659 34.7267 37.2044 36.1819 37.2044 37.9702V42.817C37.2044 44.6052 38.659 46.0605 40.4472 46.0605C42.2354 46.0605 43.6907 44.6052 43.6907 42.817V37.9702C43.6907 36.1827 42.2354 34.7267 40.4472 34.7267Z" fill="black"/>
<path d="M32.8498 65C31.258 65.0007 29.6663 64.4208 28.4262 63.2616C27.1053 62.0281 25.213 61.5962 23.4884 62.1342C20.2485 63.1482 16.7464 61.4604 15.5172 58.2956C14.8629 56.6107 13.3455 55.4009 11.5573 55.1381C8.1982 54.6433 5.77514 51.6049 6.04092 48.2213C6.18248 46.4187 5.34037 44.6709 3.8432 43.6576C1.03231 41.7553 0.167089 37.9658 1.87442 35.0321C2.7837 33.4699 2.7837 31.5293 1.87442 29.9672C0.167089 27.0335 1.03159 23.2447 3.8432 21.3417C5.34037 20.3284 6.18248 18.5799 6.04092 16.7779C5.77514 13.3936 8.1982 10.3552 11.5573 9.86122C13.3455 9.59833 14.8621 8.38789 15.5172 6.70294C16.7471 3.53889 20.2485 1.85394 23.4884 2.86433C25.2123 3.40311 27.1053 2.97122 28.4262 1.73767C30.907 -0.579222 34.7948 -0.579222 37.2734 1.73767C38.5951 2.97194 40.488 3.40383 42.2113 2.86433C45.4526 1.85394 48.9532 3.53961 50.1831 6.70367C50.8368 8.38861 52.3549 9.59833 54.1431 9.86194C57.5014 10.3559 59.9245 13.3943 59.6594 16.7787C59.5179 18.5806 60.36 20.3291 61.8571 21.3424C64.668 23.2447 65.5333 27.0335 63.8252 29.9679C62.9166 31.5301 62.9166 33.4714 63.8252 35.0328C65.5333 37.9665 64.668 41.756 61.8571 43.6583C60.36 44.6716 59.5179 46.4194 59.6594 48.2221C59.9238 51.6071 57.5014 54.6455 54.1431 55.1388C52.3549 55.4017 50.8375 56.6121 50.1824 58.2963C48.9532 61.4604 45.4533 63.1482 42.212 62.1349C40.4866 61.5976 38.5951 62.0288 37.2741 63.2623C36.0334 64.4208 34.4416 65 32.8498 65ZM24.9834 60.4623C26.604 60.4623 28.1965 61.0697 29.4128 62.2064C31.3404 64.0069 34.3607 64.0069 36.2876 62.2064C37.987 60.6176 40.423 60.0622 42.6424 60.7562C45.1651 61.5413 47.8814 60.2319 48.8355 57.7727C49.6783 55.6046 51.6312 54.0475 53.9322 53.7095C56.5416 53.326 58.4244 50.9643 58.2186 48.3347C58.0366 46.0149 59.1199 43.7645 61.0468 42.4616C63.2315 40.9832 63.9032 38.0394 62.5765 35.7594C61.4072 33.7494 61.4072 31.2513 62.5765 29.2413C63.9032 26.9613 63.2315 24.0175 61.0468 22.5391C59.1199 21.2355 58.0366 18.9851 58.2186 16.666C58.4244 14.0364 56.5416 11.6754 53.9322 11.2912C51.6312 10.9525 49.6776 9.39539 48.8355 7.22728C47.8807 4.76883 45.1651 3.45872 42.6424 4.2445C40.423 4.93711 37.987 4.38172 36.2876 2.79428C34.36 0.993056 31.3396 0.993778 29.4128 2.79428C27.7126 4.38244 25.2788 4.93783 23.0579 4.2445C20.5395 3.45728 17.8189 4.76883 16.8641 7.22728C16.022 9.39539 14.0691 10.9525 11.7681 11.2912C9.15803 11.6754 7.2752 14.0364 7.48248 16.666C7.66448 18.9851 6.58042 21.2355 4.65426 22.5391C2.46953 24.0175 1.79787 26.9613 3.12459 29.2413C4.29459 31.252 4.29459 33.7502 3.12459 35.7594C1.79787 38.0394 2.47026 40.9832 4.65426 42.4616C6.58114 43.7645 7.66448 46.0149 7.48248 48.3347C7.27592 50.9643 9.15876 53.3253 11.7681 53.7095C14.0691 54.0475 16.022 55.6053 16.8641 57.7727C17.8196 60.2319 20.541 61.5398 23.0579 60.7562C23.6891 60.5583 24.3384 60.4623 24.9834 60.4623Z" fill="black"/>
<path d="M32.8499 56.6995C26.8489 56.6995 21.0928 54.4874 16.6418 50.4696C16.3457 50.2024 16.3226 49.746 16.5898 49.4499C16.857 49.1537 17.3127 49.1299 17.6096 49.3979C21.7948 53.1751 27.2072 55.2551 32.8499 55.2551C45.3971 55.2551 55.6049 45.0472 55.6049 32.5C55.6049 19.9529 45.3971 9.74497 32.8499 9.74497C20.3027 9.74497 10.0948 19.9529 10.0948 32.5C10.0948 35.6063 10.7094 38.6172 11.9213 41.4476C12.0781 41.8145 11.9083 42.2392 11.5414 42.3959C11.1746 42.5548 10.7506 42.3822 10.5932 42.016C9.304 39.0044 8.65039 35.8027 8.65039 32.4993C8.65039 19.1555 19.5061 8.2998 32.8499 8.2998C46.1937 8.2998 57.0494 19.1555 57.0494 32.4993C57.0501 45.8438 46.1937 56.6995 32.8499 56.6995Z" fill="black"/>
</svg>
