<?xml version="1.0" encoding="UTF-8" standalone="no"?>
<svg
   width="24"
   height="24"
   viewBox="0 0 24 24"
   fill="none"
   version="1.1"
   id="svg6"
   sodipodi:docname="teleph-Blue.svg"
   inkscape:version="1.2.2 (732a01da63, 2022-12-09)"
   xmlns:inkscape="http://www.inkscape.org/namespaces/inkscape"
   xmlns:sodipodi="http://sodipodi.sourceforge.net/DTD/sodipodi-0.dtd"
   xmlns="http://www.w3.org/2000/svg"
   xmlns:svg="http://www.w3.org/2000/svg">
  <defs
     id="defs10" />
  <sodipodi:namedview
     id="namedview8"
     pagecolor="#ffffff"
     bordercolor="#000000"
     borderopacity="0.25"
     inkscape:showpageshadow="2"
     inkscape:pageopacity="0.0"
     inkscape:pagecheckerboard="0"
     inkscape:deskcolor="#d1d1d1"
     showgrid="false"
     inkscape:zoom="34.875"
     inkscape:cx="12"
     inkscape:cy="12.014337"
     inkscape:window-width="1920"
     inkscape:window-height="1017"
     inkscape:window-x="-8"
     inkscape:window-y="-8"
     inkscape:window-maximized="1"
     inkscape:current-layer="svg6" />
  <path
     d="M3.77762 11.9424C2.8296 10.2893 2.37185 8.93948 2.09584 7.57121C1.68762 5.54758 2.62181 3.57081 4.16938 2.30947C4.82345 1.77638 5.57323 1.95852 5.96 2.6524L6.83318 4.21891C7.52529 5.46057 7.87134 6.08139 7.8027 6.73959C7.73407 7.39779 7.26737 7.93386 6.33397 9.00601L3.77762 11.9424ZM3.77762 11.9424C5.69651 15.2883 8.70784 18.3013 12.0576 20.2224M12.0576 20.2224C13.7107 21.1704 15.0605 21.6282 16.4288 21.9042C18.4524 22.3124 20.4292 21.3782 21.6905 19.8306C22.2236 19.1766 22.0415 18.4268 21.3476 18.04L19.7811 17.1668C18.5394 16.4747 17.9186 16.1287 17.2604 16.1973C16.6022 16.2659 16.0661 16.7326 14.994 17.666L12.0576 20.2224Z"
     stroke="#010217"
     stroke-width="1.5"
     stroke-linejoin="round"
     id="path2"
     style="stroke:#5b7fff;stroke-opacity:1" />
  <path
     d="M14 6.83185C15.4232 7.43624 16.5638 8.57677 17.1682 10M14.654 2C18.1912 3.02076 20.9791 5.80852 22 9.34563"
     stroke="#010217"
     stroke-width="1.5"
     stroke-linecap="round"
     id="path4"
     style="stroke:#5b7fff;stroke-opacity:1" />
</svg>
