<svg width="34" height="33" viewBox="0 0 34 33" fill="none" xmlns="http://www.w3.org/2000/svg">
<g clip-path="url(#clip0_187_32289)">
<rect x="0.0498047" width="33" height="33" rx="16.5" fill="white"/>
<path d="M24.7804 11.76C23.6309 11.76 22.5285 11.3033 21.7157 10.4905C20.9029 9.67766 20.4463 8.57526 20.4464 7.42578H17.3498V19.5511C17.3493 20.104 17.1747 20.6426 16.8509 21.0906C16.5271 21.5387 16.0705 21.8735 15.5458 22.0476C15.0211 22.2217 14.4549 22.2262 13.9275 22.0605C13.4001 21.8948 12.9382 21.5674 12.6073 21.1245C12.2764 20.6816 12.0933 20.1459 12.0839 19.5931C12.0745 19.0404 12.2393 18.4987 12.555 18.0449C12.8706 17.591 13.3211 17.248 13.8426 17.0645C14.3641 16.881 14.9301 16.8663 15.4604 17.0224V14.0123C14.3334 13.8604 13.1868 14.0558 12.1738 14.5727C11.1608 15.0895 10.3296 15.903 9.79114 16.9047C9.25269 17.9064 9.03264 19.0484 9.16037 20.1785C9.2881 21.3085 9.75753 22.3726 10.506 23.2288C11.2544 24.085 12.2463 24.6925 13.3491 24.9702C14.4519 25.2479 15.6131 25.1825 16.6778 24.7828C17.7424 24.3831 18.6598 23.6681 19.3074 22.7333C19.955 21.7985 20.3021 20.6883 20.3021 19.5511L20.3924 13.4222C21.6647 14.3561 23.2024 14.8587 24.7807 14.8563L24.7804 11.76Z" fill="#032465"/>
</g>
<defs>
<clipPath id="clip0_187_32289">
<rect width="33" height="33" fill="white" transform="translate(0.0498047)"/>
</clipPath>
</defs>
</svg>
