<svg width="32" height="32" viewBox="0 0 32 32" fill="none" xmlns="http://www.w3.org/2000/svg">
<rect x="0.350098" width="31.35" height="31.35" rx="15.675" fill="white"/>
<path d="M16.7951 21.161C10.904 21.161 7.54382 17.0422 7.40381 10.1885H10.3547C10.4517 15.2189 12.6272 17.3497 14.3503 17.789V10.1885H17.129V14.527C18.8306 14.3402 20.6184 12.3632 21.2215 10.1885H24.0001C23.7729 11.3164 23.3198 12.3843 22.6694 13.3254C22.0189 14.2666 21.1851 15.0608 20.2199 15.6582C21.2972 16.2042 22.2488 16.9769 23.0118 17.9255C23.7748 18.874 24.3319 19.9768 24.6463 21.161H21.5877C21.3054 20.1324 20.7318 19.2116 19.9386 18.5141C19.1455 17.8166 18.1681 17.3733 17.129 17.2399V21.161H16.7951Z" fill="#032465"/>
</svg>
