<svg width="24" height="24" viewBox="0 0 24 24" fill="none" xmlns="http://www.w3.org/2000/svg">
<path d="M19.9157 13.0283C19.5277 12.5383 19.6387 12.3203 19.9157 11.8822C19.9207 11.8772 23.1238 7.45108 23.4538 5.95003L23.4558 5.94903C23.6198 5.40201 23.4558 5 22.6628 5H20.0387C19.3707 5 19.0627 5.34501 18.8977 5.73103C18.8977 5.73103 17.5616 8.92914 15.6715 11.0022C15.0615 11.6012 14.7795 11.7932 14.4465 11.7932C14.2825 11.7932 14.0275 11.6012 14.0275 11.0542V5.94903C14.0275 5.29301 13.8405 5 13.2875 5H9.16132C8.7423 5 8.49329 5.30601 8.49329 5.59102C8.49329 6.21304 9.43833 6.35605 9.53633 8.10611V11.9032C9.53633 12.7353 9.38533 12.8883 9.05031 12.8883C8.15828 12.8883 5.99321 9.67716 4.71016 6.00203C4.45115 5.28901 4.19815 5.001 3.52512 5.001H0.900031C0.151005 5.001 0 5.34601 0 5.73203C0 6.41405 0.892031 9.80517 4.14814 14.2853C6.31822 17.3434 9.37433 19.0005 12.1544 19.0005C13.8255 19.0005 14.0295 18.6325 14.0295 17.9995C14.0295 15.0774 13.8785 14.8013 14.7155 14.8013C15.1035 14.8013 15.7715 14.9933 17.3316 16.4684C19.1147 18.2175 19.4077 19.0005 20.4057 19.0005H23.0298C23.7778 19.0005 24.1568 18.6325 23.9388 17.9064C23.4398 16.3794 20.0677 13.2383 19.9157 13.0283Z" fill="#8A8A8A"/>
</svg>
