<svg width="32" height="32" viewBox="0 0 32 32" fill="none" xmlns="http://www.w3.org/2000/svg">
<rect width="31.35" height="31.35" rx="15.675" fill="white"/>
<path d="M21.8876 9.45492C20.3392 7.91191 18.2747 7.05469 16.0954 7.05469C11.565 7.05469 7.89475 10.7122 7.89475 15.2269C7.89475 16.6556 8.29618 18.0843 8.98435 19.2845L7.8374 23.5134L12.1958 22.3705C13.4001 22.9991 14.7191 23.342 16.0954 23.342C20.6259 23.342 24.2962 19.6845 24.2962 15.1698C24.2388 13.0553 23.4359 10.9979 21.8876 9.45492ZM20.0524 18.1415C19.8804 18.5987 19.0775 19.0559 18.6761 19.113C18.332 19.1702 17.8732 19.1702 17.4144 19.0559C17.1277 18.9416 16.7263 18.8273 16.2675 18.5987C14.203 17.7414 12.884 15.6841 12.7693 15.5127C12.6546 15.3984 11.9091 14.4268 11.9091 13.3982C11.9091 12.3695 12.4252 11.9123 12.5972 11.6837C12.7693 11.4551 12.9987 11.4551 13.1707 11.4551C13.2854 11.4551 13.4575 11.4551 13.5722 11.4551C13.6869 11.4551 13.8589 11.398 14.0309 11.798C14.203 12.198 14.6044 13.2267 14.6618 13.2839C14.7191 13.3982 14.7191 13.5125 14.6618 13.6268C14.6044 13.7411 14.5471 13.8554 14.4324 13.9696C14.3177 14.0839 14.203 14.2554 14.1456 14.3125C14.0309 14.4268 13.9162 14.5411 14.0309 14.7126C14.1456 14.9412 14.5471 15.5698 15.1779 16.1413C15.9808 16.8271 16.6116 17.0557 16.841 17.17C17.0704 17.2843 17.1851 17.2271 17.2997 17.1128C17.4144 16.9985 17.8159 16.5413 17.9306 16.3127C18.0453 16.0841 18.2173 16.1413 18.3894 16.1984C18.5614 16.2556 19.5937 16.7699 19.7657 16.8842C19.9951 16.9985 20.1098 17.0557 20.1671 17.1128C20.2245 17.2843 20.2245 17.6843 20.0524 18.1415Z" fill="#032465"/>
</svg>
