<svg width="33" height="32" viewBox="0 0 33 32" fill="none" xmlns="http://www.w3.org/2000/svg">
<rect x="0.700195" width="31.35" height="31.35" rx="15.675" fill="white"/>
<path fill-rule="evenodd" clip-rule="evenodd" d="M9.52713 21.2058C9.2197 21.1148 8.93918 20.953 8.70926 20.734C8.47934 20.515 8.30677 20.2452 8.20609 19.9474C7.6308 18.4082 7.46034 11.9811 8.56831 10.7124C8.93706 10.2996 9.45769 10.0455 10.0172 10.0052C12.9895 9.69317 22.1729 9.73477 23.2276 10.1092C23.5243 10.2031 23.7953 10.3614 24.0204 10.5721C24.2455 10.7828 24.4188 11.0405 24.5274 11.3259C25.1559 12.9171 25.1772 18.6994 24.4421 20.2282C24.2471 20.6261 23.9207 20.9485 23.5153 21.1434C22.4073 21.6842 10.9973 21.6738 9.52713 21.2058ZM14.2467 18.1898L19.5735 15.4859L14.2467 12.7611V18.1898Z" fill="#032465"/>
</svg>
