<?xml version="1.0" encoding="UTF-8" standalone="no"?>
<svg
   width="14"
   height="14"
   viewBox="0 0 14 14"
   fill="none"
   version="1.1"
   id="svg13"
   sodipodi:docname="Vector.svg"
   inkscape:version="1.1.2 (0a00cf5339, 2022-02-04)"
   xmlns:inkscape="http://www.inkscape.org/namespaces/inkscape"
   xmlns:sodipodi="http://sodipodi.sourceforge.net/DTD/sodipodi-0.dtd"
   xmlns="http://www.w3.org/2000/svg"
   xmlns:svg="http://www.w3.org/2000/svg">
  <sodipodi:namedview
     id="namedview15"
     pagecolor="#ffffff"
     bordercolor="#666666"
     borderopacity="1.0"
     inkscape:pageshadow="2"
     inkscape:pageopacity="0.0"
     inkscape:pagecheckerboard="0"
     showgrid="false"
     inkscape:zoom="29.892857"
     inkscape:cx="12.946237"
     inkscape:cy="6.339307"
     inkscape:window-width="1920"
     inkscape:window-height="1011"
     inkscape:window-x="0"
     inkscape:window-y="0"
     inkscape:window-maximized="1"
     inkscape:current-layer="svg13" />
  <path
     d="M6.38272 0.755496C6.59605 0.192829 7.40338 0.192829 7.61738 0.755496L8.99738 4.57816C9.04553 4.70269 9.1303 4.80968 9.24052 4.88503C9.35074 4.96037 9.48121 5.00051 9.61472 5.00016H13.0061C13.6327 5.00016 13.9061 5.78016 13.4134 6.16216L11.0001 8.3335C10.8919 8.4166 10.8129 8.53181 10.7744 8.6626C10.7358 8.79339 10.7397 8.93303 10.7854 9.0615L11.6667 12.7968C11.8814 13.3968 11.1867 13.9122 10.6614 13.5428L7.38338 11.4628C7.27113 11.3839 7.13726 11.3416 7.00005 11.3416C6.86284 11.3416 6.72897 11.3839 6.61672 11.4628L3.33872 13.5428C2.81405 13.9122 2.11872 13.3962 2.33338 12.7968L3.21472 9.0615C3.26044 8.93303 3.26429 8.79339 3.22572 8.6626C3.18716 8.53181 3.10816 8.4166 3.00005 8.3335L0.586718 6.16216C0.0933844 5.78016 0.368051 5.00016 0.993384 5.00016H4.38472C4.51825 5.00061 4.64876 4.9605 4.759 4.88514C4.86923 4.80979 4.95399 4.70274 5.00205 4.57816L6.38205 0.755496H6.38272Z"
     fill="#DDDDDD"
     id="path2" />
  <defs
     id="defs11">
    <linearGradient
       id="paint0_linear_1269_1239"
       x1="6.5"
       y1="7.38525"
       x2="7"
       y2="7.38525"
       gradientUnits="userSpaceOnUse">
      <stop
         offset="0.9999"
         stop-color="#E1B919"
         id="stop6" />
      <stop
         offset="1"
         stop-color="#E1B919"
         stop-opacity="0"
         id="stop8" />
    </linearGradient>
  </defs>
</svg>
