<svg width="21" height="28" viewBox="0 0 21 28" fill="none" xmlns="http://www.w3.org/2000/svg">
<path d="M10.3433 0C4.6399 0 0 4.6399 0 10.3433C0 12.2209 0.842069 14.2403 0.877358 14.3255C1.14933 14.9711 1.68596 15.9738 2.07292 16.5615L9.1648 27.307C9.45502 27.7475 9.88457 28 10.3433 28C10.8021 28 11.2316 27.7475 11.5219 27.3076L18.6143 16.5615C19.0019 15.9738 19.5379 14.9711 19.8099 14.3255C19.8452 14.2409 20.6867 12.2216 20.6867 10.3433C20.6867 4.6399 16.0468 0 10.3433 0ZM18.688 13.8534C18.4452 14.432 17.9457 15.3647 17.5983 15.8916L10.5058 26.6377C10.3658 26.8501 10.3214 26.8501 10.1815 26.6377L3.089 15.8916C2.74159 15.3647 2.24207 14.4314 1.9993 13.8528C1.98896 13.8278 1.21686 11.9691 1.21686 10.3433C1.21686 5.311 5.311 1.21686 10.3433 1.21686C15.3757 1.21686 19.4698 5.311 19.4698 10.3433C19.4698 11.9715 18.6959 13.8351 18.688 13.8534Z" fill="black"/>
<path d="M10.3433 4.86816C7.32367 4.86816 4.86743 7.32501 4.86743 10.344C4.86743 13.3631 7.32367 15.8199 10.3433 15.8199C13.363 15.8199 15.8192 13.3631 15.8192 10.344C15.8192 7.32501 13.363 4.86816 10.3433 4.86816ZM10.3433 14.6031C7.99537 14.6031 6.08429 12.6926 6.08429 10.344C6.08429 7.9955 7.99537 6.08503 10.3433 6.08503C12.6912 6.08503 14.6023 7.9955 14.6023 10.344C14.6023 12.6926 12.6912 14.6031 10.3433 14.6031Z" fill="black"/>
</svg>
