<svg width="33" height="26" viewBox="0 0 33 26" fill="none" xmlns="http://www.w3.org/2000/svg">
<path d="M32.6802 25.6443V25.7112H32.7419C32.7534 25.7114 32.7648 25.7084 32.7749 25.7027C32.7789 25.6998 32.7822 25.6959 32.7843 25.6915C32.7865 25.687 32.7875 25.682 32.7873 25.6771C32.7875 25.6722 32.7865 25.6673 32.7843 25.663C32.7821 25.6586 32.7789 25.6549 32.7749 25.6521C32.7649 25.6461 32.7535 25.6431 32.7419 25.6436H32.6802V25.6443ZM32.7425 25.5969C32.7689 25.5953 32.7951 25.603 32.8165 25.6187C32.8251 25.6258 32.832 25.6349 32.8365 25.6452C32.841 25.6554 32.843 25.6667 32.8425 25.6779C32.8429 25.6876 32.8412 25.6972 32.8376 25.7062C32.834 25.7152 32.8286 25.7233 32.8217 25.7299C32.8051 25.7445 32.7844 25.7532 32.7625 25.7549L32.8451 25.8502H32.7815L32.7055 25.7555H32.6809V25.8502H32.6277V25.5971H32.7433L32.7425 25.5969ZM32.726 25.9376C32.7539 25.9378 32.7815 25.9321 32.8071 25.9209C32.8318 25.9101 32.8542 25.8947 32.8732 25.8755C32.8922 25.8563 32.9074 25.8336 32.918 25.8086C32.9396 25.7555 32.9396 25.696 32.918 25.6429C32.9073 25.618 32.8921 25.5953 32.8732 25.576C32.8542 25.5568 32.8318 25.5414 32.8071 25.5307C32.7814 25.52 32.7538 25.5146 32.726 25.5149C32.6977 25.5147 32.6696 25.52 32.6434 25.5307C32.6182 25.5412 32.5952 25.5566 32.5758 25.576C32.5466 25.6064 32.5268 25.6448 32.519 25.6864C32.5111 25.7281 32.5156 25.7711 32.5317 25.8102C32.5418 25.8354 32.5568 25.8581 32.5758 25.8772C32.5952 25.8966 32.6182 25.912 32.6434 25.9225C32.6695 25.9338 32.6976 25.9395 32.726 25.9393V25.9376ZM32.726 25.454C32.7986 25.4539 32.8683 25.4828 32.9201 25.5343C32.9451 25.5591 32.965 25.5886 32.9786 25.6212C32.9927 25.6546 33 25.6906 33 25.727C33 25.7634 32.9927 25.7994 32.9786 25.8328C32.9646 25.8652 32.9448 25.8947 32.9201 25.9197C32.8948 25.9443 32.8653 25.9641 32.8331 25.9782C32.7992 25.9928 32.7628 26.0002 32.726 26C32.6888 26.0003 32.6519 25.9929 32.6176 25.9782C32.585 25.9645 32.5553 25.9446 32.5299 25.9197C32.5052 25.8938 32.4856 25.8633 32.4722 25.83C32.4581 25.7965 32.4508 25.7605 32.4508 25.7242C32.4508 25.6878 32.4581 25.6518 32.4722 25.6183C32.4859 25.5858 32.5057 25.5562 32.5307 25.5315C32.5557 25.5062 32.5856 25.4862 32.6184 25.4729C32.6527 25.4583 32.6896 25.4509 32.7268 25.4512L32.726 25.454ZM7.42884 24.4764C7.42884 23.9936 7.74109 23.5971 8.25143 23.5971C8.73913 23.5971 9.06823 23.9766 9.06823 24.4764C9.06823 24.9762 8.73913 25.3556 8.25143 25.3556C7.74109 25.3556 7.42884 24.9591 7.42884 24.4764ZM9.62417 24.4764V23.1027H9.03453V23.4373C8.84751 23.19 8.56384 23.0349 8.17808 23.0349C7.4181 23.0349 6.82169 23.6386 6.82169 24.477C6.82169 25.3155 7.41777 25.9192 8.17808 25.9192C8.56368 25.9192 8.84751 25.7639 9.03453 25.5168V25.8502H9.62351V24.4764H9.62417ZM29.5473 24.4764C29.5473 23.9936 29.8596 23.5971 30.3701 23.5971C30.8583 23.5971 31.1869 23.9766 31.1869 24.4764C31.1869 24.9762 30.8583 25.3556 30.3701 25.3556C29.8597 25.3556 29.5473 24.9591 29.5473 24.4764ZM31.7433 24.4764V22H31.1532V23.4373C30.9662 23.19 30.6825 23.0349 30.2967 23.0349C29.5368 23.0349 28.9403 23.6386 28.9403 24.477C28.9403 25.3155 29.5364 25.9192 30.2967 25.9192C30.6825 25.9192 30.9662 25.7639 31.1532 25.5168V25.8502H31.7433V24.4764ZM16.9424 23.5688C17.3224 23.5688 17.5664 23.8101 17.6287 24.2349H16.2217C16.2847 23.8384 16.5224 23.5688 16.9425 23.5688H16.9424ZM16.9543 23.0334C16.1596 23.0334 15.6037 23.619 15.6037 24.4755C15.6037 25.3488 16.1819 25.9177 16.9937 25.9177C17.4022 25.9177 17.7762 25.8144 18.1053 25.5328L17.8163 25.0903C17.589 25.2743 17.2996 25.3776 17.0275 25.3776C16.6475 25.3776 16.3015 25.1994 16.2164 24.7049H18.2299C18.2356 24.6306 18.2416 24.5557 18.2416 24.4754C18.2356 23.6192 17.7129 23.0332 16.9539 23.0332L16.9543 23.0334ZM24.0729 24.4754C24.0729 23.9926 24.3851 23.5961 24.8955 23.5961C25.3832 23.5961 25.7123 23.9756 25.7123 24.4754C25.7123 24.9751 25.3832 25.3546 24.8955 25.3546C24.3851 25.3546 24.0727 24.9581 24.0727 24.4754H24.0729ZM26.268 24.4754V23.1027H25.6787V23.4373C25.4911 23.19 25.2081 23.0349 24.8223 23.0349C24.0623 23.0349 23.4659 23.6386 23.4659 24.477C23.4659 25.3155 24.062 25.9192 24.8223 25.9192C25.2081 25.9192 25.4911 25.7639 25.6787 25.5168V25.8502H26.2682V24.4764L26.268 24.4754ZM20.7431 24.4754C20.7431 25.3085 21.3157 25.9175 22.1896 25.9175C22.598 25.9175 22.8701 25.8255 23.1644 25.5901L22.8812 25.1073C22.6598 25.2685 22.4274 25.3546 22.1708 25.3546C21.7001 25.3488 21.354 25.0041 21.354 24.4754C21.354 23.9466 21.7001 23.6021 22.1708 23.5961C22.4267 23.5961 22.6592 23.6823 22.8812 23.8434L23.1644 23.3607C22.8697 23.1252 22.5976 23.0332 22.1896 23.0332C21.3157 23.0332 20.7431 23.6421 20.7431 24.4754ZM28.3444 23.0332C28.0043 23.0332 27.7827 23.1943 27.6296 23.4356V23.1027H27.0452V25.8487H27.6355V24.3094C27.6355 23.8549 27.8283 23.6024 28.2137 23.6024C28.34 23.6006 28.4653 23.6241 28.5825 23.6715L28.7642 23.1087C28.6337 23.0566 28.4635 23.0337 28.3441 23.0337L28.3444 23.0332ZM12.5393 23.321C12.2557 23.1316 11.8648 23.0337 11.4336 23.0337C10.7466 23.0337 10.3043 23.3672 10.3043 23.9128C10.3043 24.3606 10.6336 24.6368 11.2399 24.723L11.5185 24.7632C11.8418 24.8092 11.9945 24.8953 11.9945 25.0504C11.9945 25.2628 11.7797 25.3839 11.3764 25.3839C10.968 25.3839 10.6733 25.2517 10.4745 25.0966L10.1975 25.5623C10.5208 25.8036 10.9292 25.9187 11.3714 25.9187C12.1545 25.9187 12.6084 25.5452 12.6084 25.0223C12.6084 24.5396 12.2512 24.2871 11.6611 24.2009L11.3832 24.1601C11.1279 24.1267 10.9234 24.0746 10.9234 23.8906C10.9234 23.6898 11.1162 23.569 11.4397 23.569C11.7858 23.569 12.1208 23.7012 12.2851 23.8044L12.5403 23.3217L12.5393 23.321ZM20.1475 23.0342C19.8073 23.0342 19.5857 23.1953 19.4333 23.4366V23.1027H18.8489V25.8487H19.4385V24.3094C19.4385 23.8549 19.6313 23.6024 20.0168 23.6024C20.143 23.6006 20.2683 23.6241 20.3855 23.6715L20.5673 23.1087C20.4368 23.0566 20.2666 23.0337 20.1471 23.0337L20.1475 23.0342ZM15.1158 23.1027H14.1516V22.2696H13.5555V23.1027H13.0055V23.6485H13.5555V24.9012C13.5555 25.5384 13.7997 25.9178 14.4972 25.9178C14.7532 25.9178 15.0479 25.8375 15.2349 25.7055L15.0646 25.1942C14.8886 25.2974 14.6958 25.3494 14.5425 25.3494C14.2478 25.3494 14.1516 25.1654 14.1516 24.8898V23.649H15.1158V23.1027ZM6.30028 25.8494V24.126C6.30028 23.4769 5.89188 23.0402 5.23352 23.0344C4.8874 23.0285 4.53038 23.1376 4.28041 23.523C4.09339 23.2184 3.79866 23.0344 3.38431 23.0344C3.09469 23.0344 2.81168 23.1206 2.59013 23.4421V23.1027H2V25.8487H2.59476V24.3261C2.59476 23.8494 2.85579 23.5961 3.25891 23.5961C3.65046 23.5961 3.84855 23.8546 3.84855 24.3201V25.8484H4.44463V24.3258C4.44463 23.8491 4.71673 23.5957 5.10812 23.5957C5.51074 23.5957 5.70288 23.8543 5.70288 24.3197V25.8481L6.30028 25.8494Z" fill="white"/>
<path d="M20.9998 18H12V2H21L20.9998 18Z" fill="#FF6000"/>
<path d="M12.9868 10C12.9868 6.81043 14.5561 3.96914 16.9998 2.13809C15.1501 0.750042 12.8622 -0.00330147 10.5066 1.08764e-05C4.70382 1.08764e-05 0 4.47709 0 10C0 15.5229 4.70382 20 10.5066 20C12.8623 20.0033 15.1502 19.25 17 17.8619C14.5565 16.0312 12.9868 13.1897 12.9868 10Z" fill="white"/>
<path d="M33 10C33 15.5229 28.5731 20 23.1119 20C20.8947 20.0033 18.7412 19.25 17 17.8619C19.3005 16.0309 20.7774 13.1897 20.7774 10C20.7774 6.81027 19.3005 3.96914 17 2.13809C18.7412 0.750083 20.8946 -0.00324341 23.1118 1.0497e-05C28.5729 1.0497e-05 32.9998 4.47709 32.9998 10" fill="white"/>
</svg>
