<svg width="61" height="17" viewBox="0 0 61 17" fill="none" xmlns="http://www.w3.org/2000/svg">
<path fill-rule="evenodd" clip-rule="evenodd" d="M43.3203 7.6803V17.0001H48.498V11.4773H54.366C56.8357 11.4589 58.9336 9.8813 59.7247 7.6803H43.3203Z" fill="white"/>
<path fill-rule="evenodd" clip-rule="evenodd" d="M42.6289 0C42.9305 3.80942 46.5344 6.81726 50.9359 6.81726C50.9503 6.81726 59.9388 6.81726 59.9388 6.81726C60.0052 6.46789 60.04 6.10729 60.04 5.73858C60.04 2.58295 57.494 0.0233447 54.3445 0.000158776L42.6289 0Z" fill="white"/>
<path fill-rule="evenodd" clip-rule="evenodd" d="M34.9672 6.72661L34.9713 6.71792L34.9718 6.71805C35.0249 6.6228 35.1266 6.55838 35.2434 6.55838C35.4121 6.55838 35.5493 6.69281 35.5539 6.86038L35.554 6.86041V16.9137H40.7317V0H35.554C34.8974 0.0218542 34.1556 0.503665 33.8798 1.0951L29.7594 9.93138C29.7492 9.9675 29.7333 10.0012 29.7127 10.0315L29.7114 10.0344L29.7108 10.0343C29.6485 10.124 29.5447 10.1827 29.4271 10.1827C29.2365 10.1827 29.082 10.0282 29.082 9.83756V0H23.9043V16.9137H29.082V16.9118C29.7314 16.8779 30.4558 16.4015 30.7276 15.8186L34.9566 6.7494C34.9598 6.74164 34.9634 6.73404 34.9672 6.72661Z" fill="white"/>
<path fill-rule="evenodd" clip-rule="evenodd" d="M15.6325 7.01597L12.6064 16.9139H8.8817L5.85375 7.00996C5.82455 6.85137 5.68557 6.73121 5.51853 6.73121C5.33027 6.73121 5.17767 6.88382 5.17767 7.07207C5.17767 7.07351 5.17767 7.07495 5.17769 7.07638L5.17767 16.9139H0V0.000244141H4.44416H5.76772C6.72043 0.000244141 7.7188 0.739599 7.9972 1.65022L10.517 9.89223C10.6424 10.3023 10.8458 10.3019 10.9711 9.89223L13.4909 1.65022C13.7695 0.738962 14.7675 0.000244141 15.7204 0.000244141L17.0435 0.000244141H21.4873V16.9139H16.3096V7.07639C16.3096 7.07495 16.3096 7.07351 16.3096 7.07207C16.3096 6.88382 16.157 6.73121 15.9688 6.73121C15.7996 6.73121 15.6593 6.85441 15.6325 7.01597Z" fill="white"/>
</svg>
