<svg width="172" height="172" viewBox="0 0 172 172" fill="none" xmlns="http://www.w3.org/2000/svg">
<g id="Group 1006">
<circle id="Ellipse 59" cx="86" cy="86" r="85" stroke="#FF6000" stroke-width="2"/>
<g id="&#208;&#161;&#208;&#187;&#208;&#190;&#208;&#185; x0020 3">
<g id="2831934226528">
<path id="Vector" d="M86.2941 55.4353C69.0149 55.4353 55 69.4502 55 86.7294C55 104.009 69.0149 118.024 86.2941 118.024C103.573 118.024 117.588 104.009 117.588 86.7294C117.588 69.4502 103.573 55.4353 86.2941 55.4353ZM86.2941 116.065C70.0812 116.065 56.9586 102.921 56.9586 86.7294C56.9586 70.5165 70.103 57.3939 86.2941 57.3939C102.507 57.3939 115.63 70.5383 115.63 86.7294C115.63 102.942 102.485 116.065 86.2941 116.065Z" fill="#FF6000"/>
<path id="Vector_2" d="M87.2733 86.7293C87.2733 86.1852 86.8381 85.75 86.294 85.75C85.7499 85.75 85.3147 86.1852 85.3147 86.7293C85.3147 87.2734 85.7499 87.7086 86.294 87.7086C86.8381 87.7086 87.2733 87.2734 87.2733 86.7293Z" fill="#FF6000"/>
<path id="Vector_3" d="M91.1254 87.4037C91.1472 87.1861 91.1907 86.9685 91.1907 86.7291C91.1907 85.1405 90.4073 83.7259 89.2321 82.8337V69.1235C89.2321 67.513 87.9264 66.1855 86.2942 66.1855C84.6838 66.1855 83.3563 67.4913 83.3563 69.1235V82.8337C82.1811 83.7259 81.3977 85.1187 81.3977 86.7291C81.3977 89.4276 83.5957 91.6256 86.2942 91.6256C86.5336 91.6256 86.7512 91.5821 86.9688 91.5603L95.282 99.8735C96.4354 101.027 98.2852 101.027 99.4386 99.8735C100.592 98.7201 100.592 96.8703 99.4386 95.7169L91.1254 87.4037ZM85.3367 69.1235C85.3367 68.5794 85.7719 68.1442 86.316 68.1442C86.86 68.1442 87.2953 68.5794 87.2953 69.1235V81.9414C86.9688 81.8761 86.6424 81.8326 86.316 81.8326C85.9895 81.8326 85.6631 81.8761 85.3367 81.9414V69.1235ZM83.3781 86.7291C83.3781 85.1187 84.6838 83.7912 86.316 83.7912C87.9264 83.7912 89.2539 85.0969 89.2539 86.7291C89.2539 88.3395 87.9481 89.667 86.316 89.667C84.7056 89.667 83.3781 88.3613 83.3781 86.7291ZM98.0676 98.4807C97.6759 98.8725 97.0665 98.8725 96.6748 98.4807L88.9927 90.7987C89.5368 90.4287 90.0156 89.9717 90.3855 89.4059L98.0676 97.0879C98.4593 97.4797 98.4593 98.089 98.0676 98.4807Z" fill="#FF6000"/>
<path id="Vector_4" d="M86.2941 59.3525C71.1694 59.3525 58.9172 71.6047 58.9172 86.7294C58.9172 101.854 71.1694 114.106 86.2941 114.106C101.419 114.106 113.671 101.854 113.671 86.7294C113.671 71.6047 101.419 59.3525 86.2941 59.3525ZM104.944 104.009L102.899 101.941C102.507 101.55 101.898 101.55 101.506 101.941C101.114 102.333 101.114 102.942 101.506 103.334L103.573 105.401C99.2644 109.406 93.5627 111.908 87.2734 112.148V109.232C87.2734 108.688 86.8382 108.252 86.2941 108.252C85.7501 108.252 85.3148 108.688 85.3148 109.232V112.148C79.0256 111.908 73.3238 109.406 69.0149 105.401L71.0823 103.334C71.4741 102.942 71.4741 102.333 71.0823 101.941C70.6906 101.55 70.0813 101.55 69.6895 101.941L67.6221 104.009C63.6179 99.6997 61.1152 93.998 60.8758 87.7087H63.792C64.336 87.7087 64.7713 87.2735 64.7713 86.7294C64.7713 86.1854 64.336 85.7501 63.792 85.7501H60.8758C61.1152 79.4609 63.6179 73.7591 67.6221 69.4502L69.6895 71.5176C70.0813 71.9094 70.6906 71.9094 71.0823 71.5176C71.4741 71.1259 71.4741 70.5166 71.0823 70.1249L69.0149 68.0574C73.3238 64.0532 79.0256 61.5505 85.3148 61.3111V64.2273C85.3148 64.7713 85.7501 65.2066 86.2941 65.2066C86.8382 65.2066 87.2734 64.7713 87.2734 64.2273V61.3111C93.5627 61.5505 99.2644 64.0532 103.573 68.0574L101.506 70.1249C101.114 70.5166 101.114 71.1259 101.506 71.5176C101.898 71.9094 102.507 71.9094 102.899 71.5176L104.966 69.4502C108.97 73.7591 111.473 79.4609 111.712 85.7501H108.796C108.252 85.7501 107.817 86.1854 107.817 86.7294C107.817 87.2735 108.252 87.7087 108.796 87.7087H111.712C111.473 93.998 108.97 99.6997 104.966 104.009H104.944Z" fill="#FF6000"/>
</g>
</g>
</g>
</svg>
