<?xml version="1.0" encoding="UTF-8" standalone="no"?>
<svg
   xmlns:dc="http://purl.org/dc/elements/1.1/"
   xmlns:cc="http://creativecommons.org/ns#"
   xmlns:rdf="http://www.w3.org/1999/02/22-rdf-syntax-ns#"
   xmlns:svg="http://www.w3.org/2000/svg"
   xmlns="http://www.w3.org/2000/svg"
   xmlns:sodipodi="http://sodipodi.sourceforge.net/DTD/sodipodi-0.dtd"
   xmlns:inkscape="http://www.inkscape.org/namespaces/inkscape"
   width="172"
   height="172"
   viewBox="0 0 172 172"
   fill="none"
   version="1.1"
   id="svg4"
   sodipodi:docname="Ellipse 58.svg"
   inkscape:version="1.0.1 (3bc2e81, 2020-09-07)">
  <metadata
     id="metadata10">
    <rdf:RDF>
      <cc:Work
         rdf:about="">
        <dc:format>image/svg+xml</dc:format>
        <dc:type
           rdf:resource="http://purl.org/dc/dcmitype/StillImage" />
      </cc:Work>
    </rdf:RDF>
  </metadata>
  <defs
     id="defs8">
    <clipPath
       id="clip0_927_957">
      <rect
         width="62"
         height="63"
         fill="#ffffff"
         id="rect10"
         x="0"
         y="0" />
    </clipPath>
  </defs>
  <sodipodi:namedview
     pagecolor="#ffffff"
     bordercolor="#666666"
     borderopacity="1"
     objecttolerance="10"
     gridtolerance="10"
     guidetolerance="10"
     inkscape:pageopacity="0"
     inkscape:pageshadow="2"
     inkscape:window-width="1280"
     inkscape:window-height="959"
     id="namedview6"
     showgrid="false"
     inkscape:zoom="1.5108241"
     inkscape:cx="77.685544"
     inkscape:cy="112.58092"
     inkscape:window-x="0"
     inkscape:window-y="0"
     inkscape:window-maximized="1"
     inkscape:current-layer="svg4" />
  <circle
     cx="86"
     cy="86"
     r="85"
     stroke="#FF6000"
     stroke-width="2"
     id="circle2" />
  <g
     clip-path="url(#clip0_927_957)"
     id="g8"
     transform="translate(54.98953,54.489667)">
    <path
       d="m 31,17.7227 c -7.4805,0 -13.5598,6.1769 -13.5598,13.7776 0,7.6007 6.0793,13.7777 13.5598,13.7777 7.4805,0 13.5598,-6.177 13.5598,-13.7777 0,-7.6007 -6.0793,-13.7776 -13.5598,-13.7776 z m 0,25.5839 c -6.4242,0 -11.6196,-5.2789 -11.6196,-11.8063 0,-6.5274 5.1954,-11.8063 11.6196,-11.8063 6.4242,0 11.6196,5.2789 11.6196,11.8063 0,6.5274 -5.1954,11.8063 -11.6196,11.8063 z"
       fill="#ff6000"
       id="path2" />
    <path
       d="m 31,27.5576 c -2.1342,0 -3.8804,1.7523 -3.8804,3.9428 0,2.1685 1.7246,3.9427 3.8804,3.9427 2.1342,0 3.8804,-1.7523 3.8804,-3.9427 0,-2.1686 -1.7246,-3.9428 -3.8804,-3.9428 z m 0,5.9141 c -1.0779,0 -1.9402,-0.8761 -1.9402,-1.9713 0,-1.0953 0.8623,-1.9714 1.9402,-1.9714 1.0779,0 1.9402,0.8761 1.9402,1.9714 0,1.0952 -0.8623,1.9713 -1.9402,1.9713 z"
       fill="#ff6000"
       id="path4" />
    <path
       d="m 58.1193,23.6358 h -5.1954 c -0.2803,-0.7885 -0.5821,-1.5551 -0.9486,-2.2999 l 3.6864,-3.7456 c 1.5091,-1.5333 1.5091,-4.0303 0,-5.5636 L 50.1861,6.46306 c -1.5091,-1.53329 -3.9667,-1.53329 -5.4757,0 L 41.024,10.2087 C 40.2911,9.85819 39.5365,9.52963 38.7605,9.26678 V 3.9879 c 0,-2.1685 -1.7462,-3.942734 -3.8804,-3.942734 h -7.7392 c -2.1343,0 -3.8804,1.752324 -3.8804,3.942734 V 9.26678 C 22.4844,9.55153 21.7299,9.85819 20.9969,10.2087 L 17.3105,6.46306 c -1.509,-1.53329 -3.9666,-1.53329 -5.4756,0 L 6.35921,12.0267 c -1.50904,1.5333 -1.50904,4.0303 0,5.5636 l 3.68639,3.7456 C 9.70066,22.0807 9.37729,22.8473 9.09704,23.6358 H 3.90163 c -2.13421,0 -3.8803898,1.7524 -3.8803898,3.9428 v 7.8635 c 0,2.1685 1.7246198,3.9428 3.8803898,3.9428 h 5.19541 c 0.28025,0.7885 0.58206,1.5552 0.94856,2.2999 l -3.68639,3.7456 c -1.50904,1.5333 -1.50904,4.0303 0,5.5636 l 5.47569,5.5637 c 1.509,1.5332 3.9666,1.5332 5.4756,0 l 3.6864,-3.7456 c 0.733,0.3504 1.4875,0.679 2.2636,0.9418 v 5.2789 c 0,2.1685 1.7461,3.9427 3.8804,3.9427 h 7.7392 c 2.1342,0 3.8804,-1.7523 3.8804,-3.9427 v -5.2789 c 0.776,-0.2847 1.5306,-0.5914 2.2635,-0.9418 l 3.6864,3.7456 c 1.509,1.5332 3.9666,1.5332 5.4757,0 l 5.4756,-5.5637 c 1.5091,-1.5333 1.5091,-4.0303 0,-5.5636 l -3.6864,-3.7456 c 0.345,-0.7447 0.6683,-1.5114 0.9486,-2.2999 h 5.1954 c 2.1342,0 3.8804,-1.7524 3.8804,-3.9428 v -7.8635 c 0,-2.1685 -1.7246,-3.9428 -3.8804,-3.9428 z m 1.9402,11.8063 c 0,1.0952 -0.8623,1.9714 -1.9402,1.9714 0,0 -4.9583,0 -5.8206,0 -0.8407,0 -1.0132,0.6571 -1.121,0.9857 -0.1078,0.3285 -0.2156,0.6571 -0.3449,0.9638 -0.1078,0.2847 -0.2156,0.5476 -0.3234,0.8104 -0.1293,0.3067 -0.2587,0.5914 -0.4096,0.8981 -0.1509,0.3285 -0.5174,0.9638 0.2587,1.7523 0.7761,0.7886 3.9235,3.9865 3.9235,3.9865 0.7545,0.7667 0.7545,2.0152 0,2.7819 l -5.4756,5.5636 c -0.7546,0.7666 -1.9833,0.7666 -2.7379,0 0,0 -3.0827,-3.1323 -3.945,-4.0084 -0.8623,-0.8762 -1.2935,-0.4381 -1.5737,-0.3067 -0.3234,0.1752 -0.6468,0.3286 -0.9917,0.4819 -0.2587,0.1095 -0.5389,0.2409 -0.7976,0.3285 -0.3018,0.1096 -0.6037,0.241 -0.9055,0.3286 -0.3449,0.1095 -1.0347,0.1533 -1.0347,1.139 0,0.9857 0,5.9141 0,5.9141 0,1.0952 -0.8623,1.9714 -1.9402,1.9714 h -7.7392 c -1.0779,0 -1.9402,-0.8762 -1.9402,-1.9714 0,0 0,-4.9284 0,-5.9141 0,-0.9638 -0.5821,-0.9857 -0.8624,-1.0952 -0.3664,-0.1314 -0.7329,-0.2628 -1.0778,-0.3943 -0.2803,-0.1095 -0.539,-0.219 -0.7977,-0.3285 -0.3233,-0.1314 -0.6251,-0.2848 -0.927,-0.4381 -0.3018,-0.1533 -0.8623,-0.5257 -1.6815,0.3067 -0.8192,0.8323 -3.9019,3.9646 -3.9019,3.9646 -0.7545,0.7666 -1.9833,0.7666 -2.7378,0 L 7.7389,49.5703 c -0.75452,-0.7667 -0.75452,-2.0152 0,-2.7819 0,0 3.1905,-3.2418 3.9235,-3.9865 0.7114,-0.7228 0.4743,-1.3361 0.3449,-1.599 -0.1724,-0.3286 -0.3233,-0.679 -0.4742,-1.0295 -0.1078,-0.2628 -0.2372,-0.5476 -0.345,-0.8323 -0.1293,-0.3286 -0.2371,-0.6353 -0.3449,-0.9638 -0.1078,-0.3286 -0.2587,-0.9857 -1.12099,-0.9857 -0.84075,0 -5.82058,0 -5.82058,0 -1.07789,0 -1.94019,-0.8762 -1.94019,-1.9714 v -7.8635 c 0,-1.0952 0.8623,-1.9714 1.94019,-1.9714 0,0 4.95828,0 5.82058,0 0.84079,0 1.01319,-0.6571 1.12099,-0.9857 0.1078,-0.3285 0.2156,-0.6571 0.3449,-0.9638 0.1078,-0.2847 0.2156,-0.5476 0.3234,-0.8104 0.1294,-0.3067 0.2587,-0.5914 0.4096,-0.8981 0.1509,-0.3285 0.5174,-0.9638 -0.2587,-1.7523 -0.7761,-0.7885 -3.9235,-3.9865 -3.9235,-3.9865 -0.75452,-0.7667 -0.75452,-2.0152 0,-2.7819 l 5.4757,-5.56359 c 0.7545,-0.76664 1.9833,-0.76664 2.7378,0 0,0 3.0827,3.13229 3.9451,4.00849 0.8623,0.8761 1.2934,0.438 1.5737,0.3066 0.3233,-0.1752 0.6467,-0.3285 0.9916,-0.4819 0.2587,-0.1095 0.539,-0.2409 0.7977,-0.3285 0.3018,-0.1096 0.6036,-0.241 0.9054,-0.3286 0.3449,-0.1095 1.0348,-0.1533 1.0348,-1.13901 0,-0.98568 0,-5.9141 0,-5.9141 0,-1.0952 0.8623,-1.97136 1.9402,-1.97136 h 7.7392 c 1.0779,0 1.9402,0.87616 1.9402,1.97136 0,0 0,4.92842 0,5.9141 0,0.96381 0.582,0.98571 0.8623,1.09521 0.3665,0.1314 0.7329,0.2628 1.0779,0.3943 0.2802,0.1095 0.5389,0.219 0.7976,0.3285 0.3234,0.1315 0.6252,0.2848 0.927,0.4381 0.3018,0.1533 0.8623,0.5257 1.6815,-0.3066 0.8192,-0.8324 3.9019,-3.96468 3.9019,-3.96468 0.7546,-0.76664 1.9833,-0.76664 2.7379,0 l 5.4756,5.56368 c 0.7545,0.7666 0.7545,2.0151 0,2.7818 0,0 -3.1905,3.2418 -3.9235,3.9865 -0.7114,0.7228 -0.4743,1.3362 -0.3234,1.599 0.1725,0.3286 0.3234,0.679 0.4743,1.0295 0.1078,0.2628 0.2372,0.5476 0.3449,0.8323 0.1294,0.3286 0.2372,0.6353 0.345,0.9638 0.1078,0.3286 0.2587,0.9857 1.121,0.9857 0.8407,0 5.8206,0 5.8206,0 1.0778,0 1.9401,0.8762 1.9401,1.9714 v 7.8635 z"
       fill="#ff6000"
       id="path6" />
  </g>
</svg>
