<?xml version="1.0" encoding="UTF-8" standalone="no"?>
<svg
   xmlns:dc="http://purl.org/dc/elements/1.1/"
   xmlns:cc="http://creativecommons.org/ns#"
   xmlns:rdf="http://www.w3.org/1999/02/22-rdf-syntax-ns#"
   xmlns:svg="http://www.w3.org/2000/svg"
   xmlns="http://www.w3.org/2000/svg"
   xmlns:sodipodi="http://sodipodi.sourceforge.net/DTD/sodipodi-0.dtd"
   xmlns:inkscape="http://www.inkscape.org/namespaces/inkscape"
   width="172"
   height="172"
   viewBox="0 0 172 172"
   fill="none"
   version="1.1"
   id="svg4"
   sodipodi:docname="Ellipse 57.svg"
   inkscape:version="1.0.1 (3bc2e81, 2020-09-07)">
  <metadata
     id="metadata10">
    <rdf:RDF>
      <cc:Work
         rdf:about="">
        <dc:format>image/svg+xml</dc:format>
        <dc:type
           rdf:resource="http://purl.org/dc/dcmitype/StillImage" />
      </cc:Work>
    </rdf:RDF>
  </metadata>
  <defs
     id="defs8" />
  <sodipodi:namedview
     pagecolor="#ffffff"
     bordercolor="#666666"
     borderopacity="1"
     objecttolerance="10"
     gridtolerance="10"
     guidetolerance="10"
     inkscape:pageopacity="0"
     inkscape:pageshadow="2"
     inkscape:window-width="1280"
     inkscape:window-height="959"
     id="namedview6"
     showgrid="false"
     inkscape:zoom="1.5108241"
     inkscape:cx="-37.275344"
     inkscape:cy="93.776191"
     inkscape:window-x="0"
     inkscape:window-y="0"
     inkscape:window-maximized="1"
     inkscape:current-layer="svg4" />
  <circle
     cx="86"
     cy="86"
     r="85"
     stroke="#FF6000"
     stroke-width="2"
     id="circle2" />
  <g
     id="g845"
     transform="translate(-0.045758,-7.3265485)">
    <path
       d="m 117.32196,89.402464 c 0,-3.2357 -2.6279,-5.8637 -5.8637,-5.8637 h -16.625804 -0.0179 0.0179 l 1.9486,-17.59121 c 0.1966,-2.14527 -1.2514,-3.915117 -3.4146,-3.915117 h -3.9151 c -2.4492,0 -3.4682,1.716217 -4.3978,3.915117 l -7.8302,17.59121 c -2.1095,5.0593 -4.8805,5.8637 -6.847,5.8637 -0.9833,0 -1.9486,0 -1.9486,0 v -1.9486 c 0,-2.1631 -1.752,-3.9151 -3.91515,-3.9151 h -5.86373 c -2.16315,0 -3.91512,1.752 -3.91512,3.9151 v 33.233796 c 0,2.1632 1.75197,3.9151 3.91512,3.9151 h 5.86373 c 2.16315,0 3.91515,-1.7519 3.91515,-3.9151 v -1.9486 c 0.9832,0 3.5575,0.0536 6.0782,2.6458 3.0392,3.1285 6.6861,3.2358 8.599,3.2358 h 22.489604 c 3.2357,0 5.8637,-2.6279 5.8637,-5.8637 0,-1.6984 -0.7151,-3.2179 -1.8592,-4.2906 2.2346,-0.8223 3.8257,-2.9676 3.8257,-5.4883 0,-1.6983 -0.7151,-3.2179 -1.8592,-4.2905 2.2346,-0.8224 3.8257,-2.9676 3.8257,-5.488296 0,-1.6984 -0.7151,-3.2179 -1.8592,-4.2906 2.2346,-0.8223 3.8257,-2.9676 3.8257,-5.4883 z M 66.479056,120.68766 c 0,1.0727 -0.8759,1.9486 -1.94857,1.9486 h -5.86374 c -1.07263,0 -1.94862,-0.8759 -1.94862,-1.9486 V 87.453864 c 0,-1.0726 0.87599,-1.9486 1.94862,-1.9486 h 5.86374 c 1.07267,0 1.94857,0.876 1.94857,1.9486 z M 111.45826,93.317664 h -9.7789 c -0.5363,0 -0.9832,0.429 -0.9832,0.9832 0,0.5363 0.4291,0.9833 0.9832,0.9833 h 7.8303 c 2.1631,0 3.9151,1.7519 3.9151,3.9151 0,2.163096 -1.752,3.915096 -3.9151,3.915096 h -9.778904 c -0.5363,0 -0.9832,0.429 -0.9832,0.9832 0,0.5364 0.429,0.9833 0.9832,0.9833 h 7.830304 c 2.1631,0 3.9151,1.752 3.9151,3.9151 0,2.1631 -1.752,3.9151 -3.9151,3.9151 h -9.778904 c -0.5363,0 -0.9832,0.4291 -0.9832,0.9833 0,0.5363 0.429,0.9832 0.9832,0.9832 h 7.830204 c 2.1632,0 3.9152,1.752 3.9152,3.9151 0,2.1632 -1.752,3.9151 -3.9152,3.9151 H 83.122856 c -0.9833,0 -4.5945,0.0358 -7.1867,-2.6458 -3.0391,-3.1285 -5.3989,-3.2179 -7.4727,-3.2358 V 91.404764 h 1.9486 c 3.9152,0 6.418,-1.5375 9.0459,-7.8302 l 7.58,-17.59126 c 0.5184,-1.07263 1.1263,-1.94862 2.1989,-1.94862 h 3.6648 c 1.0727,0 2.0738,0.82236 1.9486,1.94862 l -1.9486,17.59126 c -0.1251,1.6268 0.8939,1.9486 1.9486,1.9486 h 16.625904 c 2.1631,0 3.9151,1.7519 3.9151,3.9151 0,2.1631 -1.752,3.9151 -3.9151,3.9151 z"
       fill="#ff6000"
       id="path2" />
    <path
       d="m 61.598606,114.82416 c -1.62683,0 -2.93187,1.3051 -2.93187,2.9319 0,1.6268 1.30504,2.9319 2.93187,2.9319 1.62683,0 2.93187,-1.3051 2.93187,-2.9319 0,-1.6268 -1.30504,-2.9319 -2.93187,-2.9319 z m 0,3.9151 c -0.53632,0 -0.98325,-0.4469 -0.98325,-0.9832 0,-0.5363 0.42906,-0.9833 0.98325,-0.9833 0.53632,0 0.98325,0.4291 0.98325,0.9833 0,0.5363 -0.42905,0.9832 -0.98325,0.9832 z"
       fill="#ff6000"
       id="path4" />
  </g>
</svg>
