<svg width="54" height="18" viewBox="0 0 54 18" fill="none" xmlns="http://www.w3.org/2000/svg">
<path fill-rule="evenodd" clip-rule="evenodd" d="M30.3176 17.4994V17.496H30.1981C29.9614 17.4889 29.7261 17.4758 29.4942 17.4578V17.4548H29.4545C29.3852 17.4492 29.3159 17.4432 29.2473 17.4368V17.4342H29.2181C29.1522 17.4278 29.0862 17.4211 29.0207 17.4144V17.4136H29.0147C28.9615 17.408 28.9087 17.402 28.8562 17.3956V17.393H28.8341C28.7862 17.3874 28.739 17.3814 28.6914 17.375V17.3724H28.6697C28.6217 17.366 28.5741 17.3597 28.5269 17.3529V17.3518H28.5179C28.3887 17.3334 28.2613 17.314 28.1358 17.293V17.29H28.1174L28.0122 17.272V17.2694H27.9976C27.9612 17.263 27.9249 17.2563 27.8889 17.2495V17.2488H27.8841C27.781 17.2297 27.6799 17.2098 27.5802 17.1892V17.187H27.5697L27.4772 17.1675V17.1664H27.4727C27.4116 17.1532 27.3513 17.1398 27.2921 17.1259V17.1251H27.2888C27.1771 17.0993 27.0685 17.0727 26.9628 17.045V17.0427H26.9546L26.8808 17.0232V17.0225H26.8774C26.8298 17.0098 26.783 16.9966 26.7366 16.9835V16.9813H26.7291C26.5013 16.9165 26.29 16.8475 26.0986 16.776V16.7752H26.0967C26.0622 16.7625 26.0285 16.7494 25.9955 16.7367V16.734H25.9892C25.9562 16.7213 25.9244 16.7082 25.8925 16.6951V16.6928H25.8869C25.8285 16.6685 25.7723 16.6441 25.7187 16.6194L26.3451 13.6875L26.4961 12.9806C27.4948 13.4463 28.7483 14.0633 30.9077 14.0296C32.144 14.0105 33.4664 13.5193 33.4791 12.4048C33.4855 11.6773 32.9243 11.155 31.2516 10.3413C31.0886 10.2619 30.9208 10.1769 30.75 10.0862V10.0859H30.7492C30.6743 10.0461 30.5994 10.0053 30.5237 9.96335V9.9626H30.5222C30.3173 9.84834 30.1105 9.72583 29.9063 9.59359V9.59209H29.9044L29.8449 9.55313V9.55088H29.8415L29.7831 9.51192V9.50967H29.7797L29.7212 9.47034V9.46846H29.7186C29.6504 9.42164 29.5826 9.37406 29.5152 9.32498V9.32423H29.5144C29.4871 9.30438 29.4601 9.28415 29.4328 9.26392V9.26242H29.4305C29.3687 9.21634 29.3076 9.16913 29.2473 9.12081V9.11819H29.2443C29.211 9.09159 29.1776 9.06424 29.1447 9.03689V9.03614H29.1436C29.0952 8.99606 29.0477 8.95522 29.0005 8.91364V8.91251H28.9993C28.7775 8.71696 28.5696 8.50604 28.3831 8.27827V8.27452H28.3801C28.3535 8.24155 28.3269 8.20858 28.301 8.17524V8.1715H28.2984C28.2568 8.11755 28.2167 8.06285 28.1778 8.00703V8.00666C28.1639 7.9868 28.1504 7.96695 28.1369 7.94709V7.94522H28.1354C28.1219 7.92536 28.1088 7.90513 28.0957 7.8849V7.88341H28.095C28.0523 7.81747 28.0114 7.75079 27.9725 7.6826V7.67773H27.9698L27.9519 7.64552V7.63653H27.947C27.8889 7.53125 27.8357 7.42299 27.7874 7.31135V7.30723H27.7855C27.772 7.27576 27.7589 7.24391 27.7462 7.21207V7.2042H27.7432C27.7301 7.17086 27.7173 7.13714 27.705 7.10343V7.10155H27.7042C27.69 7.06259 27.6765 7.02326 27.6638 6.98355V6.9783H27.6619C27.6555 6.95807 27.6492 6.93747 27.6432 6.91686V6.91649C27.636 6.89289 27.6293 6.86928 27.6226 6.84568V6.83407H27.6196C27.5975 6.75277 27.5776 6.66998 27.5611 6.58569V6.56658H27.5574C27.5514 6.53549 27.5458 6.50439 27.5405 6.47293V6.44333H27.536C27.53 6.40512 27.5248 6.36691 27.5199 6.32794V6.3197H27.5188C27.5102 6.24927 27.5038 6.17772 27.4993 6.10541V5.9904H27.4941C27.4922 5.93496 27.4914 5.87914 27.4922 5.82257C27.4926 5.78248 27.4937 5.7424 27.4948 5.70231H27.4997V5.59067C27.5031 5.52436 27.5076 5.4588 27.5135 5.39324H27.5203V5.32731C27.5259 5.27374 27.5323 5.22016 27.5398 5.16697H27.5409V5.1591C27.5454 5.12726 27.5499 5.09579 27.5548 5.06432H27.5615V5.02461C27.5664 4.99651 27.5705 4.96841 27.5757 4.94069H27.5821V4.9096C27.5866 4.88562 27.5915 4.86164 27.5963 4.83804H27.6027V4.80732C27.6199 4.72753 27.6394 4.64848 27.6604 4.57018H27.6641V4.5552C27.6705 4.53272 27.6765 4.51024 27.6833 4.48776H27.6847V4.48214L27.7016 4.42595H27.7054V4.41321L27.7203 4.36414H27.7256V4.34765L27.7406 4.30232H27.7462V4.28546L27.7612 4.24051H27.7668V4.22552C27.7919 4.15434 27.8189 4.08391 27.8473 4.01423H27.8492V4.00936L27.8642 3.97302H27.8698V3.95991C27.8826 3.92994 27.8957 3.89997 27.9088 3.87H27.911V3.86513L27.9275 3.82879H27.9316V3.82017L27.947 3.78758H27.9522V3.77634L27.9665 3.74637H27.9728V3.73251C28.0043 3.6677 28.0377 3.60364 28.0721 3.54033H28.0759V3.53396L28.0946 3.49912H28.0965V3.49574C28.1073 3.47626 28.1186 3.45678 28.1298 3.4373H28.1377V3.42382L28.1538 3.39609H28.1583V3.3886C28.165 3.37736 28.1714 3.36612 28.1778 3.35488H28.1785V3.35338L28.1905 3.33428H28.1991V3.32042L28.216 3.29307H28.2197V3.28745C28.2313 3.26872 28.2429 3.24999 28.2546 3.23126H28.2606V3.22189C28.2991 3.16232 28.3392 3.10388 28.3804 3.04581H28.3842V3.04057C28.3977 3.02184 28.4112 3.00273 28.425 2.984H28.4254V2.98325L28.4404 2.9634H28.446V2.9559C28.4595 2.93792 28.473 2.91956 28.4865 2.90158H28.4872V2.90083L28.5022 2.88098H28.5078V2.87386C28.5273 2.84838 28.5475 2.82328 28.5678 2.79856H28.5696V2.79631L28.5842 2.77795H28.5902V2.77046C28.6749 2.66706 28.7641 2.56666 28.8573 2.46926H28.8577V2.46888L28.8768 2.44865H28.8783V2.44716L28.8974 2.42805H28.8989V2.42655L28.9177 2.40745H28.9195V2.40557L28.9383 2.38684H28.9401V2.38497L28.9585 2.36624H28.9607V2.36399L28.9791 2.34563H28.9813V2.34338L29.0008 2.32503H29.0019V2.3239L29.0222 2.30442H29.0226V2.30405C29.0806 2.24823 29.1402 2.19353 29.2009 2.13959H29.2076V2.13359L29.2249 2.11898H29.2282V2.11598L29.2488 2.09838C29.2728 2.07777 29.2968 2.05717 29.3215 2.03656H29.3312V2.02869L29.3466 2.01633H29.3519V2.01184L29.3717 1.99573H29.3725V1.99535C29.3979 1.97475 29.423 1.95414 29.4489 1.93391H29.4549V1.92942C29.5152 1.88184 29.577 1.83539 29.6399 1.79006H29.6403V1.78968C29.6594 1.77582 29.6785 1.76233 29.698 1.74885H29.7021V1.74585L29.7568 1.70764H29.7639V1.70277L29.8175 1.66643H29.8258V1.66081L29.8793 1.62522H29.8876V1.61997L29.943 1.58401H29.9494V1.58026L30.0086 1.54317H30.0112V1.5413C30.0438 1.52107 30.0768 1.50122 30.1101 1.48136H30.1142V1.47874C30.1476 1.45888 30.1813 1.43903 30.2154 1.41955H30.2172V1.4188L30.2521 1.39932H30.2585V1.39557L30.2884 1.37871H30.2997V1.37234C30.3334 1.35361 30.3678 1.33526 30.4019 1.3169H30.4023V1.31652L30.4402 1.29629H30.4435V1.29442L30.4799 1.27569H30.4844V1.27344L30.5203 1.25508H30.5256V1.25246C30.5649 1.23261 30.6046 1.21275 30.6447 1.19327H30.6492V1.19102L30.6874 1.17267H30.69V1.17117L30.7301 1.15206H30.7312V1.15169C30.7608 1.13783 30.7908 1.12434 30.8204 1.11085H30.8343V1.10448L30.8657 1.09025H30.8755V1.08575L30.9129 1.06964H30.9167V1.06777C30.9474 1.05428 30.9781 1.04117 31.0092 1.02843H31.0197V1.02394L31.0587 1.00783H31.0609V1.00708C31.1467 0.971865 31.234 0.937774 31.3224 0.905181H31.3288V0.902933L31.379 0.884576H31.3906V0.880455L31.437 0.863972H31.4524V0.858727L31.4951 0.843742H31.5142V0.837373L31.5565 0.823137H31.576V0.816768C31.7008 0.775184 31.8274 0.736223 31.9567 0.699884H31.9671V0.696887L32.0308 0.679279H32.0496V0.674409L32.108 0.658675H32.132V0.652306L32.187 0.63807H32.1938V0.636571L32.2706 0.61784H32.2762V0.616341C32.3028 0.609973 32.3294 0.603229 32.3564 0.597235H32.3586V0.596861C32.4193 0.582625 32.4804 0.569138 32.5418 0.556026H32.5437V0.555651C32.5763 0.548908 32.6089 0.542165 32.6415 0.535421H32.6463V0.534298C32.6801 0.527554 32.7138 0.521186 32.7475 0.514817H32.7696V0.510696C32.7988 0.505076 32.8284 0.499457 32.8576 0.494212H32.8929V0.488218L32.9805 0.473608H32.9959V0.470985C33.0341 0.464616 33.073 0.458622 33.1116 0.453003H33.1195V0.451879C33.2165 0.437268 33.3147 0.423782 33.4136 0.411794H33.4488V0.407673C33.4986 0.401679 33.5481 0.396059 33.5983 0.391189H33.6548V0.385944C33.7114 0.380325 33.7684 0.375455 33.8257 0.370584H33.8609V0.367962C33.9501 0.360844 34.0396 0.35485 34.1303 0.34998H34.252V0.34436C34.4165 0.337242 34.5828 0.333496 34.7514 0.333496C34.9604 0.333496 35.1646 0.339116 35.3635 0.34998H35.365C35.4549 0.35485 35.5434 0.360844 35.631 0.367587V0.37021H35.6659C35.7374 0.376204 35.8082 0.382573 35.8783 0.389691V0.390814H35.8895C35.948 0.396808 36.006 0.403177 36.0637 0.409921V0.411419H36.0761C36.1274 0.417413 36.178 0.424156 36.2282 0.4309V0.432024H36.2375C36.2829 0.438018 36.3278 0.444386 36.3724 0.450755V0.452254H36.3833C36.4279 0.458997 36.4724 0.46574 36.5163 0.472858H36.5166C36.5579 0.479602 36.5991 0.486345 36.6399 0.493463H36.6406L36.7429 0.511445V0.514068H36.7568C36.7935 0.520811 36.8302 0.527554 36.8662 0.534672C36.9006 0.541415 36.9347 0.548159 36.9688 0.554902H36.9696C37.0318 0.56764 37.0932 0.580377 37.1539 0.593864V0.596111H37.164C37.2232 0.609223 37.2816 0.62271 37.3393 0.636197V0.636946H37.3434C37.4259 0.656427 37.5068 0.676657 37.5866 0.697636V0.69876H37.5915L37.669 0.719365H37.6694C37.7177 0.732477 37.7657 0.745589 37.8132 0.758701V0.760199H37.8192C37.9369 0.793167 38.0515 0.827633 38.1631 0.862473V0.863222H38.1654L38.225 0.881954V0.883827H38.2306C38.3778 0.930656 38.5202 0.978983 38.6573 1.02731V1.02768H38.6588L38.7708 1.06777L38.0159 4.58891C36.0933 3.70366 34.3959 3.76585 33.7811 3.84565C32.5399 4.00824 31.9731 4.64136 31.9593 5.23665C31.9405 6.1159 33.1562 6.64938 34.4996 7.36679V7.36717H34.5004C34.9597 7.61255 35.434 7.87966 35.8786 8.18948V8.1906H35.8801C35.9843 8.26328 36.0869 8.33783 36.1873 8.41538V8.41688H36.1896C36.2585 8.47045 36.3267 8.52515 36.3934 8.58097V8.58134H36.3941C36.5916 8.74655 36.7781 8.923 36.9493 9.11369V9.11631H36.9516C37.022 9.19498 37.0902 9.2759 37.155 9.35945V9.36319H37.158C37.1996 9.41676 37.2397 9.47146 37.2786 9.52728V9.52803H37.279C37.2929 9.54751 37.3064 9.56699 37.3198 9.58685V9.58984H37.3221C37.3352 9.60932 37.3483 9.62955 37.3611 9.64941V9.65166H37.3626C37.4053 9.71759 37.4457 9.78465 37.4847 9.85358V9.8577H37.4869C37.5457 9.96185 37.6001 10.0694 37.6491 10.1803V10.187H37.6521C37.7346 10.3739 37.8024 10.5717 37.8548 10.7804V10.7838H37.8556C37.8619 10.8096 37.8691 10.8355 37.8754 10.8617V10.8662H37.8765C37.8837 10.8977 37.8897 10.9303 37.896 10.9625V10.9692H37.8975C37.9043 11.0026 37.911 11.0359 37.9166 11.07V11.0723H37.917C37.9245 11.1153 37.9312 11.1592 37.9372 11.203V11.2161H37.9391C37.965 11.4075 37.9784 11.6083 37.9773 11.8185C37.9769 11.9346 37.9728 12.0497 37.9657 12.1632H37.9578V12.2752C37.9488 12.3835 37.9372 12.4902 37.9223 12.5955H37.9166V12.6333C37.9125 12.6618 37.908 12.6907 37.9031 12.7191H37.896V12.7633C37.8915 12.7899 37.8863 12.8162 37.881 12.8428H37.8754V12.8731C37.8694 12.9042 37.8631 12.9353 37.8563 12.9664H37.8548V12.9727C37.8372 13.0537 37.8185 13.1342 37.7975 13.2133H37.7934V13.2286L37.7803 13.2751H37.7728V13.3024C37.7675 13.3208 37.7627 13.3391 37.757 13.3571H37.7522V13.3729L37.7379 13.4189H37.7316V13.4392C37.7248 13.4598 37.7185 13.4807 37.7117 13.5014H37.711V13.5036C37.7042 13.5235 37.6975 13.5433 37.6904 13.5632C37.6713 13.6186 37.6514 13.6733 37.6304 13.7276H37.6285V13.7321C37.6237 13.7445 37.6196 13.7565 37.6147 13.7688H37.6083V13.7846L37.5892 13.8307H37.5877V13.8348L37.5723 13.8719H37.5671V13.8846L37.5547 13.9131H37.5465V13.9318L37.5274 13.9749H37.5259V13.9779L37.5087 14.0161H37.5053V14.024L37.4892 14.0573H37.4847V14.067C37.4532 14.1334 37.4202 14.1985 37.3862 14.263H37.382V14.2712L37.3644 14.3042H37.3614V14.3094L37.3412 14.3454H37.3408V14.3461C37.3296 14.3664 37.3184 14.387 37.3067 14.4072H37.2996V14.4196L37.2824 14.448H37.279V14.4537L37.2453 14.5099H37.2378V14.5222L37.2202 14.5511H37.2172V14.5559C37.1659 14.638 37.1119 14.7189 37.0557 14.7979H37.0524V14.8024C37.0336 14.8287 37.0149 14.8545 36.9958 14.8804H36.9906V14.8875C36.9718 14.913 36.9523 14.9377 36.9332 14.9628H36.9287V14.9684C36.9089 14.9942 36.8886 15.0197 36.868 15.0452H36.8669V15.0467L36.8512 15.0658H36.8463V15.0718C36.8197 15.1044 36.7924 15.1366 36.765 15.1688H36.7643V15.17L36.7474 15.1894H36.7437V15.1936C36.6777 15.2692 36.6092 15.3434 36.5384 15.4157H36.538V15.4161L36.5185 15.4363H36.5178V15.4371L36.4987 15.4565H36.4972V15.458L36.4777 15.4771H36.4766V15.4779L36.4563 15.4974H36.456V15.4978C36.3915 15.5607 36.3252 15.6225 36.2574 15.6828H36.2503V15.6892L36.2338 15.7034H36.2297V15.7068L36.2098 15.724H36.2091V15.7248C36.1855 15.7454 36.1615 15.7656 36.1375 15.7858H36.1267V15.7948L36.1124 15.8064H36.106V15.8117L36.0873 15.8271H36.0854V15.8285C36.0521 15.8559 36.018 15.8829 35.9839 15.9095H35.9824V15.9106C35.9292 15.9522 35.8749 15.993 35.8198 16.0331H35.818V16.0346L35.7621 16.0743H35.7561V16.0784L35.7033 16.1155H35.6943V16.1215L35.6426 16.1567H35.6329V16.1631L35.5808 16.1976H35.5715V16.2039L35.5171 16.2388H35.5096V16.2436C35.4572 16.277 35.4036 16.3096 35.3497 16.3418H35.3452V16.3444C35.3118 16.3643 35.2781 16.3841 35.244 16.4032H35.2422V16.4044L35.2073 16.4238H35.2009V16.4272L35.1706 16.4444H35.1597V16.4504L35.1335 16.465H35.1185V16.4729C35.0848 16.4909 35.0511 16.5089 35.017 16.5265H35.0155V16.5272L34.9773 16.5471H34.9743V16.5486L34.9361 16.5677H34.9331V16.5692L34.8949 16.5883H34.8919V16.5898C34.8649 16.6033 34.8379 16.6164 34.8106 16.6295H34.8095V16.6299C34.7664 16.6505 34.7225 16.6711 34.6787 16.6909H34.6652V16.6969L34.6323 16.7116H34.624V16.7153L34.5858 16.7322H34.5828V16.7337L34.5393 16.7528H34.521V16.7606L34.4903 16.7734H34.4798V16.7779L34.4408 16.794H34.4386V16.7947C34.4056 16.8082 34.3726 16.8217 34.3393 16.8348H34.3355V16.8363C34.228 16.879 34.1186 16.9195 34.0074 16.9584H34.0062V16.9588L33.9474 16.979H33.9444V16.9802L33.8864 16.9996H33.8826V17.0008L33.8223 17.0202H33.8208V17.0206C33.7084 17.0566 33.5942 17.0907 33.478 17.1229H33.4709V17.1248C33.4484 17.1311 33.4263 17.1375 33.4038 17.1435H33.3889V17.1476L33.3244 17.1641H33.3064V17.1686C33.2855 17.1738 33.2649 17.1795 33.2439 17.1847H33.224V17.19C33.2023 17.1952 33.1802 17.2001 33.1585 17.2053H33.1416V17.2094L33.0712 17.2259H33.0592V17.2289C33.0326 17.2349 33.0052 17.2409 32.9783 17.2465H32.9768V17.2469C32.912 17.2611 32.846 17.2746 32.7801 17.2877H32.7707V17.2896C32.7389 17.296 32.707 17.3023 32.6748 17.3083H32.6471V17.3132L32.5591 17.3289H32.5235V17.3353L32.4369 17.3495H32.3998V17.3555C32.3691 17.3604 32.3384 17.3657 32.3073 17.3701H32.2762V17.3746C32.1856 17.3881 32.0938 17.4001 32.0012 17.4114H31.9877V17.4129C31.9319 17.4196 31.8757 17.426 31.8195 17.432H31.7615V17.438C31.7098 17.4432 31.6577 17.4477 31.6056 17.4526H31.5558V17.4571C31.343 17.4747 31.1257 17.487 30.9043 17.4938H30.7118V17.4983C30.641 17.4994 30.5698 17.5001 30.4982 17.5001C30.439 17.4994 30.3798 17.4986 30.3206 17.4972L30.3176 17.4994ZM46.0244 0.63807L46.0019 0.638445V0.639194H45.9626C45.8494 0.642566 45.7389 0.654928 45.6314 0.675908V0.680403H45.6082C45.5816 0.686023 45.555 0.692017 45.5284 0.69876V0.701008H45.519C45.4946 0.707376 45.4699 0.71412 45.4459 0.721238V0.721612H45.4441C45.4238 0.727606 45.404 0.733975 45.3841 0.740718V0.742217H45.3793C45.3601 0.748586 45.341 0.755329 45.3223 0.762447V0.762822H45.3212L45.2815 0.778181V0.783426H45.2684C45.2523 0.79017 45.2358 0.796913 45.2197 0.804031H45.2193C45.1773 0.822388 45.1365 0.841868 45.096 0.863222V0.865845H45.0912L45.0548 0.885325V0.886075H45.0533C45.0189 0.905181 44.9851 0.925411 44.9522 0.946765V0.947889H44.9503C44.9301 0.961001 44.9102 0.974113 44.8904 0.987974V0.989098H44.8889C44.8615 1.0082 44.8345 1.02806 44.8083 1.04866V1.05091H44.8053L44.7877 1.06515V1.07152H44.7795C44.7469 1.09774 44.7154 1.12509 44.6847 1.15356V1.15393H44.6843L44.6641 1.17267V1.17454H44.6622L44.6435 1.19252V1.19514H44.6409L44.6229 1.21313V1.21575H44.6203L44.6023 1.23411V1.23635H44.6004L44.5817 1.25583V1.25658H44.5809C44.5221 1.31952 44.4678 1.38658 44.4172 1.45738V1.46263H44.4135C44.4007 1.48061 44.3884 1.49897 44.376 1.5177V1.52444H44.3715C44.3041 1.62784 44.2453 1.73873 44.1962 1.85599L43.9643 2.40932V2.40969L43.3263 3.93256V3.93294L42.6883 5.45581L42.0503 6.97868L37.7507 17.2428H42.2605L43.1566 14.762H48.6666L49.1859 17.2428H53.1584L49.6909 0.63807H46.0247H46.0244ZM46.6534 5.12463L47.2981 8.21383V8.2142L47.9548 11.3596H44.3921L46.6534 5.12501V5.12463ZM22.0256 0.63807L21.8581 1.42067V1.42105L20.726 6.71082L19.6557 11.7121L18.5854 16.7134V16.7138L18.5236 17.0019L18.4722 17.2424H22.7677L24.3689 9.75693L26.3196 0.637695H22.0252L22.0256 0.63807ZM15.67 0.637695L11.1992 11.9391L9.39084 2.33027L9.38559 2.30592H9.38485V2.30143C9.37923 2.2752 9.37361 2.24898 9.36724 2.2235H9.36424V2.21151C9.36012 2.19503 9.35563 2.17817 9.3515 2.16206H9.34401V2.13397C9.33877 2.11561 9.33352 2.09763 9.3279 2.07964H9.32341V2.06578C9.31816 2.04967 9.31292 2.03394 9.30767 2.01783H9.3028V2.00359C9.29006 1.96651 9.2762 1.93017 9.26159 1.89458V1.8942L9.24436 1.85337H9.24099V1.8455L9.22638 1.81216H9.22038V1.7998L9.2069 1.77132H9.19978V1.75671L9.18667 1.73012H9.17917V1.7155C9.14883 1.65631 9.11586 1.59937 9.08065 1.54467H9.07615V1.53756C9.06416 1.51882 9.0518 1.50084 9.03944 1.48286H9.03532V1.47687C9.0222 1.45813 9.00872 1.4394 8.99486 1.42142H8.99411V1.4203L8.97912 1.40082H8.9735V1.39332C8.95365 1.36785 8.93304 1.34275 8.91206 1.3184H8.91169V1.31802L8.89408 1.29779H8.89108V1.29442L8.87572 1.27719H8.87085V1.27157L8.85699 1.25658H8.85025V1.24947L8.83714 1.23598H8.82964V1.22811L8.81728 1.21537H8.80941V1.20713L8.79705 1.19477H8.78918V1.18728L8.7757 1.17454H8.76858V1.1678L8.75359 1.15393H8.74798V1.14869L8.73074 1.13333H8.72737V1.13033L8.70752 1.11273H8.70677V1.11235C8.6738 1.08388 8.63971 1.05653 8.60524 1.03068H8.60412V1.02993C8.58576 1.01607 8.56703 1.00296 8.54792 0.989847H8.5423V0.985726C8.52395 0.972989 8.50522 0.960626 8.48611 0.948638H8.48049V0.944892C8.46026 0.932154 8.43966 0.919417 8.41905 0.907429C8.3947 0.893193 8.36997 0.879331 8.34487 0.866219H8.33663V0.862098L8.30441 0.845615H8.29542V0.841119L8.26171 0.82501H8.25421V0.821638C8.24148 0.815644 8.22874 0.810025 8.216 0.804405H8.213V0.803282C8.18041 0.789046 8.14707 0.775559 8.11373 0.763196H8.10998V0.762072C8.09162 0.755329 8.07364 0.74896 8.05491 0.742592H8.04817V0.740344C8.02906 0.733975 8.00958 0.727981 7.9901 0.721987H7.98635V0.720863C7.96275 0.713745 7.93915 0.707376 7.91517 0.701382H7.90393V0.69876C7.87809 0.692391 7.85186 0.686397 7.82564 0.680778H7.82152V0.680028C7.78443 0.672536 7.74696 0.665793 7.70913 0.660173H7.67766V0.655678C7.60948 0.646686 7.54092 0.641442 7.47124 0.639568H7.4304V0.638819L7.41055 0.638445H0.10115L0 1.11984C1.50002 1.44615 3.20533 1.97213 4.23781 2.53295C4.87018 2.87611 5.05038 3.17581 5.2583 3.99138L5.4134 4.59154L8.089 14.9444V14.9448L8.56253 16.7764L8.68316 17.2432H13.2233L16.2398 10.0458L20.1828 0.638445H15.6711L15.67 0.637695Z" fill="white"/>
</svg>
