<svg width="26" height="26" viewBox="0 0 26 26" fill="none" xmlns="http://www.w3.org/2000/svg">
<path d="M0 25.135L1.7584 18.8897C0.627647 16.9687 0.0322958 14.783 0.0322958 12.5377C0.0322958 5.62441 5.6567 0 12.57 0C19.4834 0 25.1077 5.62441 25.1077 12.5377C25.1077 19.4511 19.4834 25.0755 12.57 25.0755C10.4159 25.0755 8.30656 24.5241 6.44055 23.4771L0 25.135ZM6.76981 21.1961L7.15359 21.4304C8.78052 22.4237 10.6535 22.9487 12.57 22.9487C18.3106 22.9487 22.9809 18.2783 22.9809 12.5377C22.9809 6.79715 18.3106 2.12682 12.57 2.12682C6.82944 2.12682 2.15911 6.79715 2.15911 12.5377C2.15911 14.538 2.7276 16.4804 3.80298 18.155L4.06143 18.5574L3.04883 22.1539L6.76981 21.1961Z" fill="#0FAB14"/>
<path d="M9.04886 6.70256L8.23532 6.65821C7.97978 6.64427 7.72914 6.72966 7.53599 6.89744C7.14158 7.23994 6.51094 7.90209 6.31724 8.76494C6.02839 10.0515 6.47479 11.6269 7.63012 13.2023C8.78545 14.7778 10.9385 17.2984 14.7457 18.375C15.9726 18.7219 16.9377 18.488 17.6823 18.0117C18.2721 17.6345 18.6786 17.029 18.8251 16.3444L18.955 15.7378C18.9963 15.5449 18.8984 15.3493 18.7193 15.2667L15.9698 13.9994C15.7913 13.9171 15.5796 13.9691 15.4596 14.1247L14.3802 15.524C14.2986 15.6297 14.1591 15.6716 14.033 15.6273C13.2938 15.3675 10.8177 14.3305 9.4591 11.7134C9.40018 11.5999 9.41483 11.4621 9.49841 11.3653L10.53 10.1719C10.6354 10.0501 10.662 9.87876 10.5987 9.73067L9.4135 6.95786C9.3504 6.81024 9.209 6.7113 9.04886 6.70256Z" fill="#0FAB14"/>
</svg>
