<svg width="40" height="40" viewBox="0 0 40 40" fill="none" xmlns="http://www.w3.org/2000/svg">
<path d="M20 40C31.0457 40 40 31.0457 40 20C40 8.9543 31.0457 0 20 0C8.9543 0 0 8.9543 0 20C0 31.0457 8.9543 40 20 40Z" fill="#F0F0F0"/>
<path d="M4.13436 7.82349C2.56334 9.86747 1.37873 12.2233 0.688965 14.7826H11.0935L4.13436 7.82349Z" fill="#0052B4"/>
<path d="M39.3111 14.7828C38.6214 12.2236 37.4367 9.86772 35.8657 7.82373L28.9067 14.7828H39.3111Z" fill="#0052B4"/>
<path d="M0.688965 25.2175C1.37881 27.7767 2.56342 30.1326 4.13436 32.1765L11.0933 25.2175H0.688965Z" fill="#0052B4"/>
<path d="M32.1763 4.13443C30.1324 2.56342 27.7766 1.37881 25.2173 0.688965V11.0934L32.1763 4.13443Z" fill="#0052B4"/>
<path d="M7.82324 35.8656C9.86723 37.4367 12.2231 38.6213 14.7823 39.3111V28.9067L7.82324 35.8656Z" fill="#0052B4"/>
<path d="M14.7822 0.688965C12.223 1.37881 9.86715 2.56342 7.82324 4.13435L14.7822 11.0933V0.688965Z" fill="#0052B4"/>
<path d="M25.2173 39.3111C27.7765 38.6213 30.1324 37.4367 32.1763 35.8657L25.2173 28.9067V39.3111Z" fill="#0052B4"/>
<path d="M28.9067 25.2175L35.8657 32.1766C37.4367 30.1327 38.6214 27.7767 39.3111 25.2175H28.9067Z" fill="#0052B4"/>
<path d="M39.8307 17.3913H22.6088H22.6087V0.169297C21.7548 0.058125 20.8841 0 20 0C19.1157 0 18.2452 0.058125 17.3913 0.169297V17.3912V17.3913H0.169297C0.058125 18.2452 0 19.1159 0 20C0 20.8843 0.058125 21.7548 0.169297 22.6087H17.3912H17.3913V39.8307C18.2452 39.9419 19.1157 40 20 40C20.8841 40 21.7548 39.942 22.6087 39.8307V22.6088V22.6087H39.8307C39.9419 21.7548 40 20.8843 40 20C40 19.1159 39.9419 18.2452 39.8307 17.3913Z" fill="#D80027"/>
<path d="M25.2173 25.2176L34.142 34.1423C34.5524 33.732 34.944 33.303 35.3176 32.8583L27.6768 25.2175H25.2173V25.2176Z" fill="#D80027"/>
<path d="M14.7824 25.2175H14.7823L5.85767 34.1421C6.26798 34.5526 6.69696 34.9442 7.14165 35.3178L14.7824 27.6768V25.2175Z" fill="#D80027"/>
<path d="M14.7829 14.7828V14.7827L5.85824 5.85791C5.44777 6.26822 5.05621 6.69721 4.68262 7.14189L12.3235 14.7828H14.7829V14.7828Z" fill="#D80027"/>
<path d="M25.2173 14.7828L34.142 5.85792C33.7317 5.44745 33.3028 5.05589 32.8581 4.68237L25.2173 12.3232V14.7828V14.7828Z" fill="#D80027"/>
</svg>
