<svg width="40" height="40" viewBox="0 0 40 40" fill="none" xmlns="http://www.w3.org/2000/svg">
<g clip-path="url(#clip0_39_7)">
<path d="M20 40C31.0457 40 40 31.0457 40 20C40 8.9543 31.0457 0 20 0C8.9543 0 0 8.9543 0 20C0 31.0457 8.9543 40 20 40Z" fill="#F0F0F0"/>
<path d="M40.0001 19.9999C40.0001 11.4006 34.5726 4.06976 26.9565 1.2439V38.756C34.5726 35.9301 40.0001 28.5992 40.0001 19.9999Z" fill="#D80027"/>
<path d="M0 19.9999C0 28.5992 5.42758 35.9301 13.0435 38.7559V1.2439C5.42758 4.06976 0 11.4006 0 19.9999Z" fill="#0052B4"/>
</g>
<defs>
<clipPath id="clip0_39_7">
<rect width="40" height="40" fill="white"/>
</clipPath>
</defs>
</svg>
