<svg width="103" height="89" viewBox="0 0 103 89" fill="none" xmlns="http://www.w3.org/2000/svg">
<path d="M4.05742 88.4751C3.86063 88.6688 3.54405 88.6663 3.35032 88.4695L0.193406 85.2627C-0.00031775 85.0659 0.00216794 84.7493 0.198956 84.5556C0.395745 84.3619 0.712318 84.3644 0.906042 84.5611L3.71219 87.4117L6.56272 84.6055C6.75951 84.4118 7.07608 84.4143 7.26981 84.6111C7.46353 84.8079 7.46105 85.1244 7.26426 85.3182L4.05742 88.4751ZM102.185 1.23056C55.9193 1.59487 4.63245 33.8465 4.20663 88.1227L3.20666 88.1148C3.63831 33.0954 55.5861 0.597463 102.177 0.230593L102.185 1.23056Z" fill="#676767"/>
</svg>
