<?xml version="1.0" encoding="UTF-8" standalone="no"?>
<svg
   xmlns:dc="http://purl.org/dc/elements/1.1/"
   xmlns:cc="http://creativecommons.org/ns#"
   xmlns:rdf="http://www.w3.org/1999/02/22-rdf-syntax-ns#"
   xmlns:svg="http://www.w3.org/2000/svg"
   xmlns="http://www.w3.org/2000/svg"
   xmlns:sodipodi="http://sodipodi.sourceforge.net/DTD/sodipodi-0.dtd"
   xmlns:inkscape="http://www.inkscape.org/namespaces/inkscape"
   width="35"
   height="35"
   viewBox="0 0 35 35"
   fill="none"
   version="1.1"
   id="svg4"
   sodipodi:docname="burgerM.svg"
   inkscape:export-filename="\\sibgenco.local\xdpf\Folders_KMR\HabarovAlV\My Documents\JS\SPEAKY\assets\images\burgerM.png"
   inkscape:export-xdpi="200"
   inkscape:export-ydpi="200"
   inkscape:version="1.0.2 (e86c870879, 2021-01-15, custom)">
  <metadata
     id="metadata10">
    <rdf:RDF>
      <cc:Work
         rdf:about="">
        <dc:format>image/svg+xml</dc:format>
        <dc:type
           rdf:resource="http://purl.org/dc/dcmitype/StillImage" />
        <dc:title></dc:title>
      </cc:Work>
    </rdf:RDF>
  </metadata>
  <defs
     id="defs8" />
  <sodipodi:namedview
     pagecolor="#ffffff"
     bordercolor="#666666"
     borderopacity="1"
     objecttolerance="10"
     gridtolerance="10"
     guidetolerance="10"
     inkscape:pageopacity="0"
     inkscape:pageshadow="2"
     inkscape:window-width="1920"
     inkscape:window-height="1017"
     id="namedview6"
     showgrid="false"
     inkscape:zoom="10.017346"
     inkscape:cx="27.057914"
     inkscape:cy="8.6146168"
     inkscape:window-x="-8"
     inkscape:window-y="-8"
     inkscape:window-maximized="1"
     inkscape:current-layer="svg4"
     units="px" />
  <path
     fill-rule="evenodd"
     clip-rule="evenodd"
     d="m 7.6866666,10.083377 c 0,-0.2761424 0.223858,-0.5000004 0.5,-0.5000004 H 27.186667 c 0.2761,0 0.5,0.223858 0.5,0.5000004 0,0.276142 -0.2239,0.5 -0.5,0.5 H 8.1866666 c -0.276143,0 -0.5,-0.223858 -0.5,-0.5 z m 0,7 c 0,-0.27614 0.223858,-0.5 0.5,-0.5 H 27.186667 c 0.2761,0 0.5,0.22386 0.5,0.5 0,0.27614 -0.2239,0.5 -0.5,0.5 H 8.1866666 c -0.276143,0 -0.5,-0.22386 -0.5,-0.5 z m 0.5,6.5 c -0.276142,0 -0.5,0.2239 -0.5,0.5 0,0.2761 0.223857,0.5 0.5,0.5 H 27.186667 c 0.2761,0 0.5,-0.2239 0.5,-0.5 0,-0.2761 -0.2239,-0.5 -0.5,-0.5 z"
     fill="#000000"
     id="path2"
     inkscape:export-xdpi="200"
     inkscape:export-ydpi="200" />
</svg>
