<?xml version="1.0" encoding="utf-8"?>
<!-- Generator: Adobe Illustrator 23.0.1, SVG Export Plug-In . SVG Version: 6.00 Build 0)  -->
<svg version="1.1" id="Layer_1" xmlns="http://www.w3.org/2000/svg" xmlns:xlink="http://www.w3.org/1999/xlink" x="0px" y="0px"
	 viewBox="0 0 226.77 85.04" style="enable-background:new 0 0 226.77 85.04;" xml:space="preserve">
<style type="text/css">
	.st0{display:none;fill:#FFFFFF;}
	.st1{fill:#426A68;}
	.st2{fill:#436C6A;stroke:#426A68;stroke-width:0.5;stroke-miterlimit:10;}
	.st3{clip-path:url(#SVGID_1_);}
	.st4{fill:#436C6A;stroke:#426A68;stroke-miterlimit:10;}
</style>
<rect x="0" y="0" class="st0" width="226.77" height="85.04"/>
<g>
	<g>
		<path class="st1" d="M107.69,26.17c-3.82-0.89-4.35-2.1-4.35-3.26c0-1.94,1.22-2.88,3.74-2.88c1.85,0,3.48,0.42,5.14,1.32
			l0.4,0.22l0.25-0.38c0.44-0.66,0.7-1.48,0.7-2.21c0-0.96-0.51-1.52-1.65-1.83c-1.59-0.47-2.98-0.67-4.81-0.67
			c-5.74,0-7.78,3.5-7.78,6.77c0,3.32,2.22,5.51,6.59,6.51c3.97,0.94,4.78,2.19,4.78,3.78c0,2.58-2.35,3.13-4.32,3.13
			c-1.96,0-3.81-0.54-5.8-1.69l-0.4-0.23l-0.26,0.38c-0.44,0.64-0.7,1.47-0.7,2.22c0,0.97,0.46,1.53,1.58,1.94
			c1.58,0.6,3.48,0.92,5.5,0.92c5.06,0,8.46-2.82,8.46-7.01C114.75,29.5,112.57,27.33,107.69,26.17z"/>
		<path class="st1" d="M125.98,16.78h-7.6v23.13h3.92V32.5h3.68c5.36,0,8.43-2.86,8.43-7.84C134.41,19.65,131.34,16.78,125.98,16.78
			z M122.31,20.18h3.68c2.99,0,4.45,1.46,4.45,4.48c0,2.97-1.5,4.48-4.45,4.48h-3.68V20.18z"/>
		<polygon class="st1" points="141.48,29.61 149.72,29.61 149.72,26.22 141.48,26.22 141.48,20.18 151.8,20.18 151.8,16.78 
			137.56,16.78 137.56,39.91 151.99,39.91 151.99,36.51 141.48,36.51 		"/>
		<path class="st1" d="M164.99,16.96l-0.15-0.17h-3.1l-0.15,0.17c-4.03,4.65-6.89,13.24-7.47,22.42l-0.03,0.53h4.05l0.02-0.48
			c0.08-1.75,0.25-3.46,0.48-5.09h9.28c0.22,1.54,0.39,3.21,0.52,5.09l0.03,0.47h4.01l-0.03-0.53
			C171.96,30.45,169.03,21.65,164.99,16.96z M167.32,30.95h-8.05c0.89-4.1,2.24-7.59,4.02-10.39
			C165.11,23.41,166.46,26.9,167.32,30.95z"/>
		<path class="st1" d="M185.46,27.47c3.5-2.6,5.97-6.24,6.83-10.08l0.14-0.61h-4.19l-0.09,0.39c-1.03,4.4-4.02,7.93-8.05,9.56v-9.95
			h-3.92v23.13h3.92v-9.6c0.71-0.24,1.39-0.51,2.02-0.81c3.4,2.17,5.53,5.53,6.33,10l0.07,0.41h4.2l-0.09-0.57
			C191.93,34.6,189.21,30.13,185.46,27.47z"/>
		<path class="st1" d="M208.03,16.78l-0.04,0.45c-0.47,5-2.09,8.88-4.82,11.56c-2.81-2.67-4.47-6.56-4.94-11.56l-0.04-0.45h-4.04
			l0.05,0.55c0.54,5.83,3.07,11.12,6.97,14.53v8.05h3.89v-8.05c3.97-3.48,6.51-8.76,6.97-14.54l0.04-0.54H208.03z"/>
	</g>
	<g>
		<path class="st2" d="M100.22,52.12c0-2.26,1.71-4.11,5.41-4.11c1.58,0,3.4,0.52,4.8,1.59l0.28-0.42c-1.28-1.01-3.22-1.66-5.1-1.66
			c-4.12,0-5.88,2.18-5.88,4.58c0,6.71,11.19,3.12,11.19,9.23c0,2.24-1.71,4.06-5.53,4.06c-2.46,0-4.7-1.07-5.81-2.42l-0.35,0.34
			c1.18,1.51,3.62,2.57,6.19,2.57c4.17,0,6.01-2.13,6.01-4.55C111.41,54.74,100.22,58.25,100.22,52.12z"/>
		<path class="st2" d="M124.64,48.01c2.14,0,4.07,0.6,5.68,2.18l0.3-0.36c-1.51-1.56-3.67-2.31-5.99-2.31
			c-5.15,0-9.03,3.93-9.03,9.18c0,5.25,3.87,9.18,9.03,9.18c2.31,0,4.48-0.78,5.99-2.34l-0.3-0.36c-1.61,1.59-3.55,2.21-5.68,2.21
			c-4.85,0-8.52-3.77-8.52-8.68C116.11,51.78,119.78,48.01,124.64,48.01z"/>
		<polygon class="st2" points="149.93,56.3 137.11,56.3 137.11,47.59 136.61,47.59 136.61,65.79 137.11,65.79 137.11,56.8 
			149.93,56.8 149.93,65.79 150.44,65.79 150.44,47.59 149.93,47.59 		"/>
		<path class="st2" d="M165.55,47.52c-5.15,0-9.03,3.93-9.03,9.18c0,5.25,3.87,9.18,9.03,9.18c5.16,0,9.03-3.93,9.03-9.18
			C174.58,51.44,170.71,47.52,165.55,47.52z M165.55,65.38c-4.85,0-8.52-3.72-8.52-8.68c0-4.96,3.67-8.68,8.52-8.68
			c4.85,0,8.53,3.72,8.53,8.68C174.08,61.66,170.4,65.38,165.55,65.38z"/>
		<path class="st2" d="M187.83,47.52c-5.15,0-9.03,3.93-9.03,9.18c0,5.25,3.87,9.18,9.03,9.18c5.16,0,9.03-3.93,9.03-9.18
			C196.86,51.44,192.99,47.52,187.83,47.52z M187.83,65.38c-4.85,0-8.52-3.72-8.52-8.68c0-4.96,3.67-8.68,8.52-8.68
			c4.85,0,8.53,3.72,8.53,8.68C196.35,61.66,192.68,65.38,187.83,65.38z"/>
		<polygon class="st2" points="211.57,65.3 211.57,47.59 212.07,47.59 212.07,65.79 201.08,65.79 201.08,65.3 		"/>
	</g>
</g>
<g>
	<defs>
		<path id="SVGID_3_" d="M85.04,42.52C85.04,66,66,85.04,42.52,85.04C19.04,85.04,0,66,0,42.52C0,19.04,19.04,0,42.52,0
			C66,0,85.04,19.04,85.04,42.52z"/>
	</defs>
	<clipPath id="SVGID_1_">
		<use xlink:href="#SVGID_3_"  style="overflow:visible;"/>
	</clipPath>
	<g class="st3">
		<g>
			<path class="st4" d="M42.52,0C19.04,0,0,19.04,0,42.52c0,4.88,0.83,9.56,2.34,13.92c0.99-2.92,2.63-5.66,4.95-7.99
				c2.14-2.14,6.9-7.29,9.56-8.3c2.83-4.42,5.04-6.3,10.54-11.8c11.1-11.1,22.09-18.1,24.56-15.63c2.47,2.47-4.53,13.46-15.63,24.56
				c-2.36,2.36-4.71,4.52-6.98,6.45c2.66,1.01,5.15,2.57,7.29,4.71c2.14,2.14,3.7,4.64,4.71,7.3c1.93-2.27,4.1-4.62,6.46-6.98
				c11.1-11.1,22.1-18.1,24.56-15.63c2.47,2.47-4.53,13.46-15.63,24.56c-5.5,5.5-7.29,7.79-11.72,10.62
				c-1.01,2.65-6.25,7.34-8.38,9.47c-2.31,2.31-5.04,3.94-7.93,4.93c4.33,1.49,8.98,2.31,13.81,2.31C66,85.04,85.04,66,85.04,42.52
				C85.04,19.04,66,0,42.52,0z"/>
			<g>
				<path class="st4" d="M19.47,59.15c-0.39,0.39-1.02,0.39-1.41,0c-0.39-0.39-0.39-1.02,0-1.41c0.39-0.39,1.02-0.39,1.41,0
					C19.86,58.13,19.86,58.76,19.47,59.15z"/>
				<path class="st4" d="M27.38,67.06c-0.39,0.39-1.02,0.39-1.41,0c-0.39-0.39-0.39-1.02,0-1.41c0.39-0.39,1.02-0.39,1.41,0
					C27.77,66.04,27.77,66.67,27.38,67.06z"/>
				<path class="st4" d="M19.97,69.82c-0.93,0.93-4.17-0.8-4.17-0.8s-1.74-3.25-0.81-4.17c0.93-0.93,2.44-0.21,3.82,1.16
					C20.18,67.38,20.9,68.89,19.97,69.82z"/>
			</g>
		</g>
	</g>
</g>
</svg>
