<svg width="18" height="17" viewBox="0 0 18 17" fill="none" xmlns="http://www.w3.org/2000/svg">
<g id="heart">
<path id="Vector" d="M1.96821 8.12664L1.80735 7.92312C1.28494 7.17907 1 6.28594 1 5.38643C1 2.97949 2.98593 1 5.45087 1C6.56255 1 7.58147 1.3751 8.37185 2.03897L9.00759 2.57295L9.64939 2.04627C10.4731 1.37034 11.4897 1 12.549 1C15.014 1 17 2.97951 17 5.38643C17 6.43873 16.6287 7.38816 15.9832 8.08015L15.9741 8.08986L15.9653 8.09981L8.9975 15.9783C8.98437 15.992 8.96598 16 8.94618 16C8.92648 16 8.9101 15.9921 8.89867 15.9794L8.15415 16.647L8.90157 15.9826C3.43322 9.83064 2.25159 8.48518 1.96821 8.12664Z" stroke="black" stroke-width="2"/>
</g>
</svg>
