<svg width="139" height="16" viewBox="0 0 139 16" fill="none" xmlns="http://www.w3.org/2000/svg">
<g id="Group 18">
<path id="Vector" d="M14.163 0.193848V2.54454H8.88183V15.8651H6.04033V2.54454H0.730469V0.193848H14.163Z" fill="#1A171B"/>
<path id="Vector_2" d="M24.0496 15.8651L17.5215 0.193848H20.5524L24.8657 10.716L29.2663 0.193848H30.4321L34.8327 10.716L39.146 0.193848H42.1478L35.6196 15.8651H34.4247L29.8492 4.78329L25.2737 15.8651H24.0496Z" fill="#1A171B"/>
<path id="Vector_3" d="M48.5458 13.5144H57.819V15.8651H45.5059V0.193848H57.5734V2.54454H48.5458V6.82616H57.297V9.03692H48.5458V13.5144Z" fill="#1A171B"/>
<path id="Vector_4" d="M74.2266 0.249517H76.8488V15.8651H75.4368L64.9191 4.81451V15.8373H62.2969V0.193848H63.68L74.2266 11.2445V0.249517Z" fill="#1A171B"/>
<path id="Vector_5" d="M93.6396 0.193848V2.54454H88.3584V15.8651H85.5169V2.54454H80.207V0.193848H93.6396Z" fill="#1A171B"/>
<path id="Vector_6" d="M100.356 0.193848H98.1172V15.8651H100.356V0.193848Z" fill="#1A171B"/>
<path id="Vector_7" d="M119.005 0.249517H121.622V15.8651H120.213L109.687 4.81451V15.8373H107.07V0.193848H108.479L119.005 11.2445V0.249517Z" fill="#1A171B"/>
<path id="Vector_8" d="M129.984 13.5144H138.414V15.8651H127.221V0.193848H138.191V2.54454H129.984V6.82616H137.94V9.03692H129.984V13.5144Z" fill="#1A171B"/>
</g>
</svg>
