<svg width="38" height="38" viewBox="0 0 38 38" fill="none" xmlns="http://www.w3.org/2000/svg">
<g id="Group 16">
<path id="Vector" d="M0.00154686 2.66955C5.22722 0.746688 10.4981 0.791932 15.3619 2.82791C19.9541 4.79602 22.0579 9.29779 22.1484 13.7317C21.9222 13.5733 21.696 13.4376 21.4472 13.3245C21.2209 9.27517 19.2528 5.24846 15.0904 3.46132C9.27654 1.04077 3.89252 1.92303 0.00154686 3.39346V2.66955Z" fill="#87888A"/>
<path id="Vector_2" d="M0.00139809 6.44713C2.82914 5.11243 5.97359 4.45639 9.34426 4.68261C14.3437 4.88621 18.4835 8.14377 20.248 12.8718C19.9992 12.8039 19.7277 12.7587 19.4563 12.7134C17.7144 8.46048 13.8913 5.54225 9.32164 5.36127C5.95097 5.13505 2.82914 5.83633 0.00139809 7.21627V6.44713Z" fill="#87888A"/>
<path id="Vector_3" d="M0.00191498 10.4286C3.68929 8.18901 8.12319 7.48772 12.0594 8.61882C14.5931 9.34272 16.6969 10.7453 18.2578 12.7134C17.9863 12.736 17.7149 12.7813 17.466 12.8265C16.0409 11.1525 14.1406 9.9309 11.8784 9.27486C8.01008 8.16638 3.5988 8.91291 0.0245304 11.2203V10.4286H0.00191498Z" fill="#87888A"/>
<path id="Vector_4" d="M0.00140953 14.9306C0.521714 14.4556 1.06464 14.0031 1.63019 13.5959C6.15458 10.2931 11.7422 10.3157 16.1309 13.2792C15.9046 13.3923 15.6558 13.5281 15.4522 13.6638C11.3576 11.0623 6.22244 11.1075 2.06 14.1615C1.35872 14.6818 0.680062 15.27 0.024025 15.926V14.9306H0.00140953Z" fill="#87888A"/>
<path id="Vector_5" d="M6.80949 15.2471C3.9365 16.6045 1.62907 18.7083 0.00028801 21.3551V20.1109C1.65169 17.7582 3.84602 15.9032 6.53803 14.6363C8.89072 13.6862 11.5827 13.6862 14.3652 14.5685C14.1843 14.7495 14.0259 14.9304 13.8675 15.134C11.7411 14.478 9.25267 14.2518 6.80949 15.2471Z" fill="#87888A"/>
<path id="Vector_6" d="M13.2129 16.1972C13.0998 16.4234 13.0093 16.6497 12.9414 16.8759C10.3173 16.9211 7.85148 17.7129 6.08697 19.2059C2.24123 22.8707 0.45409 27.6892 0.929152 33.1637C1.06488 34.5889 1.33635 36.0367 1.76617 37.4845H1.04226C0.635066 36.0593 0.363603 34.6341 0.250493 33.2315C-0.24719 27.5534 1.60782 22.5314 5.63453 18.6856C7.60264 17.0342 10.3399 16.1746 13.2129 16.1972Z" fill="#87888A"/>
<path id="Vector_7" d="M12.6699 18.3237C12.6699 18.4595 12.6473 18.5952 12.6473 18.7535C12.6473 18.844 12.6473 18.9571 12.6473 19.0476C9.25401 20.1561 6.74297 22.3278 5.63449 25.2234C4.18669 29.2049 4.20931 33.39 5.65712 37.4845H4.93321C3.50803 33.3221 3.50803 29.0692 4.97846 24.9972C6.22267 21.8075 8.98254 19.4775 12.6699 18.3237Z" fill="#87888A"/>
<path id="Vector_8" d="M12.8042 20.1111C12.8495 20.3373 12.9173 20.5861 13.0078 20.8124C11.4469 21.8304 9.93123 23.2555 9.09422 25.2689C7.10349 29.5897 7.69166 33.8652 9.45617 37.5074H8.6644C6.78679 33.3902 6.65106 28.9563 8.46081 24.9974C9.2752 23.0519 10.7682 21.4005 12.8042 20.1111Z" fill="#87888A"/>
<path id="Vector_9" d="M13.4834 21.8076C13.5965 22.0112 13.7323 22.2148 13.8906 22.3958C12.6464 23.9115 11.7642 25.6986 11.357 27.6893C10.6783 30.9921 11.3796 34.3628 13.3703 37.2132C13.4382 37.3037 13.5061 37.3941 13.5739 37.462H12.7369C10.7235 34.4985 9.99964 30.9695 10.7009 27.5536C11.1307 25.4045 12.0809 23.4364 13.4834 21.8076Z" fill="#87888A"/>
<path id="Vector_10" d="M15.2035 23.6853C14.3213 25.6987 13.9819 27.8704 14.2308 30.0421C14.5475 32.8925 15.8822 35.494 18.0312 37.4621H17.0359C15.0678 35.4488 13.8462 32.8925 13.5295 30.11C13.258 27.7573 13.6426 25.4046 14.638 23.2329C14.8189 23.4139 15.0225 23.5496 15.2035 23.6853Z" fill="#87888A"/>
<path id="Vector_11" d="M16.6516 24.4543C16.1539 27.8476 16.9457 31.354 18.9364 33.7067C20.4747 35.3355 22.2166 36.5797 24.1621 37.4846H22.6464C21.1081 36.6249 19.683 35.5165 18.4161 34.1591C16.2218 31.5576 15.3622 27.825 15.973 24.1829C16.2218 24.2733 16.4254 24.3638 16.6516 24.4543Z" fill="#87888A"/>
<path id="Vector_12" d="M24.9756 34.1366C27.7128 35.132 30.5632 35.4713 33.9112 35.1999C35.1102 35.0189 36.3092 34.7474 37.4629 34.3629V35.0868C36.3318 35.4487 35.1781 35.7202 34.0017 35.8785C33.21 35.9464 32.4634 35.969 31.7395 35.969C29.2285 35.969 26.9663 35.5844 24.7494 34.7701C20.8358 33.1187 18.1664 29.2051 17.6008 24.6807C17.827 24.7259 18.0759 24.7485 18.3021 24.7712C18.845 29.0015 21.3561 32.621 24.9756 34.1366Z" fill="#87888A"/>
<path id="Vector_13" d="M26.0388 30.9242C29.9072 32.191 33.7981 32.01 37.4629 30.4265V31.173C35.4269 32.01 33.3005 32.4398 31.174 32.4398C29.4095 32.4398 27.6223 32.1458 25.8578 31.5802C22.8039 30.6979 20.519 27.8476 19.207 24.7936C19.4332 24.771 19.682 24.7484 19.9083 24.7031C21.3787 28.2095 23.8671 30.3134 26.0388 30.9242Z" fill="#87888A"/>
<path id="Vector_14" d="M26.8532 28.0059C30.0881 29.0239 33.6172 28.6393 36.739 26.9427C36.9878 26.8069 37.214 26.6486 37.4629 26.4902V27.3046C37.3272 27.3725 37.214 27.463 37.0783 27.5308C34.9971 28.6619 32.7575 29.2275 30.518 29.2275C29.2059 29.2275 27.9164 29.0239 26.6496 28.6393C24.2517 27.8928 22.1704 26.445 20.5869 24.4995C20.8131 24.4316 21.0393 24.3411 21.2656 24.228C22.736 26.0152 24.6362 27.3046 26.8532 28.0059Z" fill="#87888A"/>
<path id="Vector_15" d="M29.2503 25.4272C32.2138 25.2914 35.1094 24.0925 37.4395 22.0791V22.9614C35.0868 24.839 32.2138 25.9701 29.2729 26.1058C29.092 26.1058 28.911 26.1284 28.73 26.1284C26.1963 26.1284 23.8437 25.3593 21.8755 23.9341C22.0791 23.7984 22.2827 23.6626 22.4863 23.5043C24.4318 24.8616 26.7619 25.5403 29.2503 25.4272Z" fill="#87888A"/>
<path id="Vector_16" d="M30.4719 22.3281C33.4354 21.4006 35.8785 19.4325 37.4395 16.7405V18.0299C35.7881 20.3826 33.458 22.1245 30.6755 22.9841C29.4539 23.3687 28.1871 23.5497 26.9202 23.5497C25.6082 23.5497 24.3187 23.3461 23.0971 22.9389C23.2781 22.7579 23.4365 22.5769 23.5722 22.3733C25.7891 23.0294 28.2097 23.0294 30.4719 22.3281Z" fill="#87888A"/>
<path id="Vector_17" d="M34.8393 0.0227051H35.5858C36.3323 1.96819 36.8074 4.00417 36.9884 6.06277C37.4408 10.9491 35.4048 16.0617 31.8079 19.093C29.6589 20.9028 27.1478 21.8303 24.5237 21.8303C24.3427 21.8303 24.1617 21.8303 23.9581 21.8076C24.0938 21.5814 24.207 21.3778 24.2974 21.129C26.8311 21.1742 29.2743 20.292 31.3555 18.5501C34.794 15.6545 36.7395 10.7681 36.3097 6.10801C36.1061 4.02679 35.6311 1.99082 34.8393 0.0227051Z" fill="#87888A"/>
<path id="Vector_18" d="M31.6486 0.0227051C34.0465 4.77332 34.2049 9.56917 32.1237 14.0031C30.8116 16.8534 27.8934 19.1835 24.6132 20.2241C24.681 19.9753 24.7263 19.7264 24.7489 19.455C27.7124 18.437 30.3139 16.2879 31.5129 13.709C33.5489 9.3882 33.3453 4.68283 30.9021 0.0227051H31.6486V0.0227051Z" fill="#87888A"/>
<path id="Vector_19" d="M26.6263 0.0227051H27.4407C29.9291 3.84582 31.196 8.5738 29.1826 13.1887C28.323 15.3604 26.7168 17.2833 24.7939 18.6406C24.7939 18.3691 24.7713 18.0976 24.7261 17.8488C26.4001 16.582 27.78 14.8627 28.5492 12.9398C29.7708 10.1573 29.816 7.17124 28.7075 4.04941C28.2325 2.66947 27.5312 1.31216 26.6263 0.0227051Z" fill="#87888A"/>
<path id="Vector_20" d="M21.9217 0.0227051H22.8718C24.9757 2.26228 26.3556 4.95429 26.7854 7.91777C27.2153 11.1075 26.333 14.365 24.478 16.8761C24.3875 16.6046 24.297 16.3558 24.1839 16.1069C25.7448 13.7995 26.4914 10.8586 26.1068 8.00825C25.6543 4.72807 24.0708 2.0813 21.9217 0.0227051Z" fill="#87888A"/>
<path id="Vector_21" d="M17.2621 0.022622C18.0087 0.475061 18.7552 0.972744 19.4565 1.53829C24.1844 5.08994 25.0667 10.5418 23.6189 15.1341C23.4605 14.9079 23.2796 14.7043 23.076 14.5007C24.2523 10.2477 23.3474 5.31616 19.0266 2.0586C18.0313 1.24421 16.968 0.565549 15.837 0H17.2621V0.022622Z" fill="#87888A"/>
</g>
</svg>
