<svg width="52" height="36" viewBox="0 0 52 36" fill="none" xmlns="http://www.w3.org/2000/svg">
<g id="icon-collections" clip-path="url(#clip0_471_3746)">
<g id="Group 52">
<g id="Group 36">
<path id="Vector 11" d="M47.5 35H3.5L2.5 33.5V30L26.5 15.5L50.5 31.5L47.5 35Z" fill="white"/>
<path id="Vector 10" d="M26.5 16L48 29C48 29 50.5 30.5 50.5 32C50.5 34.5 47.5 34.5 46.5 34.5C45.7 34.5 33 34.5 26.5 34.5" stroke="black" stroke-width="3"/>
<path id="Vector 9" d="M26.5 34.5C20 34.5 6.3 34.5 5.5 34.5C4.5 34.5 1.5 34.5 1.5 32C1.5 30.5 4 29 4 29L26.5 16V13.5C26.5 12.8333 26 12 24 10C22 8 21.7218 6.31586 22.5 4.5C23 3.33333 24.5 1.5 26.5 1.5C29 1.5 31.5 2.5 31.5 6.5" stroke="black" stroke-width="3" stroke-linecap="round"/>
</g>
</g>
</g>
<defs>
<clipPath id="clip0_471_3746">
<rect width="52" height="36" fill="white"/>
</clipPath>
</defs>
</svg>
