<svg width="44" height="44" viewBox="0 0 44 44" fill="none" xmlns="http://www.w3.org/2000/svg">
<path d="M18.2921 12.6665H15.3332C13.8604 12.6665 12.6665 13.8604 12.6665 15.3332V17.9998C12.6665 25.3636 18.636 31.3332 25.9998 31.3332H28.6665C30.1393 31.3332 31.3332 30.1393 31.3332 28.6665V26.8239C31.3332 26.3189 31.0478 25.8572 30.5961 25.6313L27.3749 24.0207C26.6491 23.6578 25.7703 24.0219 25.5137 24.7916L25.1167 25.9827C24.8595 26.7542 24.0681 27.2135 23.2706 27.054C20.0789 26.4156 17.584 23.9208 16.9457 20.7291C16.7862 19.9316 17.2455 19.1402 18.017 18.883L19.4952 18.3903C20.1561 18.17 20.536 17.4779 20.367 16.802L19.5857 13.6765C19.4373 13.0829 18.904 12.6665 18.2921 12.6665Z" stroke="black"/>
</svg>
