<svg width="71" height="28" viewBox="0 0 71 28" fill="none" xmlns="http://www.w3.org/2000/svg">
<path d="M4.02542 27.8052H3.91297C3.74806 27.8052 3.59814 27.7527 3.46321 27.6478C3.34327 27.5428 3.2833 27.4154 3.2833 27.2655L3.30579 27.0856C3.78554 25.6013 4.2428 24.1171 4.67758 22.6329C5.23229 20.7139 5.83198 18.8024 6.47665 16.8983C5.86196 16.0438 5.55462 15.1517 5.55462 14.2222C5.55462 13.5026 5.84697 12.5056 6.43167 11.2313C7.03136 9.94194 8.14828 8.96745 9.78243 8.30779C10.5171 6.59867 11.0793 5.36931 11.4691 4.6197C12.1137 3.36035 12.8409 2.73068 13.6504 2.73068C13.9053 2.73068 14.1452 2.81313 14.3701 2.97805C14.7748 3.2629 14.9772 3.6527 14.9772 4.14744C14.9772 4.26738 14.9623 4.40231 14.9323 4.55223L14.9997 4.52974C15.0147 4.52974 15.0222 4.54474 15.0222 4.57472C15.0222 4.73964 14.5799 5.53422 13.6954 6.95849L13.0432 7.94797C12.8933 8.18785 12.8184 8.33028 12.8184 8.37525C12.8184 8.40524 12.8783 8.45771 12.9983 8.53267C13.448 8.75755 13.6729 9.01242 13.6729 9.29728C13.6729 9.58213 13.538 9.78452 13.2681 9.90446C13.1932 9.93445 13.1182 9.94944 13.0432 9.94944C12.9083 9.94944 12.7659 9.88947 12.616 9.76953C12.466 9.64959 12.3161 9.54465 12.1662 9.45469C10.9668 11.3587 9.83491 13.4051 8.77046 15.594L8.74797 15.7739C8.74797 16.0888 9.08529 16.2462 9.75995 16.2462C9.99982 16.2462 10.5545 16.1937 11.4241 16.0888C12.3086 15.9688 13.7629 15.3691 15.7868 14.2897C20.2545 11.6211 22.4884 9.15485 22.4884 6.89102C22.4884 6.68113 22.3759 5.92402 22.151 4.6197C21.9261 3.30038 20.1721 2.33338 16.8888 1.7187C16.2441 1.59876 15.5919 1.53879 14.9323 1.53879C12.2487 1.53879 9.42262 2.55077 6.45416 4.57472C4.02542 6.49373 2.81104 8.63762 2.81104 11.0064C2.81104 11.8759 3.01344 12.663 3.41823 13.3677C3.44821 13.4126 3.51568 13.4576 3.62062 13.5026C4.11537 13.6825 4.36274 14.0573 4.36274 14.627C4.36274 14.9568 4.22031 15.2642 3.93546 15.549C3.65061 15.8339 3.23083 15.9763 2.67611 15.9763C2.22635 15.9763 1.78408 15.8189 1.3493 15.5041C0.449767 14.6495 0 13.6375 0 12.4681C0 11.3887 0.599689 9.822 1.79907 7.76807C3.01344 5.69914 5.38221 3.81761 8.90539 2.12349C10.7194 1.25394 12.5935 0.819166 14.5275 0.819166C16.3715 0.819166 18.2605 1.20896 20.1945 1.98856C22.4884 3.23292 23.6353 4.76962 23.6353 6.59867C23.6353 7.36328 23.2005 8.69009 22.3309 10.5791C21.4764 12.4681 19.4374 14.4171 16.2141 16.4261C14.0702 17.7604 12.1062 18.4275 10.3222 18.4275C9.40763 18.4275 8.53808 18.2551 7.71351 17.9103C6.28924 20.9687 5.19481 24.1321 4.43021 27.4004C4.37024 27.6403 4.23531 27.7752 4.02542 27.8052ZM7.28623 14.627L7.5336 13.9973C8.05833 12.5881 8.59805 11.1863 9.15276 9.79202C8.41814 10.3917 7.86343 11.1488 7.48862 12.0633C7.26374 12.633 7.1513 13.1728 7.1513 13.6825C7.1513 14.0123 7.19627 14.3272 7.28623 14.627ZM21.9037 23.2625C21.6488 23.2625 21.3939 23.1951 21.1391 23.0601C20.5244 22.5504 20.217 21.4935 20.217 19.8893C20.217 19.7394 20.232 19.1622 20.262 18.1577C20.292 17.1382 20.6593 15.8039 21.3639 14.1548C22.0686 12.4906 23.0356 11.6586 24.2649 11.6586H24.2874C25.022 11.7785 25.4943 12.1158 25.7042 12.6705C25.7791 12.8654 25.8166 13.0603 25.8166 13.2552C25.8166 13.63 25.6817 14.0123 25.4118 14.4021C25.157 14.717 24.8796 14.8744 24.5798 14.8744L24.3999 14.8969C23.4104 16.4711 22.6683 17.9403 22.1735 19.3046C21.7987 20.3241 21.6113 21.0962 21.6113 21.6209C21.6113 22.0407 21.7163 22.2506 21.9261 22.2506C22.211 22.2506 22.7057 21.8458 23.4104 21.0362C24.5948 19.417 25.5318 17.5505 26.2214 15.4366C27.1659 12.753 27.8931 11.4112 28.4028 11.4112C28.7176 11.4112 29.1674 11.6361 29.7521 12.0858C30.5467 12.6555 31.1839 12.9404 31.6636 12.9404C31.7835 12.9404 31.911 12.9254 32.0459 12.8954L32.2033 12.8729C32.4582 12.8729 32.5856 12.9854 32.5856 13.2102C32.5856 13.3752 32.5032 13.5251 32.3383 13.66C32.1733 13.7949 31.956 13.8624 31.6861 13.8624C31.5362 13.8624 31.2813 13.8324 30.9215 13.7725C30.5617 13.6975 29.9545 13.3377 29.0999 12.693C28.7701 12.4381 28.5452 12.3107 28.4253 12.3107C28.3203 12.3107 28.2004 12.4831 28.0655 12.8279L27.5707 14.1098C26.2514 17.8428 24.9696 20.5115 23.7252 22.1156C23.1255 22.8802 22.5183 23.2625 21.9037 23.2625ZM35.8914 13.75C35.5466 13.75 35.2392 13.5701 34.9694 13.2102C34.7445 12.9254 34.6321 12.6555 34.6321 12.4007C34.6321 12.2208 34.722 11.9809 34.9019 11.681C35.0968 11.3812 35.4416 11.1863 35.9364 11.0963L36.1388 11.0739C36.5286 11.0739 36.8584 11.3062 37.1283 11.771C37.2482 12.0109 37.3082 12.2283 37.3082 12.4232C37.3082 12.648 37.2107 12.9029 37.0158 13.1878C36.776 13.5626 36.4011 13.75 35.8914 13.75ZM32.5406 26.0286C32.1059 26.0286 31.7086 25.9087 31.3488 25.6688C30.7191 25.1141 30.4043 24.252 30.4043 23.0826C30.4043 22.9327 30.4342 22.4605 30.4942 21.6659C30.5542 20.8713 30.8915 19.7544 31.5062 18.3151C32.1059 16.8609 32.803 15.7589 33.5976 15.0093C34.0174 14.6195 34.4222 14.4246 34.812 14.4246C35.1718 14.4246 35.5166 14.597 35.8464 14.9419C36.0563 15.1817 36.1613 15.3991 36.1613 15.594C36.1613 15.8639 35.9589 16.2387 35.5541 16.7184C34.9244 17.498 34.2498 18.585 33.5301 19.9792C32.9754 21.0587 32.5631 22.0782 32.2933 23.0377C32.1883 23.3975 32.1359 23.7123 32.1359 23.9822C32.1359 24.6118 32.4132 24.9267 32.9679 24.9267C33.8825 24.9267 35.5616 23.8322 38.0053 21.6434C39.0548 20.7139 40.0892 19.8743 41.1087 19.1247C42.1432 18.3751 43.0802 17.9328 43.9198 17.7979H43.9647C44.1446 17.7979 44.2346 17.8953 44.2346 18.0902C44.2346 18.2551 44.1596 18.3601 44.0097 18.4051C43.1402 18.6299 42.2106 19.1172 41.2212 19.8668C40.2467 20.6014 39.2647 21.4185 38.2752 22.318C35.5916 24.7918 33.6801 26.0286 32.5406 26.0286ZM47.4504 22.8353C44.6769 22.8353 43.2901 21.5085 43.2901 18.8548C43.2901 17.8803 43.6499 16.666 44.3695 15.2117C45.0742 13.7425 46.4984 12.6106 48.6423 11.816C49.242 11.6511 49.7817 11.5686 50.2615 11.5686C50.9511 11.5686 51.6033 11.7935 52.218 12.2432C52.8926 12.738 53.2299 13.4051 53.2299 14.2447C53.2299 14.9643 52.9001 15.4591 52.2404 15.7289C52.1505 15.7589 52.0605 15.7739 51.9706 15.7739C51.7457 15.7739 51.4833 15.624 51.1835 15.3242C50.8537 14.9344 50.4714 14.7395 50.0366 14.7395C49.8567 14.7395 49.5943 14.7769 49.2495 14.8519C48.9197 14.9269 48.3575 15.2192 47.5629 15.7289C45.7338 17.0483 44.8193 18.3826 44.8193 19.7319C44.8193 21.2011 45.8238 21.9357 47.8327 21.9357C50.1715 21.8608 53.4398 20.2866 57.6377 17.2132C57.7126 17.1682 57.7801 17.1457 57.84 17.1457C57.9 17.1457 57.9675 17.1757 58.0424 17.2357C58.1324 17.2956 58.1774 17.4006 58.1774 17.5505C58.1774 17.6854 58.1249 17.7979 58.02 17.8878C53.7172 21.0362 50.3964 22.6778 48.0576 22.8128L47.4504 22.8353ZM59.8865 23.9147C59.1819 23.9147 58.5522 23.7123 57.9975 23.3075C57.0829 22.408 56.6257 21.321 56.6257 20.0467C56.6257 16.8234 58.2074 14.3197 61.3707 12.5356C62.3002 12.0409 63.1848 11.7935 64.0243 11.7935C64.684 11.7935 65.2237 12.0633 65.6435 12.6031C65.8834 13.0228 66.0033 13.4576 66.0033 13.9074C66.0033 14.4471 65.7559 15.1368 65.2612 15.9763C64.7665 16.8009 63.9419 17.5805 62.7875 18.3151C61.798 18.9298 60.861 19.2371 59.9764 19.2371L59.5042 19.2146C59.1594 19.8743 58.987 20.5489 58.987 21.2386V21.3285C59.1369 22.2281 59.6016 22.6778 60.3812 22.6778C60.6361 22.6778 61.1758 22.5579 62.0004 22.318C62.84 22.0632 64.0393 21.426 65.5985 20.4065C67.1727 19.387 68.4171 18.525 69.3316 17.8204L69.9163 17.4156C69.9763 17.3706 70.0362 17.3481 70.0962 17.3481C70.1412 17.3481 70.1936 17.3781 70.2536 17.4381C70.3286 17.483 70.3661 17.573 70.3661 17.7079C70.3661 17.7979 70.3211 17.8803 70.2311 17.9553C69.4665 18.495 68.7169 19.0347 67.9823 19.5745C64.1443 22.468 61.4457 23.9147 59.8865 23.9147ZM60.0214 18.2027C61.5506 17.648 62.7425 16.9733 63.5971 16.1787C64.4516 15.3841 64.8789 14.7544 64.8789 14.2897C64.8789 14.0948 64.774 13.9973 64.5641 13.9973C64.3542 13.9973 64.0094 14.1173 63.5296 14.3572C62.3902 14.9718 61.2208 16.2537 60.0214 18.2027Z" fill="#920000"/>
</svg>
