<?xml version="1.0" encoding="UTF-8" standalone="no"?>
<svg
   width="19"
   height="19"
   viewBox="0 0 19 19"
   fill="none"
   version="1.1"
   id="svg4"
   sodipodi:docname="telegram.svg"
   inkscape:version="1.2.2 (732a01da63, 2022-12-09)"
   xmlns:inkscape="http://www.inkscape.org/namespaces/inkscape"
   xmlns:sodipodi="http://sodipodi.sourceforge.net/DTD/sodipodi-0.dtd"
   xmlns="http://www.w3.org/2000/svg"
   xmlns:svg="http://www.w3.org/2000/svg">
  <defs
     id="defs8" />
  <sodipodi:namedview
     id="namedview6"
     pagecolor="#ffffff"
     bordercolor="#000000"
     borderopacity="0.25"
     inkscape:showpageshadow="2"
     inkscape:pageopacity="0.0"
     inkscape:pagecheckerboard="0"
     inkscape:deskcolor="#d1d1d1"
     showgrid="false"
     inkscape:zoom="24.660349"
     inkscape:cx="15.55128"
     inkscape:cy="11.759769"
     inkscape:window-width="1920"
     inkscape:window-height="1017"
     inkscape:window-x="-8"
     inkscape:window-y="-8"
     inkscape:window-maximized="1"
     inkscape:current-layer="svg4" />
  <path
     fill-rule="evenodd"
     clip-rule="evenodd"
     d="M 17.495193,0.0066577 C 17.315182,0.03824406 17.080976,0.11426204 16.858814,0.2131014 16.641406,0.30985446 16.367427,0.4369401 15.208872,0.97854839 14.737308,1.1989802 9.9592521,3.4369854 9.3368335,3.7289813 8.9822931,3.8952701 8.583447,4.0820322 8.4504983,4.1439587 8.3175337,4.2058852 8.1498346,4.2845928 8.0778299,4.3188837 8.0058094,4.3531588 7.8335783,4.4338629 7.6950834,4.4982139 7.5565886,4.5625807 7.3843575,4.6434433 7.312337,4.6779086 7.2403323,4.7123738 6.6918991,4.9693816 6.0936141,5.2490492 5.495345,5.528701 4.9469118,5.7857721 4.8748913,5.8202849 4.8028867,5.8548136 4.5671919,5.9656887 4.3511463,6.0666758 3.8383193,6.306443 3.5321411,6.4499293 3.223079,6.5953806 3.0845842,6.6605714 2.5044271,6.9325537 1.9338411,7.199798 1.2891888,7.5017453 0.83159333,7.7294853 0.72519158,7.8013156 0.47896869,7.9675411 0.22837544,8.2493955 0.13414017,8.4661225 0.03793142,8.6873815 0,8.8616093 0,9.0821551 c 0,0.4682837 0.21657011,0.910453 0.60642038,1.2381499 0.26022292,0.218724 0.38930675,0.279113 1.42813842,0.668151 1.2154427,0.455194 2.4522459,0.918835 2.5885381,0.970351 l 0.1007178,0.03808 0.2043987,0.739791 c 0.112428,0.406864 0.3192829,1.158412 0.4596793,1.670098 0.7276049,2.652018 0.7714193,2.796693 0.9460274,3.124073 0.1802176,0.337997 0.3866446,0.521812 0.6863259,0.610708 0.2739314,0.08145 0.6539523,0.01997 0.894908,-0.144833 0.06565,-0.04484 0.3076043,-0.273345 0.5376578,-0.50755 0.2300377,-0.234205 0.4732118,-0.480771 0.5403517,-0.547641 0.067156,-0.06703 0.3207249,-0.324211 0.5635028,-0.571727 0.2427938,-0.247358 0.4759687,-0.483147 0.5181667,-0.523904 l 0.07673,-0.0741 0.91207,0.778645 c 1.045604,0.892769 1.577605,1.347235 2.191276,1.872216 0.364238,0.311534 0.458745,0.381257 0.594244,0.438937 0.538847,0.229134 1.10685,0.201245 1.587795,-0.07812 0.253648,-0.14721 0.56523,-0.518642 0.711489,-0.847765 0.06117,-0.137861 0.0889,-0.262412 0.199502,-0.897365 0.07067,-0.405501 0.21519,-1.231605 0.321359,-1.835753 0.10601,-0.604148 0.260827,-1.486839 0.344019,-1.96154 0.08319,-0.474686 0.19554,-1.115264 0.249893,-1.423502 0.05435,-0.308254 0.163214,-0.92866 0.242128,-1.378689 0.07891,-0.4500292 0.192213,-1.0956624 0.252111,-1.4347212 0.05974,-0.3390588 0.163849,-0.9342538 0.231195,-1.3226415 0.06734,-0.3883718 0.135484,-0.7767595 0.151488,-0.8630731 0.016,-0.086298 0.102207,-0.5755617 0.191579,-1.0872478 C 18.42108,5.2194963 18.534063,4.573879 18.58271,4.2964615 18.779044,3.1802945 18.974584,2.0584864 18.994867,1.9328903 19.02545,1.7417547 19.021013,1.3439545 18.98631,1.1598166 18.884895,0.62361022 18.514255,0.19003266 18.034911,0.04709902 17.914798,0.01127573 17.602313,-0.01215062 17.495193,0.0066577 Z m 0.05023,1.6837557 c -1.58e-4,0.017003 -0.103633,0.6175222 -0.269542,1.5636288 -0.125501,0.7167821 -0.214714,1.2261705 -0.33356,1.9054924 -0.05609,0.3205665 -0.115201,0.653477 -0.131205,0.7397748 -0.01616,0.086314 -0.07559,0.4242632 -0.132157,0.7509938 -0.05657,0.3267305 -0.128987,0.7403452 -0.160838,0.9191208 -0.03201,0.1787755 -0.117895,0.6680394 -0.190945,1.0872478 -0.07305,0.4192083 -0.145784,0.8328071 -0.161789,0.9191208 -0.016,0.086314 -0.09761,0.5503504 -0.181437,1.0312004 -0.330708,1.896713 -0.474813,2.719284 -0.50267,2.869457 -0.01602,0.0863 -0.08906,0.499913 -0.162343,0.919121 -0.07327,0.419209 -0.167779,0.958911 -0.21004,1.199343 -0.04225,0.240417 -0.125422,0.714041 -0.184829,1.052355 -0.102366,0.583136 -0.111287,0.619107 -0.170821,0.689305 -0.114171,0.13485 -0.270619,0.08272 -0.597635,-0.19871 C 14.031363,17.030903 13.4674,16.549182 12.90236,16.067461 12.337305,15.585724 11.657444,15.005883 11.391547,14.778951 11.125635,14.55202 10.72362,14.208983 10.498162,14.016659 10.272719,13.824351 10.079429,13.667 10.068669,13.667 c -0.01074,0 -0.1512506,0.133646 -0.312231,0.297035 -0.1609646,0.163373 -0.3583277,0.362606 -0.4385564,0.442739 -0.080213,0.08015 -0.3489943,0.352243 -0.5972709,0.604671 -0.2482765,0.252444 -0.6009946,0.609821 -0.7837951,0.794206 -0.1828164,0.184322 -0.3674709,0.371306 -0.4103662,0.415358 l -0.077994,0.08002 0.013358,-0.08351 c 0.00734,-0.04595 0.049028,-0.338631 0.092652,-0.650149 0.043608,-0.311598 0.1197965,-0.854041 0.1692838,-1.205428 0.049519,-0.351403 0.1316969,-0.936504 0.1826421,-1.30022 0.087613,-0.625571 0.095568,-0.664489 0.1471468,-0.719824 0.029965,-0.0322 0.1995339,-0.208138 0.3768042,-0.390971 0.1772702,-0.182832 0.4492208,-0.464765 0.6043382,-0.626506 0.1551015,-0.161742 0.4950318,-0.514729 0.7553989,-0.78443 0.2603666,-0.26968 0.5912336,-0.6126846 0.7352586,-0.76224 0.144041,-0.1495713 0.461026,-0.4781241 0.704406,-0.7301403 0.243412,-0.2520004 0.592406,-0.6139251 0.775555,-0.8042525 0.541636,-0.5628373 0.585149,-0.607967 1.330501,-1.3800836 0.392778,-0.4068801 0.859619,-0.8911049 1.037444,-1.0760446 0.177809,-0.1849556 0.433866,-0.4507579 0.56897,-0.590663 0.135135,-0.1399369 0.263996,-0.2873847 0.28637,-0.3276972 0.05828,-0.104917 0.0544,-0.2453767 -0.0087,-0.3156224 -0.09409,-0.1047268 -0.266404,-0.052134 -0.61028,0.1861757 -0.141268,0.097897 -0.474385,0.3275545 -0.740298,0.5103392 C 13.603378,5.4325628 13.12294,5.7635084 12.801645,5.9851952 12.251231,6.3649784 11.767656,6.6983643 10.384339,7.6517444 9.0074408,8.6007192 8.2123791,9.148788 7.664865,9.526432 7.3435696,9.7480554 6.8202208,10.108633 6.501857,10.327705 L 5.9230468,10.726044 4.7291707,10.277933 C 4.0725562,10.031479 3.1115542,9.6717882 2.5936406,9.4786402 2.0757111,9.2854922 1.6519391,9.1212475 1.6519074,9.113673 1.6518599,9.1061144 2.0665362,8.9056614 2.573421,8.6682236 3.0802899,8.4307699 3.6989846,8.140628 3.9482595,8.023462 4.1975502,7.9063118 4.4830967,7.7720955 4.5828003,7.7252386 4.6825198,7.6783975 5.0859137,7.4890843 5.4792295,7.3045565 5.8725453,7.1200447 6.2170077,6.9582085 6.2447066,6.9449295 6.2724056,6.9316663 6.7573752,6.7046711 7.3224151,6.4404692 8.4558067,5.9105601 12.577549,3.9779075 12.912425,3.8193515 c 0.116342,-0.055081 0.320297,-0.1509657 0.453245,-0.2130824 0.132965,-0.062117 0.672318,-0.3143389 1.198583,-0.560492 0.526264,-0.246169 1.287701,-0.6011849 1.692093,-0.7889769 0.82051,-0.3809717 0.94411,-0.4387307 1.1181,-0.5222237 0.126452,-0.060722 0.171296,-0.072322 0.170979,-0.044163 z"
     fill="#000000"
     id="path2"
     style="stroke-width:1.58461" />
</svg>
