<?xml version="1.0" encoding="UTF-8" standalone="no"?>
<svg
   width="19"
   height="19"
   viewBox="0 0 19 19"
   fill="none"
   version="1.1"
   id="svg6"
   sodipodi:docname="whatsapp.svg"
   inkscape:version="1.2.2 (732a01da63, 2022-12-09)"
   xmlns:inkscape="http://www.inkscape.org/namespaces/inkscape"
   xmlns:sodipodi="http://sodipodi.sourceforge.net/DTD/sodipodi-0.dtd"
   xmlns="http://www.w3.org/2000/svg"
   xmlns:svg="http://www.w3.org/2000/svg">
  <defs
     id="defs10" />
  <sodipodi:namedview
     id="namedview8"
     pagecolor="#ffffff"
     bordercolor="#000000"
     borderopacity="0.25"
     inkscape:showpageshadow="2"
     inkscape:pageopacity="0.0"
     inkscape:pagecheckerboard="0"
     inkscape:deskcolor="#d1d1d1"
     showgrid="false"
     inkscape:zoom="34.875"
     inkscape:cx="5.8924731"
     inkscape:cy="10.379928"
     inkscape:window-width="1920"
     inkscape:window-height="1017"
     inkscape:window-x="-8"
     inkscape:window-y="-8"
     inkscape:window-maximized="1"
     inkscape:current-layer="svg6" />
  <path
     d="m 0.66702401,18.996905 c -0.17669067,0 -0.34457179,-0.07061 -0.46825494,-0.194237 C 0.03091279,18.634868 -0.0397193,18.3876 0.02212227,18.157903 L 1.1352806,13.998227 C 0.39318167,12.620475 0.00443559,11.066089 0.00443559,9.4940516 0.00443559,4.2568746 4.2626684,0 9.5015077,0 c 5.2388713,0 9.4971383,4.2568746 9.4971383,9.4940516 0,5.2371934 -4.258267,9.4941464 -9.4971383,9.4941464 -1.5990428,0 -3.1626893,-0.397497 -4.5585511,-1.157032 l -4.09923245,1.139302 c -0.0618423,0.01773 -0.11485772,0.02644 -0.17670014,0.02644 z M 5.0312734,16.462327 c 0.1148486,0 0.2297124,0.0353 0.3357274,0.08833 1.2456647,0.733098 2.6768122,1.121571 4.1345069,1.121571 4.5055993,0 8.1719903,-3.665187 8.1719903,-8.1693465 0,-4.5041268 -3.666391,-8.1692897 -8.1719903,-8.1692897 -4.5055675,0 -8.1718937,3.6651629 -8.1718937,8.1692897 0,1.4395695 0.3798763,2.8438055 1.095466,4.0802405 0.088348,0.150134 0.1148643,0.335616 0.070699,0.503418 l -0.883454,3.303126 3.2511012,-0.900899 c 0.053,-0.01773 0.1148486,-0.02644 0.1678472,-0.02644 z"
     fill="#000000"
     id="path2"
     style="stroke-width:1.58303" />
  <path
     d="m 11.922139,14.589801 c -0.547741,0 -1.11315,-0.123649 -1.705058,-0.379766 C 9.6605067,13.971583 9.1039316,13.653633 8.5650232,13.256216 8.0349481,12.867616 7.5137853,12.42603 7.0367097,11.949113 6.5596501,11.46338 6.117876,10.95113 5.7291648,10.421228 5.3316044,9.8648431 5.0135752,9.3172755 4.7838786,8.7785413 4.5364996,8.1956407 4.4128339,7.6215891 4.4128339,7.0740216 c 0,-0.3886004 0.07065,-0.7595343 0.2031651,-1.1039683 C 4.757363,5.6079527 4.9870595,5.2811694 5.2874381,4.9985682 5.8528463,4.4421674 6.665665,4.2390498 7.3105728,4.5481666 7.531436,4.6453163 7.7169663,4.8042839 7.858346,5.0162506 L 8.8830683,6.455788 c 0.1060155,0.1413164 0.1856094,0.2914503 0.247458,0.4415841 0.070682,0.1766338 0.1148486,0.3532832 0.1148486,0.5210994 0,0.2296175 -0.061927,0.4592349 -0.1856094,0.6623684 C 8.9802506,8.2133072 8.865402,8.3722743 8.7152207,8.522424 L 8.600372,8.6460581 c 0.053,0.070666 0.1148487,0.1589672 0.2120141,0.2649505 0.1855303,0.2119667 0.3887272,0.4415842 0.6095904,0.6623842 0.2208636,0.2119509 0.4417271,0.4239178 0.6625895,0.6093842 0.106016,0.08832 0.194443,0.158967 0.265125,0.203134 l 0.123587,-0.12365 c 0.159031,-0.158967 0.31814,-0.2826168 0.477154,-0.3621011 0.291546,-0.1854668 0.74201,-0.2296172 1.139571,-0.061818 0.141349,0.052981 0.282697,0.1324675 0.432894,0.2384511 l 1.475438,1.042151 c 0.203198,0.141301 0.362133,0.335602 0.46815,0.556386 0.08834,0.220799 0.123776,0.4151 0.123776,0.618217 0,0.26495 -0.06193,0.521083 -0.176792,0.768367 -0.114843,0.229617 -0.247364,0.432751 -0.406378,0.618219 -0.282712,0.309101 -0.609496,0.538734 -0.962874,0.688868 -0.353379,0.150134 -0.733351,0.220799 -1.122078,0.2208 z M 6.6656176,5.7404201 c -0.052999,0 -0.2296492,0 -0.4505124,0.2207998 -0.1678479,0.1589672 -0.2827278,0.3267834 -0.362243,0.5122504 -0.079515,0.185467 -0.1148487,0.3974337 -0.1148487,0.6093846 0,0.3709338 0.088332,0.7683517 0.2650138,1.1922693 0.1855303,0.4416 0.4594249,0.9096682 0.7951365,1.377752 0.3445449,0.4680848 0.7332719,0.9361528 1.1661969,1.3689188 0.4328933,0.423917 0.8922075,0.821335 1.3692671,1.174603 0.4593935,0.335616 0.9277152,0.600567 1.3959412,0.803684 0.671423,0.291451 1.289751,0.362101 1.793328,0.15015 0.17668,-0.07065 0.335711,-0.1943 0.494726,-0.353267 0.07951,-0.08832 0.141443,-0.176633 0.194442,-0.29145 0.02651,-0.06182 0.04409,-0.132482 0.04409,-0.194301 0,-0.01768 0,-0.04414 -0.0265,-0.09715 l -1.475364,-1.024467 c -0.06186,-0.04417 -0.123682,-0.07948 -0.176698,-0.09715 -0.03533,0.01767 -0.08825,0.04414 -0.185435,0.1413 l -0.335712,0.335601 C 10.800253,11.82548 10.39386,11.89613 10.066981,11.781314 L 9.9079663,11.71066 C 9.7047674,11.60468 9.4749763,11.445712 9.2187799,11.224913 8.9714168,11.012962 8.732966,10.792161 8.4767697,10.544878 8.2294066,10.288761 8.0085432,10.05031 7.7965131,9.8030101 7.5667691,9.5292263 7.4077545,9.3084423 7.3017395,9.1229753 L 7.204574,8.8933579 C 7.1780734,8.8050412 7.1691931,8.707891 7.1691931,8.6195741 c 0,-0.2472998 0.08838,-0.468084 0.2562439,-0.6447177 L 7.7611801,7.6304224 C 7.8583455,7.5332726 7.8936949,7.4802887 7.9113615,7.4449555 7.8848622,7.3831382 7.8495128,7.3301395 7.805346,7.2683217 L 6.7716326,5.811102 Z"
     fill="#000000"
     id="path4"
     style="stroke-width:1.58303" />
</svg>
