<svg width="32" height="33" viewBox="0 0 32 33" fill="none" xmlns="http://www.w3.org/2000/svg">
<g id="answer">
<path id="Vector" d="M16.0183 3.39062C14.3135 3.39062 12.6254 3.72687 11.0504 4.38015C9.4754 5.03343 8.04431 5.99096 6.83884 7.19807C4.4043 9.63593 3.03659 12.9424 3.03659 16.39C3.02524 19.3918 4.06317 22.3029 5.97046 24.6187L3.37412 27.2186C3.19398 27.4014 3.07196 27.6335 3.02344 27.8857C2.97492 28.1379 3.00209 28.3988 3.1015 28.6355C3.20932 28.8694 3.38412 29.066 3.60369 29.2002C3.82327 29.3344 4.07772 29.4003 4.33476 29.3895H16.0183C19.4613 29.3895 22.7632 28.0199 25.1977 25.582C27.6323 23.1442 29 19.8377 29 16.39C29 12.9424 27.6323 9.63593 25.1977 7.19807C22.7632 4.7602 19.4613 3.39063 16.0183 3.39062Z" fill="#43CBB1" fill-opacity="0.5"/>
<path id="Vector (Stroke)" fill-rule="evenodd" clip-rule="evenodd" d="M5.03658 16.3976C5.02699 18.9331 5.90374 21.3917 7.51427 23.3472L8.66789 24.7479L6.02994 27.3895H16.0183C18.9299 27.3895 21.7229 26.2313 23.7826 24.1688C25.8423 22.1062 27 19.3082 27 16.39C27 13.4719 25.8423 10.6739 23.7826 8.61132C21.7229 6.54883 18.9299 5.39062 16.0183 5.39062C14.5765 5.39062 13.1488 5.67498 11.8167 6.22754C10.4845 6.78009 9.27389 7.59005 8.25402 8.61132C6.19425 10.6739 5.03659 13.4719 5.03659 16.39L5.03658 16.3976ZM3.37412 27.2186L5.97046 24.6187C4.06317 22.3029 3.02524 19.3918 3.03659 16.39C3.03659 12.9424 4.4043 9.63593 6.83884 7.19807C8.04431 5.99096 9.4754 5.03343 11.0504 4.38015C12.6254 3.72687 14.3135 3.39062 16.0183 3.39062C19.4613 3.39062 22.7632 4.7602 25.1977 7.19807C27.6323 9.63593 29 12.9424 29 16.39C29 19.8377 27.6323 23.1442 25.1977 25.582C22.7632 28.0199 19.4613 29.3895 16.0183 29.3895H4.33476C4.07772 29.4003 3.82327 29.3344 3.60369 29.2002C3.38412 29.0659 3.20932 28.8694 3.1015 28.6355C3.00209 28.3988 2.97492 28.1379 3.02344 27.8857C3.07196 27.6335 3.19398 27.4014 3.37412 27.2186Z" fill="#43CBB1"/>
<path id="Rectangle 57" d="M11 15.3906C10.4477 15.3906 10 14.9429 10 14.3906C10 13.8383 10.4477 13.3906 11 13.3906H21C21.5523 13.3906 22 13.8383 22 14.3906C22 14.9429 21.5523 15.3906 21 15.3906H11Z" fill="white"/>
<path id="Rectangle 58" d="M11 19.3906C10.4477 19.3906 10 18.9429 10 18.3906C10 17.8383 10.4477 17.3906 11 17.3906H21C21.5523 17.3906 22 17.8383 22 18.3906C22 18.9429 21.5523 19.3906 21 19.3906H11Z" fill="white"/>
</g>
</svg>
