<svg width="150" height="62" viewBox="0 0 150 62" fill="none" xmlns="http://www.w3.org/2000/svg">
<g id="API">
<path id="Vector" d="M120.832 61.3223V50.6919H128.739V10.6304H120.832V0H150V10.6304H142.093V50.6919H150V61.3223H120.832Z" fill="#0FAA97"/>
<path id="Vector_2" d="M65.5502 61.3223V0H94.5422C97.4121 0 99.9891 0.49784 102.273 1.49352C104.558 2.43063 106.49 3.74845 108.072 5.44696C109.712 7.14548 110.971 9.2247 111.849 11.6846C112.728 14.086 113.167 16.7216 113.167 19.5915C113.167 22.52 112.728 25.1849 111.849 27.5862C110.971 29.9876 109.712 32.0375 108.072 33.736C106.49 35.4346 104.558 36.7817 102.273 37.7773C99.9891 38.7145 97.4121 39.183 94.5422 39.183H78.9041V61.3223H65.5502ZM78.9041 27.5862H92.9608C94.9521 27.5862 96.5042 27.0884 97.6171 26.0927C98.7884 25.0385 99.3741 23.5157 99.3741 21.5243V17.6587C99.3741 15.6673 98.7884 14.1738 97.6171 13.1781C96.5042 12.1239 94.9521 11.5968 92.9608 11.5968H78.9041V27.5862Z" fill="#0FAA97"/>
<path id="Vector_3" d="M43.1851 61.3223L38.7924 46.7385H18.3223L13.9296 61.3223H0.400024L20.6065 0H37.1231L57.0661 61.3223H43.1851ZM28.6891 12.1239H28.2498L21.4851 35.4053H35.5418L28.6891 12.1239Z" fill="#0FAA97"/>
</g>
</svg>
