<svg width="24" height="24" viewBox="0 0 24 24" fill="none" xmlns="http://www.w3.org/2000/svg">
<g id="right side icon">
<path id="Rounded Rectangle 618 copy 9" fill-rule="evenodd" clip-rule="evenodd" d="M6.28923 11.3147L14.277 3.33232C14.3666 3.23108 14.4757 3.14942 14.5977 3.09234C14.7196 3.03527 14.8518 3.00396 14.9861 3.00035C15.1204 2.99674 15.254 3.02091 15.3788 3.07136C15.5036 3.12181 15.6168 3.19747 15.7117 3.29375C15.8065 3.39002 15.881 3.50487 15.9305 3.63126C15.98 3.75766 16.0035 3.89295 15.9996 4.02885C15.9956 4.16475 15.9643 4.2984 15.9076 4.42164C15.8508 4.54487 15.7698 4.65511 15.6695 4.74558L8.39295 12.0213L15.6991 19.3281C15.8697 19.5179 15.9616 19.7668 15.9558 20.0233C15.95 20.2798 15.847 20.5243 15.668 20.706C15.4891 20.8878 15.2479 20.9929 14.9944 20.9997C14.741 21.0064 14.4947 20.9143 14.3065 20.7424L6.28923 12.728C6.10407 12.5405 6 12.2864 6 12.0213C6 11.7563 6.10407 11.5021 6.28923 11.3147Z" fill="#3283F5"/>
</g>
</svg>
