<svg width="24" height="24" viewBox="0 0 24 24" fill="none" xmlns="http://www.w3.org/2000/svg">
<g id="right side icon">
<path id="Rounded Rectangle 618 copy 9" fill-rule="evenodd" clip-rule="evenodd" d="M17.7108 11.3147L9.72304 3.33232C9.63336 3.23108 9.52428 3.14942 9.40234 3.09234C9.2804 3.03527 9.14819 3.00396 9.01389 3.00035C8.87958 2.99674 8.74597 3.02091 8.62121 3.07136C8.49645 3.12181 8.3832 3.19747 8.28833 3.29375C8.19347 3.39002 8.11901 3.50487 8.06951 3.63126C8.02001 3.75766 7.99648 3.89295 8.00043 4.02885C8.00437 4.16475 8.03567 4.2984 8.09242 4.42164C8.14916 4.54487 8.23024 4.65511 8.33053 4.74558L15.607 12.0213L8.30087 19.3281C8.1303 19.5179 8.0384 19.7668 8.04419 20.0233C8.04998 20.2798 8.15302 20.5243 8.33198 20.706C8.51093 20.8878 8.75212 20.9929 9.00557 20.9997C9.25901 21.0064 9.50533 20.9143 9.6935 20.7424L17.7108 12.728C17.8959 12.5405 18 12.2864 18 12.0213C18 11.7563 17.8959 11.5021 17.7108 11.3147Z" fill="#3283F5"/>
</g>
</svg>
