<svg width="700" height="326" viewBox="0 0 700 326" fill="none" xmlns="http://www.w3.org/2000/svg">
<circle opacity="0.8" cx="4" cy="63" r="4" fill="#0F1217"/>
<circle opacity="0.8" cx="24" cy="63" r="4" fill="#0F1217"/>
<circle opacity="0.8" cx="44" cy="63" r="4" fill="#0F1217"/>
<circle opacity="0.8" cx="64" cy="63" r="4" fill="#0F1217"/>
<circle opacity="0.8" cx="84" cy="63" r="4" fill="#0F1217"/>
<circle opacity="0.8" cx="104" cy="63" r="4" fill="#0F1217"/>
<circle opacity="0.8" cx="124" cy="63" r="4" fill="#0F1217"/>
<circle opacity="0.8" cx="144" cy="63" r="4" fill="#0F1217"/>
<circle opacity="0.8" cx="164" cy="63" r="4" fill="#0F1217"/>
<circle opacity="0.8" cx="184" cy="63" r="4" fill="#0F1217"/>
<circle opacity="0.8" cx="4" cy="83" r="4" fill="#0F1217"/>
<circle opacity="0.8" cx="24" cy="83" r="4" fill="#0F1217"/>
<circle opacity="0.8" cx="44" cy="83" r="4" fill="#0F1217"/>
<circle opacity="0.8" cx="64" cy="83" r="4" fill="#0F1217"/>
<circle opacity="0.8" cx="84" cy="83" r="4" fill="#0F1217"/>
<circle opacity="0.8" cx="104" cy="83" r="4" fill="#0F1217"/>
<circle opacity="0.8" cx="124" cy="83" r="4" fill="#0F1217"/>
<circle opacity="0.8" cx="144" cy="83" r="4" fill="#0F1217"/>
<circle opacity="0.8" cx="164" cy="83" r="4" fill="#0F1217"/>
<circle opacity="0.8" cx="184" cy="83" r="4" fill="#0F1217"/>
<circle opacity="0.8" cx="4" cy="103" r="4" fill="#0F1217"/>
<circle opacity="0.8" cx="24" cy="103" r="4" fill="#0F1217"/>
<circle opacity="0.8" cx="44" cy="103" r="4" fill="#0F1217"/>
<circle opacity="0.8" cx="64" cy="103" r="4" fill="#0F1217"/>
<circle opacity="0.8" cx="84" cy="103" r="4" fill="#0F1217"/>
<circle opacity="0.8" cx="104" cy="103" r="4" fill="#0F1217"/>
<circle opacity="0.8" cx="124" cy="103" r="4" fill="#0F1217"/>
<circle opacity="0.8" cx="144" cy="103" r="4" fill="#0F1217"/>
<circle opacity="0.8" cx="164" cy="103" r="4" fill="#0F1217"/>
<circle opacity="0.8" cx="184" cy="103" r="4" fill="#0F1217"/>
<circle opacity="0.8" cx="4" cy="123" r="4" fill="#0F1217"/>
<circle opacity="0.8" cx="24" cy="123" r="4" fill="#0F1217"/>
<circle opacity="0.8" cx="44" cy="123" r="4" fill="#0F1217"/>
<circle opacity="0.8" cx="64" cy="123" r="4" fill="#0F1217"/>
<circle opacity="0.8" cx="84" cy="123" r="4" fill="#0F1217"/>
<circle opacity="0.8" cx="104" cy="123" r="4" fill="#0F1217"/>
<circle opacity="0.8" cx="124" cy="123" r="4" fill="#0F1217"/>
<circle opacity="0.8" cx="144" cy="123" r="4" fill="#0F1217"/>
<circle opacity="0.8" cx="164" cy="123" r="4" fill="#0F1217"/>
<circle opacity="0.8" cx="184" cy="123" r="4" fill="#0F1217"/>
<circle opacity="0.8" cx="4" cy="143" r="4" fill="#0F1217"/>
<circle opacity="0.8" cx="24" cy="143" r="4" fill="#0F1217"/>
<circle opacity="0.8" cx="44" cy="143" r="4" fill="#0F1217"/>
<circle opacity="0.8" cx="64" cy="143" r="4" fill="#0F1217"/>
<circle opacity="0.8" cx="84" cy="143" r="4" fill="#0F1217"/>
<circle opacity="0.8" cx="104" cy="143" r="4" fill="#0F1217"/>
<circle opacity="0.8" cx="124" cy="143" r="4" fill="#0F1217"/>
<circle opacity="0.8" cx="144" cy="143" r="4" fill="#0F1217"/>
<circle opacity="0.8" cx="164" cy="143" r="4" fill="#0F1217"/>
<circle opacity="0.8" cx="184" cy="143" r="4" fill="#0F1217"/>
<circle opacity="0.8" cx="4" cy="163" r="4" fill="#0F1217"/>
<circle opacity="0.8" cx="24" cy="163" r="4" fill="#0F1217"/>
<circle opacity="0.8" cx="44" cy="163" r="4" fill="#0F1217"/>
<circle opacity="0.8" cx="64" cy="163" r="4" fill="#0F1217"/>
<circle opacity="0.8" cx="84" cy="163" r="4" fill="#0F1217"/>
<circle opacity="0.8" cx="104" cy="163" r="4" fill="#0F1217"/>
<circle opacity="0.8" cx="124" cy="163" r="4" fill="#0F1217"/>
<circle opacity="0.8" cx="144" cy="163" r="4" fill="#0F1217"/>
<circle opacity="0.8" cx="164" cy="163" r="4" fill="#0F1217"/>
<circle opacity="0.8" cx="184" cy="163" r="4" fill="#0F1217"/>
<circle opacity="0.8" cx="4" cy="183" r="4" fill="#0F1217"/>
<circle opacity="0.8" cx="24" cy="183" r="4" fill="#0F1217"/>
<circle opacity="0.8" cx="44" cy="183" r="4" fill="#0F1217"/>
<circle opacity="0.8" cx="64" cy="183" r="4" fill="#0F1217"/>
<circle opacity="0.8" cx="84" cy="183" r="4" fill="#0F1217"/>
<circle opacity="0.8" cx="104" cy="183" r="4" fill="#0F1217"/>
<circle opacity="0.8" cx="124" cy="183" r="4" fill="#0F1217"/>
<circle opacity="0.8" cx="144" cy="183" r="4" fill="#0F1217"/>
<circle opacity="0.8" cx="164" cy="183" r="4" fill="#0F1217"/>
<circle opacity="0.8" cx="184" cy="183" r="4" fill="#0F1217"/>
<circle opacity="0.8" cx="4" cy="203" r="4" fill="#0F1217"/>
<circle opacity="0.8" cx="24" cy="203" r="4" fill="#0F1217"/>
<circle opacity="0.8" cx="44" cy="203" r="4" fill="#0F1217"/>
<circle opacity="0.8" cx="64" cy="203" r="4" fill="#0F1217"/>
<circle opacity="0.8" cx="84" cy="203" r="4" fill="#0F1217"/>
<circle opacity="0.8" cx="104" cy="203" r="4" fill="#0F1217"/>
<circle opacity="0.8" cx="124" cy="203" r="4" fill="#0F1217"/>
<circle opacity="0.8" cx="144" cy="203" r="4" fill="#0F1217"/>
<circle opacity="0.8" cx="164" cy="203" r="4" fill="#0F1217"/>
<circle opacity="0.8" cx="184" cy="203" r="4" fill="#0F1217"/>
<g opacity="0.15">
<circle opacity="0.8" cx="516" cy="133" r="4" fill="#0061EA"/>
<circle opacity="0.8" cx="536" cy="133" r="4" fill="#0061EA"/>
<circle opacity="0.8" cx="556" cy="133" r="4" fill="#0061EA"/>
<circle opacity="0.8" cx="576" cy="133" r="4" fill="#0061EA"/>
<circle opacity="0.8" cx="596" cy="133" r="4" fill="#0061EA"/>
<circle opacity="0.8" cx="616" cy="133" r="4" fill="#0061EA"/>
<circle opacity="0.8" cx="636" cy="133" r="4" fill="#0061EA"/>
<circle opacity="0.8" cx="656" cy="133" r="4" fill="#0061EA"/>
<circle opacity="0.8" cx="676" cy="133" r="4" fill="#0061EA"/>
<circle opacity="0.8" cx="696" cy="133" r="4" fill="#0061EA"/>
<circle opacity="0.8" cx="516" cy="153" r="4" fill="#0061EA"/>
<circle opacity="0.8" cx="536" cy="153" r="4" fill="#0061EA"/>
<circle opacity="0.8" cx="556" cy="153" r="4" fill="#0061EA"/>
<circle opacity="0.8" cx="576" cy="153" r="4" fill="#0061EA"/>
<circle opacity="0.8" cx="596" cy="153" r="4" fill="#0061EA"/>
<circle opacity="0.8" cx="616" cy="153" r="4" fill="#0061EA"/>
<circle opacity="0.8" cx="636" cy="153" r="4" fill="#0061EA"/>
<circle opacity="0.8" cx="656" cy="153" r="4" fill="#0061EA"/>
<circle opacity="0.8" cx="676" cy="153" r="4" fill="#0061EA"/>
<circle opacity="0.8" cx="696" cy="153" r="4" fill="#0061EA"/>
<circle opacity="0.8" cx="516" cy="173" r="4" fill="#0061EA"/>
<circle opacity="0.8" cx="536" cy="173" r="4" fill="#0061EA"/>
<circle opacity="0.8" cx="556" cy="173" r="4" fill="#0061EA"/>
<circle opacity="0.8" cx="576" cy="173" r="4" fill="#0061EA"/>
<circle opacity="0.8" cx="596" cy="173" r="4" fill="#0061EA"/>
<circle opacity="0.8" cx="616" cy="173" r="4" fill="#0061EA"/>
<circle opacity="0.8" cx="636" cy="173" r="4" fill="#0061EA"/>
<circle opacity="0.8" cx="656" cy="173" r="4" fill="#0061EA"/>
<circle opacity="0.8" cx="676" cy="173" r="4" fill="#0061EA"/>
<circle opacity="0.8" cx="696" cy="173" r="4" fill="#0061EA"/>
<circle opacity="0.8" cx="516" cy="193" r="4" fill="#0061EA"/>
<circle opacity="0.8" cx="536" cy="193" r="4" fill="#0061EA"/>
<circle opacity="0.8" cx="556" cy="193" r="4" fill="#0061EA"/>
<circle opacity="0.8" cx="576" cy="193" r="4" fill="#0061EA"/>
<circle opacity="0.8" cx="596" cy="193" r="4" fill="#0061EA"/>
<circle opacity="0.8" cx="616" cy="193" r="4" fill="#0061EA"/>
<circle opacity="0.8" cx="636" cy="193" r="4" fill="#0061EA"/>
<circle opacity="0.8" cx="656" cy="193" r="4" fill="#0061EA"/>
<circle opacity="0.8" cx="676" cy="193" r="4" fill="#0061EA"/>
<circle opacity="0.8" cx="696" cy="193" r="4" fill="#0061EA"/>
<circle opacity="0.8" cx="516" cy="213" r="4" fill="#0061EA"/>
<circle opacity="0.8" cx="536" cy="213" r="4" fill="#0061EA"/>
<circle opacity="0.8" cx="556" cy="213" r="4" fill="#0061EA"/>
<circle opacity="0.8" cx="576" cy="213" r="4" fill="#0061EA"/>
<circle opacity="0.8" cx="596" cy="213" r="4" fill="#0061EA"/>
<circle opacity="0.8" cx="616" cy="213" r="4" fill="#0061EA"/>
<circle opacity="0.8" cx="636" cy="213" r="4" fill="#0061EA"/>
<circle opacity="0.8" cx="656" cy="213" r="4" fill="#0061EA"/>
<circle opacity="0.8" cx="676" cy="213" r="4" fill="#0061EA"/>
<circle opacity="0.8" cx="696" cy="213" r="4" fill="#0061EA"/>
<circle opacity="0.8" cx="516" cy="233" r="4" fill="#0061EA"/>
<circle opacity="0.8" cx="536" cy="233" r="4" fill="#0061EA"/>
<circle opacity="0.8" cx="556" cy="233" r="4" fill="#0061EA"/>
<circle opacity="0.8" cx="576" cy="233" r="4" fill="#0061EA"/>
<circle opacity="0.8" cx="596" cy="233" r="4" fill="#0061EA"/>
<circle opacity="0.8" cx="616" cy="233" r="4" fill="#0061EA"/>
<circle opacity="0.8" cx="636" cy="233" r="4" fill="#0061EA"/>
<circle opacity="0.8" cx="656" cy="233" r="4" fill="#0061EA"/>
<circle opacity="0.8" cx="676" cy="233" r="4" fill="#0061EA"/>
<circle opacity="0.8" cx="696" cy="233" r="4" fill="#0061EA"/>
<circle opacity="0.8" cx="516" cy="253" r="4" fill="#0061EA"/>
<circle opacity="0.8" cx="536" cy="253" r="4" fill="#0061EA"/>
<circle opacity="0.8" cx="556" cy="253" r="4" fill="#0061EA"/>
<circle opacity="0.8" cx="576" cy="253" r="4" fill="#0061EA"/>
<circle opacity="0.8" cx="596" cy="253" r="4" fill="#0061EA"/>
<circle opacity="0.8" cx="616" cy="253" r="4" fill="#0061EA"/>
<circle opacity="0.8" cx="636" cy="253" r="4" fill="#0061EA"/>
<circle opacity="0.8" cx="656" cy="253" r="4" fill="#0061EA"/>
<circle opacity="0.8" cx="676" cy="253" r="4" fill="#0061EA"/>
<circle opacity="0.8" cx="696" cy="253" r="4" fill="#0061EA"/>
<circle opacity="0.8" cx="516" cy="273" r="4" fill="#0061EA"/>
<circle opacity="0.8" cx="536" cy="273" r="4" fill="#0061EA"/>
<circle opacity="0.8" cx="556" cy="273" r="4" fill="#0061EA"/>
<circle opacity="0.8" cx="576" cy="273" r="4" fill="#0061EA"/>
<circle opacity="0.8" cx="596" cy="273" r="4" fill="#0061EA"/>
<circle opacity="0.8" cx="616" cy="273" r="4" fill="#0061EA"/>
<circle opacity="0.8" cx="636" cy="273" r="4" fill="#0061EA"/>
<circle opacity="0.8" cx="656" cy="273" r="4" fill="#0061EA"/>
<circle opacity="0.8" cx="676" cy="273" r="4" fill="#0061EA"/>
<circle opacity="0.8" cx="696" cy="273" r="4" fill="#0061EA"/>
</g>
<path opacity="0.7" fill-rule="evenodd" clip-rule="evenodd" d="M247.502 13.2197L220.961 28.1939V57.8061L247.502 72.7803L274.039 57.8066V28.1934L247.502 13.2197ZM284.487 20.4232C285.422 20.951 286 21.9374 286 23.0062V62.9938C286 64.0626 285.422 65.049 284.487 65.5768L248.98 85.6124C248.064 86.1292 246.942 86.1292 246.026 85.6125L210.514 65.5768C209.578 65.049 209 64.0625 209 62.9937V23.0063C209 21.9375 209.578 20.951 210.514 20.4232L246.026 0.387509C246.942 -0.129201 248.064 -0.129168 248.98 0.387598L284.487 20.4232Z" fill="#0C0F14"/>
<circle cx="34" cy="102" r="12" fill="#70E0B1"/>
<path opacity="0.8" fill-rule="evenodd" clip-rule="evenodd" d="M671.681 235.746C679.326 229.763 682.404 224.522 682.404 220.836V188.756L658 177.556L633.596 188.756V220.836C633.596 224.522 636.674 229.763 644.319 235.746C649.101 239.489 654.303 242.438 658 244.325C661.697 242.438 666.899 239.489 671.681 235.746ZM659.166 257.746C658.409 258.085 657.591 258.085 656.834 257.746C650.551 254.939 621 240.679 621 220.836V182.688C621 181.456 621.717 180.336 622.837 179.823L656.688 164.287C657.521 163.904 658.479 163.904 659.312 164.287L693.163 179.823C694.283 180.336 695 181.456 695 182.688V220.836C695 240.679 665.449 254.939 659.166 257.746Z" fill="#0C0F14"/>
<rect x="80" y="113" width="360" height="184" rx="8" fill="#12151A"/>
<path opacity="0.25" d="M120 135.993C120 135.445 120.448 135 121 135C121.552 135 122 135.445 122 135.993V274.007C122 274.555 121.552 275 121 275C120.448 275 120 274.555 120 274.007V135.993Z" fill="#3283F5"/>
<path opacity="0.25" d="M189 135.993C189 135.445 189.448 135 190 135C190.552 135 191 135.445 191 135.993V274.007C191 274.555 190.552 275 190 275C189.448 275 189 274.555 189 274.007V135.993Z" fill="#3283F5"/>
<path opacity="0.25" d="M258 135.993C258 135.445 258.448 135 259 135C259.552 135 260 135.445 260 135.993V274.007C260 274.555 259.552 275 259 275C258.448 275 258 274.555 258 274.007V135.993Z" fill="#3283F5"/>
<path opacity="0.25" d="M328 135.993C328 135.445 328.448 135 329 135C329.552 135 330 135.445 330 135.993V274.007C330 274.555 329.552 275 329 275C328.448 275 328 274.555 328 274.007V135.993Z" fill="#3283F5"/>
<path opacity="0.25" d="M397 135.993C397 135.445 397.448 135 398 135C398.552 135 399 135.445 399 135.993V274.007C399 274.555 398.552 275 398 275C397.448 275 397 274.555 397 274.007V135.993Z" fill="#3283F5"/>
<path d="M399 284H120C120 284 120 199.883 120 190C130.409 190 161.128 249.639 189.892 249.639C218.655 249.639 239.76 218.124 259.578 218.124C279.396 218.124 305.939 266.52 329.143 264.472C352.346 262.424 388.361 201.326 399 199.519C399 202.803 399 284 399 284Z" fill="url(#paint0_linear_189_9308)"/>
<g filter="url(#filter0_dd_189_9308)">
<path fill-rule="evenodd" clip-rule="evenodd" d="M120 189.51C120 188.676 120.533 188 121.19 188C122.803 188 124.617 189.202 126.462 190.853C128.364 192.555 130.533 194.957 132.904 197.78C135.147 200.451 137.604 203.54 140.222 206.83C140.376 207.024 140.531 207.218 140.686 207.413C143.483 210.928 146.463 214.664 149.588 218.398C155.844 225.872 162.64 233.29 169.619 238.834C176.608 244.387 183.674 247.975 190.485 247.975C204.407 247.975 216.526 240.23 227.78 232.293C228.814 231.564 229.842 230.832 230.864 230.104C235.366 226.899 239.75 223.778 244.011 221.326C249.248 218.312 254.42 216.231 259.577 216.231C264.845 216.231 270.417 219.481 276.049 224.054C281.015 228.085 286.179 233.275 291.38 238.502C292.1 239.225 292.82 239.95 293.541 240.672C299.501 246.641 305.494 252.47 311.412 256.685C317.337 260.905 323.051 263.405 328.465 262.92C333.87 262.435 340.291 258.302 347.137 252.096C353.944 245.925 361.002 237.864 367.658 229.819C370.507 226.375 373.295 222.918 375.954 219.62C379.471 215.26 382.763 211.179 385.673 207.776C388.238 204.777 390.56 202.24 392.538 200.446C393.527 199.549 394.457 198.813 395.31 198.296C396.147 197.788 397 197.436 397.81 197.436C398.467 197.436 399 198.112 399 198.946C399 199.78 398.467 200.456 397.81 200.456C397.512 200.456 397.032 200.598 396.335 201.021C395.654 201.434 394.848 202.062 393.921 202.903C392.066 204.586 389.831 207.02 387.284 209.998C384.384 213.389 381.148 217.403 377.664 221.723C375.006 225.019 372.204 228.494 369.298 232.006C362.624 240.073 355.468 248.254 348.52 254.554C341.609 260.818 334.731 265.386 328.633 265.933C322.544 266.478 316.341 263.659 310.248 259.319C304.146 254.973 298.018 249.003 292.068 243.043C291.342 242.316 290.619 241.59 289.9 240.867C284.685 235.626 279.624 230.541 274.767 226.598C269.22 222.095 264.134 219.251 259.577 219.251C254.91 219.251 250.098 221.138 244.994 224.076C240.834 226.47 236.561 229.512 232.064 232.713C231.033 233.446 229.991 234.189 228.935 234.933C217.684 242.868 205.082 250.995 190.485 250.995C183.037 250.995 175.522 247.086 168.357 241.394C161.181 235.693 154.251 228.117 147.957 220.597C144.808 216.834 141.808 213.073 139.012 209.56C138.86 209.368 138.708 209.177 138.557 208.987C135.931 205.686 133.495 202.625 131.276 199.983C128.925 197.183 126.853 194.899 125.091 193.321C123.271 191.692 121.996 191.02 121.19 191.02C120.533 191.02 120 190.344 120 189.51Z" fill="#0FAA97"/>
</g>
<path d="M125 191C125 193.209 123.209 195 121 195C118.791 195 117 193.209 117 191C117 188.791 118.791 187 121 187C123.209 187 125 188.791 125 191Z" fill="#00BF9A"/>
<path fill-rule="evenodd" clip-rule="evenodd" d="M128 191C128 194.866 124.866 198 121 198C117.134 198 114 194.866 114 191C114 187.134 117.134 184 121 184C124.866 184 128 187.134 128 191ZM121 195C123.209 195 125 193.209 125 191C125 188.791 123.209 187 121 187C118.791 187 117 188.791 117 191C117 193.209 118.791 195 121 195Z" fill="#15181D"/>
<path d="M194 249C194 251.209 192.209 253 190 253C187.791 253 186 251.209 186 249C186 246.791 187.791 245 190 245C192.209 245 194 246.791 194 249Z" fill="#00BF9A"/>
<path fill-rule="evenodd" clip-rule="evenodd" d="M197 249C197 252.866 193.866 256 190 256C186.134 256 183 252.866 183 249C183 245.134 186.134 242 190 242C193.866 242 197 245.134 197 249ZM190 253C192.209 253 194 251.209 194 249C194 246.791 192.209 245 190 245C187.791 245 186 246.791 186 249C186 251.209 187.791 253 190 253Z" fill="#15181D"/>
<path d="M263 218C263 220.209 261.209 222 259 222C256.791 222 255 220.209 255 218C255 215.791 256.791 214 259 214C261.209 214 263 215.791 263 218Z" fill="#00BF9A"/>
<path fill-rule="evenodd" clip-rule="evenodd" d="M266 218C266 221.866 262.866 225 259 225C255.134 225 252 221.866 252 218C252 214.134 255.134 211 259 211C262.866 211 266 214.134 266 218ZM259 222C261.209 222 263 220.209 263 218C263 215.791 261.209 214 259 214C256.791 214 255 215.791 255 218C255 220.209 256.791 222 259 222Z" fill="#15181D"/>
<path d="M333 264C333 266.209 331.209 268 329 268C326.791 268 325 266.209 325 264C325 261.791 326.791 260 329 260C331.209 260 333 261.791 333 264Z" fill="#00BF9A"/>
<path fill-rule="evenodd" clip-rule="evenodd" d="M336 264C336 267.866 332.866 271 329 271C325.134 271 322 267.866 322 264C322 260.134 325.134 257 329 257C332.866 257 336 260.134 336 264ZM329 268C331.209 268 333 266.209 333 264C333 261.791 331.209 260 329 260C326.791 260 325 261.791 325 264C325 266.209 326.791 268 329 268Z" fill="#15181D"/>
<path d="M402 202C402 204.209 400.209 206 398 206C395.791 206 394 204.209 394 202C394 199.791 395.791 198 398 198C400.209 198 402 199.791 402 202Z" fill="#00BF9A"/>
<path fill-rule="evenodd" clip-rule="evenodd" d="M405 202C405 205.866 401.866 209 398 209C394.134 209 391 205.866 391 202C391 198.134 394.134 195 398 195C401.866 195 405 198.134 405 202ZM398 206C400.209 206 402 204.209 402 202C402 199.791 400.209 198 398 198C395.791 198 394 199.791 394 202C394 204.209 395.791 206 398 206Z" fill="#15181D"/>
<g clip-path="url(#clip0_189_9308)">
<g filter="url(#filter1_d_189_9308)">
<rect x="220" y="35" width="400" height="220" rx="8" fill="#1A50BD"/>
</g>
<rect x="280.4" y="53" width="2" height="184" fill="#1D8CF8" fill-opacity="0.1"/>
<rect x="336.4" y="53" width="2" height="184" fill="#1D8CF8" fill-opacity="0.1"/>
<rect x="392.4" y="53" width="2" height="184" fill="#1D8CF8" fill-opacity="0.1"/>
<rect x="448.4" y="53" width="2" height="184" fill="#1D8CF8" fill-opacity="0.1"/>
<rect x="504.4" y="53" width="2" height="184" fill="#1D8CF8" fill-opacity="0.1"/>
<rect x="560.4" y="53" width="2" height="184" fill="#1D8CF8" fill-opacity="0.1"/>
<rect x="240" y="80" width="360" height="2" fill="#1D8CF8" fill-opacity="0.1"/>
<rect x="240" y="112" width="360" height="2" fill="#1D8CF8" fill-opacity="0.1"/>
<rect x="240" y="144" width="360" height="2" fill="#1D8CF8" fill-opacity="0.1"/>
<rect x="240" y="176" width="360" height="2" fill="#1D8CF8" fill-opacity="0.1"/>
<rect x="240" y="208" width="360" height="2" fill="#1D8CF8" fill-opacity="0.1"/>
<path d="M265 237V146H301V237" fill="url(#paint1_linear_189_9308)"/>
<path fill-rule="evenodd" clip-rule="evenodd" d="M264 144H302V237H300.051V145.918H265.949V237H264V144Z" fill="#1D8CF8"/>
<path d="M320 237V209H356V237" fill="url(#paint2_linear_189_9308)"/>
<path fill-rule="evenodd" clip-rule="evenodd" d="M319 208H357V237H355.051V210.061H320.949V237H319V208Z" fill="#1D8CF8"/>
<path d="M374 237V177H410V237" fill="url(#paint3_linear_189_9308)"/>
<path fill-rule="evenodd" clip-rule="evenodd" d="M373 176H411V237H409.051V177.908H374.949V237H373V176Z" fill="#1D8CF8"/>
<path d="M429 237V113H465V237" fill="url(#paint4_linear_189_9308)"/>
<path fill-rule="evenodd" clip-rule="evenodd" d="M428 112H466V237H464.051V113.95H429.949V237H428V112Z" fill="#1D8CF8"/>
<path d="M483 237V81H519V237" fill="url(#paint5_linear_189_9308)"/>
<path fill-rule="evenodd" clip-rule="evenodd" d="M482 80H520V237H518.051V82H483.949V237H482V80Z" fill="#1D8CF8"/>
<path d="M538 237V145H574V237" fill="url(#paint6_linear_189_9308)"/>
<path fill-rule="evenodd" clip-rule="evenodd" d="M537 144H575V237H573.051V146H538.949V237H537V144Z" fill="#1D8CF8"/>
<g opacity="0.5">
<path d="M280 137L306.64 110L316 119.486L298.72 137L316 154.514L306.64 164L280 137Z" fill="#4ED4FF"/>
<path fill-rule="evenodd" clip-rule="evenodd" d="M355.143 137C355.143 143.706 349.706 149.143 343 149.143C342.057 149.143 341.14 149.035 340.259 148.832L354.832 134.259C355.035 135.14 355.143 136.057 355.143 137ZM331.168 139.741L345.741 125.168C344.86 124.965 343.943 124.857 343 124.857C336.294 124.857 330.857 130.294 330.857 137C330.857 137.943 330.965 138.86 331.168 139.741ZM368 137C368 150.807 356.807 162 343 162C329.193 162 318 150.807 318 137C318 123.193 329.193 112 343 112C356.807 112 368 123.193 368 137Z" fill="#4ED4FF"/>
<path d="M406 137L379.36 110L370 119.486L387.28 137L370 154.514L379.36 164L406 137Z" fill="#4ED4FF"/>
</g>
</g>
<path opacity="0.6" d="M567 203C567 240.003 537.003 270 500 270C462.997 270 433 240.003 433 203C433 165.997 462.997 136 500 136C537.003 136 567 165.997 567 203Z" fill="#002F8D"/>
<path d="M500 136C509.829 136 519.539 138.163 528.439 142.335C537.339 146.507 545.212 152.587 551.499 160.142C557.787 167.697 562.335 176.544 564.821 186.053C567.308 195.563 567.671 205.504 565.885 215.17L532.943 209.085C533.835 204.252 533.654 199.282 532.411 194.527C531.168 189.772 528.894 185.349 525.75 181.571C522.606 177.793 518.669 174.754 514.219 172.667C509.769 170.581 504.915 169.5 500 169.5V136Z" fill="#46A2F8"/>
<path d="M565.886 215.17C562.888 231.396 554.009 245.945 540.949 256.03C527.888 266.115 511.566 271.026 495.109 269.821L497.555 236.411C505.783 237.013 513.944 234.558 520.474 229.515C527.005 224.473 531.444 217.198 532.943 209.085L565.886 215.17Z" fill="#3283F5"/>
<path d="M495.109 269.821C481.997 268.862 469.457 264.065 459.051 256.03C448.645 247.995 440.833 237.076 436.588 224.633L468.294 213.817C470.417 220.038 474.323 225.498 479.526 229.515C484.728 233.533 490.998 235.931 497.555 236.411L495.109 269.821Z" fill="#45D0EE"/>
<path d="M436.589 224.633C433.415 215.33 432.327 205.443 433.402 195.672C434.477 185.902 437.689 176.487 442.809 168.097L471.405 185.549C468.844 189.744 467.239 194.451 466.701 199.336C466.163 204.221 466.707 209.165 468.294 213.817L436.589 224.633Z" fill="#0FAA97"/>
<path fill-rule="evenodd" clip-rule="evenodd" d="M500 136C496.735 136 493.475 136.239 490.245 136.714C483.776 137.666 477.481 139.56 471.561 142.335C459.657 147.915 449.658 156.875 442.809 168.097L471.404 185.549C474.829 179.937 479.828 175.458 485.781 172.667C488.741 171.28 491.888 170.333 495.122 169.857C496.737 169.619 498.367 169.5 500 169.5V136Z" fill="#06EEB6"/>
<circle cx="551" cy="245" r="12" fill="#8ED1FC"/>
<path d="M70 241C89.8823 241 106 224.882 106 205C106 185.118 89.8823 169 70 169C50.1177 169 34 185.118 34 205C34 224.882 50.1177 241 70 241Z" fill="#F7931A"/>
<path d="M59.3029 189.96C60.3617 190.2 61.4167 190.345 62.4756 190.585C63.5344 190.824 64.5894 190.969 65.6483 191.209C65.9377 191.291 66.0291 191.193 66.1128 190.907C66.4283 189.292 66.7476 187.772 67.0631 186.157C67.1468 185.871 67.2381 185.773 67.5276 185.855C68.4912 186.099 69.3558 186.252 70.3156 186.401C70.6051 186.483 70.6089 186.577 70.5214 186.769C70.2021 188.29 69.8866 189.905 69.5673 191.425C69.5711 191.519 69.5749 191.614 69.4874 191.806C70.2568 191.963 71.1214 192.116 71.8907 192.273C71.986 192.269 72.0735 192.077 72.1648 191.979C72.4005 190.744 72.64 189.604 72.9709 188.365C73.0507 187.985 73.1305 187.605 73.2104 187.225C73.2027 187.037 73.294 186.939 73.4883 187.025C74.4519 187.268 75.4117 187.418 76.4706 187.657C76.5658 187.653 76.5696 187.747 76.6648 187.743C76.4292 188.978 76.1897 190.118 75.9502 191.259C75.8742 191.733 75.7982 192.207 75.627 192.685C75.5433 192.971 75.6424 193.062 75.9319 193.144C76.9984 193.572 78.0649 193.999 79.1315 194.427C80.1066 194.952 80.9943 195.67 81.6992 196.583C82.6137 197.959 82.7705 199.46 82.4511 200.981C82.2078 202.028 81.8654 202.984 81.1344 203.767C80.5862 204.355 79.8399 204.763 79.0898 205.076C78.9946 205.08 78.9032 205.178 78.7128 205.186C79.1052 205.452 79.4937 205.625 79.8861 205.891C81.0632 206.691 81.8672 207.695 82.3018 208.996C82.5345 210.023 82.4854 211.156 82.2421 212.202C81.9151 213.535 81.4851 214.683 80.6705 215.753C79.6732 217.019 78.3672 217.732 76.8515 217.982C74.8636 218.346 72.9517 218.236 71.036 218.031C70.7465 217.949 70.5599 218.051 70.4762 218.337C70.1569 219.857 69.8414 221.472 69.5221 222.993C69.4422 223.373 69.4461 223.467 68.9623 223.298C68.0978 223.145 67.1341 222.902 66.2695 222.749C65.9801 222.666 65.9762 222.572 66.0638 222.38C66.3792 220.766 66.6947 219.151 67.1093 217.626C67.1016 217.438 67.193 217.34 66.9987 217.254C66.2293 217.097 65.46 216.94 64.5954 216.787C64.4396 217.641 64.1885 218.5 64.0327 219.354C63.8769 220.208 63.6258 221.067 63.47 221.921C63.3825 222.113 63.3863 222.207 63.0969 222.125C62.1332 221.881 61.1734 221.732 60.2136 221.583C59.9242 221.501 59.9203 221.406 60.0078 221.214C60.3233 219.6 60.6388 217.985 61.0534 216.46C61.0495 216.366 61.1409 216.268 61.1332 216.08C58.9203 215.605 56.7074 215.13 54.3993 214.659C54.5743 214.275 54.658 213.989 54.8331 213.605C55.1793 212.743 55.5255 211.881 55.7804 211.117C55.8641 210.831 55.9593 210.827 56.2449 210.815C56.9191 210.976 57.6885 211.133 58.3588 211.2C59.1282 211.357 59.684 210.957 59.7524 210.295C60.794 205.447 61.8357 200.599 62.7784 195.66C62.938 194.9 62.4274 194.073 61.5589 193.826C60.6905 193.578 59.8259 193.425 59.0566 193.268C58.8662 193.276 58.7671 193.186 58.8546 192.994C59.098 191.947 59.3375 190.807 59.5808 189.761C59.2115 190.058 59.2115 190.058 59.3029 189.96ZM65.1081 212.997C65.2033 212.993 65.3023 213.083 65.3023 213.083C66.8411 213.397 68.4789 213.801 70.1013 213.829C71.2477 213.877 72.295 213.834 73.3269 213.415C75.1129 212.776 75.7784 210.394 74.6696 208.931C74.1628 208.198 73.3819 207.759 72.601 207.32C70.8488 206.449 68.834 206.155 66.9144 205.856C66.6249 205.774 66.6288 205.868 66.5451 206.154C66.3931 207.102 66.1421 207.961 65.9901 208.909C65.6631 210.242 65.4313 211.57 65.1081 212.997ZM72.7137 203.075C72.9041 203.067 73.3763 202.954 73.7533 202.844C75.5469 202.394 76.4144 200.286 75.397 198.725C74.8863 197.898 74.0064 197.369 73.1341 197.027C71.7781 196.517 70.4336 196.29 68.9901 195.972C68.7006 195.889 68.6092 195.987 68.5256 196.273C68.1302 198.268 67.7311 200.169 67.2405 202.168C67.153 202.36 67.2521 202.45 67.4463 202.536C67.831 202.615 68.1205 202.697 68.5052 202.776C69.941 202.906 71.1903 203.137 72.7137 203.075Z" fill="white"/>
<circle cx="425" cy="54" r="34" fill="#3283F5"/>
<path opacity="0.6" d="M421.094 33.6646L421.006 34.6075L426.17 60.4233L426.489 60.6312L437.272 51.1072L421.094 33.6646Z" fill="#D8E8FF"/>
<path d="M421.094 33.6645L412.872 55.9885L426.489 60.6313L423.983 48.1011L421.094 33.6645Z" fill="white"/>
<path d="M426.943 62.9002L426.829 63.11L428.669 72.3062L428.905 72.7069L437.734 53.3783L426.943 62.9002Z" fill="#95BFFB"/>
<path d="M428.905 72.7067L426.943 62.8999L413.327 58.2609L428.905 72.7067Z" fill="white"/>
<path d="M426.489 60.6312L437.272 51.1073L423.982 48.1012L426.489 60.6312Z" fill="#69A5FA"/>
<path d="M412.873 55.9886L426.49 60.6313L423.983 48.1012L412.873 55.9886Z" fill="#95BFFB"/>
<circle cx="260" cy="295" r="31" fill="#EEAD0D"/>
<path d="M252.812 294.879L256.143 286.354L264.673 289.686L266.611 284.725L253.12 279.455L247.852 292.941L252.812 294.879ZM244.545 301.406L246.483 296.445L251.444 298.383L249.506 303.344L244.545 301.406ZM254.947 299.751L263.473 303.082L266.805 294.552L271.766 296.488L266.496 309.981L253.009 304.712L253.003 304.71L254.947 299.751ZM268.172 291.053L270.11 286.092L275.071 288.03L273.133 292.991L268.172 291.053ZM263.305 293.182L263.308 293.18L263.309 293.183L261.342 298.219L256.314 296.256L256.305 296.253L256.309 296.245L256.652 295.364L256.82 294.936L258.274 291.216L263.307 293.183L263.305 293.182Z" fill="white"/>
<defs>
<filter id="filter0_dd_189_9308" x="96" y="164" width="327" height="126" filterUnits="userSpaceOnUse" color-interpolation-filters="sRGB">
<feFlood flood-opacity="0" result="BackgroundImageFix"/>
<feColorMatrix in="SourceAlpha" type="matrix" values="0 0 0 0 0 0 0 0 0 0 0 0 0 0 0 0 0 0 127 0" result="hardAlpha"/>
<feOffset/>
<feGaussianBlur stdDeviation="12"/>
<feComposite in2="hardAlpha" operator="out"/>
<feColorMatrix type="matrix" values="0 0 0 0 0.196078 0 0 0 0 0.513726 0 0 0 0 0.960784 0 0 0 0.5 0"/>
<feBlend mode="normal" in2="BackgroundImageFix" result="effect1_dropShadow_189_9308"/>
<feColorMatrix in="SourceAlpha" type="matrix" values="0 0 0 0 0 0 0 0 0 0 0 0 0 0 0 0 0 0 127 0" result="hardAlpha"/>
<feOffset dy="4"/>
<feGaussianBlur stdDeviation="2"/>
<feComposite in2="hardAlpha" operator="out"/>
<feColorMatrix type="matrix" values="0 0 0 0 0 0 0 0 0 0 0 0 0 0 0 0 0 0 0.25 0"/>
<feBlend mode="normal" in2="effect1_dropShadow_189_9308" result="effect2_dropShadow_189_9308"/>
<feBlend mode="normal" in="SourceGraphic" in2="effect2_dropShadow_189_9308" result="shape"/>
</filter>
<filter id="filter1_d_189_9308" x="140" y="-29" width="560" height="380" filterUnits="userSpaceOnUse" color-interpolation-filters="sRGB">
<feFlood flood-opacity="0" result="BackgroundImageFix"/>
<feColorMatrix in="SourceAlpha" type="matrix" values="0 0 0 0 0 0 0 0 0 0 0 0 0 0 0 0 0 0 127 0" result="hardAlpha"/>
<feOffset dy="16"/>
<feGaussianBlur stdDeviation="40"/>
<feComposite in2="hardAlpha" operator="out"/>
<feColorMatrix type="matrix" values="0 0 0 0 0 0 0 0 0 0 0 0 0 0 0 0 0 0 0.25 0"/>
<feBlend mode="normal" in2="BackgroundImageFix" result="effect1_dropShadow_189_9308"/>
<feBlend mode="normal" in="SourceGraphic" in2="effect1_dropShadow_189_9308" result="shape"/>
</filter>
<linearGradient id="paint0_linear_189_9308" x1="399" y1="284" x2="399" y2="189.038" gradientUnits="userSpaceOnUse">
<stop offset="0.0279986" stop-color="#006FBF" stop-opacity="0"/>
<stop offset="0.98503" stop-color="#00BF9A" stop-opacity="0.4"/>
</linearGradient>
<linearGradient id="paint1_linear_189_9308" x1="267.797" y1="146" x2="267.797" y2="222.858" gradientUnits="userSpaceOnUse">
<stop stop-color="#1D8CF8" stop-opacity="0.5"/>
<stop offset="1" stop-color="#1D8CF8" stop-opacity="0.01"/>
</linearGradient>
<linearGradient id="paint2_linear_189_9308" x1="322.797" y1="209" x2="322.797" y2="232.649" gradientUnits="userSpaceOnUse">
<stop stop-color="#1D8CF8" stop-opacity="0.5"/>
<stop offset="1" stop-color="#1D8CF8" stop-opacity="0.01"/>
</linearGradient>
<linearGradient id="paint3_linear_189_9308" x1="376.797" y1="177" x2="376.797" y2="227.675" gradientUnits="userSpaceOnUse">
<stop stop-color="#1D8CF8" stop-opacity="0.5"/>
<stop offset="1" stop-color="#1D8CF8" stop-opacity="0.01"/>
</linearGradient>
<linearGradient id="paint4_linear_189_9308" x1="431.797" y1="113" x2="431.797" y2="217.729" gradientUnits="userSpaceOnUse">
<stop stop-color="#1D8CF8" stop-opacity="0.5"/>
<stop offset="1" stop-color="#1D8CF8" stop-opacity="0.01"/>
</linearGradient>
<linearGradient id="paint5_linear_189_9308" x1="485.797" y1="81" x2="485.797" y2="212.756" gradientUnits="userSpaceOnUse">
<stop stop-color="#1D8CF8" stop-opacity="0.5"/>
<stop offset="1" stop-color="#1D8CF8" stop-opacity="0.01"/>
</linearGradient>
<linearGradient id="paint6_linear_189_9308" x1="540.797" y1="145" x2="540.797" y2="222.702" gradientUnits="userSpaceOnUse">
<stop stop-color="#1D8CF8" stop-opacity="0.5"/>
<stop offset="1" stop-color="#1D8CF8" stop-opacity="0.01"/>
</linearGradient>
<clipPath id="clip0_189_9308">
<rect x="240" y="53" width="360" height="184" rx="8" fill="white"/>
</clipPath>
</defs>
</svg>
