<svg width="93" height="93" viewBox="0 0 93 93" fill="none" xmlns="http://www.w3.org/2000/svg">
<path id="Union" fill-rule="evenodd" clip-rule="evenodd" d="M78.2857 63.5714L78.2759 63.5714C76.2019 63.5816 74.1617 64.0436 72.2949 64.9177L64.6641 57.2622C66.5934 54.0147 67.6197 50.2981 67.6197 46.5C67.6197 42.7019 66.5934 38.9853 64.6641 35.7378L72.2949 28.0823C74.1617 28.9564 76.2019 29.4184 78.2759 29.4286H78.2857C81.1959 29.4286 84.0408 28.5656 86.4605 26.9488C88.8803 25.3319 90.7663 23.0339 91.8799 20.3452C92.9936 17.6565 93.285 14.698 92.7173 11.8437C92.1495 8.98938 90.7481 6.36755 88.6903 4.30972C86.6324 2.25189 84.0106 0.850491 81.1563 0.282737C78.302 -0.285016 75.3435 0.00637552 72.6548 1.12006C69.9661 2.23375 67.6681 4.11972 66.0512 6.53947C64.4344 8.95922 63.5714 11.8041 63.5714 14.7143L63.5714 14.7241C63.5816 16.7981 64.0436 18.8383 64.9177 20.7051L57.2622 28.3359C54.0147 26.4066 50.2981 25.3803 46.5 25.3803C42.7019 25.3803 38.9853 26.4066 35.7378 28.3359L28.0823 20.7051C28.9564 18.8383 29.4184 16.7981 29.4286 14.7241H29.4286V14.7143C29.4286 11.8041 28.5656 8.95922 26.9488 6.53947C25.3319 4.11972 23.0339 2.23375 20.3452 1.12006C17.6565 0.00637528 14.698 -0.285016 11.8437 0.282737C8.98938 0.850491 6.36755 2.25189 4.30972 4.30972C2.25189 6.36755 0.850492 8.98938 0.282738 11.8437C-0.285016 14.698 0.00637577 17.6565 1.12007 20.3452C2.23375 23.0339 4.11972 25.3319 6.53947 26.9488C8.95922 28.5656 11.8041 29.4286 14.7143 29.4286L14.7241 29.4286C16.7981 29.4184 18.8383 28.9564 20.7051 28.0823L28.3359 35.7378C26.4066 38.9853 25.3803 42.7019 25.3803 46.5C25.3803 50.2981 26.4066 54.0147 28.3359 57.2622L20.7051 64.9177C18.8383 64.0436 16.7981 63.5816 14.7241 63.5714H14.7143C11.8041 63.5714 8.95922 64.4344 6.53947 66.0512C4.11972 67.6681 2.23375 69.9661 1.12007 72.6548C0.00637601 75.3435 -0.285016 78.302 0.282738 81.1563C0.850492 84.0106 2.25189 86.6324 4.30972 88.6903C6.36755 90.7481 8.98938 92.1495 11.8437 92.7173C14.698 93.285 17.6565 92.9936 20.3452 91.8799C23.0339 90.7663 25.3319 88.8803 26.9488 86.4605C28.5656 84.0408 29.4286 81.1959 29.4286 78.2857L29.4286 78.2759C29.4184 76.2019 28.9564 74.1617 28.0823 72.2949L35.7378 64.6641C38.9853 66.5934 42.7019 67.6197 46.5 67.6197C50.2981 67.6197 54.0147 66.5934 57.2622 64.6641L64.9177 72.2949C64.0436 74.1617 63.5816 76.2019 63.5714 78.2759V78.2857C63.5714 81.1959 64.4344 84.0408 66.0512 86.4605C67.6681 88.8803 69.9661 90.7663 72.6548 91.8799C75.3435 92.9936 78.302 93.285 81.1563 92.7173C84.0106 92.1495 86.6324 90.7481 88.6903 88.6903C90.7481 86.6324 92.1495 84.0106 92.7173 81.1563C93.285 78.302 92.9936 75.3435 91.8799 72.6548C90.7663 69.9661 88.8803 67.6681 86.4605 66.0512C84.0408 64.4344 81.1959 63.5714 78.2857 63.5714ZM78.2857 10.3571C79.1475 10.3571 79.9899 10.6127 80.7064 11.0915C81.4229 11.5702 81.9814 12.2507 82.3112 13.0469C82.641 13.843 82.7272 14.7191 82.5591 15.5643C82.391 16.4095 81.976 17.1859 81.3667 17.7953C80.7573 18.4046 79.9809 18.8196 79.1357 18.9877C78.2905 19.1558 77.4145 19.0695 76.6183 18.7398C75.8221 18.41 75.1416 17.8515 74.6629 17.135C74.1841 16.4185 73.9286 15.5761 73.9286 14.7143C73.9286 13.5587 74.3876 12.4504 75.2048 11.6333C76.0219 10.8162 77.1301 10.3571 78.2857 10.3571ZM10.3571 14.7143C10.3571 13.8525 10.6127 13.0101 11.0915 12.2936C11.5702 11.5771 12.2507 11.0186 13.0469 10.6888C13.843 10.359 14.7191 10.2727 15.5643 10.4409C16.4095 10.609 17.1859 11.024 17.7953 11.6333C18.4046 12.2427 18.8196 13.0191 18.9877 13.8643C19.1558 14.7095 19.0695 15.5855 18.7398 16.3817C18.41 17.1779 17.8515 17.8584 17.135 18.3371C16.4185 18.8159 15.5761 19.0714 14.7143 19.0714C13.5587 19.0714 12.4504 18.6124 11.6333 17.7953C10.8162 16.9781 10.3571 15.8699 10.3571 14.7143ZM14.7143 82.6429C13.8525 82.6429 13.0101 82.3873 12.2936 81.9085C11.5771 81.4298 11.0186 80.7493 10.6888 79.9531C10.359 79.157 10.2727 78.2809 10.4409 77.4357C10.609 76.5905 11.024 75.8141 11.6333 75.2048C12.2427 74.5954 13.0191 74.1804 13.8643 74.0123C14.7095 73.8442 15.5855 73.9305 16.3817 74.2602C17.1779 74.59 17.8584 75.1485 18.3371 75.865C18.8159 76.5815 19.0714 77.424 19.0714 78.2857C19.0714 79.4413 18.6124 80.5496 17.7953 81.3667C16.9781 82.1838 15.8699 82.6429 14.7143 82.6429ZM46.5 57.2143C44.3809 57.2143 42.3094 56.5859 40.5475 55.4086C38.7855 54.2313 37.4122 52.558 36.6013 50.6002C35.7904 48.6424 35.5782 46.4881 35.9916 44.4097C36.405 42.3314 37.4254 40.4223 38.9239 38.9239C40.4223 37.4254 42.3314 36.405 44.4097 35.9916C46.4881 35.5782 48.6424 35.7904 50.6002 36.6013C52.558 37.4122 54.2313 38.7855 55.4086 40.5475C56.5859 42.3094 57.2143 44.3809 57.2143 46.5C57.2143 49.3416 56.0855 52.0668 54.0761 54.0761C52.0668 56.0855 49.3416 57.2143 46.5 57.2143ZM78.2857 82.6429C77.424 82.6429 76.5815 82.3873 75.865 81.9085C75.1485 81.4298 74.59 80.7493 74.2602 79.9531C73.9305 79.157 73.8442 78.2809 74.0123 77.4357C74.1804 76.5905 74.5954 75.8141 75.2048 75.2048C75.8141 74.5954 76.5905 74.1804 77.4357 74.0123C78.2809 73.8442 79.157 73.9305 79.9531 74.2602C80.7493 74.59 81.4298 75.1485 81.9085 75.865C82.3873 76.5815 82.6429 77.424 82.6429 78.2857C82.6429 79.4413 82.1838 80.5496 81.3667 81.3667C80.5496 82.1838 79.4413 82.6429 78.2857 82.6429Z" fill="#101318"/>
</svg>
