<?xml version="1.0" encoding="UTF-8" standalone="no"?>
<svg
   xmlns:dc="http://purl.org/dc/elements/1.1/"
   xmlns:cc="http://creativecommons.org/ns#"
   xmlns:rdf="http://www.w3.org/1999/02/22-rdf-syntax-ns#"
   xmlns:svg="http://www.w3.org/2000/svg"
   xmlns="http://www.w3.org/2000/svg"
   xmlns:sodipodi="http://sodipodi.sourceforge.net/DTD/sodipodi-0.dtd"
   xmlns:inkscape="http://www.inkscape.org/namespaces/inkscape"
   width="702"
   height="648"
   viewBox="0 0 702 648"
   fill="none"
   version="1.1"
   id="svg520"
   sodipodi:docname="top-img.svg"
   inkscape:version="1.0.1 (3bc2e81, 2020-09-07)">
  <metadata
     id="metadata524">
    <rdf:RDF>
      <cc:Work
         rdf:about="">
        <dc:format>image/svg+xml</dc:format>
        <dc:type
           rdf:resource="http://purl.org/dc/dcmitype/StillImage" />
        <dc:title></dc:title>
      </cc:Work>
    </rdf:RDF>
  </metadata>
  <sodipodi:namedview
     pagecolor="#ffffff"
     bordercolor="#666666"
     borderopacity="1"
     objecttolerance="10"
     gridtolerance="10"
     guidetolerance="10"
     inkscape:pageopacity="0"
     inkscape:pageshadow="2"
     inkscape:window-width="1280"
     inkscape:window-height="959"
     id="namedview522"
     showgrid="false"
     fit-margin-top="0"
     fit-margin-left="0"
     fit-margin-right="0"
     fit-margin-bottom="0"
     inkscape:zoom="0.41778415"
     inkscape:cx="290.88041"
     inkscape:cy="643.44309"
     inkscape:window-x="0"
     inkscape:window-y="0"
     inkscape:window-maximized="1"
     inkscape:current-layer="svg520" />
  <path
     opacity="0.7"
     d="M 154.503,136.2 198,160.906 v 49.188 L 154.503,234.8 111,210.093 v -49.186 z"
     stroke="#0c0f14"
     stroke-width="16"
     id="path2" />
  <circle
     opacity="0.8"
     cx="4"
     cy="270"
     r="4"
     fill="#0f1217"
     id="circle4" />
  <circle
     opacity="0.8"
     cx="24"
     cy="270"
     r="4"
     fill="#0f1217"
     id="circle6" />
  <circle
     opacity="0.8"
     cx="44"
     cy="270"
     r="4"
     fill="#0f1217"
     id="circle8" />
  <circle
     opacity="0.8"
     cx="64"
     cy="270"
     r="4"
     fill="#0f1217"
     id="circle10" />
  <circle
     opacity="0.8"
     cx="84"
     cy="270"
     r="4"
     fill="#0f1217"
     id="circle12" />
  <circle
     opacity="0.8"
     cx="104"
     cy="270"
     r="4"
     fill="#0f1217"
     id="circle14" />
  <circle
     opacity="0.8"
     cx="124"
     cy="270"
     r="4"
     fill="#0f1217"
     id="circle16" />
  <circle
     opacity="0.8"
     cx="144"
     cy="270"
     r="4"
     fill="#0f1217"
     id="circle18" />
  <circle
     opacity="0.8"
     cx="164"
     cy="270"
     r="4"
     fill="#0f1217"
     id="circle20" />
  <circle
     opacity="0.8"
     cx="184"
     cy="270"
     r="4"
     fill="#0f1217"
     id="circle22" />
  <circle
     opacity="0.8"
     cx="4"
     cy="290"
     r="4"
     fill="#0f1217"
     id="circle24" />
  <circle
     opacity="0.8"
     cx="24"
     cy="290"
     r="4"
     fill="#0f1217"
     id="circle26" />
  <circle
     opacity="0.8"
     cx="44"
     cy="290"
     r="4"
     fill="#0f1217"
     id="circle28" />
  <circle
     opacity="0.8"
     cx="64"
     cy="290"
     r="4"
     fill="#0f1217"
     id="circle30" />
  <circle
     opacity="0.8"
     cx="84"
     cy="290"
     r="4"
     fill="#0f1217"
     id="circle32" />
  <circle
     opacity="0.8"
     cx="104"
     cy="290"
     r="4"
     fill="#0f1217"
     id="circle34" />
  <circle
     opacity="0.8"
     cx="124"
     cy="290"
     r="4"
     fill="#0f1217"
     id="circle36" />
  <circle
     opacity="0.8"
     cx="144"
     cy="290"
     r="4"
     fill="#0f1217"
     id="circle38" />
  <circle
     opacity="0.8"
     cx="164"
     cy="290"
     r="4"
     fill="#0f1217"
     id="circle40" />
  <circle
     opacity="0.8"
     cx="184"
     cy="290"
     r="4"
     fill="#0f1217"
     id="circle42" />
  <circle
     opacity="0.8"
     cx="4"
     cy="310"
     r="4"
     fill="#0f1217"
     id="circle44" />
  <circle
     opacity="0.8"
     cx="24"
     cy="310"
     r="4"
     fill="#0f1217"
     id="circle46" />
  <circle
     opacity="0.8"
     cx="44"
     cy="310"
     r="4"
     fill="#0f1217"
     id="circle48" />
  <circle
     opacity="0.8"
     cx="64"
     cy="310"
     r="4"
     fill="#0f1217"
     id="circle50" />
  <circle
     opacity="0.8"
     cx="84"
     cy="310"
     r="4"
     fill="#0f1217"
     id="circle52" />
  <circle
     opacity="0.8"
     cx="104"
     cy="310"
     r="4"
     fill="#0f1217"
     id="circle54" />
  <circle
     opacity="0.8"
     cx="124"
     cy="310"
     r="4"
     fill="#0f1217"
     id="circle56" />
  <circle
     opacity="0.8"
     cx="144"
     cy="310"
     r="4"
     fill="#0f1217"
     id="circle58" />
  <circle
     opacity="0.8"
     cx="164"
     cy="310"
     r="4"
     fill="#0f1217"
     id="circle60" />
  <circle
     opacity="0.8"
     cx="184"
     cy="310"
     r="4"
     fill="#0f1217"
     id="circle62" />
  <circle
     opacity="0.8"
     cx="4"
     cy="330"
     r="4"
     fill="#0f1217"
     id="circle64" />
  <circle
     opacity="0.8"
     cx="24"
     cy="330"
     r="4"
     fill="#0f1217"
     id="circle66" />
  <circle
     opacity="0.8"
     cx="44"
     cy="330"
     r="4"
     fill="#0f1217"
     id="circle68" />
  <circle
     opacity="0.8"
     cx="64"
     cy="330"
     r="4"
     fill="#0f1217"
     id="circle70" />
  <circle
     opacity="0.8"
     cx="84"
     cy="330"
     r="4"
     fill="#0f1217"
     id="circle72" />
  <circle
     opacity="0.8"
     cx="104"
     cy="330"
     r="4"
     fill="#0f1217"
     id="circle74" />
  <circle
     opacity="0.8"
     cx="124"
     cy="330"
     r="4"
     fill="#0f1217"
     id="circle76" />
  <circle
     opacity="0.8"
     cx="144"
     cy="330"
     r="4"
     fill="#0f1217"
     id="circle78" />
  <circle
     opacity="0.8"
     cx="164"
     cy="330"
     r="4"
     fill="#0f1217"
     id="circle80" />
  <circle
     opacity="0.8"
     cx="184"
     cy="330"
     r="4"
     fill="#0f1217"
     id="circle82" />
  <circle
     opacity="0.8"
     cx="4"
     cy="350"
     r="4"
     fill="#0f1217"
     id="circle84" />
  <circle
     opacity="0.8"
     cx="24"
     cy="350"
     r="4"
     fill="#0f1217"
     id="circle86" />
  <circle
     opacity="0.8"
     cx="44"
     cy="350"
     r="4"
     fill="#0f1217"
     id="circle88" />
  <circle
     opacity="0.8"
     cx="64"
     cy="350"
     r="4"
     fill="#0f1217"
     id="circle90" />
  <circle
     opacity="0.8"
     cx="84"
     cy="350"
     r="4"
     fill="#0f1217"
     id="circle92" />
  <circle
     opacity="0.8"
     cx="104"
     cy="350"
     r="4"
     fill="#0f1217"
     id="circle94" />
  <circle
     opacity="0.8"
     cx="124"
     cy="350"
     r="4"
     fill="#0f1217"
     id="circle96" />
  <circle
     opacity="0.8"
     cx="144"
     cy="350"
     r="4"
     fill="#0f1217"
     id="circle98" />
  <circle
     opacity="0.8"
     cx="164"
     cy="350"
     r="4"
     fill="#0f1217"
     id="circle100" />
  <circle
     opacity="0.8"
     cx="184"
     cy="350"
     r="4"
     fill="#0f1217"
     id="circle102" />
  <circle
     opacity="0.8"
     cx="4"
     cy="370"
     r="4"
     fill="#0f1217"
     id="circle104" />
  <circle
     opacity="0.8"
     cx="24"
     cy="370"
     r="4"
     fill="#0f1217"
     id="circle106" />
  <circle
     opacity="0.8"
     cx="44"
     cy="370"
     r="4"
     fill="#0f1217"
     id="circle108" />
  <circle
     opacity="0.8"
     cx="64"
     cy="370"
     r="4"
     fill="#0f1217"
     id="circle110" />
  <circle
     opacity="0.8"
     cx="84"
     cy="370"
     r="4"
     fill="#0f1217"
     id="circle112" />
  <circle
     opacity="0.8"
     cx="104"
     cy="370"
     r="4"
     fill="#0f1217"
     id="circle114" />
  <circle
     opacity="0.8"
     cx="124"
     cy="370"
     r="4"
     fill="#0f1217"
     id="circle116" />
  <circle
     opacity="0.8"
     cx="144"
     cy="370"
     r="4"
     fill="#0f1217"
     id="circle118" />
  <circle
     opacity="0.8"
     cx="164"
     cy="370"
     r="4"
     fill="#0f1217"
     id="circle120" />
  <circle
     opacity="0.8"
     cx="184"
     cy="370"
     r="4"
     fill="#0f1217"
     id="circle122" />
  <circle
     opacity="0.8"
     cx="4"
     cy="390"
     r="4"
     fill="#0f1217"
     id="circle124" />
  <circle
     opacity="0.8"
     cx="24"
     cy="390"
     r="4"
     fill="#0f1217"
     id="circle126" />
  <circle
     opacity="0.8"
     cx="44"
     cy="390"
     r="4"
     fill="#0f1217"
     id="circle128" />
  <circle
     opacity="0.8"
     cx="64"
     cy="390"
     r="4"
     fill="#0f1217"
     id="circle130" />
  <circle
     opacity="0.8"
     cx="84"
     cy="390"
     r="4"
     fill="#0f1217"
     id="circle132" />
  <circle
     opacity="0.8"
     cx="104"
     cy="390"
     r="4"
     fill="#0f1217"
     id="circle134" />
  <circle
     opacity="0.8"
     cx="124"
     cy="390"
     r="4"
     fill="#0f1217"
     id="circle136" />
  <circle
     opacity="0.8"
     cx="144"
     cy="390"
     r="4"
     fill="#0f1217"
     id="circle138" />
  <circle
     opacity="0.8"
     cx="164"
     cy="390"
     r="4"
     fill="#0f1217"
     id="circle140" />
  <circle
     opacity="0.8"
     cx="184"
     cy="390"
     r="4"
     fill="#0f1217"
     id="circle142" />
  <circle
     opacity="0.8"
     cx="4"
     cy="410"
     r="4"
     fill="#0f1217"
     id="circle144" />
  <circle
     opacity="0.8"
     cx="24"
     cy="410"
     r="4"
     fill="#0f1217"
     id="circle146" />
  <circle
     opacity="0.8"
     cx="44"
     cy="410"
     r="4"
     fill="#0f1217"
     id="circle148" />
  <circle
     opacity="0.8"
     cx="64"
     cy="410"
     r="4"
     fill="#0f1217"
     id="circle150" />
  <circle
     opacity="0.8"
     cx="84"
     cy="410"
     r="4"
     fill="#0f1217"
     id="circle152" />
  <circle
     opacity="0.8"
     cx="104"
     cy="410"
     r="4"
     fill="#0f1217"
     id="circle154" />
  <circle
     opacity="0.8"
     cx="124"
     cy="410"
     r="4"
     fill="#0f1217"
     id="circle156" />
  <circle
     opacity="0.8"
     cx="144"
     cy="410"
     r="4"
     fill="#0f1217"
     id="circle158" />
  <circle
     opacity="0.8"
     cx="164"
     cy="410"
     r="4"
     fill="#0f1217"
     id="circle160" />
  <circle
     opacity="0.8"
     cx="184"
     cy="410"
     r="4"
     fill="#0f1217"
     id="circle162" />
  <g
     opacity="0.15"
     id="g276"
     transform="translate(0,26)">
    <circle
       opacity="0.8"
       cx="574"
       cy="330"
       r="4"
       fill="#0061ea"
       id="circle164" />
    <circle
       opacity="0.8"
       cx="594"
       cy="330"
       r="4"
       fill="#0061ea"
       id="circle166" />
    <circle
       opacity="0.8"
       cx="614"
       cy="330"
       r="4"
       fill="#0061ea"
       id="circle168" />
    <circle
       opacity="0.8"
       cx="634"
       cy="330"
       r="4"
       fill="#0061ea"
       id="circle170" />
    <circle
       opacity="0.8"
       cx="654"
       cy="330"
       r="4"
       fill="#0061ea"
       id="circle172" />
    <circle
       opacity="0.8"
       cx="674"
       cy="330"
       r="4"
       fill="#0061ea"
       id="circle174" />
    <circle
       opacity="0.8"
       cx="694"
       cy="330"
       r="4"
       fill="#0061ea"
       id="circle176" />
    <circle
       opacity="0.8"
       cx="574"
       cy="350"
       r="4"
       fill="#0061ea"
       id="circle178" />
    <circle
       opacity="0.8"
       cx="594"
       cy="350"
       r="4"
       fill="#0061ea"
       id="circle180" />
    <circle
       opacity="0.8"
       cx="614"
       cy="350"
       r="4"
       fill="#0061ea"
       id="circle182" />
    <circle
       opacity="0.8"
       cx="634"
       cy="350"
       r="4"
       fill="#0061ea"
       id="circle184" />
    <circle
       opacity="0.8"
       cx="654"
       cy="350"
       r="4"
       fill="#0061ea"
       id="circle186" />
    <circle
       opacity="0.8"
       cx="674"
       cy="350"
       r="4"
       fill="#0061ea"
       id="circle188" />
    <circle
       opacity="0.8"
       cx="694"
       cy="350"
       r="4"
       fill="#0061ea"
       id="circle190" />
    <circle
       opacity="0.8"
       cx="574"
       cy="370"
       r="4"
       fill="#0061ea"
       id="circle192" />
    <circle
       opacity="0.8"
       cx="594"
       cy="370"
       r="4"
       fill="#0061ea"
       id="circle194" />
    <circle
       opacity="0.8"
       cx="614"
       cy="370"
       r="4"
       fill="#0061ea"
       id="circle196" />
    <circle
       opacity="0.8"
       cx="634"
       cy="370"
       r="4"
       fill="#0061ea"
       id="circle198" />
    <circle
       opacity="0.8"
       cx="654"
       cy="370"
       r="4"
       fill="#0061ea"
       id="circle200" />
    <circle
       opacity="0.8"
       cx="674"
       cy="370"
       r="4"
       fill="#0061ea"
       id="circle202" />
    <circle
       opacity="0.8"
       cx="694"
       cy="370"
       r="4"
       fill="#0061ea"
       id="circle204" />
    <circle
       opacity="0.8"
       cx="574"
       cy="390"
       r="4"
       fill="#0061ea"
       id="circle206" />
    <circle
       opacity="0.8"
       cx="594"
       cy="390"
       r="4"
       fill="#0061ea"
       id="circle208" />
    <circle
       opacity="0.8"
       cx="614"
       cy="390"
       r="4"
       fill="#0061ea"
       id="circle210" />
    <circle
       opacity="0.8"
       cx="634"
       cy="390"
       r="4"
       fill="#0061ea"
       id="circle212" />
    <circle
       opacity="0.8"
       cx="654"
       cy="390"
       r="4"
       fill="#0061ea"
       id="circle214" />
    <circle
       opacity="0.8"
       cx="674"
       cy="390"
       r="4"
       fill="#0061ea"
       id="circle216" />
    <circle
       opacity="0.8"
       cx="694"
       cy="390"
       r="4"
       fill="#0061ea"
       id="circle218" />
    <circle
       opacity="0.8"
       cx="574"
       cy="410"
       r="4"
       fill="#0061ea"
       id="circle220" />
    <circle
       opacity="0.8"
       cx="594"
       cy="410"
       r="4"
       fill="#0061ea"
       id="circle222" />
    <circle
       opacity="0.8"
       cx="614"
       cy="410"
       r="4"
       fill="#0061ea"
       id="circle224" />
    <circle
       opacity="0.8"
       cx="634"
       cy="410"
       r="4"
       fill="#0061ea"
       id="circle226" />
    <circle
       opacity="0.8"
       cx="654"
       cy="410"
       r="4"
       fill="#0061ea"
       id="circle228" />
    <circle
       opacity="0.8"
       cx="674"
       cy="410"
       r="4"
       fill="#0061ea"
       id="circle230" />
    <circle
       opacity="0.8"
       cx="694"
       cy="410"
       r="4"
       fill="#0061ea"
       id="circle232" />
    <circle
       opacity="0.8"
       cx="574"
       cy="430"
       r="4"
       fill="#0061ea"
       id="circle234" />
    <circle
       opacity="0.8"
       cx="594"
       cy="430"
       r="4"
       fill="#0061ea"
       id="circle236" />
    <circle
       opacity="0.8"
       cx="614"
       cy="430"
       r="4"
       fill="#0061ea"
       id="circle238" />
    <circle
       opacity="0.8"
       cx="634"
       cy="430"
       r="4"
       fill="#0061ea"
       id="circle240" />
    <circle
       opacity="0.8"
       cx="654"
       cy="430"
       r="4"
       fill="#0061ea"
       id="circle242" />
    <circle
       opacity="0.8"
       cx="674"
       cy="430"
       r="4"
       fill="#0061ea"
       id="circle244" />
    <circle
       opacity="0.8"
       cx="694"
       cy="430"
       r="4"
       fill="#0061ea"
       id="circle246" />
    <circle
       opacity="0.8"
       cx="574"
       cy="450"
       r="4"
       fill="#0061ea"
       id="circle248" />
    <circle
       opacity="0.8"
       cx="594"
       cy="450"
       r="4"
       fill="#0061ea"
       id="circle250" />
    <circle
       opacity="0.8"
       cx="614"
       cy="450"
       r="4"
       fill="#0061ea"
       id="circle252" />
    <circle
       opacity="0.8"
       cx="634"
       cy="450"
       r="4"
       fill="#0061ea"
       id="circle254" />
    <circle
       opacity="0.8"
       cx="654"
       cy="450"
       r="4"
       fill="#0061ea"
       id="circle256" />
    <circle
       opacity="0.8"
       cx="674"
       cy="450"
       r="4"
       fill="#0061ea"
       id="circle258" />
    <circle
       opacity="0.8"
       cx="694"
       cy="450"
       r="4"
       fill="#0061ea"
       id="circle260" />
    <circle
       opacity="0.8"
       cx="574"
       cy="470"
       r="4"
       fill="#0061ea"
       id="circle262" />
    <circle
       opacity="0.8"
       cx="594"
       cy="470"
       r="4"
       fill="#0061ea"
       id="circle264" />
    <circle
       opacity="0.8"
       cx="614"
       cy="470"
       r="4"
       fill="#0061ea"
       id="circle266" />
    <circle
       opacity="0.8"
       cx="634"
       cy="470"
       r="4"
       fill="#0061ea"
       id="circle268" />
    <circle
       opacity="0.8"
       cx="654"
       cy="470"
       r="4"
       fill="#0061ea"
       id="circle270" />
    <circle
       opacity="0.8"
       cx="674"
       cy="470"
       r="4"
       fill="#0061ea"
       id="circle272" />
    <circle
       opacity="0.8"
       cx="694"
       cy="470"
       r="4"
       fill="#0061ea"
       id="circle274" />
  </g>
  <path
     opacity="0.8"
     d="M 594,625.236 C 589.284,623.02 580.084,618.302 571.694,611.743 561.647,603.889 555,595.155 555,586.522 v -45.841 l 39,-17.88 39,17.88 v 45.841 c 0,8.633 -6.647,17.367 -16.694,25.221 -8.39,6.559 -17.59,11.277 -22.306,13.493 z"
     stroke="#0c0f14"
     stroke-width="16"
     id="path278" />
  <g
     filter="url(#filter0_d_59_3101)"
     id="g282"
     transform="translate(0,26)">
    <rect
       x="116"
       y="316"
       width="410"
       height="210"
       rx="8"
       fill="#12151a"
       id="rect280" />
  </g>
  <rect
     opacity="0.25"
     x="146"
     y="376"
     width="2"
     height="141"
     rx="1"
     fill="#3283f5"
     id="rect284" />
  <rect
     opacity="0.25"
     x="233"
     y="376"
     width="2"
     height="141"
     rx="1"
     fill="#3283f5"
     id="rect286" />
  <rect
     opacity="0.25"
     x="320"
     y="376"
     width="2"
     height="141"
     rx="1"
     fill="#3283f5"
     id="rect288" />
  <rect
     opacity="0.25"
     x="407"
     y="376"
     width="2"
     height="141"
     rx="1"
     fill="#3283f5"
     id="rect290" />
  <rect
     opacity="0.25"
     x="494"
     y="376"
     width="2"
     height="141"
     rx="1"
     fill="#3283f5"
     id="rect292" />
  <path
     d="M 494.802,516.721 H 145.986 c 0,0 0,-84.165 0,-94.053 13.014,0 51.42,59.672 87.381,59.672 35.962,0 62.347,-31.532 87.124,-31.532 24.778,0 57.963,48.423 86.973,46.374 29.01,-2.049 74.036,-63.182 87.338,-64.99 0,3.286 0,84.529 0,84.529 z"
     fill="url(#paint0_linear_59_3101)"
     id="path294"
     style="fill:url(#paint0_linear_59_3101)" />
  <g
     filter="url(#filter1_dd_59_3101)"
     id="g298"
     transform="translate(0,26)">
    <path
       d="m 145.986,396.765 c 12.205,0 51.42,59.575 87.381,59.575 35.962,0 62.347,-31.532 87.124,-31.532 24.778,0 57.963,48.423 86.973,46.374 29.01,-2.049 76.144,-65.044 87.338,-65.044"
       stroke="#0faa97"
       stroke-width="3"
       stroke-linecap="round"
       shape-rendering="crispEdges"
       id="path296" />
  </g>
  <circle
     cx="147"
     cy="424"
     r="5.5"
     fill="#00bf9a"
     stroke="#15181d"
     stroke-width="3"
     id="circle300" />
  <circle
     cx="234"
     cy="483"
     r="5.5"
     fill="#00bf9a"
     stroke="#15181d"
     stroke-width="3"
     id="circle302" />
  <circle
     cx="321"
     cy="451"
     r="5.5"
     fill="#00bf9a"
     stroke="#15181d"
     stroke-width="3"
     id="circle304" />
  <path
     d="m 408,502.5 c 3.038,0 5.5,-2.462 5.5,-5.5 0,-3.038 -2.462,-5.5 -5.5,-5.5 -3.038,0 -5.5,2.462 -5.5,5.5 0,3.038 2.462,5.5 5.5,5.5 z"
     fill="#00bf9a"
     stroke="#15181d"
     stroke-width="3"
     id="path306" />
  <circle
     cx="495"
     cy="433"
     r="5.5"
     fill="#00bf9a"
     stroke="#15181d"
     stroke-width="3"
     id="circle308" />
  <g
     clip-path="url(#clip0_59_3101)"
     id="g370"
     transform="translate(0,26)">
    <g
       filter="url(#filter2_d_59_3101)"
       id="g312">
      <rect
         x="181"
         y="159"
         width="400"
         height="220"
         rx="8"
         fill="#1a50bd"
         id="rect310" />
    </g>
    <rect
       x="225"
       y="159"
       width="2"
       height="220"
       fill="#1d8cf8"
       fill-opacity="0.1"
       id="rect314" />
    <rect
       x="280"
       y="159"
       width="2"
       height="220"
       fill="#1d8cf8"
       fill-opacity="0.1"
       id="rect316" />
    <rect
       x="334"
       y="159"
       width="2"
       height="220"
       fill="#1d8cf8"
       fill-opacity="0.1"
       id="rect318" />
    <rect
       x="389"
       y="159"
       width="2"
       height="220"
       fill="#1d8cf8"
       fill-opacity="0.1"
       id="rect320" />
    <rect
       x="443"
       y="159"
       width="2"
       height="220"
       fill="#1d8cf8"
       fill-opacity="0.1"
       id="rect322" />
    <rect
       x="498"
       y="159"
       width="2"
       height="220"
       fill="#1d8cf8"
       fill-opacity="0.1"
       id="rect324" />
    <rect
       x="181"
       y="186"
       width="400"
       height="2"
       fill="#1d8cf8"
       fill-opacity="0.1"
       id="rect326" />
    <rect
       x="181"
       y="218"
       width="400"
       height="2"
       fill="#1d8cf8"
       fill-opacity="0.1"
       id="rect328" />
    <rect
       x="181"
       y="250"
       width="400"
       height="2"
       fill="#1d8cf8"
       fill-opacity="0.1"
       id="rect330" />
    <rect
       x="181"
       y="282"
       width="400"
       height="2"
       fill="#1d8cf8"
       fill-opacity="0.1"
       id="rect332" />
    <rect
       x="181"
       y="314"
       width="400"
       height="2"
       fill="#1d8cf8"
       fill-opacity="0.1"
       id="rect334" />
    <rect
       x="181"
       y="346"
       width="400"
       height="2"
       fill="#1d8cf8"
       fill-opacity="0.1"
       id="rect336" />
    <path
       d="m 226,379 v -96 h 37 v 96"
       fill="url(#paint1_linear_59_3101)"
       id="path338"
       style="fill:url(#paint1_linear_59_3101)" />
    <path
       d="m 226,379 v -96 h 37 v 96"
       stroke="#1d8cf8"
       stroke-width="2"
       id="path340" />
    <path
       d="m 281,379 v -32 h 37 v 32"
       fill="url(#paint2_linear_59_3101)"
       id="path342"
       style="fill:url(#paint2_linear_59_3101)" />
    <path
       d="m 281,379 v -32 h 37 v 32"
       stroke="#1d8cf8"
       stroke-width="2"
       id="path344" />
    <path
       d="m 335,379 v -64 h 37 v 64"
       fill="url(#paint3_linear_59_3101)"
       id="path346"
       style="fill:url(#paint3_linear_59_3101)" />
    <path
       d="m 335,379 v -64 h 37 v 64"
       stroke="#1d8cf8"
       stroke-width="2"
       id="path348" />
    <path
       d="M 390,379 V 219 h 37 v 160"
       fill="url(#paint4_linear_59_3101)"
       id="path350"
       style="fill:url(#paint4_linear_59_3101)" />
    <path
       d="M 390,379 V 219 h 37 v 160"
       stroke="#1d8cf8"
       stroke-width="2"
       id="path352" />
    <path
       d="M 444,379 V 187 h 37 v 192"
       fill="url(#paint5_linear_59_3101)"
       id="path354"
       style="fill:url(#paint5_linear_59_3101)" />
    <path
       d="M 444,379 V 187 h 37 v 192"
       stroke="#1d8cf8"
       stroke-width="2"
       id="path356" />
    <path
       d="m 499,379 v -96 h 37 v 96"
       fill="url(#paint6_linear_59_3101)"
       id="path358"
       style="fill:url(#paint6_linear_59_3101)" />
    <path
       d="m 499,379 v -96 h 37 v 96"
       stroke="#1d8cf8"
       stroke-width="2"
       id="path360" />
    <g
       opacity="0.5"
       id="g368">
      <path
         d="M 239,219 265.64,192 275,201.486 257.72,219 275,236.514 265.64,246 Z"
         fill="#4ed4ff"
         id="path362" />
      <path
         fill-rule="evenodd"
         clip-rule="evenodd"
         d="m 314.143,219 c 0,6.706 -5.437,12.143 -12.143,12.143 -0.943,0 -1.86,-0.108 -2.741,-0.311 l 14.573,-14.573 c 0.203,0.881 0.311,1.798 0.311,2.741 z m -23.975,2.741 14.573,-14.573 c -0.881,-0.203 -1.798,-0.311 -2.741,-0.311 -6.706,0 -12.143,5.437 -12.143,12.143 0,0.943 0.108,1.86 0.311,2.741 z M 327,219 c 0,13.807 -11.193,25 -25,25 -13.807,0 -25,-11.193 -25,-25 0,-13.807 11.193,-25 25,-25 13.807,0 25,11.193 25,25 z"
         fill="#4ed4ff"
         id="path364" />
      <path
         d="M 365,219 338.36,192 329,201.486 346.28,219 329,236.514 338.36,246 Z"
         fill="#4ed4ff"
         id="path366" />
    </g>
  </g>
  <circle
     opacity="0.6"
     cx="500"
     cy="393"
     r="67"
     fill="#002f8d"
     id="circle372" />
  <path
     d="m 500,326 c 9.829,0 19.539,2.163 28.439,6.335 8.9,4.172 16.773,10.252 23.06,17.807 6.288,7.555 10.836,16.402 13.322,25.911 2.487,9.51 2.85,19.451 1.064,29.117 l -32.942,-6.085 c 0.892,-4.833 0.711,-9.803 -0.532,-14.558 -1.243,-4.755 -3.517,-9.178 -6.661,-12.956 -3.144,-3.778 -7.081,-6.817 -11.531,-8.904 -4.45,-2.086 -9.304,-3.167 -14.219,-3.167 z"
     fill="#46a2f8"
     id="path374" />
  <path
     d="m 565.885,405.17 c -2.997,16.226 -11.876,30.775 -24.936,40.86 -13.061,10.085 -29.383,14.996 -45.84,13.791 l 2.446,-33.41 c 8.228,0.602 16.389,-1.853 22.919,-6.896 6.53,-5.042 10.97,-12.317 12.469,-20.43 z"
     fill="#3283f5"
     id="path376" />
  <path
     d="m 495.109,459.821 c -13.112,-0.959 -25.652,-5.756 -36.058,-13.791 -10.406,-8.035 -18.218,-18.954 -22.462,-31.397 l 31.705,-10.817 c 2.123,6.222 6.029,11.682 11.232,15.699 5.203,4.018 11.473,6.416 18.029,6.896 z"
     fill="#45d0ee"
     id="path378" />
  <path
     d="m 436.589,414.633 c -3.174,-9.303 -4.262,-19.19 -3.187,-28.961 1.075,-9.77 4.287,-19.185 9.407,-27.575 l 28.596,17.451 c -2.561,4.196 -4.167,8.903 -4.704,13.788 -0.538,4.885 0.006,9.829 1.593,14.48 z"
     fill="#0faa97"
     id="path380" />
  <path
     fill-rule="evenodd"
     clip-rule="evenodd"
     d="m 500,326 c -3.265,0 -6.525,0.239 -9.755,0.714 -6.469,0.952 -12.763,2.846 -18.684,5.621 -11.904,5.58 -21.903,14.54 -28.752,25.762 l 28.596,17.451 c 3.424,-5.611 8.424,-10.09 14.376,-12.881 2.96,-1.387 6.107,-2.334 9.341,-2.81 1.615,-0.238 3.246,-0.357 4.878,-0.357 z"
     fill="#06eeb6"
     id="path382" />
  <circle
     cx="107"
     cy="214"
     r="17"
     fill="#70e0b1"
     id="circle384" />
  <circle
     opacity="0.15"
     cx="666"
     cy="36"
     r="36"
     fill="#43cbb1"
     id="circle386" />
  <circle
     cx="551"
     cy="435"
     r="12"
     fill="#8ed1fc"
     id="circle388" />
  <path
     d="m 189,366 c 24.853,0 45,-20.147 45,-45 0,-24.853 -20.147,-45 -45,-45 -24.853,0 -45,20.147 -45,45 0,24.853 20.147,45 45,45 z"
     fill="#f7931a"
     id="path390" />
  <path
     d="m 175.628,302.201 c 1.324,0.299 2.643,0.48 3.966,0.78 1.324,0.299 2.642,0.481 3.966,0.78 0.362,0.103 0.476,-0.02 0.581,-0.377 0.394,-2.019 0.793,-3.919 1.188,-5.938 0.104,-0.357 0.218,-0.48 0.58,-0.377 1.205,0.304 2.285,0.496 3.485,0.682 0.362,0.103 0.367,0.221 0.257,0.461 -0.399,1.901 -0.793,3.919 -1.192,5.82 0.005,0.117 0.009,0.235 -0.1,0.475 0.962,0.196 2.042,0.388 3.004,0.584 0.119,-0.005 0.229,-0.245 0.343,-0.367 0.294,-1.544 0.594,-2.969 1.007,-4.517 0.1,-0.475 0.2,-0.951 0.3,-1.426 -0.01,-0.235 0.104,-0.358 0.347,-0.25 1.205,0.304 2.404,0.491 3.728,0.79 0.119,-0.005 0.124,0.113 0.243,0.108 -0.295,1.543 -0.594,2.969 -0.894,4.395 -0.095,0.592 -0.19,1.185 -0.404,1.783 -0.104,0.357 0.02,0.47 0.382,0.573 1.333,0.535 2.666,1.069 3.999,1.603 1.219,0.657 2.329,1.554 3.21,2.696 1.143,1.72 1.339,3.597 0.94,5.497 -0.305,1.308 -0.733,2.504 -1.646,3.483 -0.685,0.735 -1.618,1.244 -2.556,1.636 -0.119,0.005 -0.233,0.127 -0.471,0.137 0.49,0.333 0.976,0.549 1.466,0.882 1.472,1 2.477,2.255 3.02,3.882 0.291,1.283 0.23,2.699 -0.075,4.007 -0.408,1.666 -0.946,3.101 -1.964,4.438 -1.247,1.582 -2.879,2.474 -4.774,2.787 -2.485,0.455 -4.875,0.317 -7.269,0.061 -0.362,-0.103 -0.595,0.024 -0.7,0.382 -0.399,1.901 -0.794,3.919 -1.193,5.82 -0.099,0.475 -0.095,0.593 -0.699,0.382 -1.081,-0.191 -2.286,-0.495 -3.366,-0.687 -0.362,-0.103 -0.367,-0.22 -0.258,-0.46 0.395,-2.019 0.789,-4.037 1.307,-5.943 -0.009,-0.235 0.105,-0.358 -0.138,-0.465 -0.962,-0.197 -1.923,-0.393 -3.004,-0.584 -0.195,1.068 -0.509,2.14 -0.703,3.208 -0.195,1.068 -0.509,2.141 -0.704,3.209 -0.109,0.24 -0.104,0.358 -0.466,0.255 -1.205,-0.304 -2.405,-0.491 -3.604,-0.677 -0.362,-0.103 -0.367,-0.221 -0.257,-0.461 0.394,-2.018 0.788,-4.037 1.306,-5.942 -0.004,-0.118 0.11,-0.24 0.1,-0.476 -2.766,-0.593 -5.532,-1.187 -8.417,-1.776 0.219,-0.48 0.323,-0.837 0.542,-1.317 0.433,-1.078 0.866,-2.156 1.184,-3.111 0.105,-0.358 0.224,-0.363 0.581,-0.377 0.843,0.201 1.804,0.397 2.642,0.481 0.962,0.196 1.657,-0.304 1.742,-1.132 1.302,-6.06 2.604,-12.12 3.783,-18.293 0.199,-0.95 -0.439,-1.984 -1.525,-2.293 -1.085,-0.309 -2.166,-0.5 -3.128,-0.697 -0.238,0.01 -0.361,-0.103 -0.252,-0.343 0.304,-1.308 0.604,-2.733 0.908,-4.041 -0.462,0.372 -0.462,0.372 -0.348,0.25 z m 7.257,28.795 c 0.119,-0.005 0.243,0.108 0.243,0.108 1.923,0.393 3.97,0.898 5.998,0.933 1.433,0.059 2.742,0.005 4.032,-0.518 2.233,-0.798 3.065,-3.777 1.679,-5.605 -0.634,-0.916 -1.61,-1.465 -2.586,-2.014 -2.19,-1.088 -4.709,-1.457 -7.108,-1.83 -0.362,-0.103 -0.357,0.015 -0.462,0.372 -0.19,1.186 -0.504,2.259 -0.694,3.444 -0.408,1.666 -0.698,3.327 -1.102,5.11 z m 9.507,-12.402 c 0.238,-0.01 0.828,-0.152 1.299,-0.289 2.242,-0.563 3.327,-3.198 2.055,-5.148 -0.638,-1.034 -1.738,-1.696 -2.829,-2.123 -1.695,-0.637 -3.375,-0.922 -5.18,-1.319 -0.362,-0.103 -0.476,0.019 -0.58,0.377 -0.494,2.494 -0.993,4.87 -1.607,7.368 -0.109,0.24 0.015,0.353 0.258,0.461 0.48,0.098 0.842,0.201 1.323,0.299 1.795,0.162 3.357,0.452 5.261,0.374 z"
     fill="#ffffff"
     id="path392" />
  <circle
     cx="409"
     cy="165"
     r="38"
     fill="#3283f5"
     id="circle394" />
  <g
     clip-path="url(#clip1_59_3101)"
     id="g408"
     transform="translate(0,26)">
    <path
       opacity="0.6"
       d="m 404.635,116.272 -0.099,1.054 5.772,28.853 0.357,0.232 12.051,-10.644 z"
       fill="#d8e8ff"
       id="path396" />
    <path
       d="m 404.635,116.272 -9.189,24.951 15.219,5.188 -2.802,-14.004 z"
       fill="#ffffff"
       id="path398" />
    <path
       d="m 411.172,148.947 -0.128,0.235 2.057,10.278 0.264,0.448 9.867,-21.603 z"
       fill="#95bffb"
       id="path400" />
    <path
       d="m 413.365,159.908 -2.193,-10.961 -15.218,-5.185 z"
       fill="#ffffff"
       id="path402" />
    <path
       d="m 410.665,146.411 12.051,-10.644 -14.853,-3.36 z"
       fill="#69a5fa"
       id="path404" />
    <path
       d="m 395.446,141.223 15.218,5.188 -2.801,-14.004 z"
       fill="#95bffb"
       id="path406" />
  </g>
  <circle
     cx="334"
     cy="536"
     r="35"
     fill="#eead0d"
     id="circle410" />
  <path
     d="m 325.885,535.864 3.761,-9.626 9.63,3.762 2.188,-5.601 -15.232,-5.95 -5.948,15.227 z m -9.334,7.368 2.188,-5.601 5.601,2.188 -2.188,5.601 z m 11.745,-1.868 9.625,3.761 3.763,-9.631 5.6,2.186 -5.949,15.234 -15.227,-5.948 -0.008,-0.003 z m 14.931,-9.821 2.188,-5.601 5.601,2.188 -2.188,5.601 z m -5.495,2.404 0.003,-10e-4 0.002,0.003 -2.221,5.685 -5.677,-2.216 -0.01,-0.004 0.004,-0.008 0.388,-0.995 0.189,-0.484 1.641,-4.199 5.683,2.22 z"
     fill="#ffffff"
     id="path412" />
  <defs
     id="defs518">
    <filter
       id="filter0_d_59_3101"
       x="36"
       y="252"
       width="570"
       height="370"
       filterUnits="userSpaceOnUse"
       color-interpolation-filters="sRGB">
      <feFlood
         flood-opacity="0"
         result="BackgroundImageFix"
         id="feFlood414" />
      <feColorMatrix
         in="SourceAlpha"
         type="matrix"
         values="0 0 0 0 0 0 0 0 0 0 0 0 0 0 0 0 0 0 127 0"
         result="hardAlpha"
         id="feColorMatrix416" />
      <feOffset
         dy="16"
         id="feOffset418" />
      <feGaussianBlur
         stdDeviation="40"
         id="feGaussianBlur420" />
      <feComposite
         in2="hardAlpha"
         operator="out"
         id="feComposite422" />
      <feColorMatrix
         type="matrix"
         values="0 0 0 0 0 0 0 0 0 0 0 0 0 0 0 0 0 0 0.1 0"
         id="feColorMatrix424" />
      <feBlend
         mode="normal"
         in2="BackgroundImageFix"
         result="effect1_dropShadow_59_3101"
         id="feBlend426" />
      <feBlend
         mode="normal"
         in="SourceGraphic"
         in2="effect1_dropShadow_59_3101"
         result="shape"
         id="feBlend428" />
    </filter>
    <filter
       id="filter1_dd_59_3101"
       x="120.486"
       y="371.26501"
       width="399.815"
       height="125.48"
       filterUnits="userSpaceOnUse"
       color-interpolation-filters="sRGB">
      <feFlood
         flood-opacity="0"
         result="BackgroundImageFix"
         id="feFlood431" />
      <feColorMatrix
         in="SourceAlpha"
         type="matrix"
         values="0 0 0 0 0 0 0 0 0 0 0 0 0 0 0 0 0 0 127 0"
         result="hardAlpha"
         id="feColorMatrix433" />
      <feOffset
         id="feOffset435" />
      <feGaussianBlur
         stdDeviation="12"
         id="feGaussianBlur437" />
      <feComposite
         in2="hardAlpha"
         operator="out"
         id="feComposite439" />
      <feColorMatrix
         type="matrix"
         values="0 0 0 0 0.196078 0 0 0 0 0.513726 0 0 0 0 0.960784 0 0 0 0.5 0"
         id="feColorMatrix441" />
      <feBlend
         mode="normal"
         in2="BackgroundImageFix"
         result="effect1_dropShadow_59_3101"
         id="feBlend443" />
      <feColorMatrix
         in="SourceAlpha"
         type="matrix"
         values="0 0 0 0 0 0 0 0 0 0 0 0 0 0 0 0 0 0 127 0"
         result="hardAlpha"
         id="feColorMatrix445" />
      <feOffset
         dy="4"
         id="feOffset447" />
      <feGaussianBlur
         stdDeviation="2"
         id="feGaussianBlur449" />
      <feComposite
         in2="hardAlpha"
         operator="out"
         id="feComposite451" />
      <feColorMatrix
         type="matrix"
         values="0 0 0 0 0 0 0 0 0 0 0 0 0 0 0 0 0 0 0.25 0"
         id="feColorMatrix453" />
      <feBlend
         mode="normal"
         in2="effect1_dropShadow_59_3101"
         result="effect2_dropShadow_59_3101"
         id="feBlend455" />
      <feBlend
         mode="normal"
         in="SourceGraphic"
         in2="effect2_dropShadow_59_3101"
         result="shape"
         id="feBlend457" />
    </filter>
    <filter
       id="filter2_d_59_3101"
       x="101"
       y="95"
       width="560"
       height="380"
       filterUnits="userSpaceOnUse"
       color-interpolation-filters="sRGB">
      <feFlood
         flood-opacity="0"
         result="BackgroundImageFix"
         id="feFlood460" />
      <feColorMatrix
         in="SourceAlpha"
         type="matrix"
         values="0 0 0 0 0 0 0 0 0 0 0 0 0 0 0 0 0 0 127 0"
         result="hardAlpha"
         id="feColorMatrix462" />
      <feOffset
         dy="16"
         id="feOffset464" />
      <feGaussianBlur
         stdDeviation="40"
         id="feGaussianBlur466" />
      <feComposite
         in2="hardAlpha"
         operator="out"
         id="feComposite468" />
      <feColorMatrix
         type="matrix"
         values="0 0 0 0 0 0 0 0 0 0 0 0 0 0 0 0 0 0 0.25 0"
         id="feColorMatrix470" />
      <feBlend
         mode="normal"
         in2="BackgroundImageFix"
         result="effect1_dropShadow_59_3101"
         id="feBlend472" />
      <feBlend
         mode="normal"
         in="SourceGraphic"
         in2="effect1_dropShadow_59_3101"
         result="shape"
         id="feBlend474" />
    </filter>
    <linearGradient
       id="paint0_linear_59_3101"
       x1="494.802"
       y1="490.72101"
       x2="494.802"
       y2="395.70499"
       gradientUnits="userSpaceOnUse"
       gradientTransform="translate(0,26)">
      <stop
         offset="0.0279986"
         stop-color="#006FBF"
         stop-opacity="0"
         id="stop477" />
      <stop
         offset="0.98503"
         stop-color="#00BF9A"
         stop-opacity="0.4"
         id="stop479" />
    </linearGradient>
    <linearGradient
       id="paint1_linear_59_3101"
       x1="228.875"
       y1="283"
       x2="228.875"
       y2="364.08099"
       gradientUnits="userSpaceOnUse">
      <stop
         stop-color="#1D8CF8"
         stop-opacity="0.5"
         id="stop482" />
      <stop
         offset="1"
         stop-color="#1D8CF8"
         stop-opacity="0.01"
         id="stop484" />
    </linearGradient>
    <linearGradient
       id="paint2_linear_59_3101"
       x1="283.875"
       y1="347"
       x2="283.875"
       y2="374.02701"
       gradientUnits="userSpaceOnUse">
      <stop
         stop-color="#1D8CF8"
         stop-opacity="0.5"
         id="stop487" />
      <stop
         offset="1"
         stop-color="#1D8CF8"
         stop-opacity="0.01"
         id="stop489" />
    </linearGradient>
    <linearGradient
       id="paint3_linear_59_3101"
       x1="337.875"
       y1="315"
       x2="337.875"
       y2="369.05399"
       gradientUnits="userSpaceOnUse">
      <stop
         stop-color="#1D8CF8"
         stop-opacity="0.5"
         id="stop492" />
      <stop
         offset="1"
         stop-color="#1D8CF8"
         stop-opacity="0.01"
         id="stop494" />
    </linearGradient>
    <linearGradient
       id="paint4_linear_59_3101"
       x1="392.875"
       y1="219"
       x2="392.875"
       y2="354.13501"
       gradientUnits="userSpaceOnUse">
      <stop
         stop-color="#1D8CF8"
         stop-opacity="0.5"
         id="stop497" />
      <stop
         offset="1"
         stop-color="#1D8CF8"
         stop-opacity="0.01"
         id="stop499" />
    </linearGradient>
    <linearGradient
       id="paint5_linear_59_3101"
       x1="446.875"
       y1="187"
       x2="446.875"
       y2="349.16199"
       gradientUnits="userSpaceOnUse">
      <stop
         stop-color="#1D8CF8"
         stop-opacity="0.5"
         id="stop502" />
      <stop
         offset="1"
         stop-color="#1D8CF8"
         stop-opacity="0.01"
         id="stop504" />
    </linearGradient>
    <linearGradient
       id="paint6_linear_59_3101"
       x1="501.875"
       y1="283"
       x2="501.875"
       y2="364.08099"
       gradientUnits="userSpaceOnUse">
      <stop
         stop-color="#1D8CF8"
         stop-opacity="0.5"
         id="stop507" />
      <stop
         offset="1"
         stop-color="#1D8CF8"
         stop-opacity="0.01"
         id="stop509" />
    </linearGradient>
    <clipPath
       id="clip0_59_3101">
      <rect
         x="181"
         y="159"
         width="400"
         height="220"
         rx="8"
         fill="#ffffff"
         id="rect512" />
    </clipPath>
    <clipPath
       id="clip1_59_3101">
      <rect
         width="27.818899"
         height="44.5103"
         fill="#ffffff"
         transform="rotate(-11.3132,796.21698,-1914.2844)"
         id="rect515"
         x="0"
         y="0" />
    </clipPath>
  </defs>
</svg>
