<svg width="71" height="91" viewBox="0 0 71 91" fill="none" xmlns="http://www.w3.org/2000/svg">
<path id="Vector (Stroke)" fill-rule="evenodd" clip-rule="evenodd" d="M46.5562 66.0262C53.458 60.5139 55 56.5988 55 54.9956V26.5893L35.5 17.6135L16 26.5893V54.9956C16 56.5988 17.542 60.5139 24.4438 66.0262C28.1538 68.9893 32.22 71.4453 35.5 73.2176C38.78 71.4453 42.8463 68.9893 46.5562 66.0262ZM37.0081 90.337C36.0465 90.7746 34.9535 90.7746 33.9919 90.337C27.226 87.2581 0 73.706 0 54.9956V18.9026C0 17.3409 0.908874 15.922 2.3275 15.269L33.8275 0.769764C34.889 0.281173 36.111 0.281172 37.1725 0.769764L68.6725 15.269C70.0911 15.922 71 17.3409 71 18.9026V54.9956C71 73.706 43.774 87.2581 37.0081 90.337Z" fill="#00398A"/>
</svg>
