<svg width="72" height="72" viewBox="0 0 72 72" fill="none" xmlns="http://www.w3.org/2000/svg">
<g id="BNB" clip-path="url(#clip0_97_2828)">
<g id="Group">
<path id="Vector" d="M36 72C55.8823 72 72 55.8823 72 36C72 16.1177 55.8823 0 36 0C16.1177 0 0 16.1177 0 36C0 55.8823 16.1177 72 36 72Z" fill="#F3BA2F"/>
<path id="Vector_2" d="M27.261 32.409L36 23.67L44.7435 32.4135L49.8285 27.3285L36 13.5L22.176 27.324L27.261 32.409ZM13.5 36L18.585 30.915L23.67 36L18.585 41.085L13.5 36ZM27.261 39.591L36 48.33L44.7435 39.5865L49.8285 44.6693L36 58.5L22.176 44.676L22.1692 44.6693L27.261 39.591ZM48.33 36L53.415 30.915L58.5 36L53.415 41.085L48.33 36ZM41.157 35.9955H41.1615V36L36 41.1615L30.8452 36.009L30.8363 36L30.8452 35.9932L31.7475 35.0888L32.1863 34.65L36 30.8385L41.1592 35.9977L41.157 35.9955Z" fill="white"/>
</g>
</g>
<defs>
<clipPath id="clip0_97_2828">
<rect width="72" height="72" fill="white"/>
</clipPath>
</defs>
</svg>
