<svg width="72" height="72" viewBox="0 0 72 72" fill="none" xmlns="http://www.w3.org/2000/svg">
<g id="BTC" clip-path="url(#clip0_97_2826)">
<g id="Group">
<path id="Vector" d="M36 72C55.8823 72 72 55.8823 72 36C72 16.1177 55.8823 0 36 0C16.1177 0 0 16.1177 0 36C0 55.8823 16.1177 72 36 72Z" fill="#F7931A"/>
<path id="Vector_2" d="M51.822 31.545C52.5285 26.829 48.9353 24.2933 44.0258 22.6012L45.6187 16.2112L41.7308 15.2438L40.1783 21.465C39.1568 21.2085 38.1082 20.97 37.062 20.7315L38.6257 14.4698L34.7378 13.5L33.1447 19.8877C32.2987 19.6942 31.4663 19.5053 30.6608 19.3028L30.6653 19.2825L25.3013 17.9437L24.2663 22.0972C24.2663 22.0972 27.153 22.7588 27.0923 22.7993C28.6673 23.193 28.9508 24.2347 28.9035 25.0627L27.09 32.3415C27.198 32.3685 27.3375 32.409 27.495 32.4697L27.0833 32.3685L24.5408 42.5655C24.3473 43.0425 23.859 43.7602 22.7565 43.488C22.797 43.5442 19.9305 42.7837 19.9305 42.7837L18 47.2342L23.0625 48.4965C24.003 48.7328 24.9255 48.9803 25.8322 49.212L24.2235 55.674L28.1093 56.6415L29.7023 50.2515C30.7643 50.5373 31.7948 50.8027 32.8028 51.0547L31.2143 57.4177L35.1023 58.3853L36.711 51.9368C43.344 53.1922 48.33 52.686 50.4292 46.6875C52.1213 41.859 50.346 39.0713 46.8563 37.2555C49.3988 36.6705 51.3112 34.9988 51.822 31.545ZM42.9345 44.0055C41.7353 48.8363 33.6015 46.224 30.9645 45.5693L33.102 37.008C35.739 37.6672 44.1923 38.97 42.9345 44.0055ZM44.1383 31.4753C43.0425 35.8695 36.2745 33.6353 34.0808 33.0885L36.0158 25.326C38.2095 25.8727 45.2813 26.892 44.1383 31.4753Z" fill="white"/>
</g>
</g>
<defs>
<clipPath id="clip0_97_2826">
<rect width="72" height="72" fill="white"/>
</clipPath>
</defs>
</svg>
