<svg width="64" height="64" viewBox="0 0 64 64" fill="none" xmlns="http://www.w3.org/2000/svg">
<g id="calculator">
<path id="Vector" opacity="0.15" d="M42 44C54.1503 44 64 34.1503 64 22C64 9.84974 54.1503 0 42 0C29.8497 0 20 9.84974 20 22C20 34.1503 29.8497 44 42 44Z" fill="#00FFFF"/>
<path id="Vector_2" opacity="0.5" fill-rule="evenodd" clip-rule="evenodd" d="M2 18C2 16.3431 3.34315 15 5 15H35C36.6569 15 38 16.3431 38 18V23C38 23.5523 37.5523 24 37 24C36.4477 24 36 23.5523 36 23V18C36 17.4477 35.5523 17 35 17H5C4.44772 17 4 17.4477 4 18V21C4 21.5523 3.55228 22 3 22C2.44772 22 2 21.5523 2 21V18ZM3 25C3.55228 25 4 25.4477 4 26V60C4 60.5523 4.44772 61 5 61H35C35.5523 61 36 60.5523 36 60V55C36 54.4477 36.4477 54 37 54C37.5523 54 38 54.4477 38 55V60C38 61.6569 36.6569 63 35 63H5C3.34315 63 2 61.6569 2 60V26C2 25.4477 2.44772 25 3 25ZM10 23V31H30V23H10ZM9 21C8.44772 21 8 21.4477 8 22V32C8 32.5523 8.44772 33 9 33H31C31.5523 33 32 32.5523 32 32V22C32 21.4477 31.5523 21 31 21H9ZM9 37C8.44772 37 8 37.4477 8 38V39C8 39.5523 8.44772 40 9 40H13C13.5523 40 14 39.5523 14 39V38C14 37.4477 13.5523 37 13 37H9ZM17 38C17 37.4477 17.4477 37 18 37H22C22.5523 37 23 37.4477 23 38V39C23 39.5523 22.5523 40 22 40H18C17.4477 40 17 39.5523 17 39V38ZM27 37C26.4477 37 26 37.4477 26 38V39C26 39.5523 26.4477 40 27 40H31C31.5523 40 32 39.5523 32 39V38C32 37.4477 31.5523 37 31 37H27ZM8 44C8 43.4477 8.44772 43 9 43H13C13.5523 43 14 43.4477 14 44V45C14 45.5523 13.5523 46 13 46H9C8.44772 46 8 45.5523 8 45V44ZM18 43C17.4477 43 17 43.4477 17 44V45C17 45.5523 17.4477 46 18 46H22C22.5523 46 23 45.5523 23 45V44C23 43.4477 22.5523 43 22 43H18ZM26 44C26 43.4477 26.4477 43 27 43H31C31.5523 43 32 43.4477 32 44V45C32 45.5523 31.5523 46 31 46H27C26.4477 46 26 45.5523 26 45V44ZM9 49C8.44772 49 8 49.4477 8 50V51C8 51.5523 8.44772 52 9 52H13C13.5523 52 14 51.5523 14 51V50C14 49.4477 13.5523 49 13 49H9ZM17 50C17 49.4477 17.4477 49 18 49H22C22.5523 49 23 49.4477 23 50V51C23 51.5523 22.5523 52 22 52H18C17.4477 52 17 51.5523 17 51V50ZM9 55C8.44772 55 8 55.4477 8 56V57C8 57.5523 8.44772 58 9 58H13C13.5523 58 14 57.5523 14 57V56C14 55.4477 13.5523 55 13 55H9ZM17 56C17 55.4477 17.4477 55 18 55H22C22.5523 55 23 55.4477 23 56V57C23 57.5523 22.5523 58 22 58H18C17.4477 58 17 57.5523 17 57V56ZM27 49C26.4477 49 26 49.4477 26 50V57C26 57.5523 26.4477 58 27 58H31C31.5523 58 32 57.5523 32 57V50C32 49.4477 31.5523 49 31 49H27Z" fill="#15181D"/>
<path id="Vector_3" d="M6 20C6 19.4477 6.44772 19 7 19H29C29.5523 19 30 19.4477 30 20V30C30 30.5523 29.5523 31 29 31H7C6.44772 31 6 30.5523 6 30V20Z" fill="#3283F5" fill-opacity="0.5"/>
<path id="Vector_4" fill-rule="evenodd" clip-rule="evenodd" d="M3 13C1.34315 13 0 14.3431 0 16V19C0 19.5523 0.447715 20 1 20C1.55228 20 2 19.5523 2 19V16C2 15.4477 2.44772 15 3 15H33C33.5523 15 34 15.4477 34 16V21C34 21.5523 34.4477 22 35 22C35.5523 22 36 21.5523 36 21V16C36 14.3431 34.6569 13 33 13H3ZM2 24C2 23.4477 1.55228 23 1 23C0.447715 23 0 23.4477 0 24V58C0 59.6569 1.34315 61 3 61H33C34.6569 61 36 59.6569 36 58V53C36 52.4477 35.5523 52 35 52C34.4477 52 34 52.4477 34 53V58C34 58.5523 33.5523 59 33 59H3C2.44772 59 2 58.5523 2 58V24ZM8 21V29H28V21H8ZM7 19C6.44772 19 6 19.4477 6 20V30C6 30.5523 6.44772 31 7 31H29C29.5523 31 30 30.5523 30 30V20C30 19.4477 29.5523 19 29 19H7ZM6 36C6 35.4477 6.44772 35 7 35H11C11.5523 35 12 35.4477 12 36V37C12 37.5523 11.5523 38 11 38H7C6.44772 38 6 37.5523 6 37V36ZM16 35C15.4477 35 15 35.4477 15 36V37C15 37.5523 15.4477 38 16 38H20C20.5523 38 21 37.5523 21 37V36C21 35.4477 20.5523 35 20 35H16ZM24 36C24 35.4477 24.4477 35 25 35H29C29.5523 35 30 35.4477 30 36V37C30 37.5523 29.5523 38 29 38H25C24.4477 38 24 37.5523 24 37V36ZM7 41C6.44772 41 6 41.4477 6 42V43C6 43.5523 6.44772 44 7 44H11C11.5523 44 12 43.5523 12 43V42C12 41.4477 11.5523 41 11 41H7ZM15 42C15 41.4477 15.4477 41 16 41H20C20.5523 41 21 41.4477 21 42V43C21 43.5523 20.5523 44 20 44H16C15.4477 44 15 43.5523 15 43V42ZM25 41C24.4477 41 24 41.4477 24 42V43C24 43.5523 24.4477 44 25 44H29C29.5523 44 30 43.5523 30 43V42C30 41.4477 29.5523 41 29 41H25ZM6 48C6 47.4477 6.44772 47 7 47H11C11.5523 47 12 47.4477 12 48V49C12 49.5523 11.5523 50 11 50H7C6.44772 50 6 49.5523 6 49V48ZM16 47C15.4477 47 15 47.4477 15 48V49C15 49.5523 15.4477 50 16 50H20C20.5523 50 21 49.5523 21 49V48C21 47.4477 20.5523 47 20 47H16ZM6 54C6 53.4477 6.44772 53 7 53H11C11.5523 53 12 53.4477 12 54V55C12 55.5523 11.5523 56 11 56H7C6.44772 56 6 55.5523 6 55V54ZM16 53C15.4477 53 15 53.4477 15 54V55C15 55.5523 15.4477 56 16 56H20C20.5523 56 21 55.5523 21 55V54C21 53.4477 20.5523 53 20 53H16ZM24 48C24 47.4477 24.4477 47 25 47H29C29.5523 47 30 47.4477 30 48V55C30 55.5523 29.5523 56 29 56H25C24.4477 56 24 55.5523 24 55V48Z" fill="#3283F5"/>
<path id="Vector_5" fill-rule="evenodd" clip-rule="evenodd" d="M35 25C34.4477 25 34 25.4477 34 26V35H25C24.4477 35 24 35.4477 24 36V38C24 38.5523 24.4477 39 25 39H34V48C34 48.5523 34.4477 49 35 49H37C37.5523 49 38 48.5523 38 48V39H47C47.5523 39 48 38.5523 48 38V36C48 35.4477 47.5523 35 47 35H38V26C38 25.4477 37.5523 25 37 25H35Z" fill="#82EBC1"/>
</g>
</svg>
