<svg width="24" height="24" viewBox="0 0 24 24" fill="none" xmlns="http://www.w3.org/2000/svg">
<g id="close">
<path id="Union" fill-rule="evenodd" clip-rule="evenodd" d="M3.29289 20.2635C2.90237 20.654 2.90237 21.2871 3.29289 21.6777C3.68342 22.0682 4.31658 22.0682 4.70711 21.6777L12.4855 13.8993L20.2639 21.6777C20.6544 22.0682 21.2876 22.0682 21.6781 21.6777C22.0686 21.2871 22.0686 20.654 21.6781 20.2635L13.8997 12.4851L21.6777 4.70711C22.0682 4.31658 22.0682 3.68342 21.6777 3.29289C21.2871 2.90237 20.654 2.90237 20.2635 3.29289L12.4855 11.0708L4.70756 3.29289C4.31703 2.90237 3.68387 2.90237 3.29334 3.29289C2.90282 3.68342 2.90282 4.31658 3.29334 4.70711L11.0713 12.4851L3.29289 20.2635Z" fill="#8A94A7"/>
</g>
</svg>
