<svg width="72" height="72" viewBox="0 0 72 72" fill="none" xmlns="http://www.w3.org/2000/svg">
<g id="DOGE" clip-path="url(#clip0_97_2830)">
<g id="Group">
<path id="Vector" d="M36 72C55.8823 72 72 55.8823 72 36C72 16.1177 55.8823 0 36 0C16.1177 0 0 16.1177 0 36C0 55.8823 16.1177 72 36 72Z" fill="#C3A634"/>
<path id="Vector_2" fill-rule="evenodd" clip-rule="evenodd" d="M29.808 32.8725H39.5145V38.016H29.808V48.8565H35.9303C38.3535 48.8565 40.3358 48.5303 41.8793 47.8733C43.4228 47.2185 44.6333 46.3117 45.513 45.1507C46.4128 43.9434 47.0253 42.5467 47.304 41.067C47.6291 39.3978 47.7874 37.7005 47.7765 36C47.7874 34.2995 47.6291 32.6022 47.304 30.933C47.0256 29.4532 46.4131 28.0564 45.513 26.8492C44.6333 25.6882 43.4205 24.7815 41.8793 24.1267C40.3358 23.4697 38.3535 23.1435 35.9303 23.1435H29.808V32.8748V32.8725ZM23.5845 38.016H20.25V32.8748H23.5845V18H38.3197C41.0422 18 43.398 18.4725 45.3893 19.4107C47.3805 20.3535 49.005 21.6382 50.2673 23.2695C51.5272 24.8985 52.4655 26.8065 53.0798 28.9913C53.694 31.176 54 33.5138 54 36C54.0154 38.3675 53.705 40.7259 53.0775 43.0087C52.4655 45.1912 51.5273 47.1015 50.265 48.7305C49.005 50.3618 47.3805 51.6465 45.3893 52.5892C43.398 53.5297 41.04 54 38.3197 54H23.5845V38.016Z" fill="white"/>
</g>
</g>
<defs>
<clipPath id="clip0_97_2830">
<rect width="72" height="72" fill="white"/>
</clipPath>
</defs>
</svg>
