<svg width="72" height="72" viewBox="0 0 72 72" fill="none" xmlns="http://www.w3.org/2000/svg">
<g id="ETH" clip-path="url(#clip0_97_2827)">
<g id="Group">
<path id="Vector" d="M36 72C55.8823 72 72 55.8823 72 36C72 16.1177 55.8823 0 36 0C16.1177 0 0 16.1177 0 36C0 55.8823 16.1177 72 36 72Z" fill="#627EEA"/>
<g id="Group_2">
<path id="Vector_2" d="M36 9V28.9575L52.8683 36.495L36 9Z" fill="white" fill-opacity="0.602"/>
<path id="Vector_3" d="M37.1205 9L20.25 36.495L37.1205 28.9575V9Z" fill="white"/>
<path id="Vector_4" d="M36 50.292V63.8528L52.8795 40.5L36 50.292Z" fill="white" fill-opacity="0.602"/>
<path id="Vector_5" d="M37.1205 63.8528V50.2897L20.25 40.5L37.1205 63.8528Z" fill="white"/>
<path id="Vector_6" d="M36 46.5773L52.8683 36.783L36 29.25V46.5773Z" fill="white" fill-opacity="0.2"/>
<path id="Vector_7" d="M20.25 36.783L37.1205 46.5773V29.25L20.25 36.783Z" fill="white" fill-opacity="0.602"/>
</g>
</g>
</g>
<defs>
<clipPath id="clip0_97_2827">
<rect width="72" height="72" fill="white"/>
</clipPath>
</defs>
</svg>
