<svg width="100%" height="100%" viewBox="0 0 1040 400" fill="none" xmlns="http://www.w3.org/2000/svg">
<g clip-path="url(#clip0_65_4126)">
<rect width="1040" height="400" rx="16" fill="#15181D"/>
<rect opacity="0.1" x="60" y="61" width="1" height="920" transform="rotate(-90 60 61)" fill="#8ED1FC"/>
<rect opacity="0.1" x="60" y="154" width="1" height="920" transform="rotate(-90 60 154)" fill="#8ED1FC"/>
<rect opacity="0.1" x="60" y="247" width="1" height="920" transform="rotate(-90 60 247)" fill="#8ED1FC"/>
<rect opacity="0.1" x="60" y="340" width="1" height="920" transform="rotate(-90 60 340)" fill="#8ED1FC"/>
<g filter="url(#filter0_dd_65_4126)">
<path d="M60 255.027C76.1009 232.372 123.243 188.267 183.004 193.09C257.705 199.12 279.048 275.308 336.899 278.048C394.75 280.789 450.916 176.099 536.288 177.743C621.661 179.388 659.292 330.667 740.171 333.956C821.05 337.244 862.051 156.367 980 158.011" stroke="#46A2F8" stroke-width="3" stroke-linecap="round"/>
</g>
<g filter="url(#filter1_dd_65_4126)">
<path d="M60 255.027C69.2655 232.372 85.5 155 125.429 155C170 155 170.5 278.048 211.5 278.048C263.5 278.048 272 62.5001 334.085 62.5001C409 62.5001 413.5 339 480.543 339C540.478 339 537.125 153.356 605 155C643.5 155 672.235 247 713.789 247C777 247 810.5 137 849 105.5C887.5 74.0001 907.579 62.5001 980 62.5001" stroke="#43CBB1" stroke-width="3" stroke-linecap="round"/>
</g>
</g>
<defs>
<filter id="filter0_dd_65_4126" x="18.4999" y="136.5" width="1003" height="259" filterUnits="userSpaceOnUse" color-interpolation-filters="sRGB">
<feFlood flood-opacity="0" result="BackgroundImageFix"/>
<feColorMatrix in="SourceAlpha" type="matrix" values="0 0 0 0 0 0 0 0 0 0 0 0 0 0 0 0 0 0 127 0" result="hardAlpha"/>
<feOffset dy="20"/>
<feGaussianBlur stdDeviation="20"/>
<feComposite in2="hardAlpha" operator="out"/>
<feColorMatrix type="matrix" values="0 0 0 0 0.27451 0 0 0 0 0.635294 0 0 0 0 0.972549 0 0 0 0.25 0"/>
<feBlend mode="normal" in2="BackgroundImageFix" result="effect1_dropShadow_65_4126"/>
<feColorMatrix in="SourceAlpha" type="matrix" values="0 0 0 0 0 0 0 0 0 0 0 0 0 0 0 0 0 0 127 0" result="hardAlpha"/>
<feOffset dy="7"/>
<feGaussianBlur stdDeviation="7"/>
<feComposite in2="hardAlpha" operator="out"/>
<feColorMatrix type="matrix" values="0 0 0 0 0 0 0 0 0 0 0 0 0 0 0 0 0 0 0.2 0"/>
<feBlend mode="normal" in2="effect1_dropShadow_65_4126" result="effect2_dropShadow_65_4126"/>
<feBlend mode="normal" in="SourceGraphic" in2="effect2_dropShadow_65_4126" result="shape"/>
</filter>
<filter id="filter1_dd_65_4126" x="18.4996" y="41" width="1003" height="359.5" filterUnits="userSpaceOnUse" color-interpolation-filters="sRGB">
<feFlood flood-opacity="0" result="BackgroundImageFix"/>
<feColorMatrix in="SourceAlpha" type="matrix" values="0 0 0 0 0 0 0 0 0 0 0 0 0 0 0 0 0 0 127 0" result="hardAlpha"/>
<feOffset dy="20"/>
<feGaussianBlur stdDeviation="20"/>
<feComposite in2="hardAlpha" operator="out"/>
<feColorMatrix type="matrix" values="0 0 0 0 0.27451 0 0 0 0 0.635294 0 0 0 0 0.972549 0 0 0 0.25 0"/>
<feBlend mode="normal" in2="BackgroundImageFix" result="effect1_dropShadow_65_4126"/>
<feColorMatrix in="SourceAlpha" type="matrix" values="0 0 0 0 0 0 0 0 0 0 0 0 0 0 0 0 0 0 127 0" result="hardAlpha"/>
<feOffset dy="7"/>
<feGaussianBlur stdDeviation="7"/>
<feComposite in2="hardAlpha" operator="out"/>
<feColorMatrix type="matrix" values="0 0 0 0 0 0 0 0 0 0 0 0 0 0 0 0 0 0 0.2 0"/>
<feBlend mode="normal" in2="effect1_dropShadow_65_4126" result="effect2_dropShadow_65_4126"/>
<feBlend mode="normal" in="SourceGraphic" in2="effect2_dropShadow_65_4126" result="shape"/>
</filter>
<clipPath id="clip0_65_4126">
<rect width="1040" height="400" rx="16" fill="white"/>
</clipPath>
</defs>
</svg>
