<svg width="32" height="32" viewBox="0 0 32 32" fill="none" xmlns="http://www.w3.org/2000/svg">
<circle cx="16" cy="16" r="14" fill="white"/>
<path fill-rule="evenodd" clip-rule="evenodd" d="M11.8 9H14.2C14.64 9 15 9.325 15 9.72222V21.2778C15 21.675 14.64 22 14.2 22H11.8C11.36 22 11 21.675 11 21.2778V9.72222C11 9.325 11.36 9 11.8 9Z" fill="#3283F5"/>
<path fill-rule="evenodd" clip-rule="evenodd" d="M17.8 9H20.2C20.64 9 21 9.325 21 9.72222V21.2778C21 21.675 20.64 22 20.2 22H17.8C17.36 22 17 21.675 17 21.2778V9.72222C17 9.325 17.36 9 17.8 9Z" fill="#3283F5"/>
</svg>
