<svg width="88" height="88" viewBox="0 0 88 88" fill="none" xmlns="http://www.w3.org/2000/svg">
<path opacity="0.7" d="M88 44C88 68.3375 68.3375 88 44 88C19.6625 88 0 68.3375 0 44C0 19.6625 19.6625 0 44 0C68.3375 0 88 19.6625 88 44Z" fill="#15181D"/>
<path fill-rule="evenodd" clip-rule="evenodd" d="M36.5725 32.1368C36.9258 31.9445 37.3575 31.9556 37.7 32.1658L55.4778 43.0749C55.8026 43.2743 56 43.6239 56 44C56 44.3761 55.8026 44.7257 55.4778 44.9251L37.7 55.8342C37.3575 56.0444 36.9258 56.0555 36.5725 55.8632C36.2192 55.671 36 55.3057 36 54.9091V33.0909C36 32.6943 36.2192 32.329 36.5725 32.1368Z" fill="#3283F5"/>
</svg>
