<svg width="72" height="72" viewBox="0 0 72 72" fill="none" xmlns="http://www.w3.org/2000/svg">
<g id="promo 5" clip-path="url(#clip0_165_7509)">
<path id="Vector (Stroke)" fill-rule="evenodd" clip-rule="evenodd" d="M68 17.9691L68 54.0309L36.002 72L4 54.0312L4 17.9688L36.002 -1.39868e-06L68 17.9691Z" fill="#15181D"/>
<path id="Vector (Stroke)_2" fill-rule="evenodd" clip-rule="evenodd" d="M36 52C36 52 49 44.8261 49 38.9435V24.9257L36 19L23 24.9257V38.9435C23 44.8261 36 52 36 52ZM29 28.7847V38.6652C29.0623 38.7955 29.2389 39.1292 29.6877 39.6814C30.5016 40.6831 31.7325 41.8125 33.1846 42.9423C34.1478 43.6918 35.1247 44.3773 36 44.9579C36.8753 44.3773 37.8522 43.6918 38.8154 42.9423C40.2675 41.8125 41.4984 40.6831 42.3123 39.6814C42.7611 39.1292 42.9377 38.7955 43 38.6652V28.7847L36 25.5939L29 28.7847Z" fill="#3283F5"/>
<circle id="Ellipse 177" cx="3" cy="3" r="3" transform="matrix(0 1 1 0 11 32)" fill="#0FAA97"/>
<circle id="Ellipse 177_2" cx="3" cy="3" r="3" transform="matrix(0 1 1 0 1 32)" fill="#0FAA97"/>
<circle id="Ellipse 177_3" cx="58" cy="35" r="3" transform="rotate(90 58 35)" fill="#0FAA97"/>
<circle id="Ellipse 177_4" cx="68" cy="35" r="3" transform="rotate(90 68 35)" fill="#0FAA97"/>
</g>
<defs>
<clipPath id="clip0_165_7509">
<rect width="72" height="72" fill="white"/>
</clipPath>
</defs>
</svg>
