<svg width="73" height="72" viewBox="0 0 73 72" fill="none" xmlns="http://www.w3.org/2000/svg">
<g id="nohuman">
<path id="Vector" d="M68.5 18V54L36.5 72L4.5 54V18L36.5 0L68.5 18Z" fill="#222733"/>
<path id="Vector_2" d="M36.5 23C33.7 23 31.5 25.2 31.5 28C31.5 30.8 33.7 33 36.5 33C39.3 33 41.5 30.8 41.5 28C41.5 25.2 39.3 23 36.5 23ZM27.5 28C27.5 23 31.5 19 36.5 19C41.5 19 45.5 23 45.5 28C45.5 33 41.5 37 36.5 37C31.5 37 27.5 33 27.5 28Z" fill="#3283F5"/>
<path id="Vector_3" d="M47.9 49.2L46.5 47.8L49.3 45L50.7 46.4L55.3 51L59.9 46.4L61.3 45L64.1 47.8L62.7 49.2L58.1 53.8L62.7 58.4L64.1 59.8L61.3 62.6L59.9 61.2L55.3 56.6L50.7 61.2L49.3 62.6L46.5 59.8L47.9 58.4L52.5 53.8L47.9 49.2Z" fill="#43CBB1"/>
<path id="Vector_4" d="M43.7 45L46.3 42.4C43.7 40.3 40.5 39 37 39C31 39 25.8 42.8 23.7 48.1L22.9 50L26.6 51.5L27.4 49.7C29 45.7 32.8 43 37.1 43C39.5 43 41.7 43.8 43.5 45.3L43.7 45Z" fill="#3283F5"/>
</g>
</svg>
