<svg width="72" height="72" viewBox="0 0 72 72" fill="none" xmlns="http://www.w3.org/2000/svg">
<g id="promo 2" clip-path="url(#clip0_165_7527)">
<path id="Vector (Stroke)" fill-rule="evenodd" clip-rule="evenodd" d="M68 17.9691L68 54.0309L36.002 72L4 54.0312L4 17.9688L36.002 -1.39868e-06L68 17.9691Z" fill="#15181D"/>
<path id="Ellipse 191" opacity="0.8" d="M16 36C16 34.8954 16.8954 34 18 34C19.1046 34 20 34.8954 20 36C20 37.1046 19.1046 38 18 38C16.8954 38 16 37.1046 16 36Z" fill="#0FAA97"/>
<path id="Ellipse 192" opacity="0.8" d="M52 36C52 34.8954 52.8954 34 54 34C55.1046 34 56 34.8954 56 36C56 37.1046 55.1046 38 54 38C52.8954 38 52 37.1046 52 36Z" fill="#0FAA97"/>
<path id="Vector (Stroke)_2" fill-rule="evenodd" clip-rule="evenodd" d="M50 27.9863V44.0137L36.0009 52L22 44.0139V27.9861L36.0009 20L50 27.9863ZM44 31.5908L36 27L28 31.5908V40.4444L36 45L44 40.4444V31.5908Z" fill="#3283F5"/>
<path id="Vector (Stroke)_3" fill-rule="evenodd" clip-rule="evenodd" d="M14 31.9931V40.0069L7.00044 44L0 40.0069V31.9931L7.00044 28L14 31.9931ZM11 33.7954L7 31.5L3 33.7954V38.2222L7 40.5L11 38.2222V33.7954Z" fill="#0FAA97"/>
<path id="Vector (Stroke)_4" fill-rule="evenodd" clip-rule="evenodd" d="M72 31.9931V40.0069L65.0004 44L58 40.0069V31.9931L65.0004 28L72 31.9931ZM69 33.7954L65 31.5L61 33.7954V38.2222L65 40.5L69 38.2222V33.7954Z" fill="#0FAA97"/>
</g>
<defs>
<clipPath id="clip0_165_7527">
<rect width="72" height="72" fill="white"/>
</clipPath>
</defs>
</svg>
