<svg width="72" height="72" viewBox="0 0 72 72" fill="none" xmlns="http://www.w3.org/2000/svg">
<g id="promo 3" clip-path="url(#clip0_165_7516)">
<path id="Vector (Stroke)" fill-rule="evenodd" clip-rule="evenodd" d="M68 17.9691L68 54.0309L36.002 72L4 54.0312L4 17.9688L36.002 -1.39868e-06L68 17.9691Z" fill="#15181D"/>
<g id="Group 21">
<path id="Vector" d="M47 42V49H52V47.4688H48.8835V46.2656H51.7425V44.7344H48.8835V43.5313H51.9865V42H47Z" fill="#3283F5"/>
<path id="Vector_2" d="M41.0509 42H38V49H41.0199C41.8355 49 42.5402 48.8599 43.1338 48.5796C43.7301 48.3016 44.1895 47.9006 44.5122 47.3765C44.8374 46.8547 45 46.2292 45 45.5C45 44.7708 44.8387 44.1442 44.516 43.6201C44.1934 43.0983 43.7365 42.6973 43.1455 42.417C42.5544 42.139 41.8562 42 41.0509 42ZM40.1527 43.6133H40.9735C41.3658 43.6133 41.7 43.6691 41.9762 43.7808C42.255 43.8924 42.4666 44.085 42.6112 44.3584C42.7583 44.6318 42.8319 45.0124 42.8319 45.5C42.8319 45.9876 42.757 46.3682 42.6073 46.6416C42.4602 46.915 42.2434 47.1076 41.9569 47.2192C41.6729 47.3309 41.3245 47.3867 40.9115 47.3867H40.1527V43.6133Z" fill="#3283F5"/>
<path id="Vector_3" d="M36 45.5C36 44.7414 35.8442 44.1016 35.5326 43.5803C35.2211 43.0613 34.8005 42.6676 34.2711 42.3992C33.7416 42.1331 33.1513 42 32.5 42C31.844 42 31.2513 42.1342 30.7219 42.4026C30.1948 42.6732 29.7754 43.068 29.4639 43.587C29.1546 44.1082 29 44.7459 29 45.5C29 46.2586 29.1546 46.8973 29.4639 47.4163C29.7754 47.9376 30.1948 48.3313 30.7219 48.5974C31.2513 48.8658 31.844 49 32.5 49C33.1513 49 33.7416 48.8658 34.2711 48.5974C34.8005 48.3313 35.2211 47.9376 35.5326 47.4163C35.8442 46.8973 36 46.2586 36 45.5ZM33.99 45.5C33.99 45.9081 33.9326 46.2519 33.8178 46.5314C33.7053 46.8131 33.5378 47.026 33.3153 47.1702C33.095 47.3165 32.8233 47.3897 32.5 47.3897C32.1767 47.3897 31.9038 47.3165 31.6812 47.1702C31.461 47.026 31.2935 46.8131 31.1787 46.5314C31.0663 46.2519 31.01 45.9081 31.01 45.5C31.01 45.0919 31.0663 44.747 31.1787 44.4653C31.2935 44.1858 31.461 43.9729 31.6812 43.8265C31.9038 43.6824 32.1767 43.6103 32.5 43.6103C32.8233 43.6103 33.095 43.6824 33.3153 43.8265C33.5378 43.9729 33.7053 44.1858 33.8178 44.4653C33.9326 44.747 33.99 45.0919 33.99 45.5Z" fill="#3283F5"/>
<path id="Vector_4" d="M27 46.3517H24.9437C24.9292 46.507 24.8903 46.6478 24.8271 46.7742C24.7663 46.9007 24.6812 47.0093 24.5719 47.1003C24.4649 47.1934 24.3349 47.2644 24.1818 47.3132C24.0286 47.3642 23.8549 47.3897 23.6604 47.3897C23.3201 47.3897 23.0321 47.3143 22.7964 47.1635C22.563 47.0127 22.3856 46.7964 22.2641 46.5147C22.145 46.233 22.0854 45.8948 22.0854 45.5C22.0854 45.083 22.1462 44.7337 22.2677 44.452C22.3917 44.1725 22.5703 43.9618 22.8036 43.8199C23.037 43.6801 23.3177 43.6103 23.6458 43.6103C23.833 43.6103 24.0007 43.6313 24.149 43.6735C24.2972 43.7178 24.426 43.7811 24.5354 43.8631C24.6448 43.9452 24.7335 44.0439 24.8016 44.1592C24.872 44.2768 24.9194 44.4087 24.9437 44.5551L27 44.5418C26.9757 44.2535 26.887 43.9596 26.7339 43.6602C26.5807 43.363 26.3632 43.0879 26.0812 42.8351C25.8017 42.5844 25.4554 42.3826 25.0422 42.2296C24.629 42.0765 24.149 42 23.6021 42C22.9167 42 22.3017 42.1342 21.7573 42.4026C21.2153 42.6709 20.7863 43.0657 20.4703 43.587C20.1568 44.1082 20 44.7459 20 45.5C20 46.2586 20.1604 46.8973 20.4812 47.4163C20.8021 47.9376 21.2347 48.3313 21.7792 48.5974C22.3236 48.8658 22.9312 49 23.6021 49C24.0736 49 24.5075 48.9412 24.9036 48.8237C25.2998 48.7061 25.6474 48.5342 25.9464 48.308C26.2453 48.084 26.4859 47.8078 26.6682 47.4796C26.8505 47.1513 26.9611 46.7753 27 46.3517Z" fill="#3283F5"/>
<path id="Vector_5" d="M53 31C53 32.7338 52.6217 34.1965 51.865 35.3878C51.1083 36.5741 50.087 37.474 48.8012 38.0875C47.5154 38.6958 46.0817 39 44.5 39C42.907 39 41.4675 38.6933 40.1817 38.0798C38.9016 37.4613 37.8832 36.5589 37.1265 35.3726C36.3755 34.1812 36 32.7237 36 31C36 29.2662 36.3755 27.8061 37.1265 26.6198C37.8832 25.4284 38.9016 24.5285 40.1817 23.9202C41.4675 23.3067 42.907 23 44.5 23C46.0817 23 47.5154 23.3067 48.8012 23.9202C50.087 24.5285 51.1083 25.4284 51.865 26.6198C52.6217 27.8061 53 29.2662 53 31ZM48.1185 31C48.1185 30.0672 47.9791 29.2814 47.7003 28.6426C47.4272 27.9987 47.0204 27.512 46.4799 27.1825C45.9451 26.8479 45.2851 26.6806 44.5 26.6806C43.7149 26.6806 43.052 26.8479 42.5115 27.1825C41.9767 27.512 41.5699 27.9987 41.2912 28.6426C41.0181 29.2814 40.8815 30.0672 40.8815 31C40.8815 31.9328 41.0181 32.7212 41.2912 33.365C41.5699 34.0038 41.9767 34.4905 42.5115 34.8251C43.052 35.1546 43.7149 35.3194 44.5 35.3194C45.2851 35.3194 45.9451 35.1546 46.4799 34.8251C47.0204 34.4905 47.4272 34.0038 47.7003 33.365C47.9791 32.7212 48.1185 31.9328 48.1185 31Z" fill="#3283F5"/>
<path id="Vector_6" d="M34 23V39H30.3341L24.4876 30.5937H24.3928V39H20V23H23.7291L29.4808 31.375H29.6072V23H34Z" fill="#3283F5"/>
</g>
<path id="Vector 23 (Stroke)" fill-rule="evenodd" clip-rule="evenodd" d="M10.9393 25.9393L13.0607 28.0607L5.12132 36L13.0607 43.9393L10.9393 46.0606L0.878677 36L10.9393 25.9393Z" fill="#0FAA97"/>
<path id="Vector 24 (Stroke)" fill-rule="evenodd" clip-rule="evenodd" d="M61.0607 25.9393L58.9393 28.0607L66.8787 36L58.9393 43.9393L61.0607 46.0606L71.1213 36L61.0607 25.9393Z" fill="#0FAA97"/>
</g>
<defs>
<clipPath id="clip0_165_7516">
<rect width="72" height="72" fill="white"/>
</clipPath>
</defs>
</svg>
