<svg width="72" height="72" viewBox="0 0 72 72" fill="none" xmlns="http://www.w3.org/2000/svg">
<g id="promo 4" clip-path="url(#clip0_165_7501)">
<path id="Vector (Stroke)" fill-rule="evenodd" clip-rule="evenodd" d="M68 17.9691L68 54.0309L36.002 72L4 54.0312L4 17.9688L36.002 -1.39868e-06L68 17.9691Z" fill="#15181D"/>
<path id="Ellipse 196 (Stroke)" fill-rule="evenodd" clip-rule="evenodd" d="M66 33C65.9207 33 65.8427 33.003 65.766 33.0088C64.2976 33.1205 63.1205 34.2976 63.0088 35.766C63.003 35.8427 63 35.9207 63 36C63 36.0793 63.003 36.1573 63.0088 36.234C63.1205 37.7024 64.2976 38.8795 65.766 38.9912C65.8427 38.997 65.9207 39 66 39C66.0793 39 66.1573 38.997 66.234 38.9912C67.7024 38.8795 68.8795 37.7024 68.9912 36.234C68.997 36.1573 69 36.0793 69 36C69 35.9207 68.997 35.8427 68.9912 35.766C68.8795 34.2976 67.7024 33.1205 66.234 33.0088C66.1573 33.003 66.0793 33 66 33ZM71.9825 36.4615C71.9941 36.3092 72 36.1553 72 36C72 35.8447 71.9941 35.6908 71.9825 35.5385C71.7584 32.5927 69.4073 30.2416 66.4615 30.0175C66.3092 30.0059 66.1553 30 66 30C65.8447 30 65.6908 30.0059 65.5385 30.0175C62.5927 30.2416 60.2416 32.5927 60.0175 35.5385C60.0059 35.6908 60 35.8447 60 36C60 36.1553 60.0059 36.3092 60.0175 36.4615C60.2416 39.4073 62.5927 41.7584 65.5385 41.9825C65.6908 41.9941 65.8447 42 66 42C66.1553 42 66.3092 41.9941 66.4615 41.9825C69.4073 41.7584 71.7584 39.4073 71.9825 36.4615Z" fill="#0FAA97"/>
<path id="Ellipse 197 (Stroke)" fill-rule="evenodd" clip-rule="evenodd" d="M6 33C5.92072 33 5.84271 33.003 5.76602 33.0088C4.29765 33.1205 3.12055 34.2976 3.00884 35.766C3.00301 35.8427 3 35.9207 3 36C3 36.0793 3.00301 36.1573 3.00884 36.234C3.12055 37.7024 4.29765 38.8795 5.76602 38.9912C5.84271 38.997 5.92072 39 6 39C6.07928 39 6.15729 38.997 6.23398 38.9912C7.70235 38.8795 8.87945 37.7024 8.99116 36.234C8.99699 36.1573 9 36.0793 9 36C9 35.9207 8.99699 35.8427 8.99116 35.766C8.87945 34.2976 7.70235 33.1205 6.23398 33.0088C6.15729 33.003 6.07928 33 6 33ZM11.9825 36.4615C11.9941 36.3092 12 36.1553 12 36C12 35.8447 11.9941 35.6908 11.9825 35.5385C11.7584 32.5927 9.40726 30.2416 6.46154 30.0175C6.30921 30.0059 6.15529 30 6 30C5.84471 30 5.69079 30.0059 5.53846 30.0175C2.59274 30.2416 0.241573 32.5927 0.0174875 35.5385C0.00589981 35.6908 0 35.8447 0 36C0 36.1553 0.00589981 36.3092 0.0174875 36.4615C0.241573 39.4073 2.59274 41.7584 5.53846 41.9825C5.69079 41.9941 5.84471 42 6 42C6.15529 42 6.30921 41.9941 6.46154 41.9825C9.40726 41.7584 11.7584 39.4073 11.9825 36.4615Z" fill="#0FAA97"/>
<path id="Ellipse 191" opacity="0.8" d="M14 36C14 34.8954 14.8954 34 16 34C17.1046 34 18 34.8954 18 36C18 37.1046 17.1046 38 16 38C14.8954 38 14 37.1046 14 36Z" fill="#0FAA97"/>
<path id="Ellipse 192" opacity="0.8" d="M54 36C54 34.8954 54.8954 34 56 34C57.1046 34 58 34.8954 58 36C58 37.1046 57.1046 38 56 38C54.8954 38 54 37.1046 54 36Z" fill="#0FAA97"/>
<path id="Vector" fill-rule="evenodd" clip-rule="evenodd" d="M45.9506 35.0001C45.4816 30.2757 41.7244 26.5185 37 26.0495V20.0308C45.04 20.5266 51.4735 26.9601 51.9693 35.0001H45.9506ZM37 45.9507C41.7244 45.4816 45.4816 41.7245 45.9506 37.0001H51.9693C51.4735 45.0401 45.04 51.4735 37 51.9693V45.9507ZM26.0494 37.0001C26.5185 41.7245 30.2756 45.4816 35 45.9507V51.9693C26.96 51.4735 20.5266 45.0401 20.0308 37.0001H26.0494ZM35 26.0495C30.2756 26.5185 26.5185 30.2757 26.0494 35.0001H20.0308C20.5266 26.9601 26.96 20.5266 35 20.0308V26.0495Z" fill="#3283F5"/>
<path id="Vector_2" fill-rule="evenodd" clip-rule="evenodd" d="M37 31C37 30.4477 36.5523 30 36 30C35.4477 30 35 30.4477 35 31H34.3333C33.4948 31 32.6654 31.2842 32.0326 31.8265C31.3951 32.373 31 33.1502 31 34C31 34.8498 31.3951 35.627 32.0326 36.1735C32.6654 36.7158 33.4948 37 34.3333 37H35V39H33C32.4477 39 32 39.4477 32 40C32 40.5523 32.4477 41 33 41H35C35 41.5523 35.4477 42 36 42C36.5523 42 37 41.5523 37 41H37.6667C38.5052 41 39.3346 40.7158 39.9674 40.1735C40.6049 39.627 41 38.8498 41 38C41 37.1502 40.6049 36.373 39.9674 35.8265C39.3346 35.2842 38.5052 35 37.6667 35H37V33H39C39.5523 33 40 32.5523 40 32C40 31.4477 39.5523 31 39 31H37ZM35 33H34.3333C33.9342 33 33.5766 33.1373 33.3342 33.345C33.0966 33.5487 33 33.7889 33 34C33 34.2111 33.0966 34.4513 33.3342 34.655C33.5766 34.8627 33.9342 35 34.3333 35H35V33ZM37 37V39H37.6667C38.0658 39 38.4234 38.8627 38.6658 38.655C38.9034 38.4513 39 38.2111 39 38C39 37.7889 38.9034 37.5487 38.6658 37.345C38.4234 37.1373 38.0658 37 37.6667 37H37Z" fill="#0FAA97"/>
</g>
<defs>
<clipPath id="clip0_165_7501">
<rect width="72" height="72" fill="white"/>
</clipPath>
</defs>
</svg>
