<svg width="73" height="72" viewBox="0 0 73 72" fill="none" xmlns="http://www.w3.org/2000/svg">
<g id="alltime">
<path id="Vector (Stroke)" fill-rule="evenodd" clip-rule="evenodd" d="M68.5 17.9691L68.5 54.0309L36.502 72L4.5 54.0312L4.5 17.9688L36.502 -1.39868e-06L68.5 17.9691Z" fill="#222733"/>
<path id="Ellipse 203 (Stroke)" fill-rule="evenodd" clip-rule="evenodd" d="M36.5 23C29.3203 23 23.5 28.8203 23.5 36C23.5 42.287 27.9649 47.5356 33.8979 48.7399L33.1021 52.66C25.3417 51.0847 19.5 44.2268 19.5 36C19.5 26.6112 27.1112 19 36.5 19C45.8888 19 53.5 26.6112 53.5 36C53.5 37.9834 53.1595 39.8915 52.5322 41.6665L48.7608 40.3335C49.2389 38.9807 49.5 37.523 49.5 36C49.5 28.8203 43.6797 23 36.5 23Z" fill="#3283F5"/>
<path id="Rectangle 234" d="M34.5 26H38.5V38H34.5V26Z" fill="#3283F5"/>
<path id="Rectangle 235" d="M34.5 38V34H44.5V38H34.5Z" fill="#3283F5"/>
<g id="Group 9">
<path id="Vector" d="M66.3 56.8H63.1V60H59.9V56.8H51.9V54.1486L59.222 44H62.994L56.2045 53.6229H59.9V50.4H63.1V53.6229H66.3V56.8Z" fill="#43CBB1"/>
<path id="Vector_2" d="M50.3 56.8V60H38.2301V57.6L44.3906 51.9101C45.0446 51.2959 45.4857 50.7715 45.7139 50.3371C45.9421 49.8876 46.0561 49.4457 46.0561 49.0112C46.0561 48.382 45.8356 47.9026 45.3945 47.573C44.9686 47.2285 44.3373 47.0562 43.5007 47.0562C42.801 47.0562 42.1698 47.191 41.607 47.4607C41.0441 47.7154 40.5726 48.1049 40.1923 48.6292L37.5 46.9213C38.1236 46.0075 38.9831 45.2959 40.0783 44.7865C41.1734 44.2622 42.4283 44 43.843 44C45.0294 44 46.0638 44.1948 46.946 44.5843C47.8434 44.9588 48.5355 45.4981 49.0223 46.2022C49.5242 46.8914 49.7752 47.7079 49.7752 48.6517C49.7752 49.5056 49.5927 50.3071 49.2276 51.0562C48.8626 51.8052 48.1553 52.6592 47.1057 53.618L43.4323 56.8H50.3Z" fill="#43CBB1"/>
</g>
</g>
</svg>
