<svg width="73" height="72" viewBox="0 0 73 72" fill="none" xmlns="http://www.w3.org/2000/svg">
<g id="zero">
<path id="Vector" d="M68.5 18V54L36.5 72L4.5 54V18L36.5 0L68.5 18Z" fill="#222733"/>
<path id="Vector_2" d="M58 44.2733L46.8194 59L44 56.7267L55.1806 42L58 44.2733Z" fill="#43CBB1"/>
<path id="Vector_3" d="M36.6 46H35.5C32.2 46 29.5 43.3 29.5 40V30C29.5 26.7 32.2 24 35.5 24H37.5C40.8 24 43.5 26.7 43.5 30V37.1C43.8 37.1 44.2 37 44.5 37C45.6 37 46.6 37.2 47.5 37.6V30C47.5 24.5 43 20 37.5 20H35.5C30 20 25.5 24.5 25.5 30V40C25.5 45.5 30 50 35.5 50H37.5C37.7 50 38 50 38.2 50C37.3 48.8 36.8 47.5 36.6 46Z" fill="#3283F5"/>
<path id="Vector_4" d="M44.5 41C42.3 41 40.5 42.8 40.5 45C40.5 47.2 42.3 49 44.5 49C46.7 49 48.5 47.2 48.5 45C48.5 42.8 46.7 41 44.5 41ZM44.5 46.1C43.9 46.1 43.4 45.6 43.4 45C43.4 44.4 43.9 43.9 44.5 43.9C45.1 43.9 45.6 44.4 45.6 45C45.6 45.6 45.1 46.1 44.5 46.1Z" fill="#43CBB1"/>
<path id="Vector_5" d="M57.5 52C55.3 52 53.5 53.8 53.5 56C53.5 58.2 55.3 60 57.5 60C59.7 60 61.5 58.2 61.5 56C61.5 53.8 59.7 52 57.5 52ZM57.5 57.1C56.9 57.1 56.4 56.6 56.4 56C56.4 55.4 56.9 54.9 57.5 54.9C58.1 54.9 58.6 55.4 58.6 56C58.6 56.6 58.1 57.1 57.5 57.1Z" fill="#43CBB1"/>
</g>
</svg>
