<svg width="81" height="80" viewBox="0 0 81 80" fill="none" xmlns="http://www.w3.org/2000/svg">
<g id="relax">
<path id="Vector (Stroke)" fill-rule="evenodd" clip-rule="evenodd" d="M73 21.9691L73 58.0309L41.002 76L9 58.0312L9 21.9688L41.002 4L73 21.9691Z" fill="#3283F5"/>
<path id="Vector" d="M44.5 39H41.5V33H46C46.3978 33 46.7794 33.158 47.0607 33.4393C47.342 33.7206 47.5 34.1022 47.5 34.5C47.5 34.8978 47.658 35.2794 47.9393 35.5607C48.2206 35.842 48.6022 36 49 36C49.3978 36 49.7794 35.842 50.0607 35.5607C50.342 35.2794 50.5 34.8978 50.5 34.5C50.5 33.3065 50.0259 32.1619 49.182 31.318C48.3381 30.4741 47.1935 30 46 30H41.5V27.5C41.5 27.1022 41.342 26.7206 41.0607 26.4393C40.7794 26.158 40.3978 26 40 26C39.6022 26 39.2206 26.158 38.9393 26.4393C38.658 26.7206 38.5 27.1022 38.5 27.5V30H35.5C33.9087 30 32.3826 30.6321 31.2574 31.7574C30.1321 32.8826 29.5 34.4087 29.5 36C29.5 37.5913 30.1321 39.1174 31.2574 40.2426C32.3826 41.3679 33.9087 42 35.5 42H38.5V48H34C33.6022 48 33.2206 47.842 32.9393 47.5607C32.658 47.2794 32.5 46.8978 32.5 46.5C32.5 46.1022 32.342 45.7206 32.0607 45.4393C31.7794 45.158 31.3978 45 31 45C30.6022 45 30.2206 45.158 29.9393 45.4393C29.658 45.7206 29.5 46.1022 29.5 46.5C29.5 47.6935 29.9741 48.8381 30.818 49.682C31.6619 50.5259 32.8065 51 34 51H38.5V53.5C38.5 53.8978 38.658 54.2794 38.9393 54.5607C39.2206 54.842 39.6022 55 40 55C40.3978 55 40.7794 54.842 41.0607 54.5607C41.342 54.2794 41.5 53.8978 41.5 53.5V51H44.5C46.0913 51 47.6174 50.3679 48.7426 49.2426C49.8679 48.1174 50.5 46.5913 50.5 45C50.5 43.4087 49.8679 41.8826 48.7426 40.7574C47.6174 39.6321 46.0913 39 44.5 39ZM38.5 39H35.5C34.7044 39 33.9413 38.6839 33.3787 38.1213C32.8161 37.5587 32.5 36.7956 32.5 36C32.5 35.2044 32.8161 34.4413 33.3787 33.8787C33.9413 33.3161 34.7044 33 35.5 33H38.5V39ZM44.5 48H41.5V42H44.5C45.2956 42 46.0587 42.3161 46.6213 42.8787C47.1839 43.4413 47.5 44.2043 47.5 45C47.5 45.7957 47.1839 46.5587 46.6213 47.1213C46.0587 47.6839 45.2956 48 44.5 48Z" fill="white"/>
<path id="Union" fill-rule="evenodd" clip-rule="evenodd" d="M68.5833 50H65.4167V57.9167H57.5V61.0833H65.4167V69H68.5833V61.0833H76.5V57.9167H68.5833V50Z" fill="#82EBC1"/>
<path id="Union_2" fill-rule="evenodd" clip-rule="evenodd" d="M15.5833 7H12.4167V14.9167H4.5V18.0833H12.4167V26H15.5833V18.0833H23.5V14.9167H15.5833V7Z" fill="#82EBC1"/>
</g>
</svg>
