<svg width="52" height="32" viewBox="0 0 52 32" fill="none" xmlns="http://www.w3.org/2000/svg">
<g id="quote">
<path id="&#226;&#128;&#157; (Stroke)" fill-rule="evenodd" clip-rule="evenodd" d="M10.6214 18.7419C11.0011 19.2112 11.1486 19.8269 11.0226 20.4173C10.2791 23.9025 7.30075 25.2914 5.44937 26.1547C5.38093 26.1867 5.31402 26.2178 5.24883 26.2484C4.18097 26.749 3.48943 27.0893 3.02174 27.492C2.66989 27.795 2.53329 28.051 2.53329 28.5C2.53329 28.9321 2.68989 29.2443 2.96393 29.4778C3.26032 29.7304 3.8332 30 4.79996 30C13.9161 30 22 22.31 22 13.5C22 9.67413 20.8062 6.80785 19.0633 4.91862C17.3223 3.03142 14.9288 2 12.2666 2C8.93217 2 6.36145 3.00125 4.65365 4.50224C2.96092 5.99 2 8.06369 2 10.5C2 14.9189 5.39455 18 9.06662 18C9.67029 18 10.2417 18.2726 10.6214 18.7419ZM8.14134 21.9599C7.20335 23.1234 5.77036 23.7951 4.39996 24.4375C2.39996 25.375 0.533295 26.25 0.533295 28.5C0.533295 30.5 2.13329 32 4.79996 32C14.9333 32 24 23.5 24 13.5C24 5 18.6666 0 12.2666 0C4.79998 0 0 4.5 0 10.5C0 15.2194 3.1415 18.8344 7.06584 19.7654C7.71491 19.9194 8.3854 20 9.06662 20C8.89873 20.787 8.57227 21.4253 8.14134 21.9599Z" fill="white"/>
<path id="&#226;&#128;&#157; (Stroke)_2" fill-rule="evenodd" clip-rule="evenodd" d="M38.6214 18.7419C39.0011 19.2112 39.1486 19.8269 39.0226 20.4173C38.2791 23.9025 35.3007 25.2914 33.4494 26.1547C33.3809 26.1867 33.314 26.2178 33.2488 26.2484C32.181 26.749 31.4894 27.0893 31.0217 27.492C30.6699 27.795 30.5333 28.051 30.5333 28.5C30.5333 28.9321 30.6899 29.2443 30.9639 29.4778C31.2603 29.7304 31.8332 30 32.8 30C41.9161 30 50 22.31 50 13.5C50 9.67413 48.8062 6.80785 47.0633 4.91862C45.3223 3.03142 42.9288 2 40.2666 2C36.9322 2 34.3614 3.00125 32.6537 4.50224C30.9609 5.99 30 8.06369 30 10.5C30 14.9189 33.3945 18 37.0666 18C37.6703 18 38.2417 18.2726 38.6214 18.7419ZM36.1413 21.9599C35.2034 23.1234 33.7704 23.7951 32.4 24.4375C30.4 25.375 28.5333 26.25 28.5333 28.5C28.5333 30.5 30.1333 32 32.8 32C42.9333 32 52 23.5 52 13.5C52 5 46.6666 0 40.2666 0C32.8 0 28 4.5 28 10.5C28 15.2194 31.1415 18.8344 35.0658 19.7654C35.7149 19.9194 36.3854 20 37.0666 20C36.8987 20.787 36.5723 21.4253 36.1413 21.9599Z" fill="white"/>
</g>
</svg>
