<svg width="48" height="48" viewBox="0 0 48 48" fill="none" xmlns="http://www.w3.org/2000/svg">
<g id="spurt 5" clip-path="url(#clip0_123_10176)">
<circle id="Ellipse 64" cx="24" cy="24" r="24" fill="#15181D"/>
<path id="Vector" d="M12.093 28.6042L14.5614 32.9167C14.726 33.1875 15.0345 33.2917 15.3225 33.1875L18.3875 31.9375C19.0252 32.4375 19.704 32.8542 20.4651 33.1667L20.9177 36.4792C20.9794 36.7708 21.2262 37 21.5348 37H26.4717C26.7802 37 27.0271 36.7708 27.0888 36.4583L27.5413 33.1458C28.2818 32.8333 28.9812 32.4167 29.6189 31.9167L32.6839 33.1667C32.9719 33.2708 33.2804 33.1667 33.445 32.8958L35.9134 28.5833C36.078 28.3125 35.9957 27.9792 35.7695 27.7708L33.157 25.7083C33.2187 25.3125 33.2393 24.8958 33.2393 24.5C33.2393 24.0833 33.1982 23.6875 33.157 23.2708L35.7695 21.2083C35.9957 21.0208 36.078 20.6667 35.9134 20.3958L33.445 16.0833C33.2804 15.8125 32.9719 15.7083 32.6839 15.8125L29.6189 17.0625C28.9812 16.5625 28.3024 16.1458 27.5413 15.8333L27.0888 12.5208C27.0271 12.2292 26.7802 12 26.4717 12H21.5348C21.2262 12 20.9794 12.2292 20.9177 12.5417L20.4651 15.8542C19.7246 16.1667 19.0046 16.5625 18.3875 17.0625L15.3225 15.8125C15.0345 15.7083 14.726 15.8125 14.5614 16.0833L12.093 20.3958C11.9284 20.6667 12.0107 21 12.237 21.2083L14.8494 23.2708C14.7877 23.6875 14.7465 24.0833 14.7465 24.5C14.7465 24.9167 14.7877 25.3125 14.8288 25.7292L12.2164 27.7917C11.9901 28 11.9284 28.3333 12.093 28.6042ZM24.0032 19C27.0888 19 29.5207 21.5 29.5207 24.5C29.5207 27.5 26.9968 30 24 30C21.0032 30 18.4857 28 18.4857 24.5C18.4857 21 20.9177 19 24.0032 19Z" fill="#82EBC1"/>
</g>
<defs>
<clipPath id="clip0_123_10176">
<rect width="48" height="48" fill="white"/>
</clipPath>
</defs>
</svg>
