<svg width="48" height="48" viewBox="0 0 48 48" fill="none" xmlns="http://www.w3.org/2000/svg">
<g id="spurt 4" clip-path="url(#clip0_123_10182)">
<circle id="Ellipse 64" cx="24" cy="24" r="24" fill="#15181D"/>
<path id="Subtract" fill-rule="evenodd" clip-rule="evenodd" d="M11 24.4996C11 17.5508 16.2501 11.8282 23 11.082V15.6241C18.7434 16.3382 15.5 20.0401 15.5 24.4996C15.5 28.9591 18.7434 32.6611 23 33.3752V37.9172C16.2501 37.1711 11 31.4485 11 24.4996ZM33.3756 25.9997C32.7433 29.7684 29.7688 32.7429 26 33.3752V37.9172C32.2574 37.2255 37.2259 32.2571 37.9176 25.9997H33.3756ZM33.3756 22.9997C32.7433 19.2309 29.7688 16.2564 26 15.6241V11.082C32.2574 11.7738 37.2259 16.7422 37.9176 22.9997H33.3756Z" fill="#82EBC1"/>
</g>
<defs>
<clipPath id="clip0_123_10182">
<rect width="48" height="48" fill="white"/>
</clipPath>
</defs>
</svg>
