<svg width="48" height="48" viewBox="0 0 48 48" fill="none" xmlns="http://www.w3.org/2000/svg">
<g clip-path="url(#clip0_621_5443)">
<path opacity="0.3" d="M44 0H12C11.4477 0 11 0.447715 11 1V33C11 33.5523 11.4477 34 12 34H44C44.5523 34 45 33.5523 45 33V1C45 0.447715 44.5523 0 44 0Z" fill="#008282"/>
<g opacity="0.5">
<path fill-rule="evenodd" clip-rule="evenodd" d="M24 15V25H34V15H24ZM23 13C22.4477 13 22 13.4477 22 14V26C22 26.5523 22.4477 27 23 27H35C35.5523 27 36 26.5523 36 26V14C36 13.4477 35.5523 13 35 13H23Z" fill="#15181D"/>
<path fill-rule="evenodd" clip-rule="evenodd" d="M7 15V25H17V15H7ZM6 13C5.44772 13 5 13.4477 5 14V26C5 26.5523 5.44772 27 6 27H18C18.5523 27 19 26.5523 19 26V14C19 13.4477 18.5523 13 18 13H6Z" fill="#15181D"/>
<path fill-rule="evenodd" clip-rule="evenodd" d="M24 32V42H34V32H24ZM23 30C22.4477 30 22 30.4477 22 31V43C22 43.5523 22.4477 44 23 44H35C35.5523 44 36 43.5523 36 43V31C36 30.4477 35.5523 30 35 30H23Z" fill="#15181D"/>
<path fill-rule="evenodd" clip-rule="evenodd" d="M7 32V42H17V32H7ZM6 30C5.44772 30 5 30.4477 5 31V43C5 43.5523 5.44772 44 6 44H18C18.5523 44 19 43.5523 19 43V31C19 30.4477 18.5523 30 18 30H6Z" fill="#15181D"/>
</g>
<path fill-rule="evenodd" clip-rule="evenodd" d="M22 13V23H32V13H22ZM21 11C20.4477 11 20 11.4477 20 12V24C20 24.5523 20.4477 25 21 25H33C33.5523 25 34 24.5523 34 24V12C34 11.4477 33.5523 11 33 11H21Z" fill="#3283F5"/>
<path fill-rule="evenodd" clip-rule="evenodd" d="M5 13V23H15V13H5ZM4 11C3.44772 11 3 11.4477 3 12V24C3 24.5523 3.44772 25 4 25H16C16.5523 25 17 24.5523 17 24V12C17 11.4477 16.5523 11 16 11H4Z" fill="#3283F5"/>
<path d="M20 29C20 28.4477 20.4477 28 21 28H33C33.5523 28 34 28.4477 34 29V41C34 41.5523 33.5523 42 33 42H21C20.4477 42 20 41.5523 20 41V29Z" fill="#3283F5" fill-opacity="0.5"/>
<path fill-rule="evenodd" clip-rule="evenodd" d="M22 30V40H32V30H22ZM21 28C20.4477 28 20 28.4477 20 29V41C20 41.5523 20.4477 42 21 42H33C33.5523 42 34 41.5523 34 41V29C34 28.4477 33.5523 28 33 28H21Z" fill="#3283F5"/>
<path fill-rule="evenodd" clip-rule="evenodd" d="M5 30V40H15V30H5ZM4 28C3.44772 28 3 28.4477 3 29V41C3 41.5523 3.44772 42 4 42H16C16.5523 42 17 41.5523 17 41V29C17 28.4477 16.5523 28 16 28H4Z" fill="#3283F5"/>
<path d="M46.3659 16.6599C46.2027 16.4774 46.1127 16.2429 46.1127 16C46.1127 15.7571 46.2027 15.5226 46.3659 15.3401L47.6688 13.9003C47.8123 13.743 47.9015 13.545 47.9234 13.3349C47.9454 13.1247 47.899 12.9131 47.7909 12.7304L45.7552 9.27092C45.6482 9.08846 45.4853 8.94384 45.2898 8.85766C45.0942 8.77148 44.8759 8.74814 44.6661 8.79098L42.7525 9.17093C42.509 9.22035 42.2555 9.18052 42.0398 9.05894C41.8242 8.93737 41.6613 8.74247 41.5819 8.51102L40.961 6.68127C40.8927 6.48267 40.7626 6.31018 40.5891 6.18818C40.4156 6.06617 40.2074 6.00082 39.994 6.00136H35.9225C35.7006 5.98998 35.4809 6.05028 35.2971 6.17305C35.1133 6.29582 34.9755 6.47431 34.9047 6.68127L34.3347 8.51102C34.2553 8.74247 34.0924 8.93737 33.8767 9.05894C33.6611 9.18052 33.4076 9.22035 33.1641 9.17093L31.1996 8.79098C31.0007 8.76336 30.7979 8.7942 30.6167 8.87961C30.4356 8.96501 30.2843 9.10117 30.1818 9.27092L28.146 12.7304C28.0352 12.9111 27.9854 13.1215 28.0037 13.3316C28.022 13.5417 28.1074 13.7407 28.2478 13.9003L29.5405 15.3401C29.7037 15.5226 29.7937 15.7571 29.7937 16C29.7937 16.2429 29.7037 16.4774 29.5405 16.6599L28.2478 18.0997C28.1074 18.2593 28.022 18.4583 28.0037 18.6684C27.9854 18.8785 28.0352 19.0889 28.146 19.2696L30.1818 22.7291C30.2887 22.9115 30.4516 23.0562 30.6472 23.1423C30.8427 23.2285 31.061 23.2519 31.2709 23.209L33.1845 22.8291C33.428 22.7796 33.6815 22.8195 33.8971 22.9411C34.1127 23.0626 34.2756 23.2575 34.355 23.489L34.9759 25.3187C35.0467 25.5257 35.1846 25.7042 35.3684 25.827C35.5522 25.9497 35.7718 26.01 35.9938 25.9986H40.0653C40.2787 25.9992 40.4868 25.9338 40.6604 25.8118C40.8339 25.6898 40.964 25.5173 41.0323 25.3187L41.6532 23.489C41.7325 23.2575 41.8954 23.0626 42.1111 22.9411C42.3267 22.8195 42.5802 22.7796 42.8237 22.8291L44.7373 23.209C44.9472 23.2519 45.1654 23.2285 45.361 23.1423C45.5566 23.0562 45.7195 22.9115 45.8264 22.7291L47.8622 19.2696C47.9702 19.0869 48.0166 18.8753 47.9947 18.6651C47.9727 18.455 47.8836 18.257 47.74 18.0997L46.3659 16.6599Z" fill="#15181D" fill-opacity="0.4"/>
<path fill-rule="evenodd" clip-rule="evenodd" d="M44.8967 18.0173L44.8751 17.9932C44.3869 17.4472 44.1127 16.7391 44.1127 16C44.1127 15.2609 44.3869 14.5528 44.8751 14.0068L44.8829 13.9981L45.6909 13.1053L44.3849 10.8858L43.1503 11.131L43.145 11.132C42.4338 11.2751 41.6923 11.1589 41.0576 10.8012C40.4206 10.442 39.9306 9.86092 39.6901 9.15994L39.688 9.1537L39.2969 8.00136H36.5882L36.2357 9.13303L36.2265 9.15994C35.986 9.86092 35.496 10.442 34.8589 10.8012C34.2261 11.1579 33.4871 11.2744 32.7777 11.1333L31.5466 10.8951L30.2364 13.1215L31.0313 14.0068C31.5195 14.5528 31.7937 15.2609 31.7937 16C31.7937 16.7391 31.5195 17.4472 31.0313 17.9932L31.0287 17.9961L30.2364 18.8785L31.552 21.1142L32.7918 20.868C33.5031 20.7249 34.2446 20.8411 34.8793 21.1988C35.5163 21.558 36.0064 22.1391 36.2468 22.8401L36.249 22.8463L36.64 23.9986H39.3682L39.7614 22.8401C40.0018 22.1391 40.4919 21.558 41.1289 21.1988C41.7635 20.8411 42.5051 20.7249 43.2164 20.868L43.2215 20.869L44.4562 21.1142L45.7515 18.9129L44.8967 18.0173ZM47.74 18.0997C47.8836 18.257 47.9727 18.455 47.9947 18.6651C48.0166 18.8753 47.9702 19.0869 47.8622 19.2696L45.8264 22.7291C45.7195 22.9115 45.5566 23.0562 45.361 23.1423C45.1654 23.2285 44.9472 23.2519 44.7373 23.209L42.8237 22.8291C42.5802 22.7796 42.3267 22.8195 42.1111 22.9411C41.8954 23.0626 41.7325 23.2575 41.6532 23.489L41.0323 25.3187C40.964 25.5173 40.8339 25.6898 40.6604 25.8118C40.4868 25.9338 40.2787 25.9992 40.0653 25.9986H35.9938C35.7718 26.01 35.5522 25.9497 35.3684 25.827C35.1846 25.7042 35.0467 25.5257 34.9759 25.3187L34.355 23.489C34.2756 23.2575 34.1127 23.0626 33.8971 22.9411C33.6815 22.8195 33.428 22.7796 33.1845 22.8291L31.2709 23.209C31.061 23.2519 30.8427 23.2285 30.6472 23.1423C30.4516 23.0562 30.2887 22.9115 30.1818 22.7291L28.146 19.2696C28.0352 19.0889 27.9854 18.8785 28.0037 18.6684C28.022 18.4583 28.1074 18.2593 28.2478 18.0997L29.5405 16.6599C29.7037 16.4774 29.7937 16.2429 29.7937 16C29.7937 15.7571 29.7037 15.5226 29.5405 15.3401L28.2478 13.9003C28.1074 13.7407 28.022 13.5417 28.0037 13.3316C27.9854 13.1215 28.0352 12.9111 28.146 12.7304L30.1818 9.27092C30.2843 9.10117 30.4356 8.96501 30.6167 8.87961C30.7979 8.7942 31.0007 8.76336 31.1996 8.79098L33.1641 9.17093C33.4076 9.22035 33.6611 9.18052 33.8767 9.05894C34.0924 8.93737 34.2553 8.74247 34.3347 8.51102L34.9047 6.68127C34.9755 6.47431 35.1133 6.29582 35.2971 6.17305C35.4809 6.05028 35.7006 5.98998 35.9225 6.00136H39.994C40.2074 6.00082 40.4156 6.06617 40.5891 6.18818C40.7626 6.31018 40.8927 6.48267 40.961 6.68127L41.5819 8.51102C41.6613 8.74247 41.8242 8.93737 42.0398 9.05894C42.2555 9.18052 42.509 9.22035 42.7525 9.17093L44.6661 8.79098C44.8759 8.74814 45.0942 8.77148 45.2898 8.85766C45.4853 8.94384 45.6482 9.08846 45.7552 9.27092L47.7909 12.7304C47.899 12.9131 47.9454 13.1247 47.9234 13.3349C47.9015 13.545 47.8123 13.743 47.6688 13.9003L46.3659 15.3401C46.2027 15.5226 46.1127 15.7571 46.1127 16C46.1127 16.2429 46.2027 16.4774 46.3659 16.6599L47.74 18.0997ZM39.9991 8.00135L39.994 8.00137L39.9991 8.00135Z" fill="#82EBC1"/>
<path d="M38 19C39.6569 19 41 17.6569 41 16C41 14.3431 39.6569 13 38 13C36.3431 13 35 14.3431 35 16C35 17.6569 36.3431 19 38 19Z" stroke="#82EBC1" stroke-width="2"/>
</g>
<defs>
<clipPath id="clip0_621_5443">
<rect width="48" height="48" fill="white"/>
</clipPath>
</defs>
</svg>
