<svg width="48" height="48" viewBox="0 0 48 48" fill="none" xmlns="http://www.w3.org/2000/svg">
<path opacity="0.15" d="M43 0H13C11.8954 0 11 0.89543 11 2V32C11 33.1046 11.8954 34 13 34H43C44.1046 34 45 33.1046 45 32V2C45 0.89543 44.1046 0 43 0Z" fill="#00FFFF"/>
<path opacity="0.5" fill-rule="evenodd" clip-rule="evenodd" d="M31 8H40C40.5523 8 41 8.44772 41 9V18C41 18.5523 40.5523 19 40 19C39.4477 19 39 18.5523 39 18V11.4142L27.7071 22.7071C27.5101 22.9041 27.24 23.01 26.9616 22.9993C26.6833 22.9886 26.422 22.8623 26.2407 22.6508L20.9435 16.4707L10.7071 26.7071C10.3166 27.0976 9.68342 27.0976 9.29289 26.7071C8.90237 26.3166 8.90237 25.6834 9.29289 25.2929L20.2929 14.2929C20.4899 14.0959 20.76 13.99 21.0384 14.0007C21.3167 14.0114 21.578 14.1377 21.7593 14.3492L27.0565 20.5293L37.5858 10H31C30.4477 10 30 9.55228 30 9C30 8.44772 30.4477 8 31 8Z" fill="#15181D"/>
<path fill-rule="evenodd" clip-rule="evenodd" d="M30 6H39C39.5523 6 40 6.44772 40 7V16C40 16.5523 39.5523 17 39 17C38.4477 17 38 16.5523 38 16V9.41421L26.7071 20.7071C26.5101 20.9041 26.24 21.01 25.9616 20.9993C25.6833 20.9886 25.422 20.8623 25.2407 20.6508L19.9435 14.4707L9.70711 24.7071C9.31658 25.0976 8.68342 25.0976 8.29289 24.7071C7.90237 24.3166 7.90237 23.6834 8.29289 23.2929L19.2929 12.2929C19.4899 12.0959 19.76 11.99 20.0384 12.0007C20.3167 12.0114 20.578 12.1377 20.7593 12.3492L26.0565 18.5293L36.5858 8H30C29.4477 8 29 7.55228 29 7C29 6.44772 29.4477 6 30 6Z" fill="#3283F5"/>
<path fill-rule="evenodd" clip-rule="evenodd" d="M5 43C5 43.5523 5.44772 44 6 44H11H15H19H23H27H31H35H39H44C44.5523 44 45 43.5523 45 43C45 42.4477 44.5523 42 44 42H40V24C40 23.4477 39.5523 23 39 23H35C34.4477 23 34 23.4477 34 24V42H32V32C32 31.4477 31.5523 31 31 31H27C26.4477 31 26 31.4477 26 32V42H24V29C24 28.4477 23.5523 28 23 28H19C18.4477 28 18 28.4477 18 29V42H16V37C16 36.4477 15.5523 36 15 36H11C10.4477 36 10 36.4477 10 37V42H7V8C7 7.44772 6.55228 7 6 7C5.44772 7 5 7.44772 5 8V43ZM36 42V25H38V42H36ZM14 42H12V38H14V42ZM22 42H20V30H22V42ZM28 33V42H30V33H28Z" fill="#15181D"/>
<path fill-rule="evenodd" clip-rule="evenodd" d="M3 41C3 41.5523 3.44772 42 4 42H9H13H17H21H25H29H33H37H42C42.5523 42 43 41.5523 43 41C43 40.4477 42.5523 40 42 40H38V22C38 21.4477 37.5523 21 37 21H33C32.4477 21 32 21.4477 32 22V40H30V30C30 29.4477 29.5523 29 29 29H25C24.4477 29 24 29.4477 24 30V40H22V27C22 26.4477 21.5523 26 21 26H17C16.4477 26 16 26.4477 16 27V40H14V35C14 34.4477 13.5523 34 13 34H9C8.44772 34 8 34.4477 8 35V40H5V6C5 5.44772 4.55228 5 4 5C3.44772 5 3 5.44772 3 6V41ZM34 40V23H36V40H34ZM12 40H10V36H12V40ZM20 40H18V28H20V40ZM26 31V40H28V31H26Z" fill="#3283F5"/>
<path d="M1 23L10 9L19 23H1Z" fill="#15181D" fill-opacity="0.4"/>
<path fill-rule="evenodd" clip-rule="evenodd" d="M10 8C10.3403 8 10.6572 8.17302 10.8412 8.45924L19.8412 22.4592C20.039 22.767 20.053 23.1581 19.8777 23.4792C19.7024 23.8003 19.3658 24 19 24H1C0.634194 24 0.297579 23.8003 0.122289 23.4792C-0.0530018 23.1581 -0.0389906 22.767 0.158822 22.4592L9.15882 8.45924C9.34282 8.17302 9.65974 8 10 8ZM2.83167 22H17.1683L10 10.8493L2.83167 22Z" fill="#82EBC1"/>
<path opacity="0.5" d="M34 23H36V40H34V23Z" fill="#3283F5"/>
</svg>
