<svg width="48" height="48" viewBox="0 0 48 48" fill="none" xmlns="http://www.w3.org/2000/svg">
<g id="strategy-icon">
<path id="Vector" opacity="0.15" d="M43 0H13C11.8954 0 11 0.89543 11 2V32C11 33.1046 11.8954 34 13 34H43C44.1046 34 45 33.1046 45 32V2C45 0.89543 44.1046 0 43 0Z" fill="#00FFFF"/>
<path id="Vector_2" opacity="0.5" fill-rule="evenodd" clip-rule="evenodd" d="M6 12V26H12V20H6.01465V18H12V12H6ZM6 34V28H12V34H6ZM6 36V42H12V36H6ZM14 36V42H20V36H14ZM22 36V42H28V36H22ZM28 34H22V28H28V34ZM30 36H35.9854V34H30V28H36V42H30V36ZM20 34H14V28H20V34ZM22 26H28V20H22V26ZM30 26H36V20H30V26ZM14 26H20V20H14V26ZM20 18H14V12H20V18ZM28 18H22V12H28V18ZM36 18H30V12H36V18ZM5 10C4.44772 10 4 10.4477 4 11V43C4 43.5523 4.44772 44 5 44H37C37.5523 44 38 43.5523 38 43V11C38 10.4477 37.5523 10 37 10H5Z" fill="#15181D"/>
<path id="Vector_3" fill-rule="evenodd" clip-rule="evenodd" d="M4 10V24H10V18H4.01465V16H10V10H4ZM4 32V26H10V32H4ZM4 34V40H10V34H4ZM12 34V40H18V34H12ZM20 34V40H26V34H20ZM26 32H20V26H26V32ZM28 34H33.9854V32H28V26H34V40H28V34ZM18 32H12V26H18V32ZM20 24H26V18H20V24ZM28 24H34V18H28V24ZM12 24H18V18H12V24ZM18 16H12V10H18V16ZM26 16H20V10H26V16ZM34 16H28V10H34V16ZM3 8C2.44772 8 2 8.44772 2 9V41C2 41.5523 2.44772 42 3 42H35C35.5523 42 36 41.5523 36 41V9C36 8.44772 35.5523 8 35 8H3Z" fill="#3283F5"/>
<path id="Vector_4" d="M48 15C48 19.9706 43.9706 24 39 24C34.0294 24 30 19.9706 30 15C30 10.0294 34.0294 6 39 6C43.9706 6 48 10.0294 48 15Z" fill="#15181D" fill-opacity="0.4"/>
<path id="Vector_5" fill-rule="evenodd" clip-rule="evenodd" d="M39 22C42.866 22 46 18.866 46 15C46 11.134 42.866 8 39 8C35.134 8 32 11.134 32 15C32 18.866 35.134 22 39 22ZM39 24C43.9706 24 48 19.9706 48 15C48 10.0294 43.9706 6 39 6C34.0294 6 30 10.0294 30 15C30 19.9706 34.0294 24 39 24Z" fill="#82EBC1"/>
<path id="Vector_6" opacity="0.5" d="M34 34H28V40H34V34Z" fill="#3283F5"/>
</g>
</svg>
