<svg width="48" height="48" viewBox="0 0 48 48" fill="none" xmlns="http://www.w3.org/2000/svg">
<g id="strategy-icon">
<path id="Vector" opacity="0.15" d="M43 0H13C11.8954 0 11 0.89543 11 2V32C11 33.1046 11.8954 34 13 34H43C44.1046 34 45 33.1046 45 32V2C45 0.89543 44.1046 0 43 0Z" fill="#00FFFF"/>
<path id="Vector_2" opacity="0.5" fill-rule="evenodd" clip-rule="evenodd" d="M36 42V14H40V42H36ZM34 13C34 12.4477 34.4477 12 35 12H41C41.5523 12 42 12.4477 42 13V43C42 43.5523 41.5523 44 41 44H35C34.4477 44 34 43.5523 34 43V13ZM26 24V42H30V24H26ZM25 22C24.4477 22 24 22.4477 24 23V43C24 43.5523 24.4477 44 25 44H31C31.5523 44 32 43.5523 32 43V23C32 22.4477 31.5523 22 31 22H25ZM16 42V32H20V42H16ZM14 31C14 30.4477 14.4477 30 15 30H21C21.5523 30 22 30.4477 22 31V43C22 43.5523 21.5523 44 21 44H15C14.4477 44 14 43.5523 14 43V31ZM6 42V40H10V42H6ZM4 39C4 38.4477 4.44772 38 5 38H11C11.5523 38 12 38.4477 12 39V43C12 43.5523 11.5523 44 11 44H5C4.44772 44 4 43.5523 4 43V39Z" fill="#15181D"/>
<path id="Vector_3" fill-rule="evenodd" clip-rule="evenodd" d="M34 40V12H38V40H34ZM32 11C32 10.4477 32.4477 10 33 10H39C39.5523 10 40 10.4477 40 11V41C40 41.5523 39.5523 42 39 42H33C32.4477 42 32 41.5523 32 41V11ZM24 22V40H28V22H24ZM23 20C22.4477 20 22 20.4477 22 21V41C22 41.5523 22.4477 42 23 42H29C29.5523 42 30 41.5523 30 41V21C30 20.4477 29.5523 20 29 20H23ZM14 40V30H18V40H14ZM12 29C12 28.4477 12.4477 28 13 28H19C19.5523 28 20 28.4477 20 29V41C20 41.5523 19.5523 42 19 42H13C12.4477 42 12 41.5523 12 41V29ZM4 40V38H8V40H4ZM2 37C2 36.4477 2.44772 36 3 36H9C9.55228 36 10 36.4477 10 37V41C10 41.5523 9.55228 42 9 42H3C2.44772 42 2 41.5523 2 41V37Z" fill="#3283F5"/>
<path id="Vector_4" opacity="0.5" d="M39 10H33C32.4477 10 32 10.4477 32 11V41C32 41.5523 32.4477 42 33 42H39C39.5523 42 40 41.5523 40 41V11C40 10.4477 39.5523 10 39 10Z" fill="#3283F5"/>
<path id="Vector_5" d="M10 14H8V10H11C11.2652 10 11.5196 10.1054 11.7071 10.2929C11.8946 10.4804 12 10.7348 12 11C12 11.2652 12.1054 11.5196 12.2929 11.7071C12.4804 11.8946 12.7348 12 13 12C13.2652 12 13.5196 11.8946 13.7071 11.7071C13.8946 11.5196 14 11.2652 14 11C14 10.2044 13.6839 9.44129 13.1213 8.87868C12.5587 8.31607 11.7956 8 11 8H8V6C8 5.73478 7.89464 5.48043 7.70711 5.29289C7.51957 5.10536 7.26522 5 7 5C6.73478 5 6.48043 5.10536 6.29289 5.29289C6.10536 5.48043 6 5.73478 6 6V8H4C2.93913 8 1.92172 8.42143 1.17157 9.17157C0.421427 9.92172 0 10.9391 0 12C0 13.0609 0.421427 14.0783 1.17157 14.8284C1.92172 15.5786 2.93913 16 4 16H6V20H3C2.73478 20 2.48043 19.8946 2.29289 19.7071C2.10536 19.5196 2 19.2652 2 19C2 18.7348 1.89464 18.4804 1.70711 18.2929C1.51957 18.1054 1.26522 18 1 18C0.734784 18 0.48043 18.1054 0.292893 18.2929C0.105357 18.4804 0 18.7348 0 19C0 19.7956 0.316071 20.5587 0.87868 21.1213C1.44129 21.6839 2.20435 22 3 22H6V24C6 24.2652 6.10536 24.5196 6.29289 24.7071C6.48043 24.8946 6.73478 25 7 25C7.26522 25 7.51957 24.8946 7.70711 24.7071C7.89464 24.5196 8 24.2652 8 24V22H10C11.0609 22 12.0783 21.5786 12.8284 20.8284C13.5786 20.0783 14 19.0609 14 18C14 16.9391 13.5786 15.9217 12.8284 15.1716C12.0783 14.4214 11.0609 14 10 14ZM6 14H4C3.46957 14 2.96086 13.7893 2.58579 13.4142C2.21071 13.0391 2 12.5304 2 12C2 11.4696 2.21071 10.9609 2.58579 10.5858C2.96086 10.2107 3.46957 10 4 10H6V14ZM10 20H8V16H10C10.5304 16 11.0391 16.2107 11.4142 16.5858C11.7893 16.9609 12 17.4696 12 18C12 18.5304 11.7893 19.0391 11.4142 19.4142C11.0391 19.7893 10.5304 20 10 20Z" fill="#43CBB1"/>
</g>
</svg>
