<svg width="64" height="64" viewBox="0 0 64 64" fill="none" xmlns="http://www.w3.org/2000/svg">
<g id="ui">
<path id="Vector" opacity="0.15" d="M42 44C54.1503 44 64 34.1503 64 22C64 9.84974 54.1503 0 42 0C29.8497 0 20 9.84974 20 22C20 34.1503 29.8497 44 42 44Z" fill="#00FFFF"/>
<path id="Vector_2" opacity="0.5" fill-rule="evenodd" clip-rule="evenodd" d="M5 18C3.34315 18 2 19.3431 2 21V27V30C2 30.5523 2.44772 31 3 31C3.55228 31 4 30.5523 4 30V28H39C39.5523 28 40 27.5523 40 27C40 26.4477 39.5523 26 39 26H4V21C4 20.4477 4.44772 20 5 20H47C47.5523 20 48 20.4477 48 21V25C48 25.5523 48.4477 26 49 26C49.5523 26 50 25.5523 50 25V21C50 19.3431 48.6569 18 47 18H5ZM4 35C4 34.4477 3.55228 34 3 34C2.44772 34 2 34.4477 2 35V57C2 58.6569 3.34314 60 5 60H47C48.6569 60 50 58.6569 50 57V54C50 53.4477 49.5523 53 49 53C48.4477 53 48 53.4477 48 54V57C48 57.5523 47.5523 58 47 58H5C4.44772 58 4 57.5523 4 57V35Z" fill="#15181D"/>
<path id="Vector_3" d="M6 31C6 30.4477 6.44772 30 7 30H41C41.5523 30 42 30.4477 42 31V41C42 41.5523 41.5523 42 41 42H7C6.44772 42 6 41.5523 6 41V31Z" fill="#3283F5" fill-opacity="0.7"/>
<path id="Vector_4" d="M6 47C6 46.4477 6.44772 46 7 46H41C41.5523 46 42 46.4477 42 47V57C42 57.5523 41.5523 58 41 58H7C6.44772 58 6 57.5523 6 57V47Z" fill="#3283F5" fill-opacity="0.7"/>
<path id="Vector_5" d="M4 21C4 20.4477 4.44772 20 5 20H7C7.55228 20 8 20.4477 8 21C8 21.5523 7.55228 22 7 22H5C4.44772 22 4 21.5523 4 21Z" fill="#3283F5"/>
<path id="Vector_6" d="M9 21C9 20.4477 9.44772 20 10 20H12C12.5523 20 13 20.4477 13 21C13 21.5523 12.5523 22 12 22H10C9.44772 22 9 21.5523 9 21Z" fill="#3283F5"/>
<path id="Vector_7" fill-rule="evenodd" clip-rule="evenodd" d="M3 16C1.34315 16 0 17.3431 0 19V25V28C0 28.5523 0.447715 29 1 29C1.55228 29 2 28.5523 2 28V26H37C37.5523 26 38 25.5523 38 25C38 24.4477 37.5523 24 37 24H2V19C2 18.4477 2.44772 18 3 18H45C45.5523 18 46 18.4477 46 19V23C46 23.5523 46.4477 24 47 24C47.5523 24 48 23.5523 48 23V19C48 17.3431 46.6569 16 45 16H3ZM2 33C2 32.4477 1.55228 32 1 32C0.447715 32 0 32.4477 0 33V55C0 56.6569 1.34314 58 3 58H7H41H45C46.6569 58 48 56.6569 48 55V52C48 51.4477 47.5523 51 47 51C46.4477 51 46 51.4477 46 52V55C46 55.5523 45.5523 56 45 56H42V47C42 46.4477 41.5523 46 41 46H7C6.44772 46 6 46.4477 6 47V56H3C2.44772 56 2 55.5523 2 55V33ZM40 48V56H8V48H40ZM8 40V32H40V40H8ZM6 31C6 30.4477 6.44772 30 7 30H41C41.5523 30 42 30.4477 42 31V41C42 41.5523 41.5523 42 41 42H7C6.44772 42 6 41.5523 6 41V31Z" fill="#3283F5"/>
<path id="Vector_8" fill-rule="evenodd" clip-rule="evenodd" d="M54 31.75L44.0007 26L34 31.75V43.25L44.0007 49L54 43.25V31.75Z" fill="#15181D" fill-opacity="0.4"/>
<path id="Vector_9" fill-rule="evenodd" clip-rule="evenodd" d="M44.0006 30.6141L38 34.0642V40.9358L44.0006 44.3859L50 40.936V34.064L44.0006 30.6141ZM54 31.75L44.0007 26L34 31.75V43.25L44.0007 49L54 43.25V31.75Z" fill="#82EBC1"/>
</g>
</svg>
