<svg width="40" height="40" viewBox="0 0 40 40" fill="none" xmlns="http://www.w3.org/2000/svg">
<rect width="40" height="40" rx="20" fill="#7360F2"/>
<path d="M28.7102 11.0665C28.1207 10.522 25.7382 8.79057 20.4314 8.76705C20.4314 8.76705 14.1733 8.38926 11.1226 11.1906C9.42434 12.8909 8.82694 15.379 8.76393 18.4636C8.70091 21.5482 8.61938 27.329 14.1857 28.8965H14.1911L14.1875 31.2883C14.1875 31.2883 14.1519 32.2566 14.7888 32.454C15.5593 32.6935 16.0114 31.9576 16.7469 31.1642C17.1507 30.7287 17.7082 30.089 18.1283 29.6C21.9352 29.9207 24.8631 29.1876 25.1956 29.0793C25.9643 28.8298 30.3138 28.272 31.0212 22.4916C31.7514 16.5337 30.668 12.7651 28.7102 11.0665ZM29.3554 22.0643C28.7583 26.8906 25.2305 27.1939 24.5801 27.4028C24.3034 27.4919 21.7319 28.1323 18.4982 27.921C18.4982 27.921 16.0887 30.831 15.336 31.5876C15.2186 31.7059 15.0804 31.7537 14.9882 31.7302C14.8586 31.6985 14.823 31.5449 14.8244 31.3203C14.8266 30.9996 14.8451 27.3458 14.8451 27.3458C10.1364 26.0371 10.4109 21.117 10.4643 18.5406C10.5177 15.9642 11.0012 13.8536 12.4373 12.434C15.0178 10.0943 20.3335 10.4439 20.3335 10.4439C24.8225 10.4635 26.9736 11.8168 27.4724 12.2701C29.1286 13.6896 29.9723 17.0865 29.3554 22.0629V22.0643Z" fill="white"/>
<path fill-rule="evenodd" clip-rule="evenodd" d="M20.4331 16.3917C20.4424 16.217 20.5956 16.0828 20.7751 16.0919C21.4467 16.126 22.0055 16.3238 22.4035 16.7243C22.7999 17.1232 22.9942 17.6805 23.0284 18.3499C23.0373 18.5246 22.8989 18.6733 22.7194 18.6819C22.5399 18.6906 22.3871 18.556 22.3782 18.3813C22.349 17.8083 22.1875 17.4183 21.9355 17.1647C21.6851 16.9128 21.303 16.7531 20.7412 16.7245C20.5616 16.7154 20.4237 16.5664 20.4331 16.3917Z" fill="white"/>
<path fill-rule="evenodd" clip-rule="evenodd" d="M20.0008 14.6525C20.0127 14.4811 20.1545 14.3523 20.3174 14.3649C21.5596 14.4605 22.5594 14.9069 23.2877 15.7432L23.2878 15.7433C24.0081 16.5713 24.3505 17.6014 24.3257 18.8096C24.3221 18.9814 24.1869 19.1177 24.0235 19.1139C23.8602 19.1102 23.7307 18.9679 23.7342 18.7961C23.7561 17.7306 23.4583 16.8611 22.8513 16.1635C22.2463 15.4687 21.4005 15.0722 20.2742 14.9855C20.1113 14.973 19.9889 14.8239 20.0008 14.6525Z" fill="white"/>
<path fill-rule="evenodd" clip-rule="evenodd" d="M19.5674 13.3539C19.5685 13.195 19.7038 13.067 19.8694 13.0681C21.61 13.0798 23.0813 13.6357 24.2626 14.7406C25.4538 15.8548 26.0428 17.3716 26.0578 19.2554C26.059 19.4144 25.9258 19.5442 25.7601 19.5454C25.5945 19.5466 25.4592 19.4187 25.4579 19.2598C25.4439 17.4946 24.8966 16.1374 23.8439 15.1528C22.7813 14.1589 21.462 13.6543 19.8652 13.6437C19.6996 13.6426 19.5662 13.5128 19.5674 13.3539Z" fill="white"/>
<path d="M20.7967 22.2797C20.7967 22.2797 21.2249 22.3157 21.4555 22.0323L21.9051 21.4679C22.122 21.188 22.6453 21.0095 23.1578 21.2944C23.5418 21.5129 23.9146 21.7505 24.2749 22.0063C24.615 22.2559 25.3114 22.8358 25.3136 22.8358C25.6453 23.1153 25.722 23.5257 25.4961 23.9585C25.4961 23.961 25.4943 23.9653 25.4943 23.9675C25.2455 24.3979 24.9296 24.786 24.5586 25.1173C24.5542 25.1194 24.5542 25.1216 24.5503 25.1237C24.2279 25.3925 23.9112 25.5453 23.6001 25.5821C23.5543 25.5901 23.5078 25.593 23.4613 25.5908C23.3242 25.5921 23.1877 25.5712 23.0573 25.5288L23.0472 25.514C22.5679 25.3791 21.7678 25.0415 20.4353 24.308C19.6642 23.8885 18.93 23.4045 18.2408 22.8614C17.8953 22.5893 17.5658 22.2977 17.2538 21.9879L17.2205 21.9547L17.1873 21.9215L17.154 21.888C17.1428 21.8772 17.132 21.866 17.1208 21.8548C16.8104 21.5435 16.5181 21.2146 16.2454 20.8699C15.7012 20.1822 15.2163 19.4497 14.7958 18.6804C14.0607 17.3503 13.7225 16.5526 13.5873 16.0736L13.5725 16.0635C13.5301 15.9334 13.5092 15.7972 13.5107 15.6603C13.5081 15.614 13.5109 15.5675 13.519 15.5218C13.5578 15.2122 13.7111 14.896 13.9791 14.5733C13.9812 14.5694 13.9834 14.5694 13.9856 14.565C14.3174 14.1948 14.7064 13.8797 15.1377 13.6317C15.1399 13.6317 15.1442 13.6295 15.1468 13.6295C15.5805 13.4041 15.9917 13.4806 16.2715 13.8098C16.2736 13.812 16.8537 14.507 17.1027 14.8463C17.359 15.2062 17.5971 15.5786 17.8161 15.9622C18.1016 16.4732 17.9227 16.9965 17.6423 17.2122L17.0767 17.6608C16.7912 17.8909 16.8288 18.3183 16.8288 18.3183C16.8288 18.3183 17.6665 21.4823 20.7967 22.2797Z" fill="white"/>
</svg>
