<?xml version="1.0" encoding="UTF-8" standalone="no"?>
<svg
   width="32"
   height="32"
   viewBox="0 0 32 32"
   fill="none"
   version="1.1"
   id="svg1"
   sodipodi:docname="ViberBlack.svg"
   inkscape:version="1.3 (0e150ed6c4, 2023-07-21)"
   xmlns:inkscape="http://www.inkscape.org/namespaces/inkscape"
   xmlns:sodipodi="http://sodipodi.sourceforge.net/DTD/sodipodi-0.dtd"
   xmlns="http://www.w3.org/2000/svg"
   xmlns:svg="http://www.w3.org/2000/svg">
  <defs
     id="defs1" />
  <sodipodi:namedview
     id="namedview1"
     pagecolor="#ffffff"
     bordercolor="#000000"
     borderopacity="0.25"
     inkscape:showpageshadow="2"
     inkscape:pageopacity="0.0"
     inkscape:pagecheckerboard="0"
     inkscape:deskcolor="#d1d1d1"
     inkscape:zoom="15.240012"
     inkscape:cx="3.1167955"
     inkscape:cy="16.961929"
     inkscape:window-width="1920"
     inkscape:window-height="1022"
     inkscape:window-x="0"
     inkscape:window-y="0"
     inkscape:window-maximized="1"
     inkscape:current-layer="svg1" />
  <rect
     width="32"
     height="32"
     rx="16"
     fill="#d4d5f7"
     fill-opacity="0.1"
     id="rect1"
     x="0"
     y="0"
     style="display:inline" />
  <g
     id="Group 26"
     transform="translate(7.0000063,6.5000113)">
    <path
       id="Vector"
       d="M 15.9682,1.85323 C 15.4965,1.41756 13.5906,0.0324556 9.34511,0.0136378 c 0,0 -5.00649,-0.3022268 -7.44707,1.9388122 C 0.539474,3.31275 0.0615546,5.30317 0.0111423,7.77087 -0.03927,10.2386 -0.104493,14.8632 4.34859,16.1172 h 0.00427 l -0.00284,1.9134 c 0,0 -0.02848,0.7747 0.48105,0.9326 0.61634,0.1916 0.97805,-0.3971 1.56648,-1.0318 0.32298,-0.3484 0.769,-0.8602 1.10509,-1.2514 3.04556,0.2566 5.38786,-0.3299 5.65386,-0.4166 0.6149,-0.1996 4.0945,-0.6458 4.6604,-5.2701 0.5842,-4.76635 -0.2825,-7.7812 -1.8487,-9.14007 z m 0.5161,8.79817 c -0.4777,3.8611 -3.2999,4.1038 -3.8202,4.2708 -0.2213,0.0713 -2.2786,0.5837 -4.86554,0.4146 0,0 -1.92763,2.328 -2.52973,2.9333 -0.09399,0.0947 -0.2045,0.1329 -0.27826,0.114 C 4.88689,18.3588 4.85841,18.2359 4.85955,18.0563 4.86126,17.7997 4.87607,14.8766 4.87607,14.8766 1.1091,13.8297 1.3287,9.89359 1.37142,7.83246 1.41414,5.77133 1.80092,4.08286 2.94987,2.94723 5.01421,1.07542 9.26678,1.35512 9.26678,1.35512 12.858,1.3708 14.5789,2.4534 14.9779,2.81607 c 1.325,1.13563 2,3.8531 1.5064,7.83423 z"
       fill="#ffffff" />
    <path
       id="Vector (Stroke)"
       fill-rule="evenodd"
       clip-rule="evenodd"
       d="M 9.34655,6.11327 C 9.35404,5.9735 9.47654,5.86611 9.62015,5.8734 10.1575,5.90068 10.6045,6.05896 10.9229,6.37934 11.24,6.69849 11.3955,7.14434 11.4228,7.6798 11.4299,7.81958 11.3193,7.93852 11.1756,7.94546 11.032,7.95239 10.9098,7.84469 10.9027,7.70491 10.8793,7.24655 10.7501,6.93451 10.5485,6.73169 10.3482,6.53011 10.0425,6.40236 9.59302,6.37954 9.44941,6.37225 9.33906,6.25303 9.34655,6.11327 Z"
       fill="#ffffff" />
    <path
       id="Vector (Stroke)_2"
       fill-rule="evenodd"
       clip-rule="evenodd"
       d="M 9.00064,4.72198 C 9.01018,4.58487 9.12358,4.48185 9.25392,4.49189 10.2477,4.56839 11.0475,4.92556 11.6301,5.59456 l 10e-5,9e-5 c 0.5763,0.66242 0.8502,1.48647 0.8303,2.45302 -0.0028,0.13745 -0.111,0.24646 -0.2417,0.24348 C 12.0882,8.28818 11.9845,8.17434 11.9874,8.0369 12.0049,7.18452 11.7666,6.48885 11.2811,5.93076 10.797,5.37499 10.1204,5.05777 9.21938,4.9884 9.08903,4.97837 8.9911,4.85909 9.00064,4.72198 Z"
       fill="#ffffff" />
    <path
       id="Vector (Stroke)_3"
       fill-rule="evenodd"
       clip-rule="evenodd"
       d="m 8.65406,3.68272 c 9.2e-4,-0.12714 0.1091,-0.2295 0.24161,-0.22861 1.39253,0.0093 2.56953,0.45409 3.51453,1.33801 0.953,0.89132 1.4242,2.10475 1.4362,3.61182 0.001,0.12715 -0.1056,0.23101 -0.2382,0.23197 C 13.4757,8.63688 13.3675,8.53459 13.3665,8.40745 13.3553,6.99525 12.9174,5.90954 12.0752,5.12183 11.2252,4.32673 10.1697,3.92308 8.89233,3.91454 8.75981,3.91366 8.65314,3.80987 8.65406,3.68272 Z"
       fill="#ffffff" />
    <path
       id="Vector_2"
       d="m 9.63714,10.824 c 0,0 0.34262,0.0289 0.52706,-0.1979 l 0.3597,-0.4515 c 0.1735,-0.22391 0.5921,-0.36673 1.0021,-0.1388 0.3072,0.1748 0.6055,0.3649 0.8937,0.5695 0.2721,0.1997 0.8292,0.6636 0.831,0.6636 0.2654,0.2236 0.3267,0.552 0.146,0.8982 0,0.002 -0.0015,0.0055 -0.0015,0.0072 -0.199,0.3443 -0.4517,0.6548 -0.7485,0.9198 -0.0035,0.0017 -0.0035,0.0035 -0.0067,0.0052 -0.2579,0.215 -0.5113,0.3373 -0.7601,0.3667 -0.0366,0.0064 -0.0739,0.0087 -0.111,0.0069 C 11.6591,13.474 11.55,13.4572 11.4456,13.4233 L 11.4375,13.4115 C 11.0542,13.3036 10.414,13.0335 9.34801,12.4467 8.73113,12.1111 8.14384,11.7239 7.59244,11.2894 7.31605,11.0717 7.05242,10.8384 6.80283,10.5906 L 6.77623,10.5641 6.74963,10.5375 6.72303,10.5107 C 6.71407,10.502 6.70539,10.4931 6.69643,10.4842 6.4481,10.2351 6.21429,9.97201 5.99616,9.69621 5.5608,9.14602 5.17285,8.56007 4.83648,7.94461 4.24839,6.88056 3.97777,6.24235 3.86963,5.8592 L 3.85778,5.85112 C 3.82388,5.74699 3.80719,5.63804 3.80834,5.52856 3.80632,5.4915 3.80855,5.45432 3.81499,5.41777 3.84602,5.17003 3.96871,4.91709 4.18305,4.65896 4.18478,4.65579 4.18652,4.65579 4.18825,4.65233 4.45376,4.35611 4.76491,4.10405 5.10999,3.90564 c 0.00173,0 0.0052,-0.00173 0.00723,-0.00173 C 5.46417,3.72359 5.7932,3.78475 6.01698,4.04817 6.01872,4.0499 6.48277,4.60588 6.68197,4.87737 6.88703,5.16524 7.07752,5.46317 7.25271,5.77005 7.48112,6.17888 7.338,6.59752 7.11364,6.77006 L 6.66116,7.12897 C 6.43275,7.31305 6.46282,7.65494 6.46282,7.65494 c 0,0 0.67019,2.53116 3.17432,3.16906 z"
       fill="#ffffff" />
  </g>
</svg>
