<svg width="24" height="24" viewBox="0 0 24 24" fill="none" xmlns="http://www.w3.org/2000/svg">
<g opacity="0.9">
<path fill-rule="evenodd" clip-rule="evenodd" d="M10.8016 3.02453C10.9956 2.98536 11.1969 3.00467 11.38 3.08C11.5626 3.15502 11.7189 3.28242 11.8293 3.44614C11.9396 3.60986 11.999 3.80258 12 4V20C12.0012 20.1986 11.9431 20.3931 11.8333 20.5586C11.7235 20.7241 11.5669 20.8532 11.3835 20.9294C11.2 21.0055 10.9981 21.0254 10.8033 20.9863C10.6086 20.9472 10.4299 20.851 10.29 20.71L6 16H3C2.73478 16 2.48043 15.8946 2.29289 15.7071C2.10536 15.5196 2 15.2652 2 15V9C2 8.73479 2.10536 8.48043 2.29289 8.2929C2.48043 8.10536 2.73478 8 3 8H6L10.29 3.3C10.4295 3.15956 10.6076 3.06369 10.8016 3.02453ZM21 10.27L19.73 9L17.5 11.23L15.27 9L14 10.27L16.23 12.5L14 14.73L15.27 16L17.5 13.77L19.73 16L21 14.73L18.77 12.5L21 10.27Z" fill="white"/>
</g>
</svg>
