<svg width="24" height="24" viewBox="0 0 24 24" fill="none" xmlns="http://www.w3.org/2000/svg">
<g id="Volume" opacity="0.7">
<path id="Vector" fill-rule="evenodd" clip-rule="evenodd" d="M11.383 3.07867C11.009 2.92467 10.579 3.00967 10.293 3.29567L6 8.00167H3C2.45 8.00167 2 8.45267 2 9.00167V15.0016C2 15.5516 2.45 16.0016 3 16.0016H6L10.293 20.7096C10.579 20.9956 11.009 21.0816 11.383 20.9266C11.757 20.7716 12 20.4066 12 20.0016V4.00167C12 3.59867 11.757 3.23167 11.383 3.07867ZM14 5.00158V7.00158C16.757 7.00158 19 9.24558 19 12.0016C19 14.7586 16.757 17.0016 14 17.0016V19.0016C17.86 19.0016 21 15.8626 21 12.0016C21 8.14258 17.86 5.00158 14 5.00158ZM14 9.00158C15.654 9.00158 17 10.3486 17 12.0016C17 13.6566 15.654 15.0016 14 15.0016V13.0016C14.551 13.0016 15 12.5526 15 12.0016C15 11.4506 14.551 11.0016 14 11.0016V9.00158Z" fill="white"/>
</g>
</svg>
