<svg width="32" height="32" viewBox="0 0 32 32" fill="none" xmlns="http://www.w3.org/2000/svg">
<g id="WhatsApp">
<path id="path54-path" fill-rule="evenodd" clip-rule="evenodd" d="M27.3377 4.65033C24.3295 1.65309 20.329 0.00167656 16.0668 0C7.28471 0 0.137146 7.11286 0.133625 15.8557C0.132477 18.6505 0.866114 21.3785 2.26038 23.7831L0 32L8.44639 29.7951C10.7736 31.0583 13.3937 31.724 16.0604 31.7251H16.0669H16.067C24.8482 31.7251 31.9964 24.6113 32 15.8684C32.0016 11.6315 30.3459 7.64749 27.3377 4.65033Z" fill="#D4D5F7" fill-opacity="0.1"/>
<path id="path54-path_2" fill-rule="evenodd" clip-rule="evenodd" d="M23.1882 19.0518C22.7945 18.8608 20.8591 17.9375 20.4982 17.8102C20.1374 17.6828 19.875 17.6191 19.6126 18.0012C19.3501 18.3832 18.5957 19.2428 18.366 19.4976C18.1364 19.7522 17.9068 19.7841 17.5132 19.593C17.1195 19.4021 15.8511 18.999 14.3475 17.6988C13.1772 16.687 12.3872 15.4371 12.1575 15.0551C11.9279 14.673 12.1331 14.4665 12.3302 14.2762C12.5072 14.1053 12.7238 13.8305 12.9206 13.6076C13.1174 13.3848 13.1831 13.2256 13.3143 12.9709C13.4455 12.7162 13.3799 12.4933 13.2814 12.3023C13.1831 12.1113 12.3958 10.2329 12.0677 9.46875C11.7482 8.72461 11.4237 8.82529 11.182 8.81362C10.9527 8.80254 10.69 8.80019 10.4275 8.80019C10.1651 8.80019 9.73866 8.89574 9.37776 9.27773C9.01694 9.65978 8 10.5831 8 12.4615C8 14.3399 9.4106 16.1546 9.60744 16.4094C9.80427 16.6641 12.3833 20.5188 16.3322 22.1719C17.2715 22.5651 18.0048 22.7998 18.5764 22.9758C19.5195 23.2662 20.3777 23.2253 21.0559 23.127C21.8123 23.0174 23.385 22.2037 23.7131 21.3123C24.0411 20.4208 24.0411 19.6567 23.9427 19.4976C23.8443 19.3384 23.5819 19.2428 23.1882 19.0518Z" fill="white"/>
</g>
</svg>
