<svg width="72" height="72" viewBox="0 0 72 72" fill="none" xmlns="http://www.w3.org/2000/svg">
<g id="XRP" clip-path="url(#clip0_97_2829)">
<g id="Group">
<path id="Vector" d="M36 72C55.8823 72 72 55.8823 72 36C72 16.1177 55.8823 0 36 0C16.1177 0 0 16.1177 0 36C0 55.8823 16.1177 72 36 72Z" fill="#3F4954"/>
<path id="Vector_2" d="M51.9075 18H58.41L44.8762 31.4032C42.5101 33.7345 39.3217 35.0413 36 35.0413C32.6783 35.0413 29.4899 33.7345 27.1238 31.4032L13.5787 18H20.0925L30.375 28.1767C31.8724 29.6547 33.8916 30.4834 35.9955 30.4834C38.0994 30.4834 40.1186 29.6547 41.616 28.1767L51.9075 18ZM20.0138 55.2668H13.5L27.1238 41.7825C29.4899 39.4512 32.6783 38.1444 36 38.1444C39.3217 38.1444 42.5101 39.4512 44.8762 41.7825L58.5 55.2645H51.9862L41.625 45C40.1276 43.5221 38.1084 42.6934 36.0045 42.6934C33.9006 42.6934 31.8814 43.5221 30.384 45L20.0115 55.2668H20.0138Z" fill="white"/>
</g>
</g>
<defs>
<clipPath id="clip0_97_2829">
<rect width="72" height="72" fill="white"/>
</clipPath>
</defs>
</svg>
