<svg width="15" height="15" viewBox="0 0 15 15" fill="none" xmlns="http://www.w3.org/2000/svg">
<g id="392526_arrow_left_icon 1" clip-path="url(#clip0_129_2233)">
<g id="Group">
<g id="Group_2">
<path id="Vector" d="M1.55195 7.90254H12.9115C13.0848 7.90254 13.2414 7.79608 13.3077 7.63334C13.374 7.47017 13.3374 7.28256 13.2148 7.15777L8.07119 1.92214C7.90365 1.75154 7.63271 1.75154 7.46517 1.92214C7.29763 2.09273 7.29763 2.36847 7.46517 2.53907L11.8766 7.02994H1.55239C1.31504 7.02994 1.1235 7.2254 1.1235 7.46624C1.1235 7.70708 1.31504 7.90254 1.55195 7.90254Z" fill="white"/>
</g>
<g id="Group_3">
<path id="Vector_2" d="M7.76775 13.1383C7.87726 13.1383 7.98721 13.0955 8.07098 13.0105L11.5003 9.52003C11.6679 9.34943 11.6679 9.07369 11.5003 8.90309C11.3328 8.7325 11.0618 8.7325 10.8943 8.90309L7.46495 12.3935C7.29741 12.5641 7.29741 12.8399 7.46495 13.0105C7.54829 13.0955 7.65824 13.1383 7.76775 13.1383Z" fill="white"/>
</g>
</g>
</g>
<defs>
<clipPath id="clip0_129_2233">
<rect width="13.9617" height="13.9617" fill="white" transform="matrix(-1 0 0 1 14.2124 0.485352)"/>
</clipPath>
</defs>
</svg>
