<svg width="15" height="15" viewBox="0 0 15 15" fill="none" xmlns="http://www.w3.org/2000/svg">
<g id="392526_arrow_left_icon 1" clip-path="url(#clip0_129_2245)">
<g id="Group">
<g id="Group_2">
<path id="Vector" d="M13.5564 7.90254H2.19686C2.02364 7.90254 1.86701 7.79608 1.80069 7.63334C1.73438 7.47017 1.77103 7.28256 1.89363 7.15777L7.0372 1.92214C7.20474 1.75154 7.47569 1.75154 7.64323 1.92214C7.81077 2.09273 7.81077 2.36847 7.64323 2.53907L3.23177 7.02994H13.556C13.7934 7.02994 13.9849 7.2254 13.9849 7.46624C13.9849 7.70708 13.7934 7.90254 13.5564 7.90254Z" fill="white"/>
</g>
<g id="Group_3">
<path id="Vector_2" d="M7.34065 13.1383C7.23114 13.1383 7.12119 13.0955 7.03742 13.0105L3.60808 9.52003C3.44054 9.34943 3.44054 9.07369 3.60808 8.90309C3.77562 8.7325 4.04656 8.7325 4.2141 8.90309L7.64345 12.3935C7.81099 12.5641 7.81099 12.8399 7.64345 13.0105C7.56011 13.0955 7.45016 13.1383 7.34065 13.1383Z" fill="white"/>
</g>
</g>
</g>
<defs>
<clipPath id="clip0_129_2245">
<rect width="13.9617" height="13.9617" fill="white" transform="translate(0.895996 0.485352)"/>
</clipPath>
</defs>
</svg>
