<svg width="18" height="19" viewBox="0 0 18 19" fill="none" xmlns="http://www.w3.org/2000/svg">
<g id="calendar (2) 1" clip-path="url(#clip0_159_668)">
<g id="Group">
<g id="_x31_5_38_">
<g id="Group_2">
<path id="Vector" d="M4.5569 4.56504H4.80011C5.16973 4.56504 5.46935 4.24769 5.46935 3.85644V1.901V1.16957C5.46935 0.778313 5.16973 0.460999 4.80011 0.460999H4.5569C4.18731 0.460999 3.8877 0.778313 3.8877 1.16957V1.90103V3.85644C3.8877 4.24769 4.18731 4.56504 4.5569 4.56504Z" fill="#CACACA"/>
<path id="Vector_2" d="M13.14 4.54746H13.3832C13.7528 4.54746 14.0524 4.23015 14.0524 3.83886V1.71539V1.15195C14.0524 0.760735 13.7528 0.44342 13.3832 0.44342H13.14C12.7703 0.44342 12.4707 0.760735 12.4707 1.15195V1.71539V3.83882C12.4708 4.23015 12.7704 4.54746 13.14 4.54746Z" fill="#CACACA"/>
<path id="Vector_3" d="M16.3144 1.901H14.5969V4.02444C14.5969 4.73278 14.0526 5.12348 13.3837 5.12348H13.1405C12.4715 5.12348 11.9273 4.54719 11.9273 3.83885V1.901H6.01302V3.85641C6.01302 4.56475 5.46879 5.14103 4.79979 5.14103H4.55658C3.88763 5.14103 3.3434 4.56475 3.3434 3.85641V1.901H1.49031C0.890416 1.901 0.402344 2.41778 0.402344 3.05301V16.9731C0.402344 17.6083 0.890416 18.1251 1.49031 18.1251H16.3144C16.9143 18.1251 17.4023 17.6083 17.4023 16.9731V3.05301C17.4024 2.41782 16.9143 1.901 16.3144 1.901ZM16.3144 16.9731H1.49035L1.49031 6.46099H16.3146L16.3152 16.973C16.3151 16.973 16.3149 16.9731 16.3144 16.9731Z" fill="#CACACA"/>
<path id="Vector_4" d="M9.46444 9.98701H11.418C11.4954 9.98701 11.5582 9.92054 11.5582 9.83854V8.04746C11.5582 7.96546 11.4954 7.89899 11.418 7.89899H9.46444C9.387 7.89899 9.32422 7.96546 9.32422 8.04746V9.83854C9.32422 9.92054 9.387 9.98701 9.46444 9.98701Z" fill="#CACACA"/>
<path id="Vector_5" d="M12.6519 9.98701H14.6055C14.6829 9.98701 14.7457 9.92054 14.7457 9.83854V8.04746C14.7457 7.96546 14.6829 7.89899 14.6055 7.89899H12.6519C12.5745 7.89899 12.5117 7.96546 12.5117 8.04746V9.83854C12.5117 9.92054 12.5745 9.98701 12.6519 9.98701Z" fill="#CACACA"/>
<path id="Vector_6" d="M3.08749 12.9193H5.04097C5.1184 12.9193 5.18119 12.8528 5.18119 12.7708V10.9797C5.18119 10.8977 5.1184 10.8312 5.04097 10.8312H3.08749C3.01005 10.8312 2.94727 10.8977 2.94727 10.9797V12.7708C2.94727 12.8528 3.01005 12.9193 3.08749 12.9193Z" fill="#CACACA"/>
<path id="Vector_7" d="M6.27596 12.9193H8.22944C8.30688 12.9193 8.36966 12.8528 8.36966 12.7708V10.9797C8.36966 10.8977 8.30688 10.8312 8.22944 10.8312H6.27596C6.19853 10.8312 6.13574 10.8977 6.13574 10.9797V12.7708C6.13574 12.8528 6.19853 12.9193 6.27596 12.9193Z" fill="#CACACA"/>
<path id="Vector_8" d="M9.46444 12.9193H11.4179C11.4954 12.9193 11.5581 12.8528 11.5581 12.7708V10.9797C11.5581 10.8977 11.4954 10.8312 11.4179 10.8312H9.46444C9.387 10.8312 9.32422 10.8977 9.32422 10.9797V12.7708C9.32422 12.8528 9.387 12.9193 9.46444 12.9193Z" fill="#CACACA"/>
<path id="Vector_9" d="M12.6519 12.9193H14.6055C14.6829 12.9193 14.7457 12.8528 14.7457 12.7708V10.9797C14.7457 10.8977 14.6829 10.8312 14.6055 10.8312H12.6519C12.5745 10.8312 12.5117 10.8977 12.5117 10.9797V12.7708C12.5117 12.8528 12.5745 12.9193 12.6519 12.9193Z" fill="#CACACA"/>
<path id="Vector_10" d="M5.04191 13.7635H3.08846C3.01103 13.7635 2.94824 13.83 2.94824 13.912V15.7031C2.94824 15.7851 3.01103 15.8516 3.08846 15.8516H5.04194C5.11938 15.8516 5.18216 15.7851 5.18216 15.7031V13.912C5.18213 13.83 5.11934 13.7635 5.04191 13.7635Z" fill="#CACACA"/>
<path id="Vector_11" d="M8.22944 13.7635H6.27596C6.19853 13.7635 6.13574 13.83 6.13574 13.912V15.7031C6.13574 15.7851 6.19853 15.8516 6.27596 15.8516H8.22944C8.30688 15.8516 8.36966 15.7851 8.36966 15.7031V13.912C8.36966 13.83 8.30688 13.7635 8.22944 13.7635Z" fill="#CACACA"/>
<path id="Vector_12" d="M11.418 13.7635H9.46444C9.387 13.7635 9.32422 13.83 9.32422 13.912V15.7031C9.32422 15.7851 9.387 15.8516 9.46444 15.8516H11.418C11.4954 15.8516 11.5582 15.7851 11.5582 15.7031V13.912C11.5582 13.83 11.4954 13.7635 11.418 13.7635Z" fill="#CACACA"/>
<path id="Vector_13" d="M14.6055 13.7635H12.6519C12.5745 13.7635 12.5117 13.83 12.5117 13.912V15.7031C12.5117 15.7851 12.5745 15.8516 12.6519 15.8516H14.6055C14.6829 15.8516 14.7457 15.7851 14.7457 15.7031V13.912C14.7457 13.83 14.6829 13.7635 14.6055 13.7635Z" fill="#CACACA"/>
</g>
</g>
</g>
</g>
<defs>
<clipPath id="clip0_159_668">
<rect width="17" height="18" fill="white" transform="translate(0.402344 0.284241)"/>
</clipPath>
</defs>
</svg>
