<svg width="23" height="24" viewBox="0 0 23 24" fill="none" xmlns="http://www.w3.org/2000/svg">
<g id="scuba-diving 1" clip-path="url(#clip0_210_159)">
<g id="Group">
<g id="Group_2">
<path id="Vector" d="M13.4336 19.3292H12.1445V20.6679H13.4336V19.3292Z" fill="white"/>
</g>
</g>
<g id="Group_3">
<g id="Group_4">
<path id="Vector_2" d="M20.7448 5.53843C19.8384 3.34382 17.7016 1.88229 15.3672 1.88229H10.2109C7.87657 1.88229 5.73974 3.34382 4.83336 5.53843C4.66853 5.67091 4.51281 5.81499 4.36719 5.96947V0.499023H0.5C0.5 1.18972 0.5 13.9697 0.5 14.644C0.5 18.7037 3.6805 22.0065 7.58984 22.0065H10.2127C10.8012 22.8188 11.737 23.3452 12.7891 23.3452C14.566 23.3452 16.0117 21.8439 16.0117 19.9986C16.0117 18.1533 14.566 16.652 12.7891 16.652C11.737 16.652 10.8012 17.1783 10.2127 17.9906H7.58984C5.81287 17.9906 4.36719 16.4893 4.36719 14.644V12.5202C5.18673 13.3896 6.32854 13.9301 7.58984 13.9301H8.87891C9.29987 13.9301 9.7076 13.8708 10.0948 13.7603C10.6832 14.6925 11.6873 15.2687 12.7891 15.2687C13.8878 15.2687 14.8895 14.6956 15.4785 13.7678C15.8541 13.8733 16.2489 13.9301 16.6562 13.9301H17.9883C20.476 13.9301 22.5 11.8283 22.5 9.24482C22.5 7.73844 21.8117 6.3961 20.7448 5.53843ZM12.7891 17.9906C13.8552 17.9906 14.7227 18.8914 14.7227 19.9986C14.7227 21.1058 13.8552 22.0065 12.7891 22.0065C11.7229 22.0065 10.8555 21.1058 10.8555 19.9986C10.8555 18.8914 11.7229 17.9906 12.7891 17.9906ZM1.78906 1.83767H3.07812V8.5755H1.78906V1.83767ZM1.78906 9.91414H3.12436C3.18971 10.3866 3.32309 10.8365 3.51404 11.2528H1.78906V9.91414ZM7.58984 19.3293H9.63125C9.58879 19.5456 9.56641 19.7694 9.56641 19.9986C9.56641 20.2277 9.58879 20.4516 9.63125 20.6679H7.58984C4.39129 20.6679 1.78906 17.9656 1.78906 14.644V12.5914H3.07812V14.644C3.07812 17.2274 5.10208 19.3293 7.58984 19.3293ZM10.2109 3.22093H15.3672C16.5976 3.22093 17.7571 3.73965 18.5975 4.60241C18.3982 4.57438 18.1949 4.55957 17.9883 4.55957C17.6429 4.55957 7.94309 4.55957 7.58984 4.55957C7.38325 4.55957 7.17996 4.57438 6.98068 4.60241C7.82106 3.73965 8.98057 3.22093 10.2109 3.22093ZM8.87891 12.5914H7.58984C5.81287 12.5914 4.36719 11.0901 4.36719 9.24482C4.36719 7.3995 5.81287 5.89821 7.58984 5.89821H12.1445V9.24482C12.1445 11.0901 10.6796 12.5914 8.87891 12.5914ZM12.7891 13.9301C12.204 13.9301 11.6647 13.6592 11.3037 13.2092C11.9083 12.8164 12.4173 12.2815 12.786 11.6503C13.1538 12.2861 13.6627 12.8241 14.2674 13.2176C13.9064 13.6625 13.3705 13.9301 12.7891 13.9301ZM17.9883 12.5914H16.6562C14.8793 12.5914 13.4336 11.0901 13.4336 9.24482V5.89821H17.9883C19.7653 5.89821 21.2109 7.3995 21.2109 9.24482C21.2109 11.0901 19.7653 12.5914 17.9883 12.5914Z" fill="white"/>
</g>
</g>
</g>
<defs>
<clipPath id="clip0_210_159">
<rect width="22" height="22.8462" fill="white" transform="translate(0.5 0.499023)"/>
</clipPath>
</defs>
</svg>
