<svg width="23" height="24" viewBox="0 0 23 24" fill="none" xmlns="http://www.w3.org/2000/svg">
<g id="user 1" clip-path="url(#clip0_210_210)">
<g id="user">
<path id="Vector" d="M13.6563 10.4846C12.6612 10.4846 11.6884 10.1895 10.861 9.6367C10.0337 9.08386 9.38879 8.29809 9.00798 7.37875C8.62718 6.45941 8.52754 5.44779 8.72168 4.47182C8.91581 3.49586 9.39499 2.59937 10.0986 1.89574C10.8023 1.19211 11.6987 0.712927 12.6747 0.518795C13.6507 0.324664 14.6623 0.424299 15.5816 0.805103C16.501 1.18591 17.2867 1.83077 17.8396 2.65816C18.3924 3.48554 18.6875 4.45828 18.6875 5.45337C18.6859 6.78725 18.1553 8.06602 17.2121 9.00922C16.2689 9.95241 14.9901 10.483 13.6563 10.4846ZM13.6563 1.85962C12.9455 1.85962 12.2507 2.07039 11.6597 2.46528C11.0687 2.86016 10.6081 3.42143 10.3361 4.0781C10.0641 4.73477 9.99289 5.45736 10.1316 6.15448C10.2702 6.8516 10.6125 7.49194 11.1151 7.99454C11.6177 8.49713 12.258 8.8394 12.9551 8.97807C13.6523 9.11673 14.3748 9.04557 15.0315 8.77356C15.6882 8.50156 16.2495 8.04094 16.6443 7.44995C17.0392 6.85896 17.25 6.16415 17.25 5.45337C17.2489 4.50059 16.8699 3.58716 16.1962 2.91345C15.5225 2.23973 14.609 1.86074 13.6563 1.85962Z" fill="white"/>
<path id="Vector_2" d="M20.8438 23.4221H6.46875C6.27813 23.4221 6.09531 23.3464 5.96052 23.2116C5.82573 23.0768 5.75 22.894 5.75 22.7034V22.6027C5.75002 22.4759 5.78362 22.3513 5.84739 22.2416C5.91115 22.1319 6.0028 22.0411 6.11304 21.9783C6.22328 21.9155 6.34817 21.883 6.47503 21.8841C6.60188 21.8853 6.72619 21.9199 6.83531 21.9846H20.125V16.4143C20.1231 14.8422 19.4978 13.3351 18.3861 12.2235C17.2745 11.1119 15.7674 10.4865 14.1953 10.4846H13.1172C11.7453 10.4844 10.4158 10.9596 9.35496 11.8295C9.20732 11.9451 9.02032 11.9985 8.83387 11.9782C8.64742 11.9579 8.4763 11.8655 8.35703 11.7208C8.23776 11.576 8.17978 11.3904 8.19549 11.2035C8.21119 11.0166 8.29932 10.8433 8.44107 10.7204C9.75926 9.63849 11.4118 9.04713 13.1172 9.04712H14.1953C16.1486 9.04923 18.0212 9.82609 19.4024 11.2073C20.7835 12.5884 21.5604 14.4611 21.5625 16.4143V22.7034C21.5625 22.894 21.4868 23.0768 21.352 23.2116C21.2172 23.3464 21.0344 23.4221 20.8438 23.4221Z" fill="white"/>
<path id="Vector_3" d="M17.25 23.4221C17.0594 23.4221 16.8766 23.3464 16.7418 23.2116C16.607 23.0768 16.5312 22.894 16.5312 22.7034V15.5159C16.5312 15.3252 16.607 15.1424 16.7418 15.0076C16.8766 14.8728 17.0594 14.7971 17.25 14.7971C17.4406 14.7971 17.6234 14.8728 17.7582 15.0076C17.893 15.1424 17.9688 15.3252 17.9688 15.5159V22.7034C17.9688 22.894 17.893 23.0768 17.7582 23.2116C17.6234 23.3464 17.4406 23.4221 17.25 23.4221Z" fill="white"/>
<path id="Vector_4" d="M10.0625 23.4222C9.87188 23.4222 9.68906 23.3464 9.55427 23.2116C9.41948 23.0768 9.34375 22.894 9.34375 22.7034V21.4025C9.34375 21.2118 9.41948 21.029 9.55427 20.8942C9.68906 20.7594 9.87188 20.6837 10.0625 20.6837C10.2531 20.6837 10.4359 20.7594 10.5707 20.8942C10.7055 21.029 10.7812 21.2118 10.7812 21.4025V22.7034C10.7812 22.894 10.7055 23.0768 10.5707 23.2116C10.4359 23.3464 10.2531 23.4222 10.0625 23.4222Z" fill="white"/>
<path id="Vector_5" d="M6.96934 23.4221C6.93365 23.422 6.89801 23.4194 6.86267 23.4144C6.26611 23.3246 3.2258 22.749 1.95282 20.2187C1.58947 19.4912 1.41291 18.6848 1.43906 17.8722V12.1917C1.43888 12.0389 1.48743 11.8901 1.57767 11.7669C1.6679 11.6437 1.79509 11.5525 1.94074 11.5066L6.75227 9.98559C6.89337 9.94067 7.04494 9.94067 7.18604 9.98559L11.9976 11.5066C12.1433 11.5525 12.2705 11.6437 12.3608 11.7669C12.4511 11.8901 12.4996 12.0389 12.4995 12.1917V17.8904C12.5237 18.6968 12.3472 19.4966 11.9857 20.2179C10.7135 22.7479 7.67249 23.3246 7.07585 23.4144C7.04057 23.4194 7.00498 23.422 6.96934 23.4221ZM2.87656 12.7181V17.8904C2.85474 18.4728 2.97874 19.0513 3.2373 19.5736C4.13645 21.36 6.39656 21.8716 6.96934 21.9748C7.54211 21.8716 9.80294 21.36 10.7014 19.5736C10.958 19.0572 11.082 18.485 11.0621 17.9087V12.7181L6.96934 11.4243L2.87656 12.7181Z" fill="white"/>
<path id="Vector_6" d="M6.6734 18.4323C6.57898 18.4324 6.48548 18.4139 6.39826 18.3777C6.31103 18.3416 6.23182 18.2886 6.16517 18.2217L4.68138 16.7378C4.54997 16.6023 4.47711 16.4206 4.47854 16.2319C4.47996 16.0431 4.55557 15.8625 4.68901 15.7291C4.82246 15.5956 5.00305 15.52 5.19177 15.5186C5.3805 15.5171 5.56222 15.59 5.69769 15.7214L6.6734 16.6971L8.96441 14.4061C9.03071 14.3374 9.11002 14.2827 9.19771 14.245C9.2854 14.2073 9.37972 14.1875 9.47515 14.1867C9.57059 14.1858 9.66523 14.204 9.75357 14.2402C9.8419 14.2763 9.92215 14.3297 9.98963 14.3972C10.0571 14.4646 10.1105 14.5449 10.1466 14.6332C10.1828 14.7216 10.201 14.8162 10.2001 14.9116C10.1993 15.0071 10.1795 15.1014 10.1418 15.1891C10.1041 15.2768 10.0494 15.3561 9.98072 15.4224L7.18155 18.2217C7.11491 18.2886 7.03571 18.3416 6.9485 18.3777C6.86129 18.4139 6.7678 18.4324 6.6734 18.4323Z" fill="white"/>
</g>
</g>
<defs>
<clipPath id="clip0_210_210">
<rect width="23" height="23" fill="white" transform="translate(0 0.422119)"/>
</clipPath>
</defs>
</svg>
