<svg width="27" height="28" viewBox="0 0 27 28" fill="none" xmlns="http://www.w3.org/2000/svg">
<g id="flippers 1" clip-path="url(#clip0_210_151)">
<path id="Vector" d="M16.674 22.999L14.879 14.0319C14.7175 12.1096 14.6357 10.1907 14.6357 8.33V5.81853C14.64 2.91629 12.3465 0.53109 9.4461 0.422119C9.43992 0.422119 9.43457 0.424797 9.42818 0.424797C9.422 0.424797 9.41747 0.422119 9.41191 0.422119C6.50884 0.524498 4.2114 2.9134 4.22252 5.81853V8.33C4.22252 10.1916 4.14033 12.11 3.97862 14.0319L2.1836 22.9994C2.1803 23.0163 2.17803 23.0332 2.17639 23.0503C2.08163 24.1738 2.46169 25.2857 3.22407 26.1163C3.98645 26.9469 5.06174 27.4204 6.18914 27.4221C6.19758 27.4221 6.20479 27.4176 6.21345 27.4172C6.25753 27.4151 6.30099 27.4062 6.3426 27.391C6.35208 27.3875 6.36197 27.386 6.37082 27.3821C6.41903 27.3609 6.4629 27.3313 6.5006 27.2948C6.50863 27.2872 6.51399 27.2777 6.52161 27.269C6.54159 27.2486 6.55972 27.2266 6.57558 27.2029L7.31057 25.9713C7.56888 25.5317 8.43097 25.2256 9.43271 25.2392C10.4285 25.2244 11.2893 25.5317 11.5476 25.974L12.2812 27.2029C12.2991 27.232 12.3201 27.2585 12.3442 27.2826C12.3469 27.2853 12.3488 27.2888 12.3514 27.2915C12.3881 27.3269 12.4307 27.3558 12.4773 27.3766C12.4886 27.3821 12.5 27.386 12.5121 27.3906C12.5615 27.4104 12.6141 27.4211 12.6672 27.4221C13.2922 27.4242 13.9087 27.2791 14.4674 26.9992C14.6602 26.9007 14.8458 26.7883 15.0226 26.663C15.0384 26.6513 15.0535 26.6385 15.0677 26.6247C15.504 26.3003 15.87 25.8909 16.144 25.4215C16.1565 25.4048 16.1681 25.3873 16.1782 25.3692C16.5739 24.6638 16.7486 23.8557 16.6796 23.0499C16.6785 23.0328 16.6769 23.0159 16.674 22.999ZM9.43271 24.3392C8.38379 24.327 7.05184 24.6344 6.53603 25.5127L6.40111 25.7377C6.36094 25.4007 6.34116 25.0616 6.34219 24.7221C6.42171 23.0913 7.04834 21.5348 8.12095 20.3036C8.45342 19.9313 8.92968 19.72 9.42859 19.7227C9.92771 19.7198 10.4042 19.9313 10.7369 20.3036C11.8093 21.5348 12.4359 23.0913 12.5156 24.7221C12.5156 25.061 12.4954 25.3994 12.4548 25.736L12.3234 25.5158C11.8056 24.6344 10.4983 24.3316 9.43271 24.3392ZM13.2496 26.464C13.361 25.8901 13.4166 25.3067 13.4156 24.7221C13.3383 22.8711 12.6312 21.1018 11.4113 19.7072C10.9085 19.1426 10.1875 18.8204 9.43127 18.8227C8.67507 18.8206 7.9543 19.1426 7.45126 19.7072C6.22972 21.1012 5.5209 22.8705 5.44221 24.7221C5.44118 25.3076 5.497 25.892 5.60865 26.4667C4.04186 26.1686 2.94948 24.7409 3.07143 23.1506L4.86604 14.1839C4.86934 14.1674 4.8716 14.1508 4.87325 14.1337C5.03846 12.1784 5.1225 10.2258 5.1225 8.32856V5.81853C5.112 3.40449 7.016 1.41624 9.42818 1.3221C11.8383 1.42036 13.7402 3.40511 13.7355 5.81709V8.32856C13.7355 10.2231 13.8193 12.1757 13.9843 14.1337C13.986 14.1506 13.9885 14.1674 13.9916 14.1839L15.7862 23.1506C15.8331 23.7513 15.7058 24.3528 15.4199 24.8832C15.4092 24.8976 15.3993 24.9127 15.3903 24.9281C15.1686 25.3216 14.8643 25.6623 14.4983 25.9268C14.4845 25.9365 14.4715 25.9472 14.4592 25.9587C14.3314 26.0459 14.1984 26.1248 14.0606 26.195C13.8041 26.3221 13.5312 26.4127 13.2496 26.464Z" fill="white"/>
<path id="Vector_2" d="M12.5782 7.16859C12.5782 4.68719 11.1653 2.66846 9.42817 2.66846C7.69123 2.66846 6.27832 4.68761 6.27832 7.16859C6.27832 9.64937 7.69164 11.6685 9.42817 11.6685C11.1647 11.6685 12.5782 9.65019 12.5782 7.16859ZM9.42817 10.7685C8.20869 10.7685 7.17831 9.11976 7.17831 7.16859C7.17831 5.21721 8.20869 3.56844 9.42817 3.56844C10.6476 3.56844 11.6782 5.21721 11.6782 7.16859C11.6782 9.11976 10.6483 10.7694 9.42817 10.7694V10.7685Z" fill="white"/>
<path id="Vector_3" d="M24.8419 22.9994L23.0454 14.0319C22.8843 12.1122 22.8019 10.1934 22.8019 8.33V5.81853C22.8133 2.9134 20.5156 0.524086 17.6121 0.422119C17.6064 0.422119 17.6014 0.425209 17.5955 0.425209C17.5897 0.425209 17.5847 0.422119 17.5794 0.422119C16.4468 0.462288 15.3563 0.861503 14.4654 1.56188C14.2697 1.71535 14.2355 1.99838 14.389 2.19408C14.5424 2.38956 14.8255 2.42376 15.0212 2.27029C15.758 1.69022 16.6596 1.35836 17.5969 1.3221C20.0091 1.41542 21.9139 3.40305 21.9042 5.81709V8.32856C21.9042 10.2258 21.9885 12.178 22.1537 14.1337C22.1549 14.1506 22.1572 14.1674 22.1607 14.1839L23.9553 23.1506C24.0773 24.7407 22.9851 26.1682 21.4187 26.4667C21.5295 25.8918 21.5845 25.3076 21.5831 24.7221C21.5108 22.8696 20.8024 21.0985 19.5769 19.7072C18.9923 19.0483 18.1166 18.7255 17.244 18.8478C17.0836 18.8678 16.946 18.9725 16.8842 19.122C16.8222 19.2716 16.8452 19.4427 16.9445 19.5704C17.0438 19.6984 17.2041 19.7628 17.3643 19.7398C17.9388 19.658 18.5162 19.8698 18.9019 20.3036C19.9763 21.5338 20.604 23.0907 20.6835 24.7221C20.6835 25.061 20.6631 25.3994 20.6223 25.736L20.4909 25.5158C20.0898 24.8342 19.1124 24.3958 17.8758 24.346C17.7561 24.339 17.6385 24.3808 17.5503 24.4622C17.462 24.5433 17.4105 24.657 17.4074 24.7769C17.3973 25.0254 17.5903 25.2349 17.8385 25.245C18.7268 25.2818 19.4805 25.5747 19.7164 25.9758L20.4499 27.2048C20.4666 27.2316 20.4862 27.2563 20.5084 27.2785C20.5129 27.2835 20.516 27.2899 20.5206 27.2944C20.5568 27.3288 20.5986 27.357 20.6444 27.3776C20.6565 27.3834 20.6687 27.3879 20.6812 27.3928C20.7309 27.4116 20.7836 27.4215 20.837 27.4221C21.964 27.4196 23.0384 26.9458 23.8002 26.1153C24.562 25.2847 24.9416 24.1734 24.8468 23.0503C24.8462 23.0334 24.8446 23.0163 24.8419 22.9994Z" fill="white"/>
<path id="Vector_4" d="M17.5969 2.66809C16.7113 2.70373 15.8981 3.1666 15.4152 3.90961C15.2683 4.11005 15.3116 4.39164 15.512 4.53872C15.7125 4.6858 15.9941 4.64233 16.1411 4.4419C16.4578 3.93371 16.9993 3.60866 17.5969 3.56808C18.8168 3.56808 19.847 5.21685 19.847 7.16802C19.847 9.11919 18.8168 10.7682 17.5969 10.7682C17.1159 10.7441 16.6668 10.5208 16.3572 10.152C16.1877 9.97303 15.9059 9.96356 15.725 10.1308C15.544 10.2981 15.5312 10.5797 15.696 10.7626C16.1743 11.3186 16.864 11.6476 17.5969 11.6694C19.3338 11.6694 20.7469 9.65024 20.7469 7.16946C20.7469 4.68868 19.333 2.66809 17.5969 2.66809Z" fill="white"/>
<path id="Vector_5" d="M7.66321 12.5811C7.42117 12.5269 7.18057 12.6773 7.1233 12.9185L5.77322 18.7685C5.74644 18.8849 5.76684 19.0073 5.83008 19.1086C5.89332 19.2098 5.99446 19.2819 6.11084 19.3087C6.14401 19.3169 6.17779 19.3214 6.21199 19.322C6.42169 19.322 6.60338 19.1772 6.65034 18.9729L8.00042 13.1229C8.02782 13.0063 8.00763 12.8837 7.94439 12.782C7.88115 12.6802 7.78001 12.6081 7.66321 12.5811Z" fill="white"/>
<path id="Vector_6" d="M11.6009 12.9185C11.5649 12.762 11.4479 12.6363 11.294 12.5891C11.1403 12.542 10.973 12.5805 10.8552 12.6903C10.7376 12.7999 10.6873 12.9638 10.7234 13.1206L12.0735 18.9706C12.1196 19.176 12.3017 19.322 12.5122 19.322C12.5464 19.322 12.5804 19.3181 12.6138 19.3105C12.7302 19.2837 12.8313 19.2116 12.8946 19.1105C12.9578 19.0091 12.9784 18.8868 12.9514 18.7704L11.6009 12.9185Z" fill="white"/>
<path id="Vector_7" d="M19.6108 12.5811C19.4945 12.6079 19.3933 12.6797 19.3301 12.7811C19.2668 12.8824 19.2464 13.0048 19.2732 13.1212L20.6233 18.971C20.6697 19.1762 20.8517 19.322 21.0621 19.322C21.0963 19.322 21.1305 19.3181 21.1638 19.3105C21.2802 19.2837 21.3812 19.2116 21.4444 19.1105C21.5076 19.0091 21.5282 18.8867 21.5012 18.7704L20.1512 12.9204C20.0949 12.6779 19.8535 12.5265 19.6108 12.5811Z" fill="white"/>
</g>
<defs>
<clipPath id="clip0_210_151">
<rect width="27" height="27" fill="white" transform="translate(0 0.422119)"/>
</clipPath>
</defs>
</svg>
