<svg width="23" height="24" viewBox="0 0 23 24" fill="none" xmlns="http://www.w3.org/2000/svg">
<g id="diving-mask 2">
<path id="Vector" d="M3.41406 12.5959H19.5859C19.9581 12.5959 20.2598 12.2943 20.2598 11.9221V10.5745C20.2598 5.7198 16.3046 1.8147 11.5 1.8147C6.7023 1.8147 2.74023 5.71311 2.74023 10.5745V11.9221C2.74023 12.2943 3.04193 12.5959 3.41406 12.5959ZM18.9121 10.5745V11.2483H13.5215V3.44258C16.6292 4.32466 18.9121 7.18794 18.9121 10.5745ZM12.1738 3.1933V11.2483H10.8262V3.1933C11.0482 3.17318 11.2728 3.16235 11.5 3.16235C11.7272 3.16235 11.9518 3.17322 12.1738 3.1933ZM4.08789 10.5745C4.08789 7.18794 6.37082 4.32466 9.47852 3.44258V11.2483H4.08789V10.5745Z" fill="white"/>
<path id="Vector_2" d="M22.3262 13.9436C21.3728 13.9436 1.61943 13.9436 0.673828 13.9436C0.301695 13.9436 0 14.2453 0 14.6174V17.3127C0 17.6849 0.301695 17.9866 0.673828 17.9866H2.82055C3.20518 20.132 4.95547 21.9052 7.20439 22.0229C8.62069 22.0971 9.99345 21.542 10.9587 20.4729C11.1055 20.3105 11.2977 20.221 11.5 20.221C11.7023 20.221 11.8945 20.3105 12.0413 20.4729C12.9982 21.5327 14.3667 22.0977 15.7956 22.0229C18.0444 21.9052 19.7948 20.1319 20.1794 17.9865H22.3262C22.6983 17.9865 23 17.6848 23 17.3127V14.6174C23 14.2453 22.6983 13.9436 22.3262 13.9436ZM1.34766 15.2913H2.74023V16.6389H1.34766V15.2913ZM15.7252 20.6771C14.7036 20.7306 13.7252 20.327 13.0415 19.5698C12.6419 19.1272 12.08 18.8734 11.5 18.8734C10.9201 18.8734 10.3582 19.1272 9.9586 19.5698C9.27484 20.3271 8.29658 20.731 7.27492 20.6772C5.51753 20.5851 4.08789 18.9732 4.08789 17.084V15.2913H18.9121V17.084C18.9121 18.9732 17.4825 20.5851 15.7252 20.6771ZM21.6523 16.6389H20.2598V15.2913H21.6523V16.6389Z" fill="white"/>
</g>
</svg>
