<svg width="21" height="21" viewBox="0 0 21 21" fill="none" xmlns="http://www.w3.org/2000/svg">
<g id="gear 1" clip-path="url(#clip0_210_218)">
<path id="Vector" d="M19.0483 8.36795L18.0729 8.20255C17.9861 7.96085 17.888 7.72372 17.7795 7.49316L18.3538 6.68964C18.8536 5.98758 18.7733 5.0394 18.1649 4.43698L16.9929 3.2648C16.6616 2.93353 16.2225 2.75104 15.7565 2.75104C15.3895 2.75104 15.0386 2.86411 14.7441 3.07605L13.9375 3.65054C13.688 3.53259 13.4349 3.42838 13.1801 3.33835L13.0188 2.38269C12.8769 1.53629 12.1508 0.922119 11.2924 0.922119H9.6365C8.7782 0.922119 8.05218 1.53629 7.91058 2.38101L7.74106 3.37405C7.50165 3.46149 7.26559 3.56082 7.03442 3.67175L6.24249 3.10138C5.94556 2.8876 5.59323 2.77469 5.22351 2.77469C4.75293 2.77469 4.31363 2.95749 3.98602 3.28952L2.81125 4.46048C2.20456 5.06717 2.12506 6.01459 2.62234 6.71313L3.20599 7.53314C3.09842 7.76462 3.00168 8.00281 2.91623 8.24588L1.96042 8.40717C1.11417 8.54922 0.5 9.27524 0.5 10.1335V11.7894C0.5 12.6477 1.11417 13.3737 1.95889 13.5155L2.95193 13.6849C3.03937 13.9244 3.13885 14.1606 3.24963 14.3917L2.6814 15.1821C2.18167 15.8841 2.26193 16.8325 2.8703 17.4347L4.04233 18.6069C4.3736 18.9382 4.81274 19.1207 5.27875 19.1207C5.64572 19.1207 5.99667 19.0076 6.29102 18.7958L7.11102 18.2122C7.32648 18.3123 7.54987 18.404 7.7792 18.4865L7.94171 19.4617C8.08377 20.308 8.80978 20.9221 9.66809 20.9221H11.3278C12.1861 20.9221 12.9123 20.308 13.054 19.4628L13.2194 18.4873C13.4611 18.4005 13.6982 18.3023 13.9288 18.1938L14.7297 18.7664C15.0267 18.9801 15.379 19.0932 15.7487 19.0932C16.2146 19.0932 16.6537 18.9107 16.985 18.5794L18.157 17.4073C18.7639 16.8006 18.8432 15.8531 18.3459 15.1546L17.771 14.3473C17.8824 14.1114 17.9808 13.8744 18.0655 13.6388L19.0394 13.4764C19.8857 13.3344 20.4998 12.6084 20.4998 11.7501V10.0975C20.5095 9.23831 19.8997 8.51138 19.0483 8.36795ZM19.328 11.7501C19.328 12.0337 19.125 12.2737 18.8461 12.3206L17.5543 12.5359C17.3159 12.5756 17.1237 12.7437 17.0521 12.9749C16.9374 13.3467 16.7798 13.7268 16.584 14.104C16.4732 14.3167 16.4909 14.5702 16.6301 14.7652L17.3913 15.8342C17.5555 16.0649 17.5291 16.3781 17.3285 16.5787L16.1564 17.7507C16.0449 17.8623 15.9039 17.9213 15.7487 17.9213C15.6263 17.9213 15.5108 17.8847 15.4129 17.8142L14.3484 17.0534C14.1526 16.9129 13.8981 16.8952 13.6844 17.007C13.3264 17.1944 12.946 17.352 12.5537 17.4752C12.3248 17.5469 12.1577 17.7385 12.1179 17.9744L11.8985 19.2676C11.8516 19.5473 11.6116 19.7502 11.3278 19.7502H9.66809C9.38428 19.7502 9.14441 19.5473 9.09756 19.2684L8.88226 17.9766C8.84289 17.7397 8.67627 17.5478 8.44739 17.4755C8.06073 17.3534 7.69253 17.202 7.35272 17.0255C7.2601 16.9774 7.15985 16.9538 7.06006 16.9538C6.93097 16.9538 6.80249 16.9934 6.69247 17.0717L5.60895 17.8429C5.51129 17.9132 5.40021 17.9488 5.27875 17.9488C5.12357 17.9488 4.98257 17.8899 4.87103 17.7782L3.69687 16.6042C3.49652 16.4058 3.47104 16.0936 3.63446 15.864L4.39114 14.8114C4.53351 14.6138 4.5509 14.3575 4.43616 14.1419C4.24374 13.781 4.08429 13.4026 3.96207 13.017C3.88974 12.7896 3.69885 12.6235 3.46387 12.5833L2.15436 12.3601C1.87482 12.3131 1.67187 12.0731 1.67187 11.7894V10.1335C1.67187 9.84988 1.87482 9.60986 2.15482 9.56287L3.43076 9.34756C3.66925 9.30743 3.86136 9.13882 3.93231 8.90689C4.0527 8.51291 4.20758 8.1319 4.39267 7.77484C4.50284 7.56259 4.48514 7.30975 4.34644 7.11459L3.57709 6.03366C3.41275 5.80295 3.43915 5.48984 3.63919 5.28979L4.81519 4.11777L4.81946 4.11334C4.9252 4.00577 5.06863 3.94656 5.22351 3.94656C5.34589 3.94656 5.46155 3.98318 5.55768 4.05246L6.61481 4.81342C6.81271 4.95593 7.06937 4.97302 7.28421 4.85828C7.64508 4.66586 8.0235 4.50641 8.40863 4.38434C8.63599 4.31216 8.80215 4.12158 8.84259 3.88599L9.06598 2.57648C9.11282 2.29694 9.35284 2.09399 9.63666 2.09399H11.2925C11.5762 2.09399 11.8162 2.29694 11.8632 2.57693L12.0785 3.85333C12.1188 4.09198 12.2877 4.28394 12.5198 4.35474C12.9155 4.47498 13.3101 4.63733 13.6929 4.83752C13.9056 4.94861 14.1591 4.93121 14.355 4.7919L15.4265 4.02881C15.524 3.95847 15.635 3.92291 15.7567 3.92291C15.9117 3.92291 16.0527 3.98181 16.1644 4.09351L17.3384 5.26752C17.5387 5.46588 17.5644 5.77808 17.3999 6.00894L16.6383 7.07446C16.4985 7.27039 16.4811 7.5246 16.5927 7.73761C16.7802 8.09558 16.9377 8.47598 17.061 8.86844C17.1328 9.09732 17.3243 9.26425 17.5602 9.30408L18.8524 9.52335L18.8534 9.5235C19.1322 9.57034 19.3319 9.80685 19.328 10.0859V11.7501Z" fill="white"/>
<path id="Vector_2" d="M10.4999 7.03357C8.35571 7.03357 6.61133 8.77795 6.61133 10.9221C6.61133 13.0663 8.35571 14.8107 10.4999 14.8107C12.644 14.8107 14.3884 13.0663 14.3884 10.9221C14.3884 8.77795 12.644 7.03357 10.4999 7.03357ZM10.4999 13.6388C9.00192 13.6388 7.7832 12.4201 7.7832 10.9221C7.7832 9.42416 9.00192 8.20544 10.4999 8.20544C11.9978 8.20544 13.2166 9.42416 13.2166 10.9221C13.2166 12.4201 11.9978 13.6388 10.4999 13.6388Z" fill="white"/>
</g>
<defs>
<clipPath id="clip0_210_218">
<rect width="20" height="20" fill="white" transform="translate(0.5 0.922119)"/>
</clipPath>
</defs>
</svg>
