<svg width="22" height="23" viewBox="0 0 22 23" fill="none" xmlns="http://www.w3.org/2000/svg">
<g id="flippers (1) 1" clip-path="url(#clip0_210_185)">
<g id="Group">
<path id="Vector" d="M21.9803 20.6173L18.2844 5.65245C18.2951 5.01163 18.4052 3.78834 18.3686 3.14902C18.3686 1.92114 17.3696 0.922119 16.1417 0.922119H14.3227C13.0948 0.922119 12.0958 1.92114 12.0958 3.14907C12.0695 3.788 12.1517 5.10216 12.1991 5.74878L10.8145 11.3552L9.77746 7.15622C9.78812 6.5154 9.89823 5.2921 9.86159 4.65279C9.86159 3.42486 8.86257 2.42584 7.63464 2.42584H5.81568C4.58775 2.42584 3.58874 3.42486 3.58874 4.65279C3.56244 5.29168 3.64472 6.60584 3.69207 7.25246L0.0199567 22.121C-0.0446193 22.3824 0.0587968 22.6574 0.281268 22.8091C0.503568 22.9606 0.795513 22.9592 1.01541 22.8034C1.08565 22.7547 2.75492 21.626 4.49379 22.8085C4.69602 22.9482 4.97508 22.9578 5.18561 22.8295C5.19282 22.8252 5.91669 22.4044 6.74664 22.4044C7.35838 22.4044 7.9121 22.6329 8.16319 22.7543C8.38102 22.9553 8.7497 22.9786 8.99946 22.8085C10.7383 21.6261 12.4076 22.7547 12.4751 22.8014C12.6949 22.9571 12.9881 22.9598 13.2106 22.8081C13.4331 22.6564 13.5378 22.3824 13.4732 22.121L13.2983 21.4126C13.4355 21.4272 13.5764 21.3951 13.6948 21.3244C13.7018 21.3201 14.4242 20.9007 15.2536 20.9007C15.8653 20.9007 16.4191 21.1292 16.6702 21.2505C16.888 21.4516 17.2567 21.4749 17.5064 21.3047C19.2453 20.1223 20.9146 21.251 20.9821 21.2977C21.2019 21.4534 21.4951 21.456 21.7176 21.3043C21.9401 21.1527 22.0449 20.8787 21.9803 20.6173ZM15.2537 19.6118C14.8247 19.6118 14.4232 19.6868 14.0824 19.7841L14.6855 11.6243C15.0493 11.6578 15.415 11.6578 15.7788 11.6243L16.381 19.772C16.0497 19.6807 15.6644 19.6118 15.2537 19.6118ZM16.6964 10.1294C15.7402 10.4369 14.7242 10.4369 13.7679 10.1294L13.4298 4.78894H17.0345L16.6964 10.1294ZM13.3847 3.14907C13.3847 2.63186 13.8055 2.21106 14.3227 2.21106H16.1417C16.6589 2.21106 17.0797 2.63186 17.0797 3.14907V3.5H13.3847V3.14907ZM12.47 10.0278L12.5081 10.6299C12.5236 10.8756 12.6778 11.0909 12.9053 11.1848C13.0724 11.2538 13.2415 11.3147 13.412 11.3684L12.8144 19.4533L11.4783 14.0432L12.47 10.0278ZM6.74664 21.1155C6.31773 21.1155 5.91622 21.1906 5.57543 21.2878L6.17852 13.1281C6.54235 13.1616 6.90798 13.1616 7.27176 13.1281L7.87399 21.2758C7.54269 21.1845 7.15739 21.1155 6.74664 21.1155ZM8.1894 11.6332C7.23318 11.9406 6.21715 11.9406 5.26092 11.6332L4.92279 6.29271H8.52753L8.1894 11.6332ZM4.87768 4.65283C4.87768 4.13562 5.29847 3.71483 5.81568 3.71483H7.63464C8.15185 3.71483 8.57264 4.13562 8.57264 4.65283V5.00377H4.87768V4.65283ZM1.79913 21.1001C1.72604 21.1171 1.65507 21.1355 1.58624 21.1549L3.96296 11.5314L4.00111 12.1337C4.01662 12.3794 4.17078 12.5946 4.39828 12.6886C4.56541 12.7576 4.73452 12.8185 4.905 12.8722L4.28541 21.2547C3.4989 20.9559 2.65511 20.9008 1.79913 21.1001ZM11.6941 21.1001C10.8231 20.8973 9.96436 20.9573 9.16603 21.2702L8.54532 12.8722C8.7158 12.8185 8.88491 12.7576 9.05204 12.6886C9.27954 12.5946 9.4337 12.3794 9.44921 12.1337L9.49613 11.3929L11.9071 21.1549C11.8382 21.1355 11.7672 21.1171 11.6941 21.1001ZM20.2011 19.5963C19.3301 19.3935 18.4714 19.4535 17.673 19.7664L17.0523 11.3684C17.2228 11.3147 17.3919 11.2538 17.5591 11.1848C17.7866 11.0909 17.9407 10.8756 17.9562 10.6299L18.0031 9.88916L20.4141 19.6511C20.3452 19.6317 20.2742 19.6134 20.2011 19.5963Z" fill="white"/>
</g>
</g>
<defs>
<clipPath id="clip0_210_185">
<rect width="22" height="22" fill="white" transform="translate(0 0.922119)"/>
</clipPath>
</defs>
</svg>
