<svg width="23" height="24" viewBox="0 0 23 24" fill="none" xmlns="http://www.w3.org/2000/svg">
<g id="presentation 1" clip-path="url(#clip0_211_231)">
<g id="Group">
<g id="Group_2">
<path id="Vector" d="M4.60029 0.422119C2.69786 0.422523 1.15039 1.96999 1.15039 3.87242C1.15039 5.77485 2.69786 7.32196 4.60029 7.32196C6.50272 7.32196 8.05019 5.77449 8.05019 3.87206C8.05019 1.96959 6.50272 0.422119 4.60029 0.422119ZM4.60029 6.17235C3.32998 6.17235 2.30036 5.14273 2.30036 3.87242C2.30036 2.60211 3.32998 1.57249 4.60029 1.57249C5.8706 1.57249 6.90022 2.60211 6.90022 3.87242C6.90022 5.14273 5.87064 6.17235 4.60029 6.17235Z" fill="white"/>
</g>
</g>
<g id="Group_3">
<g id="Group_4">
<path id="Vector_2" d="M21.8498 6.17188H10.3502C9.71498 6.17188 9.2002 6.68666 9.2002 7.32184V8.20004L10.3502 8.77502V7.32184H21.8498V16.5212H10.3502V15.1542L9.2002 14.8671V16.5212C9.2002 17.1563 9.71498 17.6711 10.3502 17.6711H15.085L12.1571 22.5504C11.9931 22.8222 12.082 23.176 12.3549 23.3389C12.6244 23.5042 12.9794 23.4152 13.1434 23.1412L15.525 19.1715V22.8456C15.525 23.1634 15.7822 23.4206 16.1 23.4206C16.4178 23.4206 16.675 23.1634 16.675 22.8456V19.1715L19.0569 23.1408C19.1647 23.3206 19.3555 23.4202 19.5499 23.4202C19.6511 23.4202 19.7531 23.3946 19.8454 23.3382C20.1184 23.1753 20.2069 22.8215 20.0432 22.5497L17.1154 17.6704H21.8498C22.485 17.6704 22.9997 17.1556 22.9997 16.5204V7.32184C22.9998 6.68666 22.485 6.17188 21.8498 6.17188Z" fill="white"/>
</g>
</g>
<g id="Group_5">
<g id="Group_6">
<path id="Vector_3" d="M20.102 9.46355C20.0153 9.15804 19.6975 8.97827 19.3913 9.0695L12.2956 11.0969C12.2128 11.0168 12.12 10.9466 12.0142 10.8934L7.41437 8.59343C7.25454 8.5137 7.07859 8.47192 6.89994 8.47192H2.30007C1.74427 8.47192 1.26816 8.86943 1.16852 9.41606L0.0185555 15.7405C-0.0424017 16.0759 0.0484726 16.4212 0.266966 16.683C0.48546 16.9448 0.808978 17.0963 1.15015 17.0963H1.88496L2.30393 22.3619C2.35146 22.9599 2.85017 23.4207 3.45008 23.4207H5.75002C6.33609 23.4207 6.82829 22.9802 6.89306 22.398L7.89776 13.3565L11.2212 14.1872C11.3132 14.2102 11.4067 14.2213 11.4998 14.2213C11.7536 14.2213 12.0031 14.1373 12.2075 13.9779C12.4865 13.7602 12.6498 13.4255 12.6498 13.0713V12.1909L19.7079 10.1742C20.0134 10.0876 20.1897 9.76865 20.102 9.46355ZM11.4998 13.0717L6.89994 11.9218L5.74997 22.2711H3.45004L2.94711 15.9463H1.1501L2.30007 9.62189H4.02502V13.1201C4.02502 13.4378 4.28224 13.6951 4.6 13.6951C4.91777 13.6951 5.17499 13.4378 5.17499 13.1201V9.62185H6.89994L11.4998 11.9218V13.0717Z" fill="white"/>
</g>
</g>
</g>
<defs>
<clipPath id="clip0_211_231">
<rect width="23" height="23" fill="white" transform="translate(0 0.422119)"/>
</clipPath>
</defs>
</svg>
