<svg width="23" height="24" viewBox="0 0 23 24" fill="none" xmlns="http://www.w3.org/2000/svg">
<g id="online-education 1">
<g id="Layer_15">
<path id="Vector" d="M11.1626 19.8931H3.62289C2.77477 19.8931 2.08477 19.2031 2.08477 18.355V8.85094H20.9088V11.5915C20.9088 11.9488 21.1985 12.2384 21.5557 12.2384C21.9129 12.2384 22.2026 11.9488 22.2026 11.5915V5.48216C22.2026 3.92463 20.9347 2.65747 19.3772 2.65747H3.6157C2.05817 2.65747 0.791016 3.92463 0.791016 5.48216V18.355C0.791016 19.9161 2.06177 21.1868 3.62289 21.1868H11.1626C11.5198 21.1868 11.8095 20.8972 11.8095 20.54C11.8095 20.1828 11.5198 19.8931 11.1626 19.8931ZM3.6157 3.95122H19.3779C20.2224 3.95122 20.9088 4.63835 20.9088 5.48216V7.55719H2.08477V5.48216C2.08477 4.63763 2.77117 3.95122 3.6157 3.95122Z" fill="white"/>
<path id="Vector_2" d="M4.5253 6.36979C4.86814 6.36979 5.1463 6.09164 5.1463 5.74879C5.1463 5.40595 4.86814 5.12708 4.5253 5.12708C4.18245 5.12708 3.9043 5.40523 3.9043 5.74808C3.9043 6.09092 4.18173 6.36979 4.5253 6.36979Z" fill="white"/>
<path id="Vector_3" d="M6.71377 6.36979C7.05662 6.36979 7.33477 6.09164 7.33477 5.74879C7.33477 5.40595 7.05662 5.12708 6.71377 5.12708C6.37093 5.12708 6.09277 5.40523 6.09277 5.74808C6.09277 6.09092 6.37021 6.36979 6.71377 6.36979Z" fill="white"/>
<path id="Vector_4" d="M8.90323 6.36981C9.24607 6.36981 9.52423 6.09165 9.52423 5.74881C9.52423 5.40596 9.24607 5.12781 8.90323 5.12781C8.56038 5.12781 8.28223 5.40596 8.28223 5.74881C8.28223 6.09165 8.55966 6.36981 8.90323 6.36981Z" fill="white"/>
<path id="Vector_5" d="M21.7616 14.2891L17.4491 11.7835C16.9848 11.5132 16.407 11.5132 15.9419 11.7835L11.6294 14.2891C11.3527 14.4493 11.1816 14.7476 11.1816 15.0667C11.1816 15.3859 11.3527 15.6842 11.6294 15.8452L12.7737 16.51V18.4995C12.7737 19.0256 13.0576 19.5165 13.514 19.7796L15.3137 20.8167C15.74 21.0626 16.2179 21.1855 16.6959 21.1855C17.1731 21.1855 17.6511 21.0626 18.0773 20.8167L19.8785 19.7789C20.3342 19.5158 20.6174 19.0256 20.6174 18.4995V16.51L21.7616 15.8452C22.0384 15.6849 22.2094 15.3866 22.2094 15.0675C22.2094 14.7483 22.0384 14.4501 21.7616 14.2891ZM16.5924 12.9026C16.6571 12.8652 16.7354 12.8652 16.7987 12.9026L20.5261 15.0675L16.7987 17.2323C16.7354 17.2697 16.6571 17.269 16.5924 17.2323L12.8657 15.0675L16.5924 12.9026ZM19.3236 18.4995C19.3236 18.5649 19.2884 18.626 19.2324 18.6583L17.4319 19.6955C16.9755 19.9571 16.4134 19.9564 15.9599 19.6955L14.1601 18.6583C14.1034 18.6253 14.0681 18.5649 14.0681 18.4995V17.2625L15.9419 18.3514C16.1748 18.4866 16.4357 18.5541 16.6959 18.5541C16.9561 18.5541 17.217 18.4866 17.4491 18.3514L19.3229 17.2625L19.3236 18.4995Z" fill="white"/>
</g>
</g>
</svg>
