<svg width="21" height="22" viewBox="0 0 21 22" fill="none" xmlns="http://www.w3.org/2000/svg">
<g id="document (1) 1" clip-path="url(#clip0_211_256)">
<g id="Group">
<path id="Vector" d="M19.5454 1.8418H1.45462C0.652585 1.8418 0 2.49438 0 3.29642V15.5699C0 16.372 0.652585 17.0246 1.45462 17.0246H12.0036L11.6851 18.9671C11.6252 19.3327 11.7461 19.664 12.0087 19.853C12.2712 20.042 12.6235 20.0522 12.9514 19.8794L15.2273 18.6814C15.2908 18.6488 15.4658 18.6488 15.5293 18.6814L17.8052 19.8794C17.9609 19.9613 18.1222 20.0021 18.2767 20.0021C18.4476 20.0021 18.6102 19.9522 18.748 19.8529C19.0105 19.6639 19.1314 19.3326 19.0716 18.9669L18.7532 17.0245H19.5455C20.3475 17.0245 21.0001 16.3719 21.0001 15.5698V3.29642C21 2.4943 20.3474 1.8418 19.5454 1.8418ZM15.3783 14.5312C13.9805 14.5312 12.8431 13.3939 12.8431 11.9961C12.8431 10.5982 13.9805 9.46085 15.3783 9.46085C16.7762 9.46085 17.9135 10.5982 17.9135 11.9961C17.9135 13.3939 16.7762 14.5312 15.3783 14.5312ZM16.1101 17.5781C15.6861 17.3549 15.0705 17.3549 14.6466 17.5781L13.0376 18.4251L13.5491 15.3048C14.0916 15.6059 14.7152 15.778 15.3784 15.778C16.0417 15.778 16.6651 15.6058 17.2078 15.3048L17.4071 16.5213C17.4076 16.5232 17.4078 16.5254 17.4082 16.5274L17.7193 18.4251L16.1101 17.5781ZM19.7532 15.5699C19.7532 15.6826 19.658 15.7777 19.5454 15.7777H18.5487L18.321 14.3889C18.3201 14.3834 18.3186 14.3781 18.3175 14.3727C18.8441 13.7228 19.1604 12.8958 19.1604 11.9961C19.1604 9.91062 17.4639 8.21404 15.3784 8.21404C13.293 8.21404 11.5964 9.91062 11.5964 11.9961C11.5964 12.8958 11.9128 13.7226 12.4393 14.3727C12.4383 14.3781 12.4368 14.3834 12.4359 14.3888L12.208 15.7788C12.201 15.7786 12.1943 15.7777 12.1873 15.7777H1.45462C1.34199 15.7777 1.24682 15.6826 1.24682 15.5699V3.29642C1.24682 3.18379 1.34199 3.08862 1.45462 3.08862H19.5454C19.658 3.08862 19.7532 3.18379 19.7532 3.29642V15.5699Z" fill="white"/>
<path id="Vector_2" d="M17.3409 5.42944H3.21032C2.86595 5.42944 2.58691 5.70848 2.58691 6.05285C2.58691 6.39722 2.86595 6.67626 3.21032 6.67626H17.3409C17.6853 6.67626 17.9643 6.39722 17.9643 6.05285C17.9643 5.70848 17.6853 5.42944 17.3409 5.42944Z" fill="white"/>
<path id="Vector_3" d="M9.19505 8.80981H3.21032C2.86595 8.80981 2.58691 9.08885 2.58691 9.43322C2.58691 9.7776 2.86595 10.0566 3.21032 10.0566H9.19505C9.53942 10.0566 9.81846 9.7776 9.81846 9.43322C9.81846 9.08885 9.53942 8.80981 9.19505 8.80981Z" fill="white"/>
</g>
</g>
<defs>
<clipPath id="clip0_211_256">
<rect width="21" height="21" fill="white" transform="translate(0 0.422119)"/>
</clipPath>
</defs>
</svg>
