<svg width="25" height="26" viewBox="0 0 25 26" fill="none" xmlns="http://www.w3.org/2000/svg">
<g id="camera 1">
<path id="Vector" d="M21.011 5.89087H17.7905L17.4155 4.719C17.2348 4.14998 16.8863 3.65488 16.4197 3.3042C15.9531 2.95352 15.3921 2.76513 14.8168 2.76587H10.1833C9.60803 2.76541 9.04732 2.95392 8.58088 3.30458C8.11445 3.65523 7.76605 4.15018 7.58525 4.719L7.2095 5.89087H3.989C3.26282 5.8917 2.5666 6.19256 2.05311 6.72745C1.53962 7.26233 1.25079 7.98756 1.25 8.744V20.2284C1.25159 20.9843 1.54077 21.7087 2.05417 22.2429C2.56757 22.7771 3.26333 23.0775 3.989 23.0784H21.014C21.7397 23.0767 22.4351 22.7755 22.948 22.2407C23.4608 21.7059 23.7492 20.9811 23.75 20.2252V8.74087C23.7484 7.98497 23.4592 7.26055 22.9458 6.72634C22.4324 6.19213 21.7367 5.8917 21.011 5.89087ZM22.25 20.2252C22.2496 20.5674 22.1189 20.8954 21.8867 21.1374C21.6544 21.3793 21.3395 21.5155 21.011 21.5159H3.989C3.66052 21.5155 3.3456 21.3793 3.11333 21.1374C2.88106 20.8954 2.7504 20.5674 2.75 20.2252V8.74087C2.75119 8.39925 2.8822 8.07201 3.11439 7.83074C3.34658 7.58946 3.66104 7.45378 3.989 7.45337H7.75025C7.9076 7.45325 8.06092 7.40158 8.18852 7.30568C8.31612 7.20977 8.41153 7.0745 8.46125 6.919L9.008 5.2104C9.0901 4.95341 9.24783 4.72988 9.45879 4.57156C9.66975 4.41323 9.92323 4.32814 10.1833 4.32837H14.8168C15.0769 4.32808 15.3305 4.41323 15.5415 4.57172C15.7525 4.73022 15.9101 4.95398 15.992 5.21118L16.5387 6.919C16.5885 7.0745 16.6839 7.20977 16.8115 7.30568C16.9391 7.40158 17.0924 7.45325 17.2498 7.45337H21.011C21.3395 7.45378 21.6544 7.58989 21.8867 7.83184C22.1189 8.07379 22.2496 8.40183 22.25 8.744V20.2252Z" fill="white"/>
<path id="Vector_2" d="M12.5 8.23462C11.3875 8.23462 10.2999 8.57827 9.37492 9.2221C8.44989 9.86594 7.72892 10.781 7.30318 11.8517C6.87744 12.9224 6.76604 14.1005 6.98309 15.2371C7.20013 16.3737 7.73586 17.4177 8.52253 18.2372C9.3092 19.0566 10.3115 19.6147 11.4026 19.8408C12.4938 20.0669 13.6248 19.9508 14.6526 19.5074C15.6804 19.0639 16.5589 18.3129 17.177 17.3493C17.7951 16.3857 18.125 15.2529 18.125 14.094C18.1234 12.5405 17.5303 11.0511 16.4757 9.95262C15.4212 8.85413 13.9914 8.23627 12.5 8.23462ZM12.5 18.3909C11.6842 18.3909 10.8866 18.1389 10.2083 17.6667C9.52992 17.1946 9.00121 16.5235 8.689 15.7383C8.37679 14.9532 8.2951 14.0892 8.45426 13.2557C8.61343 12.4222 9.00629 11.6566 9.58319 11.0556C10.1601 10.4547 10.8951 10.0455 11.6953 9.87968C12.4954 9.71389 13.3248 9.79898 14.0786 10.1242C14.8323 10.4494 15.4766 11.0002 15.9298 11.7068C16.3831 12.4134 16.625 13.2442 16.625 14.094C16.6238 15.2332 16.1888 16.3254 15.4155 17.131C14.6422 17.9365 13.5937 18.3896 12.5 18.3909Z" fill="white"/>
<path id="Vector_3" d="M20 10.5784C20.4142 10.5784 20.75 10.2286 20.75 9.79712C20.75 9.36565 20.4142 9.01587 20 9.01587C19.5858 9.01587 19.25 9.36565 19.25 9.79712C19.25 10.2286 19.5858 10.5784 20 10.5784Z" fill="white"/>
</g>
</svg>
