<svg width="23" height="23" viewBox="0 0 23 23" fill="none" xmlns="http://www.w3.org/2000/svg">
<g id="cave 1" clip-path="url(#clip0_210_221)">
<path id="Vector" d="M22.4865 20.916L20.304 10.322C20.2615 10.1156 20.1222 9.94231 19.9298 9.85633L17.8611 8.93181L16.7406 4.52495C16.6896 4.32407 16.5464 4.15924 16.3547 4.08057L11.7486 2.19037C11.5894 2.12502 11.4107 2.12502 11.2515 2.19037L6.64542 4.08057C6.45365 4.15924 6.31048 4.32407 6.25943 4.52495L5.13902 8.93181L3.07025 9.85633C2.87788 9.94231 2.73862 10.1156 2.69613 10.322L0.51349 20.916C0.473744 21.1088 0.522857 21.3092 0.647208 21.4618C0.77156 21.6144 0.957958 21.7029 1.15475 21.7029H21.8452C22.042 21.7029 22.2284 21.6144 22.3528 21.4618C22.4771 21.3092 22.5262 21.1088 22.4865 20.916ZM8.01449 20.3934L8.74418 15.2009L11.5 13.1852L14.2558 15.2009L14.9855 20.3934H8.01449ZM16.3079 20.3934L15.5141 14.7446C15.4894 14.5694 15.395 14.4117 15.2522 14.3072L11.8866 11.8456C11.6564 11.6772 11.3437 11.6772 11.1135 11.8456L7.74782 14.3072C7.60508 14.4117 7.51059 14.5694 7.48597 14.7446L6.69213 20.3934H1.95818L3.91085 10.9149L4.69602 10.5641L4.452 11.4508C4.35609 11.7995 4.56097 12.1599 4.90961 12.2558C4.96775 12.2718 5.02619 12.2795 5.08372 12.2795C5.3711 12.2795 5.63467 12.0888 5.71467 11.7983L7.4473 5.16699L11.5 3.50388L15.5527 5.16699L16.3482 8.29609L14.6748 7.60382C14.3406 7.46559 13.9577 7.62441 13.8195 7.95857C13.6813 8.2927 13.8401 8.67563 14.1742 8.81391L19.0891 10.9149L21.0418 20.3934H16.3079V20.3934Z" fill="white"/>
</g>
<defs>
<clipPath id="clip0_210_221">
<rect width="22" height="22" fill="white" transform="translate(0.5 0.922119)"/>
</clipPath>
</defs>
</svg>
