<svg width="23" height="23" viewBox="0 0 23 23" fill="none" xmlns="http://www.w3.org/2000/svg">
<g id="agenda 1" clip-path="url(#clip0_210_127)">
<g id="Group">
<g id="Group_2">
<path id="Vector" d="M18.0665 0.28418H12.0428H5.68376C4.15391 0.286995 2.91243 1.52265 2.90234 3.0525V19.5157C2.91243 21.0456 4.15391 22.2812 5.68376 22.284H18.0744C18.4146 22.2891 18.7427 22.1581 18.9858 21.92C19.2178 21.6817 19.3475 21.3621 19.3472 21.0295V1.56489C19.3458 0.858141 18.7733 0.28562 18.0665 0.28418ZM12.5718 1.33179H15.6492V6.2451L14.557 4.50344C14.5128 4.42971 14.4511 4.36797 14.3774 4.32377C14.1293 4.17495 13.8075 4.25535 13.6587 4.50344L12.5718 6.23724V1.33179ZM3.96305 3.0525C3.96737 2.10395 4.73521 1.33611 5.68376 1.33179H11.5242V6.67462C11.5045 7.09988 11.7715 7.48586 12.1763 7.61747C12.6373 7.75628 13.0511 7.45771 13.2973 7.06485L14.1118 5.75534L14.9263 7.06485C15.1699 7.45247 15.5837 7.75104 16.0577 7.61747C16.4607 7.48639 16.7272 7.10322 16.7099 6.67986V1.34489H18.0744C18.1953 1.34633 18.293 1.44395 18.2944 1.56489V16.7549C18.2217 16.7426 18.1481 16.7365 18.0744 16.7369H5.68376C5.05892 16.7367 4.45242 16.9482 3.96305 17.3367V3.0525ZM18.2944 18.9972L6.21804 19.0103C5.92877 19.0103 5.69423 19.2448 5.69423 19.5341C5.69423 19.8233 5.92877 20.0579 6.21804 20.0579L18.2944 20.0448V21.0191C18.2949 21.0777 18.2724 21.1342 18.2315 21.1762C18.1895 21.217 18.133 21.2396 18.0744 21.2391H5.68376C4.73272 21.2391 3.96174 20.4681 3.96174 19.517C3.96174 18.566 4.73272 17.795 5.68376 17.795H18.0744C18.1953 17.7965 18.293 17.8941 18.2944 18.015V18.9972Z" fill="white"/>
</g>
</g>
</g>
<defs>
<clipPath id="clip0_210_127">
<rect width="22" height="22" fill="white" transform="translate(0.125 0.28418)"/>
</clipPath>
</defs>
</svg>
