<svg width="28" height="28" viewBox="0 0 28 28" fill="none" xmlns="http://www.w3.org/2000/svg">
<g id="oxygen-tank 1" clip-path="url(#clip0_210_122)">
<path id="Vector" d="M26.5089 15.5436V7.08943C26.5089 4.85131 24.6881 3.03054 22.45 3.03054H20.5709C20.4269 2.24942 19.741 1.65533 18.9186 1.65533C18.0963 1.65533 17.4106 2.24921 17.2664 3.03054H16.6123C16.3211 3.03054 16.085 3.26661 16.085 3.55788C16.085 3.84916 16.3211 4.08523 16.6123 4.08523H17.4151C17.6137 4.48217 17.9649 4.78972 18.3913 4.93103V5.6104C16.5347 5.84832 15.0604 7.3224 14.8227 9.17902H13.5014C13.2635 7.3224 11.7892 5.84832 9.93261 5.6104V4.93124C10.359 4.78993 10.7102 4.48217 10.9088 4.08523H11.7116C12.0028 4.08523 12.2389 3.84916 12.2389 3.55788C12.2389 3.26661 12.0028 3.03054 11.7116 3.03054H11.0575C10.9135 2.24942 10.2278 1.65533 9.40548 1.65533C8.58315 1.65533 7.8972 2.24921 7.75321 3.03054H5.87393C3.63603 3.03054 1.81526 4.85131 1.81526 7.08922V15.5434C1.14619 15.7652 0.662109 16.3964 0.662109 17.1388C0.662109 18.0653 1.41604 18.8193 2.3426 18.8193C3.26915 18.8193 4.02309 18.0653 4.02309 17.1388C4.02309 16.3964 3.53901 15.7652 2.86994 15.5436V7.08943C2.86994 5.43304 4.21755 4.08523 5.87393 4.08523H7.90193C8.10051 4.48217 8.45152 4.78993 8.87813 4.93124V5.60998C8.5607 5.65077 8.24965 5.72802 7.94849 5.84234C7.67617 5.94555 7.53939 6.25021 7.64259 6.52233C7.746 6.79465 8.05025 6.93163 8.32278 6.82843C8.66885 6.69701 9.03325 6.63027 9.40527 6.63027C11.1016 6.63027 12.4816 8.01021 12.4816 9.70636V15.4583H6.32918V9.70636C6.32918 9.49851 6.3504 9.29046 6.39201 9.08838C6.45092 8.80308 6.26738 8.52417 5.98208 8.46546C5.69719 8.40654 5.41807 8.59008 5.35916 8.87538C5.30313 9.1475 5.2747 9.42703 5.2747 9.70636V24.4447C5.2747 25.2543 5.93326 25.9131 6.74302 25.9131H12.0679C12.8777 25.9131 13.5363 25.2543 13.5363 24.4447V23.733H14.7879V24.4447C14.7879 25.2543 15.4466 25.9131 16.2562 25.9131H21.5811C22.3909 25.9131 23.0496 25.2543 23.0496 24.4447V9.70636C23.0496 7.6075 21.4756 5.87036 19.4462 5.6104V4.93124C19.8726 4.78993 20.2236 4.48217 20.4224 4.08523H22.4502C24.1066 4.08523 25.4542 5.43304 25.4542 7.08943V15.5436C24.7853 15.7652 24.301 16.3964 24.301 17.1388C24.301 18.0653 25.055 18.8193 25.9815 18.8193C26.9083 18.8193 27.6622 18.0653 27.6622 17.1388C27.662 16.3964 27.1779 15.7652 26.5089 15.5436ZM2.3426 17.7646C1.99756 17.7646 1.71679 17.4838 1.71679 17.1388C1.71679 16.7937 1.99715 16.5132 2.34219 16.513H2.3426H2.34301C2.68784 16.5132 2.96841 16.794 2.96841 17.1388C2.96841 17.4838 2.68764 17.7646 2.3426 17.7646ZM9.40548 2.71002C9.75051 2.71002 10.0313 2.99079 10.0313 3.33582C10.0313 3.68086 9.75072 3.96142 9.40589 3.96163C9.40568 3.96163 9.40548 3.96163 9.40527 3.96163C9.40506 3.96163 9.40506 3.96163 9.40486 3.96163C9.06003 3.96142 8.77946 3.68086 8.77946 3.33582C8.77967 2.99079 9.06023 2.71002 9.40548 2.71002ZM18.9186 2.71002C19.2639 2.71002 19.5444 2.99079 19.5444 3.33582C19.5444 3.68086 19.2641 3.96142 18.9193 3.96163C18.919 3.96163 18.9188 3.96163 18.9186 3.96163C18.9184 3.96163 18.9182 3.96163 18.9182 3.96163C18.5734 3.96142 18.2928 3.68086 18.2928 3.33582C18.2928 2.99079 18.5736 2.71002 18.9186 2.71002ZM21.9949 17.7646H15.8425V16.513H21.9949V17.7646ZM13.5363 12.54H14.7879V20.3723H13.5363V12.54ZM14.7879 11.4853H13.5363V10.2337H14.7879V11.4853ZM12.4816 16.513V17.7646H6.32918V16.513H12.4816ZM12.4816 24.4447C12.4816 24.6728 12.296 24.8584 12.0679 24.8584H6.74302C6.51498 24.8584 6.32918 24.6728 6.32918 24.4447V18.8193H12.4816V24.4447ZM13.5363 22.6783V21.4269H14.7879V22.6783H13.5363ZM21.5811 24.8584H16.2562C16.0281 24.8584 15.8425 24.6728 15.8425 24.4447V18.8193H21.9949V24.4447C21.9949 24.6728 21.8093 24.8584 21.5811 24.8584ZM21.9949 9.70636V15.4583H15.8425V9.70636C15.8425 9.70615 15.8425 9.70595 15.8425 9.70574C15.843 8.0098 17.2227 6.63027 18.9186 6.63027C20.6148 6.63027 21.9949 8.01021 21.9949 9.70636ZM25.9815 17.7646C25.6365 17.7646 25.3557 17.4838 25.3557 17.1388C25.3557 16.7937 25.6361 16.5132 25.9809 16.513H25.9815H25.9819C26.3268 16.5132 26.6073 16.7937 26.6073 17.1388C26.6073 17.4838 26.3266 17.7646 25.9815 17.7646Z" fill="white"/>
<path id="Vector_2" d="M6.12733 8.12429C6.21818 8.18609 6.32117 8.21575 6.42335 8.21575C6.59205 8.21575 6.75788 8.135 6.85984 7.98504L6.87303 7.96568C7.03885 7.72611 6.97891 7.39776 6.73934 7.23193C6.49977 7.06631 6.17142 7.12626 6.00559 7.36562L5.98788 7.39178C5.82411 7.63259 5.88632 7.96053 6.12733 8.12429Z" fill="white"/>
<path id="Vector_3" d="M20.9403 23.2763H18.7764C18.4853 23.2763 18.249 23.5124 18.249 23.8036C18.249 24.0947 18.4853 24.331 18.7764 24.331H20.9403C21.2316 24.331 21.4677 24.0947 21.4677 23.8036C21.4677 23.5124 21.2316 23.2763 20.9403 23.2763Z" fill="white"/>
<path id="Vector_4" d="M17.2614 23.2763H17.249C16.9577 23.2763 16.7217 23.5124 16.7217 23.8036C16.7217 24.0949 16.9577 24.331 17.249 24.331H17.2614C17.5527 24.331 17.7887 24.0949 17.7887 23.8036C17.7887 23.5124 17.5527 23.2763 17.2614 23.2763Z" fill="white"/>
</g>
<defs>
<clipPath id="clip0_210_122">
<rect width="27" height="27" fill="white" transform="translate(0.662109 0.28418)"/>
</clipPath>
</defs>
</svg>
