<svg width="28" height="28" viewBox="0 0 28 28" fill="none" xmlns="http://www.w3.org/2000/svg">
<g id="snorkel 1" clip-path="url(#clip0_210_115)">
<g id="Group">
<g id="bc96400e-baf7-4999-b676-f0815b715619">
<g id="a592e6e8-8975-4972-85b3-c72f74b13de6">
<path id="Vector" d="M25.7683 0.28418H22.5868C22.2956 0.28418 22.0595 0.520282 22.0595 0.811511V5.24121C21.1863 4.86731 20.2461 4.67532 19.2962 4.67697H8.50989C4.64395 4.67688 1.50985 7.81075 1.50977 11.6767C1.50977 11.7098 1.50999 11.743 1.51048 11.7761C1.56321 15.5877 4.7009 18.6742 8.50989 18.6742H8.54841C10.5533 18.6622 12.4569 17.7918 13.7775 16.2833C13.8387 16.2141 13.9443 16.2076 14.0135 16.2688C14.0186 16.2733 14.0235 16.2781 14.028 16.2833C15.3484 17.7919 17.2519 18.6623 19.2566 18.6742H19.2952C20.246 18.6748 21.1867 18.4799 22.059 18.1016V19.9795C22.0566 21.1509 21.1063 22.0994 19.9348 22.0993H17.4036C17.0462 21.3856 16.3165 20.9348 15.5183 20.9344H12.3211C11.5229 20.9347 10.7932 21.3856 10.4358 22.0993H7.5064C7.21518 22.0993 6.97907 22.3355 6.97907 22.6267V25.8039C6.97907 26.0951 7.21518 26.3312 7.5064 26.3312H10.5565C10.9465 26.926 11.6098 27.2843 12.321 27.2841H15.5199C16.2305 27.2837 16.8932 26.9255 17.2828 26.3312H20.4675C23.6843 26.3312 26.2972 23.7193 26.2972 20.5088V0.811511C26.2972 0.520282 26.0611 0.28418 25.7699 0.28418C25.7693 0.28418 25.7688 0.28418 25.7683 0.28418ZM23.1142 1.33889H25.2409V7.97498C24.6966 7.10706 23.9711 6.36704 23.1142 5.8055V1.33889ZM19.2646 17.6195C17.5619 17.6092 15.9453 16.8699 14.8238 15.5888C14.3787 15.0811 13.6065 15.0304 13.0988 15.4754C13.0586 15.5107 13.0207 15.5485 12.9855 15.5888C11.8641 16.8701 10.2474 17.6094 8.54472 17.6195H8.51203C5.27572 17.6195 2.61156 14.9971 2.56518 11.7613C2.51743 8.47841 5.13996 5.77845 8.42283 5.7307C8.45188 5.73025 8.48089 5.73008 8.50994 5.73008H19.2962C22.5794 5.72972 25.2413 8.39099 25.2416 11.6742C25.2416 11.7033 25.2414 11.7323 25.241 11.7613C25.1951 14.9982 22.5315 17.6196 19.2962 17.6196L19.2646 17.6195ZM25.2409 15.3594V19.4521H23.1142V17.5326C23.9721 16.9707 24.6977 16.2292 25.2409 15.3594ZM20.69 23.0654C21.0617 22.9748 21.4139 22.8173 21.7293 22.6008L23.401 24.2699C22.6231 24.8769 21.6757 25.2271 20.69 25.2718V23.0654ZM8.03369 25.2803V23.154H10.2116V25.1748V25.2766L8.03369 25.2803ZM16.573 25.1748C16.573 25.7573 16.1008 26.2295 15.5183 26.2295H12.321C11.7385 26.2295 11.2663 25.7573 11.2663 25.1748V23.0438C11.2663 22.4613 11.7385 21.9891 12.321 21.9891H15.5199C16.1024 21.9891 16.5746 22.4613 16.5746 23.0438L16.573 25.1748ZM17.6277 25.1748V23.154H19.6353V25.2766H17.625C17.6266 25.2428 17.6277 25.2091 17.6277 25.1748ZM24.1562 23.5311L22.4898 21.8668C22.788 21.4657 22.9868 20.9996 23.0698 20.5067H25.2409C25.2424 21.6104 24.8588 22.6799 24.1562 23.5311Z" fill="white"/>
<path id="Vector_2" d="M14.9794 23.5822H12.8584C12.5672 23.5822 12.3311 23.8183 12.3311 24.1095C12.3311 24.4008 12.5672 24.6369 12.8584 24.6369H14.9794C15.2706 24.6369 15.5067 24.4008 15.5067 24.1095C15.5067 23.8183 15.2706 23.5822 14.9794 23.5822Z" fill="white"/>
<path id="Vector_3" d="M19.3996 7.22144H8.40655C5.947 7.22144 3.95312 9.21531 3.95312 11.6749C3.95312 14.1344 5.947 16.1283 8.40655 16.1283C9.66586 16.1283 11.0037 15.1327 11.9809 14.4055C12.1131 14.307 12.2378 14.2149 12.3553 14.1291C13.275 13.4446 14.5343 13.4426 15.4561 14.1244C15.6 14.2267 15.7545 14.3411 15.9207 14.4645C16.9195 15.206 18.163 16.1283 19.4011 16.1283C21.8607 16.1283 23.8546 14.1344 23.8546 11.6749C23.8546 9.21531 21.8607 7.22144 19.4011 7.22144H19.3996ZM19.3996 15.0736C18.5115 15.0736 17.3772 14.2298 16.5493 13.6176C16.3827 13.4942 16.2255 13.3776 16.0773 13.2716C14.7844 12.3177 13.0198 12.3209 11.7304 13.2795C11.6123 13.3655 11.4852 13.4599 11.3513 13.5595C10.4928 14.1982 9.31626 15.0735 8.40659 15.0735C6.52955 15.0732 5.00814 13.5512 5.0085 11.6742C5.00885 9.79759 6.53004 8.27641 8.40659 8.2761H19.3996C21.2766 8.27645 22.798 9.79839 22.7977 11.6754C22.7973 13.552 21.2761 15.0732 19.3996 15.0736Z" fill="white"/>
</g>
</g>
</g>
</g>
<defs>
<clipPath id="clip0_210_115">
<rect width="27" height="27" fill="white" transform="translate(0.40332 0.28418)"/>
</clipPath>
</defs>
</svg>
