<svg width="23" height="23" viewBox="0 0 23 23" fill="none" xmlns="http://www.w3.org/2000/svg">
<g id="lifebuoy 1" clip-path="url(#clip0_210_146)">
<path id="Vector" d="M22.5 11.9109C22.5035 8.97356 21.3624 6.21333 19.2868 4.13863C17.2144 2.06698 14.4586 0.926758 11.5249 0.926758H11.5115C8.57362 0.930238 5.81026 2.07703 3.73053 4.15595C3.72026 4.16617 3.71042 4.1767 3.70019 4.18701C3.69766 4.18946 3.69495 4.19152 3.69246 4.19402C3.68838 4.1981 3.68494 4.20252 3.68098 4.20669C1.63288 6.27972 0.503445 9.02074 0.500008 11.9338C0.496528 14.8601 1.6294 17.6104 3.69018 19.6824C3.69207 19.6844 3.69362 19.6864 3.69551 19.6884C3.69667 19.6895 3.69796 19.6905 3.69912 19.6916C3.70384 19.6964 3.7084 19.7013 3.71317 19.706C5.78564 21.7776 8.54144 22.9179 11.4751 22.9179C11.4794 22.9179 11.4842 22.9179 11.4885 22.9178C14.4028 22.9144 17.1449 21.7854 19.2188 19.7381C19.2229 19.7342 19.2274 19.7307 19.2314 19.7267C19.2339 19.7242 19.236 19.7215 19.2384 19.719C19.2487 19.7088 19.2592 19.6989 19.2695 19.6887C21.3493 17.6098 22.4965 14.8476 22.5 11.9109ZM18.7633 18.3486L16.1381 15.7245C17.9085 13.5322 17.9136 10.3786 16.1537 8.1807L18.8163 5.51917C20.3684 7.28738 21.2151 9.53245 21.2123 11.9093C21.2094 14.3055 20.3437 16.5697 18.7633 18.3486ZM8.09203 15.2937C6.24356 13.446 6.24356 10.4395 8.09203 8.59178C9.01629 7.66795 10.2303 7.206 11.4443 7.206C12.6583 7.206 13.8724 7.66795 14.7966 8.59178C16.6451 10.4395 16.6451 13.4459 14.7966 15.2937C12.9482 17.1414 9.94046 17.1414 8.09203 15.2937ZM11.513 2.21397H11.5249C13.8983 2.21397 16.1398 3.06003 17.9058 4.60896L15.2474 7.26632C14.1755 6.392 12.8466 5.91655 11.4444 5.91655C10.0507 5.91655 8.72938 6.38641 7.66092 7.25064L5.07115 4.66195C6.85075 3.08224 9.11593 2.21681 11.513 2.21397ZM4.1652 5.57675L6.75054 8.16102C4.9749 10.3597 4.9749 13.5257 6.75054 15.7244L4.16713 18.3068C2.6255 16.5414 1.78495 14.3038 1.78774 11.9354C1.79053 9.57542 2.63005 7.34315 4.1652 5.57675ZM11.4869 21.6306C11.483 21.6307 11.4791 21.6307 11.4751 21.6307C9.09324 21.6307 6.84434 20.7785 5.07554 19.2191L7.66088 16.6348C8.72934 17.4991 10.0506 17.9689 11.4443 17.9689C12.838 17.9689 14.1593 17.4991 15.2278 16.6348L17.8481 19.2541C16.081 20.7887 13.8479 21.6279 11.4869 21.6306Z" fill="white"/>
</g>
<defs>
<clipPath id="clip0_210_146">
<rect width="22" height="22" fill="white" transform="translate(0.5 0.922119)"/>
</clipPath>
</defs>
</svg>
