<svg width="26" height="25" viewBox="0 0 26 25" fill="none" xmlns="http://www.w3.org/2000/svg">
<g id="little-kid 1" clip-path="url(#clip0_210_195)">
<g id="Group">
<path id="Vector" d="M13 23.2915C9.37604 23.2915 6.075 21.5425 4.16146 18.6132C4.15 18.5993 4.13958 18.5854 4.13125 18.5724C3.89479 18.2095 3.67604 17.8118 3.4625 17.3604C2.87813 16.0807 2.58333 14.7334 2.58333 13.3483C2.56771 13.2856 2.0625 10.0551 2.0625 8.3767C2.0625 3.57712 6.53229 2.98948 7.57604 2.91789C8.13333 2.4436 10.15 0.919312 13 0.919312C17.5417 0.919312 23.9375 3.23309 23.9375 8.3767C23.9375 10.0243 23.4323 13.2837 23.4115 13.4209C23.4167 14.7284 23.1229 16.0797 22.5417 17.3633C22.3094 17.8516 22.0552 18.298 21.7812 18.7007C21.7615 18.7295 21.7385 18.7574 21.7125 18.7812C19.8583 21.5773 16.5792 23.2915 13 23.2915ZM4.99583 18.0176C5.00729 18.0315 5.01771 18.0445 5.02604 18.0584C6.74583 20.7122 9.72604 22.2972 13 22.2972C16.2208 22.2972 19.1719 20.755 20.8937 18.1727C20.9146 18.1429 20.9375 18.1131 20.9646 18.0882C21.1521 17.7989 21.3813 17.3962 21.5885 16.9606C22.1094 15.8112 22.375 14.5922 22.375 13.3483C22.3854 13.2429 22.8958 9.9517 22.8958 8.3767C22.8958 3.91917 17.1094 1.91363 13 1.91363C10.124 1.91363 8.17917 3.7382 8.16042 3.7571C8.0625 3.84957 7.93021 3.90127 7.79271 3.90227C7.60104 3.90326 3.10417 3.97187 3.10417 8.3767C3.10417 9.98153 3.61458 13.2419 3.61979 13.2747C3.625 14.5952 3.89062 15.8102 4.41562 16.9577C4.6 17.3514 4.79167 17.7004 4.99583 18.0176Z" fill="white"/>
</g>
<g id="Group_2">
<path id="Vector_2" d="M22.6749 15.834C22.4489 15.834 22.2405 15.6918 22.1749 15.4741L20.9405 11.3576C13.4051 11.2979 10.353 9.50617 9.13845 8.25433C8.35199 10.1833 5.9447 11.0245 5.08636 11.2681L3.82595 15.4731C3.74678 15.7386 3.4572 15.8917 3.1822 15.8141C2.90616 15.7386 2.74574 15.4631 2.82491 15.1996L4.16657 10.7252C4.21761 10.5522 4.36449 10.419 4.54782 10.3782C4.58636 10.3692 8.34886 9.49225 8.34886 6.94382C8.34886 6.69225 8.54574 6.48046 8.8072 6.45063C9.0697 6.41384 9.3124 6.58089 9.37595 6.82549C9.38428 6.85234 10.5614 10.3653 21.3332 10.3653C21.5655 10.3653 21.7697 10.5114 21.8332 10.7252L23.1749 15.1996C23.2541 15.4641 23.0937 15.7386 22.8176 15.8141C22.7707 15.828 22.7218 15.834 22.6749 15.834Z" fill="white"/>
</g>
<g id="Group_3">
<path id="Vector_3" d="M22.8748 16.3312C22.754 16.3312 22.6321 16.3203 22.5113 16.3104C22.2248 16.2835 22.0154 16.0399 22.0435 15.7665C22.0717 15.494 22.3227 15.3061 22.6123 15.32C22.6998 15.328 22.7873 15.3369 22.8748 15.3369C23.7363 15.3369 24.4373 14.6677 24.4373 13.8454C24.4373 13.0878 23.8467 12.4504 23.0633 12.3599C22.7779 12.3281 22.5738 12.0805 22.6081 11.8071C22.6425 11.5356 22.904 11.3338 23.1873 11.3726C24.4935 11.5217 25.479 12.5856 25.479 13.8445C25.479 15.2166 24.3102 16.3312 22.8748 16.3312Z" fill="white"/>
</g>
<g id="Group_4">
<path id="Vector_4" d="M3.10417 16.3312C1.66875 16.3312 0.5 15.2165 0.5 13.8454C0.5 12.5746 1.49687 11.5107 2.81771 11.3725C3.11146 11.3486 3.36042 11.5395 3.39271 11.812C3.425 12.0844 3.21771 12.33 2.93229 12.3608C2.15208 12.4424 1.54167 13.0947 1.54167 13.8454C1.54167 14.6677 2.24271 15.3368 3.10417 15.3368C3.1875 15.3368 3.26563 15.3299 3.33229 15.317C3.6125 15.2553 3.88958 15.4353 3.94688 15.7037C4.00521 15.9732 3.82292 16.2347 3.54167 16.2904C3.40625 16.3172 3.25833 16.3312 3.10417 16.3312Z" fill="white"/>
</g>
<g id="Group_5">
<path id="Vector_5" d="M8.83301 15.3368C7.97155 15.3368 7.27051 14.6677 7.27051 13.8454C7.27051 13.0231 7.97155 12.3539 8.83301 12.3539C9.69447 12.3539 10.3955 13.0231 10.3955 13.8454C10.3955 14.6677 9.69447 15.3368 8.83301 15.3368ZM8.83301 13.3482C8.54551 13.3482 8.31217 13.5719 8.31217 13.8454C8.31217 14.1188 8.54551 14.3425 8.83301 14.3425C9.12051 14.3425 9.35384 14.1188 9.35384 13.8454C9.35384 13.5719 9.12051 13.3482 8.83301 13.3482Z" fill="white"/>
</g>
<g id="Group_6">
<path id="Vector_6" d="M17.167 15.3368C16.3055 15.3368 15.6045 14.6677 15.6045 13.8454C15.6045 13.0231 16.3055 12.3539 17.167 12.3539C18.0285 12.3539 18.7295 13.0231 18.7295 13.8454C18.7295 14.6677 18.0285 15.3368 17.167 15.3368ZM17.167 13.3482C16.8795 13.3482 16.6462 13.5719 16.6462 13.8454C16.6462 14.1188 16.8795 14.3425 17.167 14.3425C17.4545 14.3425 17.6878 14.1188 17.6878 13.8454C17.6878 13.5719 17.4545 13.3482 17.167 13.3482Z" fill="white"/>
</g>
<g id="Group_7">
<path id="Vector_7" d="M12.9996 19.3371C11.9329 19.3371 10.8652 18.9493 10.0527 18.1737C9.84961 17.9798 9.84961 17.6646 10.0527 17.4707C10.2559 17.2768 10.5861 17.2768 10.7892 17.4707C12.0079 18.6341 13.9902 18.6341 15.209 17.4707C15.4121 17.2768 15.7423 17.2768 15.9454 17.4707C16.1486 17.6646 16.1486 17.9798 15.9454 18.1737C15.134 18.9503 14.0663 19.3371 12.9996 19.3371Z" fill="white"/>
</g>
</g>
<defs>
<clipPath id="clip0_210_195">
<rect width="25" height="23.8636" fill="white" transform="translate(0.5 0.422119)"/>
</clipPath>
</defs>
</svg>
