<svg width="25" height="26" viewBox="0 0 25 26" fill="none" xmlns="http://www.w3.org/2000/svg">
<g id="diving 1" clip-path="url(#clip0_210_223)">
<path id="Vector" d="M6.24932 4.71899H15.0519C15.3216 4.71899 15.5402 4.50041 15.5402 4.23071C15.5402 3.9612 15.3216 3.74243 15.0519 3.74243H6.24932C4.60042 3.74243 3.25879 5.08406 3.25879 6.73315V8.6302C3.25879 11.3253 5.45148 13.518 8.14656 13.518C9.69323 13.518 11.1649 12.7735 12.0835 11.5267C12.1861 11.3873 12.3454 11.3074 12.5205 11.3074C12.6954 11.3074 12.8547 11.3873 12.9573 11.5267C13.8759 12.7735 15.3476 13.518 16.8942 13.518C19.5893 13.518 21.782 11.3253 21.782 8.6302V6.73315C21.782 5.93436 21.4709 5.18324 20.906 4.61848C20.3412 4.05352 19.5903 3.74243 18.7913 3.74243H18.7705C18.5008 3.74243 18.2822 3.9612 18.2822 4.23071V4.23739C18.2822 4.50709 18.5008 4.72567 18.7705 4.72567C18.7964 4.72567 18.8218 4.72376 18.8468 4.71976C19.3639 4.73368 19.8481 4.94158 20.2155 5.30894C20.5958 5.68926 20.8053 6.19509 20.8053 6.73315V8.6302C20.8053 10.7868 19.0507 12.5414 16.8942 12.5414C15.6566 12.5414 14.4788 11.9456 13.7437 10.9474C13.4549 10.5555 13.009 10.3306 12.5203 10.3306C12.0316 10.3306 11.5859 10.5555 11.2971 10.9474C10.5618 11.9456 9.38405 12.5414 8.14656 12.5414C5.98992 12.5414 4.23535 10.7868 4.23535 8.6302V6.73315C4.23535 5.62251 5.13886 4.71899 6.24932 4.71899Z" fill="white"/>
<path id="Vector_2" d="M10.4658 19.5334C10.1961 19.5334 9.97754 19.752 9.97754 20.0217C9.97754 20.2914 10.1961 20.51 10.4658 20.51H14.5758C14.8455 20.51 15.0641 20.2914 15.0641 20.0217C15.0641 19.752 14.8455 19.5334 14.5758 19.5334H10.4658Z" fill="white"/>
<path id="Vector_3" d="M11.6729 18.8464H13.3691C13.6386 18.8464 13.8573 18.6279 13.8573 18.3582C13.8573 18.0886 13.6386 17.8699 13.3691 17.8699H11.6729C11.4032 17.8699 11.1846 18.0886 11.1846 18.3582C11.1846 18.6279 11.4032 18.8464 11.6729 18.8464Z" fill="white"/>
<path id="Vector_4" d="M13.3691 21.2134H11.6729C11.4032 21.2134 11.1846 21.4322 11.1846 21.7017C11.1846 21.9714 11.4032 22.1899 11.6729 22.1899H13.3691C13.6386 22.1899 13.8573 21.9714 13.8573 21.7017C13.8573 21.4322 13.6386 21.2134 13.3691 21.2134Z" fill="white"/>
<path id="Vector_5" d="M24.5117 5.08101H23.7206C23.4165 4.13515 22.834 3.28581 22.0524 2.66001C21.1546 1.94113 20.0254 1.54517 18.8734 1.54517H6.16817C5.01575 1.54517 3.8866 1.94113 2.98882 2.66001C2.20699 3.28581 1.62468 4.13515 1.32065 5.08101H0.488281C0.218582 5.08101 0 5.29978 0 5.56929V9.89974C0 10.1692 0.218582 10.388 0.488281 10.388H1.2888C1.49479 11.2005 1.84631 11.9606 2.33688 12.6517C2.4929 12.8716 2.7977 12.9233 3.01762 12.7671C3.23753 12.611 3.28922 12.3062 3.1332 12.0863C2.76165 11.5629 2.48299 10.9936 2.30122 10.3878C2.3035 10.3878 2.3056 10.3874 2.3077 10.3874C2.32201 10.3871 2.33631 10.3863 2.35043 10.3848C2.35176 10.3846 2.35329 10.3844 2.35481 10.3842C2.36969 10.3823 2.38419 10.38 2.39868 10.3771C2.39944 10.377 2.40002 10.3766 2.40078 10.3766C2.62012 10.3287 2.78454 10.1334 2.78454 9.89974V5.56929C2.78454 5.32725 2.59781 5.11496 2.3571 5.08482C2.62089 4.43919 3.04909 3.86259 3.59917 3.42219C4.33502 2.8332 5.22346 2.52173 6.16817 2.52173H18.8732C19.8179 2.52173 20.7062 2.8332 21.442 3.42219C21.991 3.86183 22.4186 4.43728 22.6826 5.08158C22.4257 5.09264 22.2155 5.31161 22.2155 5.56929V9.89974C22.2155 10.1692 22.434 10.388 22.7037 10.388H22.7394C22.0041 12.8378 19.7298 14.5603 17.1221 14.5603H14.6107C14.4356 14.5603 14.2668 14.5678 14.1222 14.4486C13.7482 14.1386 13.1664 13.7692 12.5204 13.7692C11.8755 13.7692 11.2936 14.1384 10.9192 14.4482C10.7744 14.5676 10.606 14.5603 10.4307 14.5603H7.91893C7.19719 14.5603 6.49223 14.4306 5.82352 14.1747C5.57156 14.0785 5.28946 14.2044 5.19295 14.4564C5.09663 14.7082 5.2227 14.9904 5.47447 15.087C6.25496 15.3855 7.07741 15.5369 7.91893 15.5369H9.94263V16.6952C9.36928 17.1332 8.90999 17.7134 8.61797 18.3827H6.86836V18.1294C6.86836 17.6525 6.4806 17.2646 6.00376 17.2646H4.50687C4.25797 17.2646 4.04911 17.4519 4.02164 17.6991L3.53241 22.1121C3.51696 22.25 3.56121 22.3881 3.65391 22.4915C3.74641 22.595 3.87878 22.6542 4.01764 22.6542H6.00376C6.4806 22.6542 6.86836 22.2662 6.86836 21.7894V21.6774H8.57639C9.20963 23.2344 10.7389 24.3351 12.5208 24.3351C14.3024 24.3351 15.8318 23.2344 16.465 21.6774H18.2125V21.7894C18.2125 22.2662 18.6003 22.6542 19.0771 22.6542H21.0632C21.2021 22.6542 21.3345 22.595 21.427 22.4915C21.5197 22.3881 21.5639 22.25 21.5487 22.1121L21.0592 17.6991C21.0318 17.4519 20.8227 17.2646 20.574 17.2646H19.0771C18.6003 17.2646 18.2125 17.6525 18.2125 18.1294V18.3827H16.4236C16.1316 17.7134 15.6725 17.1332 15.099 16.6952V15.5369H17.1221C20.2625 15.5369 22.9881 13.3948 23.7522 10.388H24.5117C24.7814 10.388 25 10.1692 25 9.89974V5.56929C25 5.29978 24.7814 5.08101 24.5117 5.08101ZM0.976562 6.05757H1.68953C1.68991 6.05757 1.6901 6.05776 1.69048 6.05776H1.80779V9.41126H1.67961C1.67885 9.41126 1.67789 9.41145 1.67713 9.41145H0.976562V6.05757ZM5.8918 21.6776H4.56295L4.94404 18.2411H5.8918V21.6776ZM8.30994 20.7009H6.86836V19.359H8.32558C8.32424 19.3667 8.32348 19.3745 8.32214 19.3819C8.31394 19.4315 8.30631 19.4813 8.29983 19.5315C8.25024 19.9192 8.25329 20.3141 8.30994 20.7009ZM20.1368 18.2411L20.5179 21.6776H19.1891V21.1937C19.1891 21.1922 19.1893 21.1907 19.1893 21.1891V18.8708C19.1893 18.8692 19.1891 18.8677 19.1891 18.8662V18.2411H20.1368ZM16.7162 19.3592H18.2125V20.7009H16.7315C16.7965 20.2568 16.7917 19.8015 16.7162 19.3592ZM15.6483 19.0922C15.8329 19.6757 15.8484 20.3091 15.6958 20.9017C15.3297 22.3131 14.0451 23.3586 12.5208 23.3586C10.9964 23.3586 9.71184 22.3131 9.34582 20.9017C9.16214 20.1884 9.22413 19.4199 9.52435 18.7472C9.77001 18.1967 10.1686 17.7185 10.6649 17.3765C11.2114 17 11.8732 16.7929 12.5378 16.8001C13.2246 16.8074 13.8954 17.0235 14.4506 17.4292C14.95 17.7939 15.3423 18.2986 15.5704 18.8734C15.5989 18.9453 15.625 19.0184 15.6483 19.0922ZM13.9658 16.0757C13.1958 15.7978 12.3495 15.7479 11.5522 15.9344C11.3369 15.9847 11.1242 16.0515 10.9192 16.1349C10.9192 15.9333 10.9192 15.7316 10.9192 15.53C10.9192 15.4997 10.9241 15.4978 10.9541 15.49C10.9821 15.4827 11.0113 15.4799 11.0392 15.4715C11.3512 15.3792 11.6907 15.0709 11.895 14.9515C12.0672 14.8508 12.2606 14.7646 12.4619 14.7482C12.6518 14.7328 12.841 14.7963 13.0098 14.8785C13.1245 14.9342 13.5834 15.3052 13.9828 15.4654C14.0177 15.4795 14.0715 15.4787 14.1047 15.4955C14.1277 15.5071 14.1224 15.5842 14.1224 15.6208V15.8289V16.135C14.0707 16.1139 14.0182 16.0946 13.9658 16.0757ZM24.0234 9.41145H23.3641C23.3631 9.41145 23.3624 9.41126 23.3614 9.41126H23.192V6.05757H23.3507H23.3515H24.0234V9.41145Z" fill="white"/>
<path id="Vector_6" d="M3.59449 13.9776C3.70989 14.1492 3.92675 14.2318 4.12703 14.1779C4.32158 14.1254 4.46577 13.9547 4.48656 13.7544C4.50716 13.5549 4.39577 13.3569 4.21629 13.2686C4.03013 13.1773 3.80201 13.2152 3.65496 13.3613C3.49207 13.5238 3.46746 13.7869 3.59449 13.9776Z" fill="white"/>
<path id="Vector_7" d="M16.5212 4.50165C16.6351 4.67083 16.8474 4.75418 17.046 4.70421C17.2415 4.65481 17.3883 4.48639 17.4124 4.2865C17.4364 4.08432 17.3256 3.88252 17.1432 3.79307C16.9576 3.7019 16.7288 3.73928 16.5823 3.88538C16.4192 4.04789 16.3938 4.31015 16.5212 4.50165Z" fill="white"/>
</g>
<defs>
<clipPath id="clip0_210_223">
<rect width="25" height="25" fill="white" transform="translate(0 0.422119)"/>
</clipPath>
</defs>
</svg>
