<svg width="36" height="36" viewBox="0 0 36 36" fill="none" xmlns="http://www.w3.org/2000/svg">
<g id="loading (4) 1">
<g id="Group">
<path id="Vector" d="M12.6966 10.5762C13.2825 11.1621 13.2825 12.1113 12.6966 12.6973C12.4037 12.9903 12.0198 13.1369 11.6361 13.1369C11.2524 13.1369 10.8685 12.9903 10.5756 12.6973L6.3327 8.4537C5.7468 7.8678 5.7468 6.9186 6.3327 6.33255C6.9186 5.7465 7.8678 5.74665 8.45385 6.33255L12.6966 10.5762ZM27.5464 6.33255L23.3036 10.5762C22.7176 11.1621 22.7176 12.1113 23.3036 12.6973C23.5965 12.9903 23.9804 13.1369 24.3641 13.1369C24.7478 13.1369 25.1316 12.9903 25.4245 12.6973L29.6674 8.4537C30.2533 7.8678 30.2533 6.9186 29.6674 6.33255C29.0815 5.7465 28.1325 5.74665 27.5464 6.33255ZM10.5 18C10.5 17.1709 9.8283 16.5 9 16.5H3C2.1717 16.5 1.5 17.1709 1.5 18C1.5 18.8291 2.1717 19.5 3 19.5H9C9.8283 19.5 10.5 18.8291 10.5 18ZM10.5754 23.3028L6.33255 27.5464C5.74665 28.1323 5.74665 29.0816 6.33255 29.6676C6.6255 29.9606 7.00935 30.1071 7.39305 30.1071C7.77675 30.1071 8.1606 29.9606 8.45355 29.6676L12.6965 25.424C13.2824 24.8381 13.2824 23.8888 12.6965 23.3028C12.1105 22.7168 11.1615 22.7169 10.5754 23.3028ZM18 1.5C17.1717 1.5 16.5 2.17095 16.5 3V9C16.5 9.82905 17.1717 10.5 18 10.5C18.8283 10.5 19.5 9.82905 19.5 9V3C19.5 2.17095 18.8283 1.5 18 1.5Z" fill="#FD0207"/>
<path id="Vector_2" opacity="0.3" d="M29.6674 27.5464C30.2533 28.1323 30.2533 29.0816 29.6674 29.6676C29.3745 29.9606 28.9907 30.1071 28.607 30.1071C28.2233 30.1071 27.8394 29.9606 27.5464 29.6676L23.3035 25.424C22.7176 24.8381 22.7176 23.8889 23.3035 23.3028C23.8894 22.7168 24.8387 22.7169 25.4247 23.3028L29.6674 27.5464ZM33 16.5H27C26.1717 16.5 25.5 17.171 25.5 18C25.5 18.8291 26.1717 19.5 27 19.5H33C33.8283 19.5 34.5 18.8291 34.5 18C34.5 17.171 33.8283 16.5 33 16.5ZM18 25.5C17.1717 25.5 16.5 26.1709 16.5 27V33C16.5 33.8291 17.1717 34.5 18 34.5C18.8283 34.5 19.5 33.8291 19.5 33V27C19.5 26.1709 18.8283 25.5 18 25.5Z" fill="#FD0207"/>
</g>
</g>
</svg>
