<svg width="21" height="21" viewBox="0 0 21 21" fill="none" xmlns="http://www.w3.org/2000/svg">
<g id="plus (5) 1" clip-path="url(#clip0_162_1292)">
<g id="Group">
<g id="Group_2">
<path id="Vector" d="M19.8809 9.50293H11.4434V1.06543C11.4434 0.633945 11.0936 0.28418 10.6621 0.28418C10.2306 0.28418 9.88086 0.633945 9.88086 1.06543V9.50293H1.44336C1.01188 9.50293 0.662109 9.8527 0.662109 10.2842C0.662109 10.7157 1.01188 11.0654 1.44336 11.0654H9.88086V19.5029C9.88086 19.9344 10.2306 20.2842 10.6621 20.2842C11.0936 20.2842 11.4434 19.9344 11.4434 19.5029V11.0654H19.8809C20.3123 11.0654 20.6621 10.7157 20.6621 10.2842C20.6621 9.8527 20.3123 9.50293 19.8809 9.50293Z" fill="#FFFFFF"/>
</g>
</g>
</g>
<defs>
<clipPath id="clip0_162_1292">
<rect width="20" height="20" fill="white" transform="translate(0.662109 0.28418)"/>
</clipPath>
</defs>
</svg>
