<svg width="25" height="26" viewBox="0 0 25 26" fill="none" xmlns="http://www.w3.org/2000/svg">
<g id="rocket 1" clip-path="url(#clip0_210_85)">
<g id="Layer_11">
<path id="Vector" d="M6.88437 20.7425C5.59453 21.4831 4.14062 21.7487 3.27969 21.8441C3.375 20.9831 3.64062 19.5292 4.38047 18.2386C4.57422 17.9019 4.45781 17.4722 4.12109 17.2784C3.78125 17.0839 3.35391 17.2019 3.16094 17.5386C1.83594 19.8495 1.82031 22.4886 1.82031 22.6003C1.82031 22.9886 2.13516 23.3034 2.52344 23.3034C2.63516 23.3034 5.27422 23.2878 7.58516 21.9628C7.92187 21.7691 8.03828 21.3402 7.84453 21.0027C7.65234 20.6659 7.22344 20.5487 6.88437 20.7425Z" fill="white"/>
<path id="Vector_2" d="M24.1475 2.68234C24.1561 2.22062 23.9819 1.78781 23.6569 1.46359C23.3327 1.13937 22.8639 0.979218 22.4405 0.975311C20.4936 1.01203 15.242 1.57062 10.2733 6.03078C9.38733 5.68625 8.05218 5.17453 7.0389 5.305C5.54827 5.4964 3.34593 7.52453 1.1889 9.68859C0.902958 9.97531 0.788895 10.3816 0.884989 10.7753C0.980301 11.1706 1.26936 11.4808 1.65686 11.605L5.08655 12.7066C4.82796 13.1784 4.57327 13.6612 4.32718 14.1706C4.0178 14.8112 4.14905 15.5808 4.65374 16.0839L9.0389 20.4691C9.36077 20.7917 9.79202 20.962 10.2272 20.962C10.4733 20.962 10.7217 20.9081 10.953 20.7964C11.4623 20.5503 11.9451 20.2956 12.4155 20.0378L13.5178 23.4667C13.642 23.8542 13.9522 24.1433 14.3483 24.2394C14.4397 24.2612 14.5319 24.2722 14.6241 24.2722C14.9248 24.2722 15.2147 24.1542 15.435 23.9347C17.5991 21.7777 19.6272 19.5761 19.8178 18.0862C19.9498 17.0636 19.4366 15.7362 19.092 14.8503C23.5514 9.88156 24.1108 4.63 24.1475 2.68234ZM2.47483 10.3917C3.61936 9.25187 6.1053 6.84328 7.2178 6.70031C7.7139 6.63703 8.4928 6.87219 9.15062 7.11047C7.9889 8.31125 6.86077 9.75031 5.80921 11.462L2.47483 10.3917ZM10.3412 19.53C10.242 19.5784 10.1147 19.5566 10.0334 19.4753L5.64749 15.0894C5.56702 15.0089 5.54436 14.8823 5.59358 14.7816C11.0553 3.46828 19.8897 2.43078 22.4678 2.38234H22.4741C22.567 2.38234 22.628 2.42375 22.6639 2.45969C22.6936 2.48937 22.7444 2.555 22.7428 2.65656C22.6928 5.23469 21.6545 14.0691 10.3412 19.53ZM18.4233 17.9066C18.2803 19.0183 15.8717 21.505 14.7319 22.6487L13.66 19.3152C15.3733 18.2636 16.8123 17.1347 18.0131 15.973C18.2522 16.63 18.4873 17.4073 18.4233 17.9066Z" fill="white"/>
<path id="Vector_3" d="M18.85 10.4472C20 9.2964 20 7.42453 18.85 6.27375C17.7344 5.15969 15.7906 5.15969 14.6766 6.27375C14.1195 6.83078 13.8125 7.57219 13.8125 8.36047C13.8125 9.14875 14.1203 9.89015 14.6766 10.4472C15.2336 11.0042 15.975 11.3112 16.7633 11.3112C17.5516 11.3112 18.2922 11.0042 18.85 10.4472ZM17.8547 9.45265C17.2711 10.037 16.2531 10.037 15.6711 9.45265C15.3789 9.16125 15.218 8.77297 15.218 8.36047C15.218 7.94797 15.3789 7.56047 15.6711 7.26828C15.9625 6.97687 16.35 6.81594 16.7625 6.81594C17.1742 6.81594 17.5625 6.97687 17.8539 7.26828C18.457 7.87062 18.457 8.85031 17.8547 9.45265Z" fill="white"/>
</g>
</g>
<defs>
<clipPath id="clip0_210_85">
<rect width="25" height="25" fill="white" transform="translate(0 0.123749)"/>
</clipPath>
</defs>
</svg>
