<svg width="29" height="29" viewBox="0 0 29 29" fill="none" xmlns="http://www.w3.org/2000/svg">
  <g clip-path="url(#clip0_141_1637)">
    <path d="M15.1583 28.5H14.9013C14.8958 28.4945 14.8849 28.489 14.8794 28.4835C14.1576 28.325 13.824 27.9093 13.824 27.171V25.1804C13.3154 25.4757 12.8396 25.7492 12.3583 26.0281C12.0576 26.2031 11.7404 26.2906 11.3904 26.1976C10.9037 26.0664 10.6029 25.7492 10.5044 25.2625C10.4005 24.7429 10.6247 24.2671 11.0787 24.0046C11.9482 23.5015 12.8122 22.9984 13.6872 22.5007C13.7802 22.4625 13.8349 22.3695 13.824 22.271C13.8185 20.4226 13.8185 18.5742 13.8185 16.7312V16.5671C13.7693 16.5945 13.7474 16.6 13.731 16.6109C12.1068 17.5515 10.4826 18.4867 8.85834 19.4218C8.78725 19.4546 8.7435 19.5312 8.75443 19.6132C8.7599 20.5921 8.7599 21.5656 8.75443 22.539C8.75443 22.6375 8.7435 22.7359 8.73256 22.8343C8.67787 23.3648 8.15287 23.9226 7.39271 23.846C6.84037 23.7859 6.35365 23.2554 6.35365 22.6593V20.8765L6.28803 20.9148C5.70834 21.2484 5.12865 21.582 4.55443 21.9156C4.2974 22.0742 3.99662 22.1398 3.70131 22.1015C3.23647 22.0304 2.85365 21.6968 2.72787 21.2375C2.60209 20.7945 2.74975 20.2585 3.11068 20.007C3.4935 19.7445 3.90365 19.5257 4.30287 19.2906C4.58178 19.1265 4.86615 18.9625 5.16147 18.7929C4.6474 18.4976 4.14975 18.2132 3.65209 17.9234C3.17084 17.6445 2.91928 17.1304 3.02865 16.6601C3.231 15.7796 4.08959 15.4078 4.88256 15.8617C5.72475 16.3539 6.5724 16.8351 7.41459 17.3273C7.50209 17.3875 7.61693 17.3875 7.70443 17.3273C9.15365 16.4851 10.6029 15.6484 12.0576 14.8117C12.2216 14.7187 12.3802 14.6203 12.5552 14.5164L11.7787 14.0679C10.4005 13.275 9.0224 12.482 7.64975 11.6835C7.52397 11.607 7.44193 11.6125 7.31615 11.6835C6.49584 12.1648 5.67006 12.6406 4.84428 13.1164C4.57631 13.2804 4.25912 13.3351 3.95834 13.275C3.53725 13.1929 3.13803 12.821 3.05053 12.3945C2.94662 11.9132 3.06693 11.4867 3.46068 11.1859C3.73959 10.9726 4.05678 10.8195 4.35756 10.639C4.59818 10.4968 4.83334 10.3601 5.09037 10.2125C5.02475 10.1742 4.981 10.1468 4.93725 10.1195C4.40131 9.80776 3.86537 9.50151 3.32943 9.18433C2.78256 8.86714 2.56928 8.17261 2.84818 7.6312C3.1435 7.05151 3.81068 6.78355 4.39037 7.05151C4.72943 7.20464 5.04662 7.41245 5.36928 7.59839C5.69193 7.78433 6.02006 7.97573 6.36459 8.17261V6.28589C6.36459 5.5312 7.10287 4.96245 7.83021 5.14839C8.39896 5.29058 8.7599 5.76089 8.7599 6.37339V9.44683C8.75443 9.52886 8.79818 9.61089 8.88022 9.6437C10.2529 10.4312 11.6201 11.2187 12.9927 12.0117L13.8185 12.4875C13.824 12.4656 13.8294 12.4492 13.8294 12.4273V6.64136C13.824 6.58667 13.7966 6.54292 13.7529 6.51558C13.4466 6.32964 13.1294 6.15464 12.8177 5.97417C12.2052 5.6187 11.5927 5.27417 10.9966 4.90776C10.5865 4.6562 10.3951 4.10933 10.5208 3.66089C10.7451 2.85151 11.5544 2.50698 12.2927 2.91714C12.588 3.0812 12.8833 3.2562 13.1787 3.42573C13.3865 3.54605 13.5943 3.66089 13.824 3.79214V1.78511C13.824 1.16167 14.174 0.696826 14.7372 0.554639L14.9013 0.516357H15.1583C15.1747 0.527295 15.1912 0.532764 15.2076 0.538232C15.8146 0.642139 16.2138 1.10698 16.2138 1.72495V3.7812C16.2849 3.74292 16.3396 3.71558 16.3888 3.68823C16.8372 3.4312 17.2802 3.1687 17.7287 2.91167C18.0349 2.73667 18.3521 2.67105 18.6966 2.78042C19.1888 2.93355 19.4841 3.27808 19.5443 3.7812C19.6044 4.28433 19.4076 4.69995 18.9537 4.96792C18.0732 5.48198 17.1927 5.99058 16.3122 6.49917C16.2412 6.53198 16.2029 6.60308 16.2083 6.67417V12.2906C16.2083 12.3234 16.2138 12.3617 16.2193 12.4109L16.6787 12.1429C18.1662 11.2843 19.6537 10.4257 21.1466 9.56714C21.2505 9.51792 21.3107 9.41401 21.2943 9.29917C21.2888 8.33667 21.2888 7.37417 21.2943 6.41167C21.2943 6.2148 21.3271 6.01792 21.3927 5.83198C21.5841 5.32886 22.1638 5.03355 22.7052 5.13198C23.2302 5.22495 23.6513 5.68433 23.6677 6.22026C23.6841 6.78355 23.6787 7.35229 23.6787 7.92105V8.10151L23.8318 8.01401C24.3677 7.70776 24.8982 7.40151 25.4286 7.0898C25.6747 6.94214 25.9701 6.89292 26.2544 6.94214C26.7685 7.03511 27.1294 7.41245 27.2279 7.94292C27.3099 8.38042 27.0857 8.87808 26.6701 9.13511C26.331 9.34292 25.981 9.53433 25.6365 9.73667L24.8872 10.1742C24.9201 10.196 24.9365 10.207 24.9474 10.2179C25.4615 10.5132 25.9755 10.8031 26.4787 11.1093C26.8451 11.3226 27.0583 11.7328 27.0201 12.1539C26.9708 13.0781 26.0083 13.5867 25.2044 13.1273C24.3404 12.6296 23.4708 12.1265 22.6068 11.6234C22.5357 11.5687 22.4372 11.5687 22.3662 11.6179C21.0701 12.3726 19.7685 13.1273 18.4669 13.8765L17.3404 14.5273C17.663 14.7132 17.9638 14.8937 18.2646 15.0687C19.6044 15.8453 20.9443 16.6164 22.2896 17.3929C22.3607 17.4476 22.4591 17.4476 22.5302 17.3984C23.4435 16.8679 24.3568 16.3429 25.2755 15.8179C25.549 15.6593 25.8826 15.6265 26.1779 15.7304C26.6865 15.8945 26.9708 16.2609 27.0201 16.7804C27.0638 17.2507 26.8615 17.6226 26.4677 17.8796C26.1943 18.0546 25.9044 18.2078 25.6201 18.3773L24.8162 18.8421C24.8544 18.8695 24.8763 18.8859 24.8982 18.8968L26.6482 19.9031C27.0529 20.1382 27.2771 20.4937 27.2826 20.9585C27.2935 21.8664 26.3091 22.446 25.5052 22.0085C25.1333 21.8062 24.7669 21.582 24.4005 21.3687C24.1654 21.232 23.9302 21.1007 23.6841 20.9585V22.4406C23.6841 22.5554 23.6787 22.6703 23.6677 22.7796C23.6076 23.4085 23.0662 23.8679 22.4318 23.8515C21.8083 23.8351 21.2833 23.2773 21.2888 22.6812C21.2943 21.6859 21.2888 20.6906 21.2888 19.6953C21.2888 19.6296 21.2615 19.5695 21.2122 19.5312C20.9443 19.3671 20.6654 19.2085 20.3919 19.05C19.074 18.2898 17.7615 17.5296 16.4435 16.7695C16.3669 16.7257 16.2958 16.6875 16.2029 16.6382C16.2029 18.5523 16.2029 20.4335 16.2083 22.3203C16.2138 22.375 16.2466 22.4296 16.2958 22.457C16.6841 22.6867 17.0724 22.9109 17.4662 23.1351C17.9912 23.4414 18.5271 23.7367 19.0412 24.0648C19.5333 24.3765 19.6865 25.0164 19.4349 25.5523C19.1943 26.0718 18.5927 26.3617 18.0458 26.1812C17.7396 26.0773 17.4607 25.8968 17.1763 25.7382C16.8537 25.5632 16.5419 25.3718 16.2029 25.1804V27.2968C16.2029 27.6906 16.0497 28.0242 15.7216 28.2484C15.563 28.3632 15.3552 28.4179 15.1583 28.5Z" fill="#5B7DDE" />
  </g>
  <defs>
    <clipPath id="clip0_141_1637">
      <rect width="28" height="28" fill="white" transform="translate(0.988403 0.5)" />
    </clipPath>
  </defs>
</svg>
