<svg width="22" height="22" viewBox="0 0 22 22" fill="none" xmlns="http://www.w3.org/2000/svg">
  <path d="M11.001 0.000976562C17.0757 0.000976562 22 4.92523 22 11C22 17.0747 17.0757 21.999 11.001 21.999C9.05721 22.0021 7.14765 21.4877 5.46848 20.5086L0.0063682 21.999L1.49343 16.5347C0.513525 14.855 -0.0012788 12.9446 0.00196839 11C0.00196839 4.92523 4.92623 0.000976562 11.001 0.000976562ZM7.25252 5.83045L7.03254 5.83925C6.89012 5.84792 6.75094 5.88534 6.62337 5.94924C6.50406 6.01681 6.39514 6.10127 6.3 6.20002C6.16801 6.32431 6.09322 6.4321 6.01293 6.53659C5.6061 7.06553 5.38705 7.71493 5.39038 8.38222C5.39258 8.92117 5.53337 9.44583 5.75335 9.93638C6.20321 10.9285 6.94344 11.9789 7.92016 12.9523C8.15553 13.1866 8.38651 13.422 8.63509 13.6408C9.84871 14.7094 11.2949 15.4799 12.8587 15.8912L13.4835 15.9869C13.6869 15.9979 13.8904 15.9825 14.095 15.9726C14.4153 15.9561 14.7281 15.8694 15.0112 15.7186C15.1553 15.6444 15.2958 15.5636 15.4325 15.4766C15.4325 15.4766 15.4798 15.4458 15.57 15.3776C15.7185 15.2676 15.8097 15.1895 15.9329 15.0608C16.0242 14.9662 16.1034 14.8551 16.1639 14.7287C16.2497 14.5494 16.3355 14.2073 16.3707 13.9224C16.3971 13.7046 16.3894 13.5859 16.3861 13.5122C16.3817 13.3945 16.2838 13.2724 16.1771 13.2207L15.537 12.9336C15.537 12.9336 14.5801 12.5167 13.9949 12.2506C13.9337 12.2238 13.8681 12.2086 13.8013 12.2055C13.7261 12.1977 13.65 12.2062 13.5783 12.2303C13.5066 12.2544 13.4409 12.2936 13.3856 12.3452C13.3801 12.343 13.3064 12.4057 12.5111 13.3692C12.4655 13.4305 12.4026 13.4769 12.3305 13.5023C12.2585 13.5278 12.1804 13.5312 12.1064 13.5122C12.0347 13.4929 11.9645 13.4687 11.8963 13.4396C11.7599 13.3824 11.7126 13.3604 11.6191 13.3208C10.9879 13.0453 10.4034 12.6731 9.88678 12.2176C9.74819 12.0966 9.6195 11.9646 9.48751 11.837C9.0548 11.4226 8.67768 10.9538 8.36561 10.4423L8.30072 10.3378C8.25411 10.2676 8.21642 10.1919 8.18853 10.1124C8.14674 9.95068 8.25563 9.82089 8.25563 9.82089C8.25563 9.82089 8.5229 9.52832 8.64719 9.36993C8.76818 9.21595 8.87047 9.06636 8.93646 8.95967C9.06625 8.75069 9.10695 8.53621 9.03875 8.37012C8.73078 7.61779 8.41181 6.86876 8.08404 6.12523C8.01915 5.97784 7.82666 5.87225 7.65178 5.85135C7.59239 5.84475 7.53299 5.83815 7.4736 5.83375C7.32589 5.82641 7.17787 5.82788 7.03034 5.83815L7.25142 5.82935L7.25252 5.83045Z" fill="#08B419" />
</svg>
